<svg
    xmlns="http://www.w3.org/2000/svg"
    width="708"
    height="708"
    viewBox="0 0 708 708"
>
    <g>
        <path
            d="M 226.00,659.34 L 226.00,659.11 L 226.33,658.26 L 226.55,657.77 L 227.24,656.53 L 227.62,655.87 L 228.58,654.39 L 230.22,652.09 L 230.92,651.17 L 232.55,648.92 L 233.39,647.75 L 235.20,645.16 L 237.04,642.52 L 240.71,637.05 L 241.58,635.73 L 243.17,633.29 L 243.92,632.12 L 245.17,630.13 L 245.73,629.21 L 246.51,627.86 L 246.67,627.57 L 246.87,627.15 L 247.00,626.78 L 247.00,626.67 L 247.18,626.17 L 247.30,625.88 L 247.68,625.10 L 249.31,622.23 L 249.66,621.67 L 250.45,620.21 L 250.86,619.44 L 251.76,617.62 L 252.66,615.73 L 254.60,611.29 L 255.55,609.02 L 257.33,604.42 L 257.76,603.29 L 258.51,601.15 L 259.47,598.19 L 259.77,597.22 L 260.23,595.03 L 260.45,593.90 L 260.76,591.47 L 261.03,589.01 L 261.12,583.86 L 261.10,582.60 L 260.96,580.15 L 260.86,578.95 L 260.57,576.73 L 260.40,575.66 L 259.96,573.78 L 259.13,571.47 L 258.28,569.73 L 256.07,566.62 L 254.88,565.12 L 252.00,562.51 L 250.48,561.27 L 246.96,559.19 L 241.00,556.68 L 239.96,556.34 L 238.17,555.79 L 237.33,555.53 L 235.88,555.13 L 235.18,554.95 L 233.99,554.71 L 233.41,554.61 L 232.40,554.51 L 231.41,554.45 L 229.66,554.77 L 226.74,555.84 L 226.16,556.10 L 224.70,556.71 L 223.94,557.03 L 222.28,557.68 L 217.50,559.45 L 216.12,559.93 L 213.52,560.90 L 212.93,561.13 L 211.96,561.52 L 210.97,561.96 L 210.76,562.07 L 210.10,562.32 L 209.74,562.46 L 208.87,562.73 L 205.97,563.49 L 205.01,563.69 L 203.22,564.25 L 202.82,564.39 L 202.16,564.66 L 201.50,565.03 L 201.36,565.14 L 200.68,565.43 L 200.28,565.58 L 199.18,565.93 L 195.00,566.98 L 194.24,567.14 L 192.27,567.56 L 191.23,567.78 L 188.91,568.28 L 182.00,569.79 L 180.88,570.04 L 178.11,570.45 L 176.66,570.64 L 173.38,570.94 L 170.01,571.21 L 162.65,571.40 L 160.83,571.42 L 157.30,571.37 L 155.57,571.33 L 152.38,571.16 L 150.85,571.05 L 148.23,570.76 L 145.16,570.17 L 142.92,569.54 L 139.06,568.11 L 137.23,567.35 L 134.14,565.57 L 132.68,564.62 L 130.27,562.35 L 129.14,561.14 L 127.35,558.25 L 126.53,556.71 L 125.28,553.06 L 124.71,551.12 L 123.93,546.57 L 123.76,545.37 L 123.50,542.78 L 123.38,541.45 L 123.21,538.59 L 123.13,537.12 L 123.04,533.97 L 122.99,528.90 L 122.99,527.08 L 122.98,524.04 L 122.98,522.61 L 122.94,520.27 L 122.92,519.18 L 122.85,517.43 L 122.81,516.62 L 122.68,515.35 L 122.62,514.77 L 122.43,513.88 L 122.32,513.47 L 122.06,512.84 L 120.90,511.41 L 119.78,510.39 L 118.20,508.41 L 117.86,507.89 L 117.31,506.76 L 117.06,506.18 L 116.69,504.86 L 116.52,504.17 L 116.30,502.59 L 116.21,501.76 L 116.12,499.84 L 116.09,498.83 L 116.12,496.48 L 116.27,492.40 L 116.82,481.24 L 112.32,476.87 L 111.16,475.74 L 109.09,473.50 L 108.09,472.38 L 106.33,470.13 L 105.49,469.00 L 104.04,466.72 L 103.36,465.58 L 102.20,463.24 L 101.66,462.07 L 100.80,459.66 L 100.40,458.44 L 99.81,455.93 L 99.54,454.66 L 99.22,452.03 L 99.02,447.93 L 99.01,446.81 L 98.92,445.29 L 98.83,444.61 L 98.36,443.65 L 98.06,443.21 L 96.94,442.43 L 96.61,442.22 L 95.78,441.78 L 94.25,441.01 L 92.50,440.15 L 88.70,437.96 L 86.78,436.82 L 82.94,434.28 L 81.06,432.99 L 77.59,430.37 L 73.25,426.66 L 72.36,425.80 L 71.08,424.43 L 70.52,423.78 L 69.79,422.62 L 69.48,422.04 L 69.16,420.84 L 69.00,418.71 L 69.00,418.10 L 69.26,416.58 L 69.44,415.76 L 70.06,413.81 L 70.42,412.77 L 71.41,410.37 L 71.95,409.11 L 73.32,406.24 L 74.05,404.74 L 75.81,401.39 L 76.73,399.65 L 78.89,395.78 L 80.01,393.79 L 82.57,389.40 L 86.87,382.22 L 88.12,380.15 L 90.41,376.29 L 91.51,374.44 L 93.32,371.27 L 93.73,370.54 L 94.44,369.27 L 94.76,368.67 L 95.28,367.69 L 95.51,367.24 L 95.81,366.60 L 96.00,366.07 L 96.00,365.77 L 96.28,364.79 L 96.95,363.24 L 97.08,363.00 L 97.41,362.05 L 97.58,361.51 L 97.96,360.10 L 99.06,355.00 L 100.03,349.59 L 101.24,338.92 L 101.72,333.62 L 101.97,323.32 L 101.97,320.78 L 101.80,315.80 L 101.68,313.33 L 101.26,308.52 L 101.03,306.14 L 100.37,301.51 L 99.12,294.82 L 98.80,293.37 L 97.91,290.02 L 97.45,288.32 L 96.43,285.00 L 95.93,283.40 L 95.01,280.80 L 94.79,280.23 L 94.42,279.35 L 93.97,278.50 L 93.87,278.36 L 93.52,277.56 L 93.32,277.08 L 92.82,275.74 L 92.56,275.01 L 91.97,273.30 L 91.07,270.50 L 90.47,268.57 L 89.24,264.67 L 88.95,263.77 L 88.44,262.22 L 87.87,260.50 L 87.77,260.22 L 87.59,259.37 L 87.50,258.90 L 87.33,257.72 L 87.24,257.10 L 87.09,255.63 L 87.01,254.86 L 86.88,253.15 L 86.75,251.38 L 86.54,247.30 L 86.45,245.19 L 86.32,240.68 L 86.27,238.41 L 86.23,233.83 L 86.23,231.56 L 86.29,227.25 L 86.33,225.16 L 86.50,221.47 L 86.55,220.60 L 86.67,219.04 L 86.88,217.00 L 87.08,215.40 L 87.58,211.96 L 87.84,210.21 L 88.43,206.61 L 89.04,203.00 L 90.38,195.97 L 90.72,194.28 L 91.39,191.14 L 91.72,189.63 L 92.36,186.97 L 92.67,185.71 L 93.23,183.67 L 93.97,181.50 L 94.09,181.22 L 94.43,180.29 L 94.62,179.77 L 95.06,178.47 L 96.49,174.00 L 96.95,172.48 L 97.92,169.88 L 98.41,168.65 L 99.38,166.72 L 99.87,165.85 L 100.79,164.71 L 102.04,164.00 L 102.32,164.00 L 102.58,164.66 L 102.47,166.25 L 102.37,166.65 L 102.34,168.06 L 102.35,168.85 L 102.50,170.86 L 102.60,171.93 L 102.91,174.32 L 103.07,175.54 L 103.49,178.09 L 103.71,179.37 L 104.20,181.85 L 104.45,183.06 L 104.98,185.25 L 105.24,186.28 L 105.76,187.95 L 106.50,189.63 L 106.94,190.31 L 107.94,191.21 L 108.46,191.59 L 109.61,191.89 L 110.20,191.97 L 111.50,191.67 L 113.63,190.55 L 114.09,190.23 L 114.74,189.40 L 115.04,188.91 L 115.45,187.35 L 115.55,186.89 L 115.71,185.73 L 115.78,185.11 L 115.92,183.58 L 115.98,182.77 L 116.11,180.81 L 116.30,177.30 L 116.39,175.68 L 116.63,172.40 L 116.76,170.79 L 117.07,167.79 L 117.23,166.36 L 117.57,163.98 L 117.66,163.45 L 117.83,162.54 L 118.07,161.50 L 118.23,160.95 L 118.68,159.39 L 118.92,158.56 L 119.47,156.62 L 121.21,150.50 L 121.75,148.57 L 123.01,144.63 L 123.32,143.71 L 123.88,142.12 L 124.59,140.35 L 124.98,139.48 L 125.58,137.94 L 125.71,137.60 L 125.89,137.06 L 126.00,136.57 L 126.00,136.47 L 126.11,136.09 L 126.18,135.88 L 126.41,135.29 L 126.67,134.64 L 127.52,132.83 L 127.99,131.85 L 129.15,129.52 L 129.77,128.31 L 131.14,125.69 L 132.55,123.04 L 135.48,117.79 L 136.19,116.56 L 137.49,114.37 L 139.15,111.75 L 140.32,110.02 L 143.00,106.36 L 144.38,104.52 L 147.36,100.79 L 148.86,98.93 L 151.96,95.30 L 153.51,93.51 L 156.55,90.18 L 158.05,88.56 L 160.87,85.71 L 162.23,84.36 L 164.65,82.17 L 165.22,81.67 L 166.25,80.83 L 166.75,80.44 L 167.63,79.84 L 168.05,79.57 L 168.75,79.22 L 169.56,79.00 L 169.95,79.00 L 170.44,79.06 L 170.64,79.10 L 170.74,79.34 L 170.74,79.49 L 170.46,80.01 L 169.59,81.25 L 167.46,84.13 L 163.47,89.89 L 161.52,92.77 L 157.84,98.55 L 156.05,101.44 L 152.68,107.27 L 151.04,110.19 L 147.96,116.10 L 146.46,119.07 L 143.66,125.10 L 142.29,128.13 L 139.75,134.29 L 138.51,137.40 L 136.20,143.75 L 133.01,153.50 L 132.80,154.19 L 132.38,155.95 L 132.17,156.89 L 131.76,159.07 L 131.36,161.33 L 130.66,166.59 L 130.34,169.27 L 129.88,174.70 L 129.78,176.02 L 129.66,178.53 L 129.57,182.00 L 129.57,184.16 L 129.86,189.13 L 130.04,191.64 L 130.62,196.64 L 130.78,197.85 L 131.13,200.12 L 131.31,201.23 L 131.69,203.21 L 131.89,204.15 L 132.29,205.72 L 132.90,207.50 L 133.02,207.77 L 133.38,208.67 L 133.58,209.16 L 134.04,210.38 L 135.53,214.50 L 135.83,215.33 L 136.34,216.74 L 136.60,217.40 L 137.05,218.49 L 137.28,219.00 L 137.69,219.79 L 137.90,220.16 L 138.30,220.69 L 138.70,221.16 L 139.54,221.42 L 141.04,220.98 L 141.44,220.76 L 142.02,219.95 L 142.15,219.69 L 142.37,218.95 L 142.47,218.55 L 142.64,217.46 L 142.72,216.86 L 142.85,215.32 L 142.91,214.49 L 143.02,212.41 L 143.07,211.30 L 143.17,208.60 L 143.32,203.75 L 143.37,201.76 L 143.51,198.09 L 143.59,196.30 L 143.77,192.98 L 143.87,191.36 L 144.10,188.37 L 144.23,186.90 L 144.51,184.18 L 144.81,181.52 L 145.59,176.85 L 147.07,170.50 L 147.63,168.50 L 148.82,164.43 L 149.42,162.43 L 150.56,158.74 L 150.83,157.86 L 151.34,156.26 L 151.59,155.50 L 152.03,154.17 L 152.24,153.55 L 152.60,152.55 L 153.01,151.50 L 153.13,151.22 L 153.53,150.29 L 153.75,149.77 L 154.29,148.47 L 156.14,144.00 L 157.30,141.14 L 160.22,135.35 L 161.77,132.45 L 165.39,126.64 L 167.28,123.74 L 171.52,118.02 L 173.71,115.18 L 178.48,109.63 L 180.93,106.89 L 186.15,101.61 L 188.81,99.02 L 194.39,94.12 L 197.22,91.72 L 203.08,87.28 L 212.08,81.25 L 212.89,80.76 L 215.02,79.55 L 216.14,78.91 L 218.74,77.51 L 221.40,76.08 L 227.18,73.14 L 228.58,72.44 L 231.21,71.15 L 232.48,70.54 L 234.67,69.51 L 235.69,69.05 L 237.21,68.41 L 237.53,68.28 L 238.02,68.11 L 238.48,68.00 L 238.58,68.00 L 239.01,67.89 L 239.25,67.82 L 239.91,67.58 L 242.35,66.58 L 243.78,65.94 L 247.33,64.58 L 249.21,63.89 L 253.51,62.46 L 255.73,61.75 L 260.57,60.32 L 263.03,59.61 L 268.20,58.22 L 273.42,56.86 L 284.01,54.50 L 286.60,53.96 L 291.57,53.04 L 298.50,51.94 L 300.89,51.61 L 305.29,51.05 L 307.45,50.78 L 311.55,50.34 L 315.61,49.91 L 323.65,49.36 L 325.72,49.24 L 330.08,49.06 L 332.32,48.98 L 337.17,48.87 L 339.68,48.83 L 345.21,48.77 L 354.50,48.74 L 357.84,48.74 L 363.79,48.77 L 366.66,48.79 L 371.83,48.87 L 374.33,48.92 L 378.92,49.06 L 381.16,49.14 L 385.35,49.36 L 389.49,49.60 L 397.45,50.34 L 399.48,50.55 L 403.71,51.05 L 410.50,51.94 L 412.67,52.23 L 417.43,53.04 L 419.86,53.47 L 424.99,54.50 L 430.17,55.59 L 440.80,58.22 L 443.40,58.90 L 448.43,60.32 L 450.90,61.03 L 455.49,62.46 L 457.71,63.18 L 461.67,64.58 L 466.65,66.58 L 467.52,66.97 L 469.09,67.58 L 469.44,67.71 L 469.99,67.89 L 470.52,68.00 L 470.61,68.00 L 470.98,68.11 L 471.19,68.17 L 471.79,68.41 L 472.45,68.67 L 474.33,69.51 L 475.35,69.98 L 477.79,71.15 L 479.05,71.76 L 481.82,73.14 L 484.63,74.55 L 490.26,77.51 L 491.60,78.23 L 493.98,79.55 L 496.92,81.25 L 499.96,83.11 L 505.92,87.28 L 508.88,89.43 L 514.61,94.12 L 517.44,96.51 L 522.85,101.61 L 525.51,104.21 L 530.52,109.63 L 532.96,112.37 L 537.48,118.02 L 539.67,120.86 L 543.61,126.64 L 545.50,129.54 L 548.78,135.35 L 552.86,144.00 L 553.48,145.51 L 554.71,148.47 L 554.99,149.15 L 555.47,150.29 L 555.99,151.50 L 556.10,151.74 L 556.40,152.55 L 556.57,153.00 L 556.97,154.17 L 557.18,154.79 L 557.66,156.26 L 557.91,157.03 L 558.44,158.74 L 558.99,160.49 L 560.18,164.43 L 561.93,170.50 L 562.49,172.51 L 563.41,176.85 L 563.83,179.11 L 564.49,184.18 L 564.64,185.51 L 564.90,188.37 L 565.02,189.83 L 565.23,192.98 L 565.32,194.60 L 565.49,198.09 L 565.68,203.75 L 565.73,205.56 L 565.83,208.60 L 565.88,210.04 L 565.98,212.41 L 566.03,213.53 L 566.15,215.32 L 566.21,216.15 L 566.36,217.46 L 566.44,218.05 L 566.63,218.95 L 566.73,219.36 L 566.98,219.95 L 567.96,220.98 L 568.53,221.29 L 569.46,221.42 L 569.90,221.39 L 570.70,220.69 L 570.90,220.46 L 571.31,219.79 L 571.51,219.43 L 571.95,218.49 L 572.17,217.98 L 572.66,216.74 L 573.47,214.50 L 573.95,213.12 L 574.96,210.38 L 575.20,209.75 L 575.62,208.67 L 576.10,207.50 L 576.31,207.05 L 576.71,205.72 L 576.91,205.00 L 577.31,203.21 L 577.50,202.26 L 577.87,200.12 L 578.05,199.02 L 578.38,196.64 L 578.69,194.22 L 579.14,189.13 L 579.43,182.00 L 579.42,180.93 L 579.34,178.53 L 579.29,177.31 L 579.12,174.70 L 578.93,172.05 L 578.34,166.59 L 578.01,163.91 L 577.24,159.07 L 577.04,157.94 L 576.62,155.95 L 575.99,153.50 L 575.01,150.27 L 573.00,144.21 L 571.99,141.24 L 569.91,135.64 L 568.86,132.90 L 566.69,127.70 L 563.31,120.29 L 562.66,118.93 L 561.00,115.75 L 560.12,114.11 L 558.14,110.53 L 556.09,106.89 L 551.59,99.34 L 550.48,97.51 L 548.32,94.06 L 547.26,92.39 L 545.31,89.42 L 544.38,88.02 L 542.78,85.77 L 542.41,85.26 L 541.75,84.42 L 540.92,83.44 L 540.32,82.79 L 539.57,81.82 L 539.27,81.37 L 539.10,80.76 L 539.09,80.49 L 539.50,80.18 L 540.78,80.00 L 540.97,80.00 L 541.52,80.21 L 541.82,80.36 L 542.56,80.84 L 542.96,81.11 L 543.87,81.83 L 544.35,82.21 L 545.42,83.15 L 546.51,84.13 L 549.06,86.65 L 550.38,87.98 L 553.23,91.04 L 554.68,92.62 L 557.67,96.04 L 559.16,97.78 L 562.09,101.35 L 563.54,103.14 L 566.25,106.69 L 569.86,111.75 L 570.34,112.46 L 571.52,114.38 L 572.14,115.40 L 573.52,117.80 L 574.93,120.27 L 577.86,125.70 L 578.56,127.03 L 579.85,129.53 L 580.46,130.73 L 581.48,132.83 L 581.95,133.81 L 582.59,135.29 L 582.72,135.61 L 582.89,136.10 L 583.00,136.57 L 583.00,136.65 L 583.11,137.06 L 583.18,137.30 L 583.42,137.94 L 584.41,140.35 L 584.61,140.78 L 585.12,142.12 L 585.39,142.86 L 585.99,144.63 L 587.79,150.50 L 588.33,152.42 L 589.53,156.62 L 589.81,157.62 L 590.32,159.39 L 590.93,161.50 L 591.01,161.78 L 591.17,162.54 L 591.26,162.96 L 591.43,163.98 L 591.60,165.06 L 591.93,167.79 L 592.09,169.22 L 592.37,172.40 L 592.70,177.30 L 592.76,178.60 L 592.89,180.81 L 592.95,181.85 L 593.08,183.58 L 593.15,184.40 L 593.29,185.73 L 593.37,186.35 L 593.55,187.35 L 593.73,188.27 L 594.26,189.40 L 595.37,190.55 L 596.12,191.07 L 597.50,191.67 L 598.17,191.89 L 599.39,191.89 L 599.99,191.81 L 601.06,191.21 L 602.50,189.63 L 602.73,189.28 L 603.24,187.95 L 603.50,187.20 L 604.02,185.25 L 604.29,184.21 L 604.80,181.85 L 605.05,180.64 L 605.51,178.09 L 605.73,176.82 L 606.09,174.32 L 606.26,173.10 L 606.50,170.86 L 606.59,169.80 L 606.66,168.06 L 606.53,166.25 L 606.37,165.63 L 606.42,164.66 L 606.96,164.00 L 607.34,164.00 L 608.21,164.71 L 608.66,165.17 L 609.62,166.72 L 610.10,167.59 L 611.08,169.88 L 612.51,174.00 L 612.97,175.51 L 613.94,178.47 L 614.17,179.15 L 614.57,180.29 L 615.03,181.50 L 615.25,182.01 L 615.77,183.67 L 616.04,184.60 L 616.64,186.97 L 616.95,188.22 L 617.61,191.14 L 617.94,192.66 L 618.62,195.97 L 619.29,199.35 L 620.57,206.61 L 620.87,208.42 L 621.42,211.96 L 622.12,217.00 L 622.20,217.61 L 622.33,219.04 L 622.40,219.79 L 622.50,221.47 L 622.60,223.21 L 622.71,227.25 L 622.76,229.34 L 622.77,233.83 L 622.76,236.10 L 622.68,240.68 L 622.63,242.96 L 622.46,247.30 L 622.37,249.40 L 622.12,253.15 L 622.06,254.03 L 621.91,255.63 L 621.84,256.39 L 621.67,257.72 L 621.59,258.35 L 621.41,259.37 L 621.13,260.50 L 620.99,260.91 L 620.56,262.22 L 620.33,262.93 L 619.76,264.67 L 617.93,270.50 L 617.63,271.46 L 617.03,273.30 L 616.73,274.18 L 616.18,275.74 L 615.92,276.46 L 615.48,277.56 L 615.03,278.50 L 614.91,278.67 L 614.58,279.35 L 614.41,279.74 L 613.99,280.80 L 613.57,281.94 L 612.57,285.00 L 612.07,286.59 L 611.09,290.02 L 609.88,294.82 L 609.41,297.00 L 608.63,301.51 L 608.27,303.80 L 607.74,308.52 L 607.50,310.90 L 607.20,315.80 L 607.08,318.27 L 607.03,323.32 L 607.03,328.41 L 607.76,338.92 L 609.94,355.00 L 610.26,356.79 L 611.04,360.10 L 611.23,360.85 L 611.59,362.05 L 612.05,363.24 L 612.31,363.71 L 612.72,364.79 L 613.00,366.07 L 613.00,366.15 L 613.19,366.60 L 613.31,366.88 L 613.72,367.69 L 613.95,368.14 L 614.56,369.27 L 614.89,369.87 L 615.68,371.27 L 616.51,372.73 L 618.59,376.29 L 622.13,382.22 L 623.67,384.75 L 626.43,389.40 L 627.76,391.66 L 630.11,395.78 L 631.24,397.78 L 633.19,401.39 L 634.12,403.13 L 635.68,406.24 L 636.41,407.74 L 637.59,410.37 L 638.13,411.63 L 638.94,413.81 L 639.30,414.84 L 639.74,416.58 L 640.00,418.71 L 640.00,419.52 L 639.84,420.84 L 639.72,421.47 L 639.21,422.62 L 638.90,423.20 L 637.92,424.43 L 635.75,426.66 L 634.54,427.82 L 631.41,430.37 L 629.76,431.66 L 626.06,434.28 L 624.17,435.57 L 620.30,437.96 L 614.75,441.01 L 614.17,441.30 L 613.22,441.78 L 612.77,442.01 L 612.06,442.43 L 611.39,442.84 L 610.64,443.65 L 610.33,444.10 L 610.08,445.29 L 609.98,447.93 L 609.98,449.33 L 609.78,452.03 L 609.65,453.37 L 609.19,455.93 L 608.93,457.20 L 608.20,459.66 L 607.81,460.87 L 606.80,463.24 L 606.26,464.42 L 604.96,466.72 L 604.27,467.87 L 602.67,470.13 L 601.83,471.26 L 599.91,473.50 L 596.68,476.87 L 592.18,481.24 L 592.73,492.40 L 592.80,493.90 L 592.88,496.48 L 592.91,497.71 L 592.88,499.84 L 592.85,500.85 L 592.70,502.59 L 592.61,503.42 L 592.31,504.86 L 592.15,505.55 L 591.69,506.76 L 591.44,507.34 L 590.80,508.41 L 588.10,511.41 L 587.61,511.85 L 586.94,512.84 L 586.80,513.13 L 586.57,513.88 L 586.47,514.29 L 586.32,515.35 L 586.25,515.94 L 586.15,517.43 L 586.11,518.24 L 586.06,520.27 L 586.03,521.36 L 586.02,524.04 L 586.01,528.90 L 586.01,530.67 L 585.96,533.97 L 585.92,535.59 L 585.79,538.59 L 585.72,540.06 L 585.50,542.78 L 585.38,544.11 L 585.07,546.57 L 584.73,548.97 L 583.72,553.06 L 583.16,554.99 L 581.65,558.25 L 580.82,559.79 L 578.73,562.35 L 577.61,563.56 L 574.86,565.57 L 573.40,566.52 L 569.94,568.11 L 563.84,570.17 L 563.03,570.40 L 560.77,570.76 L 559.55,570.92 L 556.62,571.16 L 555.09,571.26 L 551.70,571.37 L 549.98,571.41 L 546.35,571.40 L 542.71,571.37 L 535.62,570.94 L 533.94,570.81 L 530.89,570.45 L 527.00,569.79 L 524.94,569.34 L 520.09,568.28 L 518.91,568.03 L 516.73,567.56 L 514.00,566.98 L 512.49,566.66 L 509.82,565.93 L 509.23,565.75 L 508.32,565.43 L 507.50,565.03 L 507.36,564.92 L 506.84,564.66 L 506.54,564.53 L 505.78,564.25 L 503.03,563.49 L 502.08,563.28 L 500.13,562.73 L 499.68,562.60 L 498.90,562.32 L 498.03,561.96 L 497.82,561.85 L 497.04,561.52 L 496.61,561.34 L 495.48,560.90 L 491.50,559.45 L 490.12,558.98 L 486.72,557.68 L 485.89,557.36 L 484.30,556.71 L 482.26,555.84 L 481.16,555.35 L 479.34,554.77 L 478.45,554.54 L 476.60,554.51 L 476.11,554.54 L 475.01,554.71 L 474.44,554.81 L 473.12,555.13 L 472.43,555.31 L 470.83,555.79 L 468.00,556.68 L 465.86,557.38 L 462.04,559.19 L 460.20,560.16 L 457.00,562.51 L 455.48,563.75 L 452.93,566.62 L 449.87,571.47 L 449.56,572.11 L 449.04,573.78 L 448.80,574.67 L 448.43,576.73 L 448.26,577.80 L 448.04,580.15 L 447.95,581.35 L 447.88,583.86 L 447.85,586.40 L 448.24,591.47 L 448.38,592.71 L 448.77,595.03 L 449.53,598.19 L 449.81,599.11 L 450.49,601.15 L 450.85,602.20 L 451.67,604.42 L 452.51,606.67 L 454.40,611.29 L 455.36,613.56 L 457.24,617.62 L 457.70,618.57 L 458.55,620.21 L 459.69,622.23 L 460.32,623.26 L 461.32,625.10 L 461.53,625.52 L 461.82,626.17 L 462.00,626.78 L 462.00,626.84 L 462.13,627.15 L 462.21,627.33 L 462.49,627.86 L 462.81,628.43 L 463.83,630.13 L 464.40,631.05 L 465.83,633.29 L 466.59,634.46 L 468.29,637.05 L 470.04,639.68 L 473.80,645.16 L 474.71,646.48 L 476.45,648.92 L 478.78,652.09 L 479.40,652.91 L 480.43,654.39 L 480.92,655.10 L 481.68,656.35 L 482.02,656.95 L 482.52,657.97 L 482.73,658.45 L 482.96,659.25 L 483.04,659.62 L 483.02,660.19 L 482.97,660.44 L 482.70,660.79 L 482.53,660.94 L 482.01,661.06 L 481.72,661.10 L 480.96,661.00 L 480.55,660.93 L 479.57,660.61 L 479.04,660.43 L 477.83,659.89 L 477.19,659.60 L 475.76,658.85 L 475.01,658.44 L 473.37,657.47 L 472.52,656.96 L 470.66,655.78 L 469.71,655.16 L 467.65,653.76 L 466.60,653.03 L 464.34,651.42 L 460.75,648.76 L 460.18,648.33 L 458.76,647.18 L 458.02,646.57 L 456.30,645.10 L 455.41,644.33 L 453.44,642.58 L 452.43,641.67 L 450.25,639.69 L 448.03,637.67 L 443.18,633.12 L 440.72,630.80 L 435.68,625.96 L 433.18,623.53 L 428.35,618.76 L 426.00,616.42 L 421.78,612.12 L 420.78,611.09 L 418.96,609.18 L 418.08,608.25 L 416.54,606.59 L 415.82,605.79 L 414.62,604.42 L 413.25,602.75 L 412.11,601.25 L 410.07,598.32 L 409.09,596.87 L 407.36,593.97 L 406.53,592.53 L 405.09,589.63 L 404.40,588.18 L 403.22,585.23 L 402.67,583.75 L 401.74,580.71 L 401.31,579.17 L 400.63,575.99 L 400.31,574.38 L 399.85,571.02 L 399.38,565.71 L 399.23,563.19 L 399.25,557.81 L 399.31,555.11 L 399.71,549.73 L 399.96,547.08 L 400.70,542.21 L 400.90,541.04 L 401.36,538.89 L 402.13,536.00 L 402.99,533.21 L 405.14,527.37 L 406.27,524.42 L 408.88,518.44 L 410.24,515.45 L 413.21,509.54 L 417.98,501.00 L 418.72,499.76 L 420.12,497.50 L 420.81,496.39 L 422.15,494.35 L 423.48,492.35 L 426.20,488.70 L 427.60,486.89 L 430.78,483.20 L 431.62,482.25 L 433.48,480.24 L 436.55,477.00 L 439.35,474.11 L 444.52,468.59 L 447.05,465.86 L 451.77,460.60 L 454.08,457.99 L 458.43,452.88 L 460.57,450.33 L 464.63,445.26 L 468.63,440.17 L 476.15,429.66 L 478.01,426.97 L 481.73,421.36 L 487.37,412.50 L 489.84,408.52 L 494.48,400.51 L 496.75,396.51 L 500.94,388.54 L 502.97,384.58 L 506.63,376.80 L 511.44,365.50 L 512.09,363.85 L 513.34,360.68 L 513.95,359.15 L 515.02,356.44 L 515.53,355.17 L 516.31,353.22 L 516.48,352.80 L 516.74,352.15 L 517.01,351.50 L 517.20,351.05 L 517.65,349.79 L 517.89,349.10 L 518.42,347.49 L 518.96,345.81 L 520.07,342.04 L 520.34,341.11 L 520.82,339.34 L 521.05,338.48 L 521.43,336.95 L 521.61,336.23 L 521.85,335.09 L 522.00,334.00 L 522.00,333.54 L 522.22,332.60 L 522.75,331.59 L 522.95,331.39 L 523.40,330.27 L 523.64,329.59 L 524.17,327.54 L 524.45,326.40 L 525.05,323.45 L 525.36,321.86 L 526.03,318.05 L 526.37,316.04 L 527.10,311.40 L 527.47,308.98 L 528.24,303.55 L 528.64,300.74 L 529.46,294.57 L 530.74,284.50 L 531.29,280.04 L 532.02,270.89 L 532.33,266.29 L 532.59,257.03 L 532.66,252.41 L 532.46,243.24 L 532.31,238.70 L 531.67,229.84 L 531.30,225.47 L 530.24,217.14 L 529.66,213.05 L 528.20,205.44 L 527.81,203.60 L 526.96,200.08 L 526.52,198.35 L 525.58,195.08 L 525.09,193.48 L 524.05,190.49 L 522.39,186.35 L 522.01,185.48 L 521.41,183.97 L 521.28,183.63 L 521.11,183.12 L 521.00,182.67 L 521.00,182.47 L 520.69,181.53 L 520.49,180.99 L 519.82,179.47 L 519.46,178.65 L 518.52,176.70 L 518.02,175.67 L 516.88,173.42 L 515.70,171.12 L 513.04,166.22 L 512.38,165.02 L 511.06,162.73 L 509.19,159.59 L 507.24,156.43 L 502.97,150.36 L 500.77,147.37 L 496.01,141.62 L 493.57,138.79 L 488.31,133.36 L 485.62,130.68 L 479.86,125.56 L 476.92,123.04 L 470.64,118.23 L 467.44,115.87 L 460.65,111.35 L 457.19,109.14 L 449.87,104.92 L 438.30,98.92 L 436.90,98.25 L 434.23,97.01 L 432.93,96.42 L 430.66,95.45 L 429.60,95.00 L 428.00,94.39 L 427.65,94.26 L 427.12,94.10 L 426.61,94.00 L 426.20,94.00 L 425.39,93.73 L 424.55,93.08 L 424.47,92.95 L 424.07,92.66 L 423.84,92.52 L 423.20,92.22 L 420.77,91.45 L 419.89,91.26 L 418.06,90.71 L 416.03,89.93 L 415.87,89.84 L 415.27,89.59 L 414.93,89.46 L 413.98,89.14 L 413.47,88.96 L 412.19,88.56 L 411.51,88.35 L 409.90,87.86 L 409.06,87.61 L 407.13,87.05 L 406.13,86.77 L 403.88,86.13 L 402.72,85.81 L 400.17,85.10 L 396.00,83.97 L 392.97,83.15 L 386.48,81.83 L 383.17,81.21 L 376.22,80.29 L 372.71,79.88 L 365.48,79.37 L 361.85,79.17 L 354.50,79.07 L 350.83,79.07 L 343.52,79.37 L 339.88,79.58 L 332.78,80.29 L 329.27,80.70 L 322.52,81.83 L 313.00,83.97 L 311.54,84.37 L 308.83,85.10 L 307.52,85.47 L 305.12,86.13 L 303.96,86.46 L 301.87,87.05 L 300.87,87.34 L 299.10,87.86 L 298.25,88.12 L 296.81,88.56 L 296.13,88.77 L 295.02,89.14 L 294.50,89.31 L 293.73,89.59 L 292.97,89.93 L 292.55,90.15 L 290.94,90.71 L 288.23,91.45 L 287.35,91.64 L 285.80,92.22 L 285.45,92.37 L 284.93,92.66 L 284.45,93.08 L 284.30,93.33 L 283.61,93.73 L 282.39,94.00 L 282.25,94.00 L 281.80,94.10 L 281.55,94.17 L 280.87,94.40 L 280.14,94.66 L 278.13,95.50 L 277.04,95.96 L 274.46,97.15 L 273.11,97.78 L 270.16,99.22 L 267.14,100.70 L 260.83,104.00 L 259.29,104.82 L 256.39,106.42 L 252.50,108.68 L 248.59,111.04 L 241.03,116.26 L 237.30,118.94 L 230.20,124.72 L 226.72,127.67 L 220.21,133.89 L 211.28,143.59 L 210.46,144.57 L 208.71,146.81 L 207.82,147.97 L 205.98,150.49 L 204.13,153.07 L 200.47,158.62 L 198.69,161.40 L 195.56,166.73 L 194.84,168.01 L 193.58,170.38 L 192.06,173.56 L 191.46,174.92 L 190.26,177.64 L 189.98,178.26 L 189.50,179.33 L 188.98,180.50 L 188.48,181.58 L 187.48,184.07 L 186.97,185.36 L 185.96,188.19 L 184.95,191.08 L 183.05,197.45 L 182.14,200.66 L 180.59,207.11 L 180.24,208.69 L 179.63,211.72 L 178.91,216.00 L 178.78,216.89 L 178.46,219.04 L 178.29,220.14 L 177.93,222.50 L 177.75,223.68 L 177.38,225.96 L 176.89,229.00 L 176.77,229.74 L 176.57,231.60 L 176.48,232.59 L 176.35,234.89 L 176.29,236.08 L 176.21,238.75 L 176.18,240.12 L 176.15,243.07 L 176.14,246.09 L 176.26,252.70 L 176.34,256.06 L 176.63,262.92 L 176.80,266.33 L 177.23,272.86 L 177.35,274.45 L 177.60,277.47 L 177.73,278.94 L 178.01,281.68 L 178.16,283.01 L 178.46,285.40 L 178.61,286.54 L 178.94,288.51 L 179.10,289.44 L 179.44,290.92 L 179.96,292.50 L 180.09,292.77 L 180.64,294.06 L 180.95,294.80 L 181.80,296.81 L 182.25,297.89 L 183.28,300.38 L 184.93,304.37 L 185.76,306.41 L 187.95,310.92 L 189.12,313.23 L 191.90,318.16 L 193.35,320.66 L 196.59,325.85 L 198.27,328.46 L 201.88,333.74 L 203.72,336.38 L 207.57,341.60 L 209.52,344.18 L 213.52,349.17 L 215.52,351.63 L 219.54,356.23 L 225.48,362.53 L 227.93,364.99 L 233.07,369.59 L 235.68,371.83 L 241.11,376.01 L 243.85,378.04 L 249.54,381.79 L 252.41,383.61 L 258.33,386.92 L 261.31,388.51 L 267.43,391.38 L 270.52,392.76 L 276.81,395.18 L 279.98,396.33 L 286.42,398.30 L 289.66,399.23 L 296.22,400.73 L 299.52,401.43 L 306.17,402.47 L 309.51,402.94 L 316.23,403.51 L 319.59,403.74 L 326.35,403.83 L 329.73,403.82 L 336.50,403.43 L 339.88,403.18 L 346.63,402.30 L 350.00,401.80 L 356.70,400.43 L 360.04,399.69 L 366.67,397.82 L 376.50,394.44 L 380.62,392.86 L 388.57,389.18 L 392.48,387.26 L 399.99,382.94 L 403.69,380.71 L 410.72,375.79 L 414.17,373.26 L 420.69,367.78 L 423.88,364.97 L 429.84,358.95 L 432.74,355.88 L 438.11,349.37 L 440.71,346.06 L 445.43,339.08 L 451.76,328.15 L 453.11,325.55 L 455.54,320.31 L 456.71,317.69 L 458.81,312.40 L 459.82,309.76 L 461.58,304.43 L 462.42,301.77 L 463.84,296.41 L 464.52,293.73 L 465.61,288.35 L 466.11,285.65 L 466.87,280.25 L 467.20,277.55 L 467.62,272.14 L 467.79,269.43 L 467.88,264.01 L 467.88,261.30 L 467.63,255.89 L 467.46,253.18 L 466.87,247.77 L 466.54,245.07 L 465.62,239.68 L 465.11,236.99 L 463.86,231.62 L 463.19,228.94 L 461.59,223.60 L 460.76,220.94 L 458.83,215.64 L 457.82,212.99 L 455.56,207.73 L 451.79,199.90 L 449.91,196.26 L 445.47,189.07 L 443.13,185.48 L 437.72,178.32 L 434.88,174.74 L 428.45,167.54 L 426.77,165.73 L 423.22,162.10 L 417.57,156.62 L 416.28,155.40 L 414.01,153.24 L 412.93,152.20 L 411.08,150.38 L 410.20,149.51 L 408.72,148.01 L 408.03,147.29 L 406.91,146.06 L 406.39,145.48 L 405.59,144.50 L 405.23,144.03 L 404.73,143.27 L 404.52,142.91 L 404.28,142.32 L 404.20,141.62 L 404.29,141.00 L 404.81,140.13 L 405.13,139.75 L 406.11,139.36 L 406.66,139.22 L 408.11,139.31 L 408.89,139.41 L 410.80,139.97 L 411.81,140.32 L 414.18,141.36 L 415.43,141.94 L 418.26,143.46 L 419.73,144.28 L 423.02,146.27 L 428.48,149.81 L 431.40,151.77 L 436.93,155.97 L 439.64,158.11 L 444.74,162.67 L 447.24,165.00 L 451.90,169.91 L 454.18,172.41 L 458.39,177.66 L 460.45,180.33 L 464.21,185.91 L 466.04,188.74 L 469.34,194.64 L 470.94,197.63 L 473.78,203.84 L 477.50,213.50 L 478.70,217.04 L 480.72,224.17 L 481.66,227.74 L 483.16,234.91 L 483.84,238.51 L 484.83,245.71 L 485.26,249.31 L 485.74,256.51 L 485.91,260.11 L 485.89,267.28 L 485.81,270.87 L 485.29,278.00 L 484.97,281.55 L 483.96,288.62 L 483.39,292.13 L 481.89,299.10 L 481.08,302.57 L 479.11,309.42 L 478.06,312.83 L 475.60,319.54 L 474.32,322.88 L 471.40,329.43 L 469.88,332.68 L 466.49,339.04 L 464.74,342.20 L 460.90,348.35 L 458.92,351.39 L 454.62,357.31 L 452.41,360.24 L 447.67,365.90 L 440.05,374.07 L 438.30,375.83 L 434.84,379.13 L 433.12,380.74 L 429.71,383.76 L 426.30,386.72 L 419.47,391.93 L 416.02,394.44 L 408.88,398.90 L 397.50,405.00 L 394.55,406.42 L 388.93,408.94 L 386.16,410.15 L 380.80,412.27 L 378.14,413.28 L 372.91,415.02 L 370.31,415.84 L 365.10,417.24 L 362.49,417.89 L 357.18,418.97 L 354.51,419.47 L 348.98,420.26 L 346.18,420.62 L 340.31,421.15 L 331.00,421.69 L 325.87,421.89 L 315.68,421.54 L 310.60,421.24 L 300.54,419.92 L 295.54,419.14 L 285.68,416.86 L 280.78,415.61 L 271.16,412.40 L 266.40,410.68 L 257.09,406.55 L 252.48,404.37 L 243.55,399.35 L 239.13,396.74 L 230.61,390.84 L 218.37,381.04 L 217.53,380.30 L 215.68,378.57 L 214.74,377.67 L 212.75,375.67 L 210.73,373.62 L 206.47,368.97 L 204.34,366.60 L 200.18,361.67 L 194.55,354.50 L 194.30,354.17 L 193.91,353.74 L 193.72,353.56 L 193.44,353.41 L 193.32,353.37 L 193.16,353.47 L 193.09,353.55 L 193.05,353.88 L 193.04,354.26 L 193.38,355.62 L 194.43,358.35 L 194.63,358.78 L 195.27,360.25 L 195.61,361.07 L 196.47,363.10 L 199.37,370.11 L 200.71,373.40 L 203.84,380.27 L 205.47,383.75 L 209.14,390.90 L 211.03,394.50 L 215.16,401.82 L 217.27,405.50 L 221.79,412.88 L 224.10,416.56 L 228.94,423.89 L 231.40,427.53 L 236.50,434.69 L 239.08,438.24 L 244.37,445.12 L 252.43,455.00 L 253.04,455.72 L 254.45,457.34 L 255.18,458.18 L 256.77,459.98 L 258.40,461.82 L 261.99,465.79 L 263.81,467.79 L 267.44,471.71 L 272.45,477.00 L 273.54,478.14 L 275.52,480.24 L 276.48,481.27 L 278.22,483.20 L 279.91,485.11 L 282.80,488.70 L 284.20,490.51 L 286.85,494.35 L 287.51,495.35 L 288.88,497.50 L 291.02,501.00 L 292.66,503.75 L 295.79,509.54 L 297.31,512.46 L 300.12,518.44 L 301.47,521.43 L 303.86,527.37 L 306.87,536.00 L 307.35,537.56 L 308.13,541.10 L 308.49,542.94 L 309.03,546.90 L 309.27,548.93 L 309.57,553.15 L 309.69,555.28 L 309.75,559.59 L 309.75,561.74 L 309.56,565.97 L 309.44,568.06 L 309.02,572.04 L 308.78,573.98 L 308.12,577.53 L 306.85,582.21 L 306.24,583.99 L 304.97,587.22 L 304.32,588.80 L 302.88,591.78 L 302.13,593.25 L 300.36,596.17 L 299.43,597.64 L 297.20,600.68 L 296.02,602.24 L 293.19,605.59 L 291.68,607.32 L 288.10,611.16 L 287.15,612.16 L 285.09,614.29 L 284.03,615.38 L 281.74,617.69 L 280.56,618.88 L 278.01,621.40 L 273.88,625.45 L 270.53,628.73 L 264.12,634.72 L 260.98,637.62 L 255.09,642.80 L 253.65,644.05 L 250.89,646.36 L 249.54,647.49 L 246.95,649.58 L 245.68,650.59 L 243.27,652.43 L 242.09,653.32 L 239.89,654.91 L 238.81,655.68 L 236.81,657.00 L 235.85,657.63 L 234.08,658.68 L 233.23,659.18 L 231.70,659.94 L 230.98,660.29 L 229.71,660.76 L 229.11,660.96 L 228.12,661.13 L 227.66,661.17 L 226.96,661.03 L 226.64,660.91 L 226.24,660.43 L 226.08,660.15 M 321.50,350.31 L 318.59,349.93 L 313.00,348.95 L 310.24,348.42 L 304.94,347.14 L 302.33,346.46 L 297.32,344.87 L 294.85,344.04 L 290.14,342.16 L 287.83,341.18 L 283.42,338.99 L 281.25,337.87 L 277.14,335.38 L 275.12,334.11 L 271.31,331.33 L 269.44,329.90 L 265.93,326.83 L 264.22,325.26 L 261.01,321.90 L 259.45,320.18 L 256.55,316.52 L 255.14,314.66 L 252.55,310.71 L 251.29,308.70 L 249.01,304.47 L 247.91,302.31 L 245.94,297.79 L 244.99,295.50 L 243.33,290.69 L 242.54,288.25 L 241.19,283.16 L 239.53,275.20 L 239.02,272.32 L 238.41,267.18 L 238.17,264.68 L 238.10,259.93 L 238.13,257.56 L 238.59,252.70 L 239.90,244.74 L 240.32,242.67 L 241.27,238.75 L 241.77,236.83 L 242.90,233.18 L 243.49,231.38 L 244.81,227.95 L 245.50,226.26 L 247.05,223.02 L 247.85,221.42 L 249.63,218.31 L 250.56,216.77 L 252.60,213.77 L 253.66,212.27 L 255.98,209.32 L 259.81,204.92 L 262.03,202.51 L 267.06,198.09 L 269.65,195.96 L 275.31,192.14 L 278.21,190.30 L 284.36,187.13 L 287.49,185.63 L 293.99,183.15 L 297.28,182.00 L 303.99,180.26 L 307.36,179.49 L 314.13,178.55 L 317.52,178.18 L 324.22,178.09 L 334.03,178.95 L 336.87,179.41 L 342.32,180.56 L 345.00,181.18 L 350.14,182.66 L 352.67,183.43 L 357.48,185.22 L 359.85,186.15 L 364.33,188.24 L 366.54,189.32 L 370.69,191.71 L 372.73,192.93 L 376.54,195.61 L 378.41,196.98 L 381.88,199.94 L 383.57,201.46 L 386.69,204.69 L 388.20,206.35 L 390.96,209.85 L 392.30,211.64 L 394.69,215.41 L 395.85,217.32 L 397.87,221.35 L 398.84,223.39 L 400.49,227.66 L 401.27,229.83 L 402.53,234.35 L 403.12,236.64 L 404.00,241.39 L 404.39,243.79 L 404.87,248.78 L 405.15,256.50 L 405.14,258.79 L 404.86,263.17 L 404.67,265.33 L 404.02,269.46 L 403.65,271.49 L 402.62,275.40 L 402.05,277.33 L 400.63,281.05 L 399.87,282.89 L 398.04,286.45 L 397.08,288.22 L 394.84,291.65 L 393.66,293.35 L 390.99,296.68 L 386.49,301.59 L 384.94,303.15 L 381.71,306.01 L 380.07,307.40 L 376.64,309.91 L 374.90,311.12 L 371.27,313.29 L 369.43,314.33 L 365.58,316.17 L 363.62,317.05 L 359.54,318.55 L 357.47,319.26 L 353.15,320.45 L 350.96,321.00 L 346.38,321.86 L 339.20,322.81 L 336.54,323.06 L 330.92,323.16 L 328.08,323.14 L 322.35,322.69 L 319.50,322.41 L 313.97,321.46 L 306.24,319.51 L 304.19,318.86 L 300.22,317.06 L 298.26,316.08 L 294.50,313.65 L 292.65,312.36 L 289.14,309.35 L 287.41,307.77 L 284.18,304.21 L 282.60,302.37 L 279.67,298.30 L 278.25,296.20 L 275.67,291.67 L 274.43,289.34 L 272.23,284.38 L 269.41,276.50 L 269.06,275.37 L 268.51,272.74 L 268.25,271.37 L 267.88,268.36 L 267.56,265.29 L 267.45,258.61 L 267.47,256.94 L 267.64,253.65 L 267.74,252.03 L 268.09,248.93 L 268.29,247.41 L 268.81,244.64 L 269.79,241.00 L 270.67,238.42 L 272.72,233.69 L 273.79,231.39 L 276.24,227.20 L 277.52,225.18 L 280.41,221.50 L 281.91,219.72 L 285.28,216.53 L 287.02,214.98 L 290.90,212.24 L 292.90,210.92 L 297.32,208.59 L 299.60,207.47 L 304.60,205.53 L 312.80,203.01 L 313.49,202.83 L 315.26,202.54 L 316.20,202.41 L 318.37,202.21 L 320.63,202.03 L 325.81,201.94 L 328.42,201.95 L 333.54,202.22 L 334.77,202.31 L 337.03,202.56 L 340.01,203.04 L 341.75,203.39 L 345.06,204.22 L 346.68,204.65 L 349.76,205.63 L 351.27,206.14 L 354.13,207.27 L 355.53,207.86 L 358.16,209.15 L 359.45,209.82 L 361.86,211.27 L 363.03,212.01 L 365.22,213.63 L 366.29,214.45 L 368.25,216.23 L 369.21,217.14 L 370.96,219.08 L 371.80,220.07 L 373.33,222.17 L 374.07,223.24 L 375.39,225.51 L 376.02,226.67 L 377.12,229.11 L 377.64,230.35 L 378.52,232.95 L 378.94,234.28 L 379.61,237.06 L 379.92,238.47 L 380.38,241.42 L 380.59,242.92 L 380.84,246.05 L 380.98,250.93 L 380.97,253.94 L 380.36,259.73 L 379.95,262.57 L 378.57,267.97 L 377.79,270.62 L 375.69,275.57 L 374.56,277.98 L 371.79,282.42 L 370.33,284.57 L 366.93,288.42 L 365.16,290.27 L 361.19,293.47 L 359.14,294.99 L 354.63,297.48 L 347.32,300.33 L 344.86,301.05 L 340.06,302.02 L 337.68,302.43 L 333.05,302.77 L 330.76,302.87 L 326.32,302.59 L 324.13,302.37 L 319.89,301.46 L 317.79,300.93 L 313.76,299.41 L 311.77,298.58 L 307.97,296.44 L 306.09,295.29 L 302.52,292.55 L 297.44,287.74 L 296.43,286.66 L 294.71,284.67 L 293.89,283.69 L 292.51,281.85 L 291.86,280.94 L 290.79,279.15 L 290.29,278.26 L 289.50,276.45 L 289.13,275.53 L 288.58,273.61 L 288.33,272.63 L 287.99,270.51 L 287.84,269.42 L 287.67,267.01 L 287.57,263.00 L 287.57,260.89 L 287.90,256.78 L 288.12,254.74 L 288.88,250.81 L 289.31,248.87 L 290.47,245.16 L 291.10,243.33 L 292.64,239.89 L 293.46,238.20 L 295.37,235.07 L 296.36,233.55 L 298.61,230.77 L 299.77,229.43 L 302.33,227.06 L 306.51,223.99 L 308.23,222.93 L 312.10,221.33 L 314.09,220.61 L 318.37,219.69 L 320.55,219.31 L 325.06,219.05 L 327.33,219.00 L 331.89,219.38 L 334.16,219.64 L 338.59,220.63 L 340.77,221.20 L 344.88,222.79 L 346.89,223.65 L 350.51,225.81 L 355.20,229.67 L 356.42,230.93 L 358.32,233.46 L 359.18,234.74 L 360.43,237.44 L 360.97,238.83 L 361.62,241.85 L 362.00,246.92 L 362.00,248.26 L 361.71,251.03 L 361.53,252.42 L 360.92,255.21 L 360.58,256.59 L 359.70,259.25 L 359.23,260.56 L 358.15,262.98 L 357.59,264.15 L 356.36,266.21 L 355.73,267.18 L 354.42,268.74 L 353.76,269.45 L 352.42,270.40 L 350.44,271.00 L 350.18,271.00 L 349.77,270.79 L 349.59,270.65 L 349.32,270.19 L 349.10,269.67 L 349.07,268.01 L 349.13,267.09 L 349.67,264.82 L 351.08,261.01 L 351.36,260.39 L 351.91,258.79 L 352.18,257.94 L 352.67,256.07 L 352.90,255.12 L 353.27,253.19 L 353.64,250.51 L 353.75,249.12 L 353.69,246.57 L 353.60,245.33 L 353.11,243.05 L 352.82,241.94 L 351.90,239.91 L 351.39,238.93 L 350.03,237.15 L 349.30,236.29 L 347.50,234.73 L 346.54,233.99 L 344.27,232.65 L 343.08,232.01 L 340.34,230.88 L 335.70,229.41 L 334.01,228.96 L 330.73,228.38 L 329.11,228.14 L 326.00,227.98 L 324.47,227.95 L 321.54,228.20 L 320.10,228.37 L 317.37,229.03 L 316.04,229.40 L 313.54,230.46 L 312.33,231.03 L 310.08,232.48 L 309.00,233.25 L 307.03,235.09 L 304.42,238.26 L 303.04,240.26 L 300.88,244.14 L 299.89,246.08 L 298.46,250.01 L 297.83,252.00 L 297.06,256.19 L 296.57,263.00 L 296.56,264.26 L 296.62,266.48 L 296.67,267.55 L 296.89,269.44 L 297.02,270.36 L 297.43,272.01 L 297.67,272.82 L 298.33,274.34 L 298.70,275.09 L 299.65,276.56 L 300.16,277.30 L 301.45,278.82 L 302.14,279.59 L 303.81,281.25 L 306.79,284.00 L 307.90,284.99 L 309.88,286.67 L 310.84,287.46 L 312.61,288.76 L 313.48,289.36 L 315.17,290.34 L 316.02,290.79 L 317.75,291.48 L 318.63,291.79 L 320.53,292.25 L 321.52,292.45 L 323.72,292.71 L 324.87,292.82 L 327.50,292.94 L 332.07,293.00 L 333.38,293.00 L 335.60,292.98 L 336.66,292.97 L 338.44,292.92 L 339.29,292.89 L 340.74,292.79 L 341.44,292.73 L 342.66,292.55 L 343.84,292.36 L 345.94,291.70 L 349.52,290.15 L 351.38,289.27 L 354.99,286.91 L 356.76,285.66 L 360.01,282.71 L 361.57,281.17 L 364.25,277.83 L 367.41,272.61 L 368.03,271.30 L 369.07,268.37 L 369.56,266.87 L 370.35,263.65 L 370.71,262.01 L 371.22,258.59 L 371.44,256.86 L 371.69,253.35 L 371.77,251.58 L 371.73,248.07 L 371.68,246.33 L 371.36,242.92 L 371.16,241.24 L 370.55,238.04 L 369.30,233.60 L 368.98,232.69 L 368.08,230.84 L 367.59,229.91 L 366.39,228.05 L 365.12,226.21 L 361.88,222.72 L 360.19,221.04 L 356.41,218.20 L 355.45,217.55 L 353.50,216.44 L 350.58,215.11 L 348.94,214.50 L 345.20,213.52 L 343.27,213.07 L 339.10,212.42 L 336.97,212.14 L 332.54,211.82 L 330.30,211.69 L 325.79,211.69 L 323.53,211.73 L 319.12,212.05 L 316.94,212.25 L 312.80,212.88 L 310.78,213.24 L 307.10,214.18 L 302.28,215.95 L 300.16,216.95 L 296.24,219.41 L 294.33,220.72 L 290.87,223.76 L 289.20,225.35 L 286.25,228.89 L 284.84,230.72 L 282.42,234.70 L 281.29,236.74 L 279.46,241.07 L 278.63,243.28 L 277.42,247.90 L 276.90,250.24 L 276.36,255.08 L 276.35,262.50 L 276.48,264.43 L 276.97,268.15 L 277.25,269.99 L 278.05,273.54 L 278.48,275.30 L 279.58,278.69 L 280.17,280.37 L 281.58,283.62 L 282.33,285.23 L 284.06,288.35 L 284.96,289.89 L 287.02,292.89 L 288.09,294.38 L 290.47,297.27 L 294.43,301.50 L 295.81,302.87 L 298.13,304.99 L 299.23,305.96 L 301.18,307.42 L 302.13,308.09 L 304.00,309.09 L 307.00,310.28 L 310.01,311.25 L 316.15,312.63 L 319.23,313.22 L 325.45,313.87 L 328.56,314.10 L 334.75,314.02 L 337.84,313.89 L 343.92,313.11 L 346.94,312.63 L 352.80,311.15 L 355.69,310.33 L 361.24,308.18 L 363.97,307.02 L 369.11,304.22 L 376.25,299.28 L 377.87,297.97 L 380.84,295.13 L 382.27,293.68 L 384.85,290.56 L 386.08,288.97 L 388.26,285.60 L 389.30,283.88 L 391.07,280.25 L 391.90,278.41 L 393.27,274.55 L 393.89,272.59 L 394.84,268.51 L 395.26,266.44 L 395.78,262.15 L 396.08,255.50 L 396.07,251.95 L 395.43,245.21 L 395.01,241.90 L 393.56,235.65 L 392.73,232.59 L 390.48,226.84 L 389.25,224.03 L 386.21,218.81 L 384.60,216.26 L 380.78,211.58 L 378.78,209.31 L 374.19,205.20 L 371.81,203.21 L 366.47,199.67 L 357.64,195.04 L 355.57,194.12 L 351.43,192.57 L 349.33,191.83 L 344.89,190.57 L 342.60,189.97 L 337.55,188.94 L 328.97,187.54 L 327.80,187.38 L 325.80,187.11 L 324.85,186.99 L 323.19,186.81 L 321.61,186.65 L 319.10,186.58 L 317.90,186.59 L 315.58,186.86 L 311.52,187.65 L 309.06,188.19 L 304.46,189.39 L 302.21,190.01 L 297.99,191.36 L 295.93,192.05 L 292.04,193.58 L 290.14,194.37 L 286.54,196.10 L 284.77,196.99 L 281.42,198.94 L 279.76,199.94 L 276.61,202.14 L 275.05,203.27 L 272.04,205.73 L 267.66,209.75 L 266.38,211.00 L 264.03,213.62 L 262.88,214.95 L 260.77,217.73 L 259.75,219.14 L 257.88,222.10 L 256.97,223.60 L 255.33,226.74 L 254.54,228.33 L 253.14,231.67 L 252.46,233.37 L 251.28,236.91 L 250.71,238.71 L 249.75,242.48 L 248.54,248.38 L 248.29,249.82 L 247.89,252.37 L 247.70,253.61 L 247.43,255.84 L 247.19,258.02 L 247.11,261.92 L 247.14,263.88 L 247.59,268.07 L 247.74,269.19 L 248.14,271.63 L 248.90,275.74 L 249.36,278.11 L 250.46,282.64 L 251.03,284.88 L 252.37,289.15 L 253.07,291.25 L 254.65,295.26 L 255.47,297.23 L 257.29,300.98 L 258.23,302.82 L 260.30,306.32 L 261.36,308.03 L 263.68,311.27 L 264.87,312.86 L 267.44,315.85 L 268.76,317.31 L 271.58,320.05 L 273.02,321.38 L 276.10,323.87 L 277.67,325.09 L 281.01,327.33 L 282.71,328.42 L 286.30,330.42 L 288.13,331.38 L 291.99,333.14 L 293.95,333.99 L 298.08,335.50 L 300.17,336.23 L 304.56,337.51 L 306.79,338.12 L 311.45,339.16 L 318.74,340.46 L 322.39,341.01 L 329.62,341.60 L 333.22,341.82 L 340.33,341.75 L 343.86,341.64 L 350.78,340.92 L 354.22,340.49 L 360.92,339.13 L 364.24,338.38 L 370.68,336.39 L 373.86,335.33 L 379.99,332.73 L 383.00,331.35 L 388.77,328.14 L 396.97,322.66 L 398.93,321.18 L 402.58,318.02 L 404.35,316.41 L 407.63,312.96 L 409.23,311.19 L 412.16,307.42 L 413.58,305.49 L 416.18,301.38 L 417.43,299.28 L 419.71,294.80 L 420.81,292.52 L 422.77,287.66 L 423.72,285.17 L 425.39,279.90 L 427.58,271.50 L 427.95,269.90 L 428.49,266.56 L 428.61,265.68 L 428.81,263.76 L 428.90,262.77 L 429.06,260.56 L 429.13,259.41 L 429.24,256.81 L 429.29,255.45 L 429.36,252.35 L 429.39,250.74 L 429.44,247.06 L 429.47,240.78 L 429.48,239.35 L 429.49,236.72 L 429.50,235.44 L 429.52,233.10 L 429.53,231.97 L 429.57,229.91 L 429.59,228.91 L 429.63,227.12 L 429.68,225.38 L 429.83,222.63 L 429.92,221.37 L 430.15,219.47 L 430.28,218.61 L 430.62,217.43 L 430.81,216.92 L 431.27,216.34 L 431.51,216.11 L 432.11,216.00 L 433.19,216.24 L 433.37,216.31 L 433.86,216.86 L 434.12,217.20 L 434.70,218.18 L 436.46,222.13 L 436.64,222.60 L 436.95,223.81 L 437.10,224.46 L 437.37,225.98 L 437.63,227.57 L 438.03,231.52 L 438.21,233.60 L 438.45,238.26 L 438.54,240.65 L 438.61,245.70 L 438.62,248.24 L 438.52,253.33 L 438.44,255.86 L 438.17,260.68 L 438.01,263.02 L 437.57,267.23 L 437.44,268.23 L 437.17,270.06 L 436.70,272.50 L 435.81,276.49 L 433.61,284.00 L 432.45,287.67 L 429.70,294.54 L 428.26,297.90 L 424.95,304.16 L 423.22,307.21 L 419.33,312.86 L 417.32,315.62 L 412.85,320.68 L 410.54,323.14 L 405.47,327.63 L 402.86,329.81 L 397.19,333.74 L 388.00,339.01 L 386.09,339.97 L 382.09,341.74 L 380.07,342.59 L 375.87,344.14 L 373.75,344.88 L 369.40,346.20 L 367.21,346.83 L 362.75,347.90 L 358.27,348.92 L 349.18,350.18 L 346.91,350.43 L 342.39,350.72 L 335.70,350.85 L 334.16,350.83 L 331.11,350.76 L 329.62,350.72 L 326.91,350.63 L 325.62,350.58 L 323.55,350.47 L 323.08,350.45 L 322.33,350.39 L 321.99,350.37 Z"
            fill="white"
        />
    </g>
</svg>