<svg xmlns="http://www.w3.org/2000/svg" width="652" height="652" viewBox="0 0 652 652">
<g>
<path d="M 322.50,610.17 C318.10,607.48 295.15,593.59 271.50,579.31 C247.85,565.03 221.75,549.26 213.50,544.28 C205.25,539.30 180.05,524.11 157.50,510.54 C134.96,496.97 115.72,485.15 114.75,484.28 C113.10,482.78 113.00,474.48 113.00,333.90 L 113.00,185.11 L 115.25,182.66 C116.49,181.32 165.78,151.31 224.78,115.99 L 332.06,51.76 L 336.41,54.13 C351.19,62.17 548.91,181.67 550.75,183.66 L 553.00,186.11 L 553.00,333.62 C553.00,428.80 552.65,481.79 552.01,482.98 C551.47,483.99 538.76,492.13 523.76,501.05 C508.77,509.98 460.05,539.13 415.50,565.82 C370.95,592.52 333.60,614.52 332.50,614.71 C331.38,614.90 326.98,612.91 322.50,610.17 M 339.12,582.98 C341.12,582.43 381.84,558.56 429.62,529.94 C491.42,492.92 517.71,476.66 520.69,473.58 C528.52,465.48 528.08,474.30 527.77,331.92 C527.50,206.11 527.49,205.48 525.41,200.99 C524.26,198.51 521.89,195.04 520.13,193.28 C518.37,191.53 486.46,171.77 449.22,149.38 C344.65,86.53 342.31,85.17 337.30,84.42 C331.32,83.52 324.89,84.51 319.80,87.10 C317.49,88.28 278.01,111.76 232.05,139.29 C174.19,173.95 147.34,190.57 144.73,193.35 C137.63,200.93 138.00,193.20 138.00,333.50 C138.00,474.09 137.63,466.42 144.79,473.85 C146.83,475.96 152.32,479.95 157.00,482.71 C171.11,491.03 263.33,546.62 305.92,572.47 C313.84,577.28 321.94,581.81 323.92,582.54 C328.30,584.15 334.28,584.33 339.12,582.98 M 253.00,504.05 C253.00,480.00 252.91,478.80 250.41,470.80 C245.48,455.02 234.20,436.00 219.47,418.62 C210.76,408.35 209.57,406.44 205.46,396.16 L 201.75,386.90 L 194.91,383.46 C191.15,381.56 187.61,379.14 187.04,378.07 C186.47,377.01 186.00,370.67 186.00,364.00 C186.00,357.33 185.56,351.05 185.03,350.05 C184.49,349.05 182.47,347.29 180.53,346.15 L 177.00,344.07 L 177.00,305.02 L 177.00,265.97 L 180.25,262.56 C184.29,258.31 294.05,192.60 299.58,191.11 C302.14,190.42 304.75,190.36 306.74,190.93 C309.45,191.70 334.91,206.99 405.91,250.45 C414.94,255.98 423.26,261.77 424.41,263.32 C426.45,266.08 426.51,267.24 426.78,315.88 L 427.05,365.63 L 424.78,368.94 C423.07,371.42 410.20,379.56 373.00,401.69 C345.77,417.88 321.30,432.26 318.62,433.65 C313.25,436.42 306.65,436.95 302.84,434.92 C299.15,432.96 235.09,394.20 229.21,390.37 C219.50,384.05 220.01,387.11 220.00,334.65 C220.00,293.54 220.17,288.52 221.68,285.97 C223.16,283.46 242.88,270.75 251.08,267.01 C254.34,265.52 256.68,266.52 271.50,275.70 C286.94,285.26 286.93,285.41 269.88,295.04 C262.62,299.14 255.74,303.77 254.59,305.32 C252.61,307.99 252.48,309.58 252.22,334.32 C251.84,369.52 249.29,365.09 281.00,384.50 C312.90,404.03 308.29,403.87 337.00,386.42 C348.82,379.23 364.57,369.84 372.00,365.54 C379.43,361.25 386.79,356.56 388.37,355.12 C393.79,350.18 394.00,348.72 393.98,315.78 C393.97,286.19 393.92,285.41 391.70,281.50 C389.38,277.39 386.59,275.58 322.06,236.29 C300.86,223.39 306.31,222.13 257.93,251.16 C236.24,264.18 217.23,276.16 215.67,277.80 C214.11,279.44 212.44,282.51 211.94,284.64 C210.65,290.19 210.75,377.74 212.05,383.82 C212.72,386.90 214.11,389.67 215.80,391.26 C217.29,392.66 235.38,404.05 256.00,416.58 C309.58,449.13 305.71,447.00 311.28,447.00 C317.21,447.00 315.46,447.91 355.50,424.00 C373.65,413.16 397.50,398.98 408.50,392.48 C430.68,379.38 433.42,377.30 436.10,371.50 C437.83,367.77 437.96,364.02 437.96,316.00 C437.96,258.52 438.14,260.12 430.87,253.36 C428.11,250.80 370.93,215.40 320.77,185.22 C309.09,178.19 304.05,176.84 297.54,178.99 C295.50,179.66 270.67,194.11 242.36,211.11 C214.05,228.10 190.26,242.00 189.50,242.00 C186.59,242.00 186.98,239.62 191.38,230.58 C209.51,193.31 242.88,164.29 282.89,150.97 C300.57,145.09 310.43,143.62 332.00,143.62 C351.94,143.62 361.56,145.05 379.26,150.64 C417.48,162.72 452.40,192.58 470.30,228.50 C479.59,247.13 483.87,264.41 484.73,286.66 C485.60,309.42 482.48,327.70 474.02,349.32 L 469.83,360.06 L 482.91,380.06 C490.19,391.17 496.00,401.08 496.00,402.37 C496.00,405.78 493.25,407.74 482.39,412.09 C477.04,414.24 471.61,416.68 470.33,417.52 C467.23,419.55 467.31,423.52 470.58,429.37 C473.31,434.26 473.28,438.16 470.47,442.61 C469.74,443.77 468.99,446.47 468.82,448.61 C468.55,451.85 467.96,452.77 465.26,454.12 C459.38,457.06 459.31,457.23 458.76,469.76 C458.42,477.58 457.67,482.92 456.51,485.77 C454.13,491.60 447.01,497.65 440.19,499.63 C432.75,501.80 425.96,500.90 409.40,495.56 L 396.00,491.24 L 396.00,510.12 L 396.00,529.00 L 324.50,529.00 L 253.00,529.00 L 253.00,504.05 M 291.00,380.10 C266.50,365.13 263.91,363.26 261.72,358.98 C260.13,355.88 259.96,352.95 260.22,332.40 C260.43,314.91 260.83,308.91 261.84,307.69 C263.46,305.75 290.19,290.00 291.87,290.00 C292.53,290.00 293.31,290.64 293.61,291.42 C293.90,292.19 294.23,303.35 294.32,316.21 C294.48,336.51 294.73,339.94 296.23,342.23 C298.30,345.38 313.55,355.00 316.46,354.99 C317.58,354.99 324.12,351.62 331.00,347.50 C337.88,343.38 344.44,340.01 345.59,340.01 C346.73,340.00 353.48,343.50 360.59,347.78 C379.24,359.02 380.04,357.19 348.30,376.06 C323.60,390.75 322.25,391.42 316.50,391.71 L 310.50,392.01 L 291.00,380.10 M 362.55,339.55 C355.32,335.07 350.28,331.27 349.78,329.93 C349.32,328.70 349.03,323.14 349.12,317.57 C349.29,307.01 348.31,303.37 344.35,299.85 C341.44,297.25 305.75,275.98 303.27,275.35 C302.04,275.05 299.61,275.29 297.87,275.90 C292.29,277.84 290.01,277.14 277.86,269.75 C266.63,262.92 265.96,262.33 266.22,259.54 C266.52,256.40 266.99,256.06 289.96,242.86 C299.98,237.10 303.28,236.78 310.50,240.86 C319.74,246.08 373.46,279.18 376.86,281.73 C382.83,286.24 383.16,288.18 382.81,317.69 C382.52,342.55 382.38,344.25 380.56,345.58 C377.27,347.99 374.91,347.20 362.55,339.55 M 309.76,341.48 C307.72,340.10 305.59,338.10 305.02,337.05 C304.43,335.93 304.00,327.04 304.00,315.64 C304.00,299.25 304.25,295.89 305.57,294.57 C308.82,291.32 311.81,292.16 324.00,299.74 C339.98,309.68 339.11,308.41 338.78,321.38 L 338.50,332.36 L 329.00,338.15 C318.24,344.71 315.26,345.22 309.76,341.48 Z" fill="#2880f6"/>
</g>
</svg>