<svg width="299" height="314" viewBox="0 0 299 314" fill="none" xmlns="http://www.w3.org/2000/svg">
<path d="M1.61707 14C1.61707 6.8203 7.43736 1 14.6171 1H284.489C291.669 1 297.489 6.8203 297.489 14V274C297.489 295.539 280.029 313 258.489 313H1.61707V14Z" fill="#F5F5FF" fill-opacity="0.51" stroke="#333399" stroke-width="2"/>
<path fill-rule="evenodd" clip-rule="evenodd" d="M135.844 29.2205C131.07 29.2205 126.492 31.1169 123.116 34.4926C119.74 37.8683 117.844 42.4466 117.844 47.2205C117.844 51.9944 119.74 56.5728 123.116 59.9485C126.492 63.3241 131.07 65.2205 135.844 65.2205C140.618 65.2205 145.196 63.3241 148.572 59.9485C151.948 56.5728 153.844 51.9944 153.844 47.2205C153.844 42.4466 151.948 37.8683 148.572 34.4926C145.196 31.1169 140.618 29.2205 135.844 29.2205ZM126.844 69.7205C122.07 69.7205 117.492 71.617 114.116 74.9926C110.74 78.3683 108.844 82.9466 108.844 87.7205V92.2205C108.844 97.1705 112.894 101.221 117.844 101.221H153.844C156.231 101.221 158.52 100.272 160.208 98.5845C161.896 96.8967 162.844 94.6075 162.844 92.2205V87.7205C162.844 82.9466 160.948 78.3683 157.572 74.9926C154.196 71.617 149.618 69.7205 144.844 69.7205H126.844ZM159.694 60.7205C162.064 56.616 163.311 51.96 163.311 47.2205C163.311 42.481 162.064 37.825 159.694 33.7205C162.284 31.3504 165.511 29.7895 168.977 29.23C172.443 28.6705 175.997 29.1369 179.201 30.5717C182.406 32.0065 185.12 34.347 187.011 37.3052C188.902 40.2633 189.887 43.7099 189.844 47.2205C189.887 50.7312 188.902 54.1777 187.011 57.1359C185.12 60.094 182.406 62.4346 179.201 63.8694C175.997 65.3041 172.443 65.7705 168.977 65.211C165.511 64.6515 162.284 63.0906 159.694 60.7205ZM169.594 101.221C171.117 98.4686 171.893 95.3656 171.844 92.2205V87.7205C171.879 81.0956 169.476 74.6892 165.094 69.7205H180.844C185.618 69.7205 190.196 71.617 193.572 74.9926C196.948 78.3683 198.844 82.9466 198.844 87.7205V92.2205C198.844 94.6075 197.896 96.8967 196.208 98.5845C194.52 100.272 192.231 101.221 189.844 101.221H169.594Z" fill="#333399"/>
<path d="M54.4935 155H48.306V137.545H54.5446C56.3003 137.545 57.8117 137.895 59.0787 138.594C60.3458 139.287 61.3202 140.284 62.002 141.585C62.6895 142.886 63.0333 144.443 63.0333 146.256C63.0333 148.074 62.6895 149.636 62.002 150.943C61.3202 152.25 60.3401 153.253 59.0617 153.952C57.7889 154.651 56.2662 155 54.4935 155ZM51.9963 151.838H54.3401C55.431 151.838 56.3486 151.645 57.0929 151.259C57.8429 150.866 58.4054 150.261 58.7804 149.443C59.1611 148.619 59.3514 147.557 59.3514 146.256C59.3514 144.966 59.1611 143.912 58.7804 143.094C58.4054 142.276 57.8458 141.673 57.1014 141.287C56.3571 140.901 55.4395 140.707 54.3486 140.707H51.9963V151.838ZM71.6647 155.256C70.3181 155.256 69.159 154.983 68.1874 154.438C67.2215 153.886 66.4772 153.108 65.9544 152.102C65.4317 151.091 65.1703 149.895 65.1703 148.514C65.1703 147.168 65.4317 145.986 65.9544 144.969C66.4772 143.952 67.2129 143.159 68.1618 142.591C69.1164 142.023 70.2357 141.739 71.5198 141.739C72.3834 141.739 73.1874 141.878 73.9317 142.156C74.6817 142.429 75.3351 142.841 75.8919 143.392C76.4544 143.943 76.8919 144.636 77.2044 145.472C77.5169 146.301 77.6732 147.273 77.6732 148.386V149.384H66.6192V147.134H74.2556C74.2556 146.611 74.1419 146.148 73.9147 145.744C73.6874 145.341 73.372 145.026 72.9686 144.798C72.5709 144.565 72.1078 144.449 71.5794 144.449C71.0283 144.449 70.5397 144.577 70.1135 144.832C69.6931 145.082 69.3635 145.42 69.1249 145.847C68.8862 146.267 68.7641 146.736 68.7584 147.253V149.392C68.7584 150.04 68.8777 150.599 69.1164 151.071C69.3607 151.543 69.7044 151.906 70.1476 152.162C70.5908 152.418 71.1164 152.545 71.7243 152.545C72.1277 152.545 72.497 152.489 72.8323 152.375C73.1675 152.261 73.4544 152.091 73.6931 151.864C73.9317 151.636 74.1135 151.358 74.2385 151.028L77.5965 151.25C77.426 152.057 77.0766 152.761 76.5482 153.364C76.0254 153.96 75.3493 154.426 74.5198 154.761C73.6959 155.091 72.7442 155.256 71.6647 155.256ZM90.9345 145.642L87.6107 145.847C87.5539 145.562 87.4317 145.307 87.2442 145.08C87.0567 144.847 86.8095 144.662 86.5027 144.526C86.2016 144.384 85.8408 144.312 85.4203 144.312C84.8578 144.312 84.3834 144.432 83.997 144.67C83.6107 144.903 83.4175 145.216 83.4175 145.608C83.4175 145.92 83.5425 146.185 83.7925 146.401C84.0425 146.616 84.4715 146.79 85.0794 146.92L87.4487 147.398C88.7215 147.659 89.6703 148.08 90.2953 148.659C90.9203 149.239 91.2328 150 91.2328 150.943C91.2328 151.801 90.98 152.554 90.4743 153.202C89.9743 153.849 89.2868 154.355 88.4118 154.719C87.5425 155.077 86.5397 155.256 85.4033 155.256C83.6703 155.256 82.2897 154.895 81.2612 154.173C80.2385 153.446 79.6391 152.457 79.4629 151.207L83.034 151.02C83.1419 151.548 83.4033 151.952 83.8181 152.23C84.2328 152.503 84.7641 152.639 85.4118 152.639C86.0482 152.639 86.5595 152.517 86.9459 152.273C87.3379 152.023 87.5368 151.702 87.5425 151.31C87.5368 150.98 87.3976 150.71 87.1249 150.5C86.8522 150.284 86.4317 150.119 85.8635 150.006L83.5965 149.554C82.3181 149.298 81.3664 148.855 80.7414 148.224C80.122 147.594 79.8124 146.79 79.8124 145.812C79.8124 144.972 80.0397 144.247 80.4942 143.639C80.9544 143.031 81.5993 142.562 82.4289 142.233C83.2641 141.903 84.2414 141.739 85.3607 141.739C87.0141 141.739 88.3152 142.088 89.2641 142.787C90.2186 143.486 90.7754 144.437 90.9345 145.642ZM99.485 155.256C98.1384 155.256 96.9793 154.983 96.0077 154.438C95.0418 153.886 94.2975 153.108 93.7747 152.102C93.252 151.091 92.9906 149.895 92.9906 148.514C92.9906 147.168 93.252 145.986 93.7747 144.969C94.2975 143.952 95.0333 143.159 95.9821 142.591C96.9367 142.023 98.056 141.739 99.3401 141.739C100.204 141.739 101.008 141.878 101.752 142.156C102.502 142.429 103.155 142.841 103.712 143.392C104.275 143.943 104.712 144.636 105.025 145.472C105.337 146.301 105.493 147.273 105.493 148.386V149.384H94.4395V147.134H102.076C102.076 146.611 101.962 146.148 101.735 145.744C101.508 145.341 101.192 145.026 100.789 144.798C100.391 144.565 99.9281 144.449 99.3997 144.449C98.8486 144.449 98.36 144.577 97.9338 144.832C97.5134 145.082 97.1838 145.42 96.9452 145.847C96.7066 146.267 96.5844 146.736 96.5787 147.253V149.392C96.5787 150.04 96.698 150.599 96.9367 151.071C97.181 151.543 97.5247 151.906 97.9679 152.162C98.4111 152.418 98.9367 152.545 99.5446 152.545C99.948 152.545 100.317 152.489 100.653 152.375C100.988 152.261 101.275 152.091 101.513 151.864C101.752 151.636 101.934 151.358 102.059 151.028L105.417 151.25C105.246 152.057 104.897 152.761 104.368 153.364C103.846 153.96 103.17 154.426 102.34 154.761C101.516 155.091 100.565 155.256 99.485 155.256ZM111.493 147.432V155H107.863V141.909H111.323V144.219H111.476C111.766 143.457 112.252 142.855 112.934 142.412C113.616 141.963 114.442 141.739 115.414 141.739C116.323 141.739 117.116 141.938 117.792 142.335C118.468 142.733 118.993 143.301 119.368 144.04C119.743 144.773 119.931 145.648 119.931 146.665V155H116.3V147.312C116.306 146.511 116.101 145.886 115.687 145.438C115.272 144.983 114.701 144.756 113.974 144.756C113.485 144.756 113.053 144.861 112.678 145.071C112.309 145.281 112.019 145.588 111.809 145.991C111.604 146.389 111.499 146.869 111.493 147.432ZM134.528 141.909L129.952 155H125.861L121.284 141.909H125.119L127.838 151.276H127.974L130.685 141.909H134.528ZM141.879 155.256C140.555 155.256 139.41 154.974 138.444 154.412C137.484 153.844 136.743 153.054 136.22 152.043C135.697 151.026 135.436 149.847 135.436 148.506C135.436 147.153 135.697 145.972 136.22 144.96C136.743 143.943 137.484 143.153 138.444 142.591C139.41 142.023 140.555 141.739 141.879 141.739C143.203 141.739 144.345 142.023 145.305 142.591C146.271 143.153 147.016 143.943 147.538 144.96C148.061 145.972 148.322 147.153 148.322 148.506C148.322 149.847 148.061 151.026 147.538 152.043C147.016 153.054 146.271 153.844 145.305 154.412C144.345 154.974 143.203 155.256 141.879 155.256ZM141.896 152.443C142.498 152.443 143.001 152.273 143.405 151.932C143.808 151.585 144.112 151.114 144.317 150.517C144.527 149.92 144.632 149.241 144.632 148.48C144.632 147.719 144.527 147.04 144.317 146.443C144.112 145.847 143.808 145.375 143.405 145.028C143.001 144.682 142.498 144.509 141.896 144.509C141.288 144.509 140.777 144.682 140.362 145.028C139.953 145.375 139.643 145.847 139.433 146.443C139.229 147.04 139.126 147.719 139.126 148.48C139.126 149.241 139.229 149.92 139.433 150.517C139.643 151.114 139.953 151.585 140.362 151.932C140.777 152.273 141.288 152.443 141.896 152.443ZM154.314 137.545V155H150.683V137.545H154.314ZM169.427 141.909L164.85 155H160.759L156.182 141.909H160.018L162.736 151.276H162.873L165.583 141.909H169.427ZM171.285 155V141.909H174.915V155H171.285ZM173.109 140.222C172.569 140.222 172.106 140.043 171.719 139.685C171.339 139.321 171.148 138.886 171.148 138.381C171.148 137.881 171.339 137.452 171.719 137.094C172.106 136.73 172.569 136.548 173.109 136.548C173.648 136.548 174.109 136.73 174.489 137.094C174.876 137.452 175.069 137.881 175.069 138.381C175.069 138.886 174.876 139.321 174.489 139.685C174.109 140.043 173.648 140.222 173.109 140.222ZM177.824 155V141.909H181.284V144.219H181.437C181.71 143.452 182.165 142.847 182.801 142.403C183.437 141.96 184.199 141.739 185.085 141.739C185.983 141.739 186.747 141.963 187.378 142.412C188.008 142.855 188.429 143.457 188.639 144.219H188.775C189.042 143.469 189.525 142.869 190.224 142.42C190.929 141.966 191.761 141.739 192.721 141.739C193.943 141.739 194.935 142.128 195.696 142.906C196.463 143.679 196.846 144.776 196.846 146.196V155H193.224V146.912C193.224 146.185 193.031 145.639 192.645 145.276C192.258 144.912 191.775 144.73 191.196 144.73C190.537 144.73 190.023 144.94 189.653 145.361C189.284 145.776 189.099 146.324 189.099 147.006V155H185.579V146.835C185.579 146.193 185.395 145.682 185.025 145.301C184.662 144.92 184.182 144.73 183.585 144.73C183.182 144.73 182.818 144.832 182.494 145.037C182.176 145.236 181.923 145.517 181.736 145.881C181.548 146.239 181.454 146.659 181.454 147.142V155H177.824ZM205.68 155.256C204.334 155.256 203.175 154.983 202.203 154.438C201.237 153.886 200.493 153.108 199.97 152.102C199.447 151.091 199.186 149.895 199.186 148.514C199.186 147.168 199.447 145.986 199.97 144.969C200.493 143.952 201.229 143.159 202.177 142.591C203.132 142.023 204.251 141.739 205.535 141.739C206.399 141.739 207.203 141.878 207.947 142.156C208.697 142.429 209.351 142.841 209.908 143.392C210.47 143.943 210.908 144.636 211.22 145.472C211.533 146.301 211.689 147.273 211.689 148.386V149.384H200.635V147.134H208.271C208.271 146.611 208.158 146.148 207.93 145.744C207.703 145.341 207.388 145.026 206.984 144.798C206.587 144.565 206.123 144.449 205.595 144.449C205.044 144.449 204.555 144.577 204.129 144.832C203.709 145.082 203.379 145.42 203.141 145.847C202.902 146.267 202.78 146.736 202.774 147.253V149.392C202.774 150.04 202.893 150.599 203.132 151.071C203.376 151.543 203.72 151.906 204.163 152.162C204.606 152.418 205.132 152.545 205.74 152.545C206.143 152.545 206.513 152.489 206.848 152.375C207.183 152.261 207.47 152.091 207.709 151.864C207.947 151.636 208.129 151.358 208.254 151.028L211.612 151.25C211.442 152.057 211.092 152.761 210.564 153.364C210.041 153.96 209.365 154.426 208.535 154.761C207.712 155.091 206.76 155.256 205.68 155.256ZM217.689 147.432V155H214.058V141.909H217.518V144.219H217.672C217.962 143.457 218.447 142.855 219.129 142.412C219.811 141.963 220.638 141.739 221.609 141.739C222.518 141.739 223.311 141.938 223.987 142.335C224.663 142.733 225.189 143.301 225.564 144.04C225.939 144.773 226.126 145.648 226.126 146.665V155H222.496V147.312C222.501 146.511 222.297 145.886 221.882 145.438C221.467 144.983 220.896 144.756 220.169 144.756C219.68 144.756 219.248 144.861 218.873 145.071C218.504 145.281 218.214 145.588 218.004 145.991C217.8 146.389 217.694 146.869 217.689 147.432ZM235.951 141.909V144.636H228.067V141.909H235.951ZM229.857 138.773H233.488V150.977C233.488 151.312 233.539 151.574 233.641 151.761C233.743 151.943 233.886 152.071 234.067 152.145C234.255 152.219 234.471 152.256 234.715 152.256C234.886 152.256 235.056 152.241 235.226 152.213C235.397 152.179 235.528 152.153 235.618 152.136L236.19 154.838C236.008 154.895 235.752 154.96 235.422 155.034C235.093 155.114 234.692 155.162 234.221 155.179C233.346 155.213 232.579 155.097 231.92 154.83C231.266 154.562 230.758 154.148 230.394 153.585C230.03 153.023 229.851 152.312 229.857 151.455V138.773ZM244.09 155.256C242.766 155.256 241.621 154.974 240.655 154.412C239.695 153.844 238.954 153.054 238.431 152.043C237.908 151.026 237.647 149.847 237.647 148.506C237.647 147.153 237.908 145.972 238.431 144.96C238.954 143.943 239.695 143.153 240.655 142.591C241.621 142.023 242.766 141.739 244.09 141.739C245.414 141.739 246.556 142.023 247.516 142.591C248.482 143.153 249.226 143.943 249.749 144.96C250.272 145.972 250.533 147.153 250.533 148.506C250.533 149.847 250.272 151.026 249.749 152.043C249.226 153.054 248.482 153.844 247.516 154.412C246.556 154.974 245.414 155.256 244.09 155.256ZM244.107 152.443C244.709 152.443 245.212 152.273 245.616 151.932C246.019 151.585 246.323 151.114 246.528 150.517C246.738 149.92 246.843 149.241 246.843 148.48C246.843 147.719 246.738 147.04 246.528 146.443C246.323 145.847 246.019 145.375 245.616 145.028C245.212 144.682 244.709 144.509 244.107 144.509C243.499 144.509 242.988 144.682 242.573 145.028C242.164 145.375 241.854 145.847 241.644 146.443C241.44 147.04 241.337 147.719 241.337 148.48C241.337 149.241 241.44 149.92 241.644 150.517C241.854 151.114 242.164 151.585 242.573 151.932C242.988 152.273 243.499 152.443 244.107 152.443ZM61.0911 184V166.545H64.7815V173.747H72.273V166.545H75.9548V184H72.273V176.79H64.7815V184H61.0911ZM87.3241 178.426V170.909H90.9548V184H87.469V181.622H87.3326C87.0372 182.389 86.5457 183.006 85.8582 183.472C85.1764 183.937 84.344 184.17 83.361 184.17C82.486 184.17 81.7161 183.972 81.0514 183.574C80.3866 183.176 79.8667 182.611 79.4917 181.878C79.1224 181.145 78.9349 180.267 78.9292 179.244V170.909H82.5599V178.597C82.5656 179.369 82.773 179.98 83.1821 180.429C83.5911 180.878 84.1394 181.102 84.8269 181.102C85.2644 181.102 85.6735 181.003 86.0542 180.804C86.4349 180.599 86.7417 180.298 86.9747 179.901C87.2133 179.503 87.3298 179.011 87.3241 178.426ZM93.8589 184V170.909H97.3191V173.219H97.4725C97.7453 172.452 98.1998 171.847 98.8362 171.403C99.4725 170.96 100.234 170.739 101.12 170.739C102.018 170.739 102.782 170.963 103.413 171.412C104.044 171.855 104.464 172.457 104.674 173.219H104.811C105.078 172.469 105.561 171.869 106.259 171.42C106.964 170.966 107.796 170.739 108.757 170.739C109.978 170.739 110.97 171.128 111.731 171.906C112.498 172.679 112.882 173.776 112.882 175.196V184H109.259V175.912C109.259 175.185 109.066 174.639 108.68 174.276C108.294 173.912 107.811 173.73 107.231 173.73C106.572 173.73 106.058 173.94 105.688 174.361C105.319 174.776 105.134 175.324 105.134 176.006V184H101.615V175.835C101.615 175.193 101.43 174.682 101.061 174.301C100.697 173.92 100.217 173.73 99.6203 173.73C99.2169 173.73 98.8532 173.832 98.5294 174.037C98.2112 174.236 97.9583 174.517 97.7708 174.881C97.5833 175.239 97.4896 175.659 97.4896 176.142V184H93.8589ZM119.482 184.247C118.647 184.247 117.903 184.102 117.25 183.812C116.596 183.517 116.079 183.082 115.698 182.509C115.323 181.929 115.136 181.207 115.136 180.344C115.136 179.616 115.269 179.006 115.536 178.511C115.804 178.017 116.167 177.619 116.627 177.318C117.088 177.017 117.61 176.79 118.196 176.636C118.786 176.483 119.406 176.375 120.054 176.312C120.815 176.233 121.429 176.159 121.894 176.091C122.36 176.017 122.698 175.909 122.909 175.767C123.119 175.625 123.224 175.415 123.224 175.136V175.085C123.224 174.545 123.054 174.128 122.713 173.832C122.377 173.537 121.9 173.389 121.281 173.389C120.627 173.389 120.107 173.534 119.721 173.824C119.335 174.108 119.079 174.466 118.954 174.898L115.596 174.625C115.767 173.83 116.102 173.142 116.602 172.562C117.102 171.977 117.747 171.528 118.536 171.216C119.332 170.898 120.252 170.739 121.298 170.739C122.025 170.739 122.721 170.824 123.386 170.994C124.056 171.165 124.65 171.429 125.167 171.787C125.69 172.145 126.102 172.605 126.403 173.168C126.704 173.724 126.855 174.392 126.855 175.17V184H123.411V182.185H123.309C123.099 182.594 122.818 182.955 122.465 183.267C122.113 183.574 121.69 183.815 121.196 183.991C120.701 184.162 120.13 184.247 119.482 184.247ZM120.522 181.741C121.056 181.741 121.528 181.636 121.937 181.426C122.346 181.21 122.667 180.92 122.9 180.557C123.133 180.193 123.25 179.781 123.25 179.321V177.932C123.136 178.006 122.98 178.074 122.781 178.136C122.588 178.193 122.369 178.247 122.125 178.298C121.88 178.344 121.636 178.386 121.392 178.426C121.147 178.46 120.926 178.491 120.727 178.52C120.301 178.582 119.929 178.682 119.61 178.818C119.292 178.955 119.045 179.139 118.869 179.372C118.693 179.599 118.605 179.884 118.605 180.224C118.605 180.719 118.784 181.097 119.142 181.358C119.505 181.614 119.965 181.741 120.522 181.741ZM133.302 176.432V184H129.671V170.909H133.132V173.219H133.285C133.575 172.457 134.061 171.855 134.742 171.412C135.424 170.963 136.251 170.739 137.223 170.739C138.132 170.739 138.924 170.938 139.6 171.335C140.277 171.733 140.802 172.301 141.177 173.04C141.552 173.773 141.74 174.648 141.74 175.665V184H138.109V176.312C138.115 175.511 137.91 174.886 137.495 174.438C137.08 173.983 136.509 173.756 135.782 173.756C135.294 173.756 134.862 173.861 134.487 174.071C134.117 174.281 133.828 174.588 133.617 174.991C133.413 175.389 133.308 175.869 133.302 176.432ZM150.516 184.256C149.192 184.256 148.047 183.974 147.081 183.412C146.121 182.844 145.379 182.054 144.857 181.043C144.334 180.026 144.073 178.847 144.073 177.506C144.073 176.153 144.334 174.972 144.857 173.96C145.379 172.943 146.121 172.153 147.081 171.591C148.047 171.023 149.192 170.739 150.516 170.739C151.84 170.739 152.982 171.023 153.942 171.591C154.908 172.153 155.652 172.943 156.175 173.96C156.698 174.972 156.959 176.153 156.959 177.506C156.959 178.847 156.698 180.026 156.175 181.043C155.652 182.054 154.908 182.844 153.942 183.412C152.982 183.974 151.84 184.256 150.516 184.256ZM150.533 181.443C151.135 181.443 151.638 181.273 152.041 180.932C152.445 180.585 152.749 180.114 152.953 179.517C153.164 178.92 153.269 178.241 153.269 177.48C153.269 176.719 153.164 176.04 152.953 175.443C152.749 174.847 152.445 174.375 152.041 174.028C151.638 173.682 151.135 173.509 150.533 173.509C149.925 173.509 149.414 173.682 148.999 174.028C148.59 174.375 148.28 174.847 148.07 175.443C147.865 176.04 147.763 176.719 147.763 177.48C147.763 178.241 147.865 178.92 148.07 179.517C148.28 180.114 148.59 180.585 148.999 180.932C149.414 181.273 149.925 181.443 150.533 181.443ZM176.517 172.188C176.397 171.773 176.23 171.406 176.014 171.088C175.798 170.764 175.534 170.491 175.221 170.27C174.914 170.043 174.562 169.869 174.164 169.75C173.772 169.631 173.338 169.571 172.86 169.571C171.968 169.571 171.184 169.793 170.508 170.236C169.838 170.679 169.315 171.324 168.94 172.17C168.565 173.011 168.377 174.04 168.377 175.256C168.377 176.472 168.562 177.506 168.931 178.358C169.301 179.21 169.823 179.861 170.5 180.31C171.176 180.753 171.974 180.974 172.894 180.974C173.73 180.974 174.443 180.827 175.034 180.531C175.63 180.23 176.085 179.807 176.397 179.261C176.715 178.716 176.875 178.071 176.875 177.327L177.625 177.438H173.125V174.659H180.429V176.858C180.429 178.392 180.105 179.71 179.457 180.812C178.809 181.909 177.917 182.756 176.781 183.352C175.644 183.943 174.343 184.239 172.877 184.239C171.241 184.239 169.804 183.878 168.565 183.156C167.326 182.429 166.36 181.398 165.667 180.062C164.98 178.722 164.636 177.131 164.636 175.29C164.636 173.875 164.84 172.614 165.25 171.506C165.664 170.392 166.244 169.449 166.988 168.676C167.732 167.903 168.599 167.315 169.588 166.912C170.576 166.509 171.647 166.307 172.801 166.307C173.789 166.307 174.71 166.452 175.562 166.741C176.414 167.026 177.17 167.429 177.829 167.952C178.494 168.474 179.036 169.097 179.457 169.818C179.877 170.534 180.147 171.324 180.267 172.188H176.517ZM186.763 166.545V184H183.132V166.545H186.763ZM195.586 184.256C194.262 184.256 193.117 183.974 192.152 183.412C191.191 182.844 190.45 182.054 189.927 181.043C189.404 180.026 189.143 178.847 189.143 177.506C189.143 176.153 189.404 174.972 189.927 173.96C190.45 172.943 191.191 172.153 192.152 171.591C193.117 171.023 194.262 170.739 195.586 170.739C196.91 170.739 198.052 171.023 199.012 171.591C199.978 172.153 200.723 172.943 201.245 173.96C201.768 174.972 202.029 176.153 202.029 177.506C202.029 178.847 201.768 180.026 201.245 181.043C200.723 182.054 199.978 182.844 199.012 183.412C198.052 183.974 196.91 184.256 195.586 184.256ZM195.603 181.443C196.205 181.443 196.708 181.273 197.112 180.932C197.515 180.585 197.819 180.114 198.024 179.517C198.234 178.92 198.339 178.241 198.339 177.48C198.339 176.719 198.234 176.04 198.024 175.443C197.819 174.847 197.515 174.375 197.112 174.028C196.708 173.682 196.205 173.509 195.603 173.509C194.995 173.509 194.484 173.682 194.069 174.028C193.66 174.375 193.35 174.847 193.14 175.443C192.936 176.04 192.833 176.719 192.833 177.48C192.833 178.241 192.936 178.92 193.14 179.517C193.35 180.114 193.66 180.585 194.069 180.932C194.484 181.273 194.995 181.443 195.603 181.443ZM204.458 184V166.545H208.089V173.108H208.2C208.359 172.756 208.589 172.398 208.89 172.034C209.197 171.665 209.595 171.358 210.083 171.114C210.578 170.864 211.191 170.739 211.924 170.739C212.879 170.739 213.759 170.989 214.566 171.489C215.373 171.983 216.018 172.73 216.501 173.73C216.984 174.724 217.225 175.972 217.225 177.472C217.225 178.932 216.99 180.165 216.518 181.17C216.052 182.17 215.416 182.929 214.609 183.446C213.808 183.957 212.91 184.213 211.916 184.213C211.211 184.213 210.612 184.097 210.117 183.864C209.629 183.631 209.228 183.338 208.916 182.986C208.603 182.628 208.365 182.267 208.2 181.903H208.038V184H204.458ZM208.012 177.455C208.012 178.233 208.12 178.912 208.336 179.491C208.552 180.071 208.865 180.523 209.274 180.847C209.683 181.165 210.18 181.324 210.765 181.324C211.356 181.324 211.856 181.162 212.265 180.838C212.674 180.509 212.984 180.054 213.194 179.474C213.41 178.889 213.518 178.216 213.518 177.455C213.518 176.699 213.413 176.034 213.203 175.46C212.992 174.886 212.683 174.437 212.274 174.114C211.865 173.79 211.362 173.628 210.765 173.628C210.174 173.628 209.674 173.784 209.265 174.097C208.862 174.409 208.552 174.852 208.336 175.426C208.12 176 208.012 176.676 208.012 177.455ZM223.381 184.247C222.546 184.247 221.801 184.102 221.148 183.812C220.495 183.517 219.978 183.082 219.597 182.509C219.222 181.929 219.034 181.207 219.034 180.344C219.034 179.616 219.168 179.006 219.435 178.511C219.702 178.017 220.066 177.619 220.526 177.318C220.986 177.017 221.509 176.79 222.094 176.636C222.685 176.483 223.304 176.375 223.952 176.312C224.713 176.233 225.327 176.159 225.793 176.091C226.259 176.017 226.597 175.909 226.807 175.767C227.017 175.625 227.122 175.415 227.122 175.136V175.085C227.122 174.545 226.952 174.128 226.611 173.832C226.276 173.537 225.799 173.389 225.179 173.389C224.526 173.389 224.006 173.534 223.62 173.824C223.233 174.108 222.978 174.466 222.853 174.898L219.495 174.625C219.665 173.83 220 173.142 220.5 172.562C221 171.977 221.645 171.528 222.435 171.216C223.23 170.898 224.151 170.739 225.196 170.739C225.924 170.739 226.62 170.824 227.284 170.994C227.955 171.165 228.549 171.429 229.066 171.787C229.588 172.145 230 172.605 230.301 173.168C230.603 173.724 230.753 174.392 230.753 175.17V184H227.31V182.185H227.208C226.997 182.594 226.716 182.955 226.364 183.267C226.012 183.574 225.588 183.815 225.094 183.991C224.6 184.162 224.029 184.247 223.381 184.247ZM224.421 181.741C224.955 181.741 225.426 181.636 225.835 181.426C226.245 181.21 226.566 180.92 226.799 180.557C227.031 180.193 227.148 179.781 227.148 179.321V177.932C227.034 178.006 226.878 178.074 226.679 178.136C226.486 178.193 226.267 178.247 226.023 178.298C225.779 178.344 225.534 178.386 225.29 178.426C225.046 178.46 224.824 178.491 224.625 178.52C224.199 178.582 223.827 178.682 223.509 178.818C223.191 178.955 222.943 179.139 222.767 179.372C222.591 179.599 222.503 179.884 222.503 180.224C222.503 180.719 222.682 181.097 223.04 181.358C223.404 181.614 223.864 181.741 224.421 181.741ZM237.201 166.545V184H233.57V166.545H237.201Z" fill="#333399"/>
<path d="M26.0972 225V210.455H31.012C32.1483 210.455 33.0811 210.649 33.8102 211.037C34.5394 211.42 35.0792 211.948 35.4296 212.621C35.7799 213.293 35.9551 214.058 35.9551 214.915C35.9551 215.772 35.7799 216.532 35.4296 217.195C35.0792 217.857 34.5418 218.378 33.8173 218.757C33.0929 219.131 32.1673 219.318 31.0404 219.318H27.0631V217.727H30.9835C31.7601 217.727 32.3851 217.614 32.8585 217.386C33.3368 217.159 33.6824 216.837 33.8955 216.42C34.1133 215.999 34.2222 215.497 34.2222 214.915C34.2222 214.332 34.1133 213.823 33.8955 213.388C33.6777 212.952 33.3297 212.616 32.8514 212.379C32.3732 212.138 31.7411 212.017 30.9551 212.017H27.8585V225H26.0972ZM32.9438 218.466L36.5233 225H34.4779L30.9551 218.466H32.9438ZM43.1196 225.227C42.0684 225.227 41.1617 224.995 40.3994 224.531C39.6418 224.062 39.0571 223.409 38.6451 222.571C38.2379 221.728 38.0343 220.748 38.0343 219.631C38.0343 218.513 38.2379 217.528 38.6451 216.676C39.0571 215.819 39.63 215.152 40.3639 214.673C41.1025 214.19 41.9642 213.949 42.9491 213.949C43.5173 213.949 44.0784 214.044 44.6323 214.233C45.1863 214.422 45.6906 214.73 46.1451 215.156C46.5997 215.578 46.9619 216.136 47.2318 216.832C47.5017 217.528 47.6366 218.385 47.6366 219.403V220.114H39.2275V218.665H45.9321C45.9321 218.049 45.8089 217.5 45.5627 217.017C45.3213 216.534 44.9756 216.153 44.5258 215.874C44.0807 215.594 43.5552 215.455 42.9491 215.455C42.2815 215.455 41.7038 215.62 41.2161 215.952C40.7332 216.278 40.3615 216.705 40.1011 217.23C39.8407 217.756 39.7105 218.319 39.7105 218.92V219.886C39.7105 220.71 39.8525 221.409 40.1366 221.982C40.4254 222.55 40.8255 222.983 41.3369 223.281C41.8482 223.575 42.4425 223.722 43.1196 223.722C43.5599 223.722 43.9576 223.66 44.3127 223.537C44.6726 223.409 44.9827 223.22 45.2431 222.969C45.5035 222.713 45.7048 222.396 45.8468 222.017L47.4661 222.472C47.2957 223.021 47.0092 223.504 46.6068 223.92C46.2043 224.332 45.7071 224.654 45.1153 224.886C44.5234 225.114 43.8582 225.227 43.1196 225.227ZM54.3056 225.227C53.3965 225.227 52.594 224.998 51.898 224.538C51.2019 224.074 50.6574 223.421 50.2644 222.578C49.8714 221.731 49.6749 220.729 49.6749 219.574C49.6749 218.428 49.8714 217.434 50.2644 216.591C50.6574 215.748 51.2043 215.097 51.9051 214.638C52.6058 214.179 53.4155 213.949 54.334 213.949C55.0443 213.949 55.6053 214.067 56.0173 214.304C56.4339 214.536 56.7512 214.801 56.969 215.099C57.1915 215.393 57.3643 215.634 57.4874 215.824H57.6295V210.455H59.3056V225H57.6863V223.324H57.4874C57.3643 223.523 57.1892 223.774 56.9619 224.077C56.7346 224.375 56.4103 224.643 55.9889 224.879C55.5675 225.111 55.0064 225.227 54.3056 225.227ZM54.5329 223.722C55.2053 223.722 55.7734 223.546 56.2374 223.196C56.7015 222.841 57.0542 222.351 57.2957 221.726C57.5372 221.096 57.6579 220.369 57.6579 219.545C57.6579 218.731 57.5395 218.018 57.3028 217.408C57.066 216.792 56.7157 216.314 56.2517 215.973C55.7876 215.627 55.2147 215.455 54.5329 215.455C53.8227 215.455 53.2308 215.637 52.7573 216.001C52.2886 216.361 51.9358 216.851 51.6991 217.472C51.4671 218.087 51.3511 218.778 51.3511 219.545C51.3511 220.322 51.4695 221.027 51.7062 221.662C51.9477 222.292 52.3028 222.794 52.7715 223.168C53.245 223.537 53.8321 223.722 54.5329 223.722ZM67.1821 225.227C66.1309 225.227 65.2242 224.995 64.4619 224.531C63.7043 224.062 63.1196 223.409 62.7076 222.571C62.3004 221.728 62.0968 220.748 62.0968 219.631C62.0968 218.513 62.3004 217.528 62.7076 216.676C63.1196 215.819 63.6925 215.152 64.4264 214.673C65.165 214.19 66.0267 213.949 67.0116 213.949C67.5798 213.949 68.1409 214.044 68.6948 214.233C69.2488 214.422 69.7531 214.73 70.2076 215.156C70.6622 215.578 71.0244 216.136 71.2943 216.832C71.5642 217.528 71.6991 218.385 71.6991 219.403V220.114H63.29V218.665H69.9946C69.9946 218.049 69.8714 217.5 69.6252 217.017C69.3838 216.534 69.0381 216.153 68.5883 215.874C68.1432 215.594 67.6177 215.455 67.0116 215.455C66.344 215.455 65.7663 215.62 65.2786 215.952C64.7957 216.278 64.424 216.705 64.1636 217.23C63.9032 217.756 63.773 218.319 63.773 218.92V219.886C63.773 220.71 63.915 221.409 64.1991 221.982C64.4879 222.55 64.888 222.983 65.3994 223.281C65.9107 223.575 66.505 223.722 67.1821 223.722C67.6224 223.722 68.0201 223.66 68.3752 223.537C68.7351 223.409 69.0452 223.22 69.3056 222.969C69.566 222.713 69.7673 222.396 69.9093 222.017L71.5286 222.472C71.3582 223.021 71.0717 223.504 70.6693 223.92C70.2668 224.332 69.7696 224.654 69.1778 224.886C68.5859 225.114 67.9207 225.227 67.1821 225.227ZM84.2772 229.318C83.4676 229.318 82.7715 229.214 82.1892 229.006C81.6068 228.802 81.1214 228.532 80.7332 228.196C80.3497 227.865 80.0443 227.509 79.817 227.131L81.1522 226.193C81.3037 226.392 81.4955 226.619 81.7275 226.875C81.9595 227.135 82.2767 227.36 82.6792 227.55C83.0864 227.744 83.6191 227.841 84.2772 227.841C85.1579 227.841 85.8847 227.628 86.4576 227.202C87.0305 226.776 87.317 226.108 87.317 225.199V222.983H87.1749C87.0518 223.182 86.8767 223.428 86.6494 223.722C86.4268 224.01 86.1049 224.268 85.6835 224.496C85.2668 224.718 84.7034 224.83 83.9931 224.83C83.1124 224.83 82.3217 224.621 81.621 224.205C80.9249 223.788 80.3733 223.182 79.9661 222.386C79.5637 221.591 79.3624 220.625 79.3624 219.489C79.3624 218.371 79.5589 217.398 79.9519 216.57C80.3449 215.736 80.8918 215.092 81.5926 214.638C82.2933 214.179 83.103 213.949 84.0215 213.949C84.7318 213.949 85.2952 214.067 85.7119 214.304C86.1333 214.536 86.4553 214.801 86.6778 215.099C86.9051 215.393 87.0803 215.634 87.2034 215.824H87.3738V214.091H88.9931V225.312C88.9931 226.25 88.7801 227.012 88.3539 227.599C87.9325 228.191 87.3643 228.625 86.6494 228.899C85.9392 229.179 85.1484 229.318 84.2772 229.318ZM84.2204 223.324C84.8928 223.324 85.4609 223.17 85.9249 222.862C86.389 222.554 86.7417 222.112 86.9832 221.534C87.2247 220.956 87.3454 220.265 87.3454 219.46C87.3454 218.674 87.227 217.981 86.9903 217.379C86.7535 216.778 86.4032 216.307 85.9392 215.966C85.4751 215.625 84.9022 215.455 84.2204 215.455C83.5102 215.455 82.9183 215.634 82.4448 215.994C81.9761 216.354 81.6233 216.837 81.3866 217.443C81.1546 218.049 81.0386 218.722 81.0386 219.46C81.0386 220.218 81.157 220.888 81.3937 221.47C81.6352 222.048 81.9903 222.502 82.459 222.834C82.9325 223.161 83.5196 223.324 84.2204 223.324ZM93.7374 210.455V225H92.0613V210.455H93.7374ZM101.239 225.227C100.254 225.227 99.3903 224.993 98.6469 224.524C97.9083 224.055 97.3306 223.4 96.9139 222.557C96.502 221.714 96.296 220.729 96.296 219.602C96.296 218.466 96.502 217.474 96.9139 216.626C97.3306 215.779 97.9083 215.121 98.6469 214.652C99.3903 214.183 100.254 213.949 101.239 213.949C102.224 213.949 103.086 214.183 103.824 214.652C104.568 215.121 105.145 215.779 105.557 216.626C105.974 217.474 106.182 218.466 106.182 219.602C106.182 220.729 105.974 221.714 105.557 222.557C105.145 223.4 104.568 224.055 103.824 224.524C103.086 224.993 102.224 225.227 101.239 225.227ZM101.239 223.722C101.987 223.722 102.603 223.53 103.086 223.146C103.569 222.763 103.926 222.259 104.158 221.634C104.39 221.009 104.506 220.331 104.506 219.602C104.506 218.873 104.39 218.194 104.158 217.564C103.926 216.934 103.569 216.425 103.086 216.037C102.603 215.649 101.987 215.455 101.239 215.455C100.491 215.455 99.8756 215.649 99.3926 216.037C98.9097 216.425 98.5522 216.934 98.3202 217.564C98.0882 218.194 97.9722 218.873 97.9722 219.602C97.9722 220.331 98.0882 221.009 98.3202 221.634C98.5522 222.259 98.9097 222.763 99.3926 223.146C99.8756 223.53 100.491 223.722 101.239 223.722ZM108.968 225V210.455H110.644V215.824H110.786C110.91 215.634 111.08 215.393 111.298 215.099C111.52 214.801 111.838 214.536 112.25 214.304C112.666 214.067 113.23 213.949 113.94 213.949C114.858 213.949 115.668 214.179 116.369 214.638C117.07 215.097 117.616 215.748 118.009 216.591C118.402 217.434 118.599 218.428 118.599 219.574C118.599 220.729 118.402 221.731 118.009 222.578C117.616 223.421 117.072 224.074 116.376 224.538C115.68 224.998 114.877 225.227 113.968 225.227C113.268 225.227 112.706 225.111 112.285 224.879C111.864 224.643 111.539 224.375 111.312 224.077C111.085 223.774 110.91 223.523 110.786 223.324H110.588V225H108.968ZM110.616 219.545C110.616 220.369 110.737 221.096 110.978 221.726C111.22 222.351 111.572 222.841 112.036 223.196C112.5 223.546 113.069 223.722 113.741 223.722C114.442 223.722 115.027 223.537 115.495 223.168C115.969 222.794 116.324 222.292 116.561 221.662C116.802 221.027 116.923 220.322 116.923 219.545C116.923 218.778 116.804 218.087 116.568 217.472C116.336 216.851 115.983 216.361 115.509 216.001C115.041 215.637 114.451 215.455 113.741 215.455C113.059 215.455 112.486 215.627 112.022 215.973C111.558 216.314 111.208 216.792 110.971 217.408C110.734 218.018 110.616 218.731 110.616 219.545ZM124.373 225.256C123.682 225.256 123.054 225.125 122.491 224.865C121.928 224.6 121.48 224.219 121.149 223.722C120.817 223.22 120.652 222.614 120.652 221.903C120.652 221.278 120.775 220.772 121.021 220.384C121.267 219.991 121.596 219.683 122.008 219.46C122.42 219.238 122.875 219.072 123.372 218.963C123.874 218.849 124.378 218.759 124.884 218.693C125.547 218.608 126.085 218.544 126.497 218.501C126.913 218.454 127.216 218.376 127.406 218.267C127.6 218.158 127.697 217.969 127.697 217.699V217.642C127.697 216.941 127.505 216.397 127.122 216.009C126.743 215.62 126.168 215.426 125.396 215.426C124.596 215.426 123.968 215.601 123.514 215.952C123.059 216.302 122.74 216.676 122.555 217.074L120.964 216.506C121.248 215.843 121.627 215.327 122.1 214.957C122.579 214.583 123.099 214.323 123.663 214.176C124.231 214.025 124.79 213.949 125.339 213.949C125.689 213.949 126.092 213.991 126.546 214.077C127.006 214.157 127.448 214.325 127.875 214.581C128.305 214.837 128.663 215.223 128.947 215.739C129.231 216.255 129.373 216.946 129.373 217.812V225H127.697V223.523H127.612C127.498 223.759 127.309 224.013 127.044 224.283C126.778 224.553 126.426 224.782 125.985 224.972C125.545 225.161 125.008 225.256 124.373 225.256ZM124.629 223.75C125.292 223.75 125.85 223.62 126.305 223.359C126.764 223.099 127.11 222.763 127.342 222.351C127.579 221.939 127.697 221.506 127.697 221.051V219.517C127.626 219.602 127.47 219.68 127.228 219.751C126.991 219.818 126.717 219.877 126.404 219.929C126.097 219.976 125.796 220.019 125.502 220.057C125.214 220.09 124.979 220.118 124.799 220.142C124.364 220.199 123.956 220.291 123.578 220.419C123.204 220.542 122.901 220.729 122.669 220.98C122.441 221.226 122.328 221.562 122.328 221.989C122.328 222.571 122.543 223.011 122.974 223.31C123.41 223.603 123.961 223.75 124.629 223.75ZM134.109 210.455V225H132.432V210.455H134.109ZM142.804 229.091V214.091H144.423V215.824H144.622C144.745 215.634 144.915 215.393 145.133 215.099C145.356 214.801 145.673 214.536 146.085 214.304C146.501 214.067 147.065 213.949 147.775 213.949C148.694 213.949 149.503 214.179 150.204 214.638C150.905 215.097 151.452 215.748 151.845 216.591C152.238 217.434 152.434 218.428 152.434 219.574C152.434 220.729 152.238 221.731 151.845 222.578C151.452 223.421 150.907 224.074 150.211 224.538C149.515 224.998 148.713 225.227 147.804 225.227C147.103 225.227 146.542 225.111 146.12 224.879C145.699 224.643 145.375 224.375 145.147 224.077C144.92 223.774 144.745 223.523 144.622 223.324H144.48V229.091H142.804ZM144.451 219.545C144.451 220.369 144.572 221.096 144.813 221.726C145.055 222.351 145.408 222.841 145.872 223.196C146.336 223.546 146.904 223.722 147.576 223.722C148.277 223.722 148.862 223.537 149.33 223.168C149.804 222.794 150.159 222.292 150.396 221.662C150.637 221.027 150.758 220.322 150.758 219.545C150.758 218.778 150.64 218.087 150.403 217.472C150.171 216.851 149.818 216.361 149.345 216.001C148.876 215.637 148.286 215.455 147.576 215.455C146.894 215.455 146.321 215.627 145.857 215.973C145.393 216.314 145.043 216.792 144.806 217.408C144.57 218.018 144.451 218.731 144.451 219.545ZM158.201 225.256C157.51 225.256 156.883 225.125 156.319 224.865C155.756 224.6 155.308 224.219 154.977 223.722C154.645 223.22 154.48 222.614 154.48 221.903C154.48 221.278 154.603 220.772 154.849 220.384C155.095 219.991 155.424 219.683 155.836 219.46C156.248 219.238 156.703 219.072 157.2 218.963C157.702 218.849 158.206 218.759 158.713 218.693C159.375 218.608 159.913 218.544 160.325 218.501C160.741 218.454 161.045 218.376 161.234 218.267C161.428 218.158 161.525 217.969 161.525 217.699V217.642C161.525 216.941 161.333 216.397 160.95 216.009C160.571 215.62 159.996 215.426 159.224 215.426C158.424 215.426 157.796 215.601 157.342 215.952C156.887 216.302 156.568 216.676 156.383 217.074L154.792 216.506C155.076 215.843 155.455 215.327 155.929 214.957C156.407 214.583 156.928 214.323 157.491 214.176C158.059 214.025 158.618 213.949 159.167 213.949C159.518 213.949 159.92 213.991 160.375 214.077C160.834 214.157 161.277 214.325 161.703 214.581C162.134 214.837 162.491 215.223 162.775 215.739C163.059 216.255 163.201 216.946 163.201 217.812V225H161.525V223.523H161.44C161.326 223.759 161.137 224.013 160.872 224.283C160.607 224.553 160.254 224.782 159.813 224.972C159.373 225.161 158.836 225.256 158.201 225.256ZM158.457 223.75C159.12 223.75 159.679 223.62 160.133 223.359C160.592 223.099 160.938 222.763 161.17 222.351C161.407 221.939 161.525 221.506 161.525 221.051V219.517C161.454 219.602 161.298 219.68 161.056 219.751C160.82 219.818 160.545 219.877 160.232 219.929C159.925 219.976 159.624 220.019 159.33 220.057C159.042 220.09 158.807 220.118 158.627 220.142C158.192 220.199 157.785 220.291 157.406 220.419C157.032 220.542 156.729 220.729 156.497 220.98C156.269 221.226 156.156 221.562 156.156 221.989C156.156 222.571 156.371 223.011 156.802 223.31C157.238 223.603 157.789 223.75 158.457 223.75ZM166.261 225V214.091H167.88V215.739H167.993C168.192 215.199 168.552 214.761 169.073 214.425C169.594 214.089 170.181 213.92 170.834 213.92C170.958 213.92 171.111 213.923 171.296 213.928C171.481 213.932 171.62 213.939 171.715 213.949V215.653C171.658 215.639 171.528 215.618 171.324 215.589C171.126 215.556 170.915 215.54 170.692 215.54C170.162 215.54 169.689 215.651 169.272 215.874C168.86 216.091 168.533 216.394 168.292 216.783C168.055 217.166 167.937 217.604 167.937 218.097V225H166.261ZM176.912 225.256C176.221 225.256 175.594 225.125 175.03 224.865C174.467 224.6 174.019 224.219 173.688 223.722C173.356 223.22 173.191 222.614 173.191 221.903C173.191 221.278 173.314 220.772 173.56 220.384C173.806 219.991 174.135 219.683 174.547 219.46C174.959 219.238 175.414 219.072 175.911 218.963C176.413 218.849 176.917 218.759 177.424 218.693C178.086 218.608 178.624 218.544 179.036 218.501C179.452 218.454 179.755 218.376 179.945 218.267C180.139 218.158 180.236 217.969 180.236 217.699V217.642C180.236 216.941 180.044 216.397 179.661 216.009C179.282 215.62 178.707 215.426 177.935 215.426C177.135 215.426 176.507 215.601 176.053 215.952C175.598 216.302 175.279 216.676 175.094 217.074L173.503 216.506C173.787 215.843 174.166 215.327 174.639 214.957C175.118 214.583 175.638 214.323 176.202 214.176C176.77 214.025 177.329 213.949 177.878 213.949C178.228 213.949 178.631 213.991 179.085 214.077C179.545 214.157 179.987 214.325 180.414 214.581C180.844 214.837 181.202 215.223 181.486 215.739C181.77 216.255 181.912 216.946 181.912 217.812V225H180.236V223.523H180.151C180.037 223.759 179.848 224.013 179.583 224.283C179.317 224.553 178.965 224.782 178.524 224.972C178.084 225.161 177.547 225.256 176.912 225.256ZM177.168 223.75C177.831 223.75 178.389 223.62 178.844 223.359C179.303 223.099 179.649 222.763 179.881 222.351C180.118 221.939 180.236 221.506 180.236 221.051V219.517C180.165 219.602 180.009 219.68 179.767 219.751C179.531 219.818 179.256 219.877 178.943 219.929C178.636 219.976 178.335 220.019 178.041 220.057C177.753 220.09 177.518 220.118 177.338 220.142C176.903 220.199 176.495 220.291 176.117 220.419C175.743 220.542 175.44 220.729 175.208 220.98C174.98 221.226 174.867 221.562 174.867 221.989C174.867 222.571 175.082 223.011 175.513 223.31C175.949 223.603 176.5 223.75 177.168 223.75ZM190.596 225V214.091H192.216V215.795H192.358C192.585 215.213 192.952 214.761 193.459 214.439C193.965 214.112 194.574 213.949 195.284 213.949C196.004 213.949 196.603 214.112 197.081 214.439C197.564 214.761 197.94 215.213 198.21 215.795H198.324C198.603 215.232 199.022 214.785 199.581 214.453C200.14 214.117 200.81 213.949 201.591 213.949C202.566 213.949 203.364 214.254 203.984 214.865C204.605 215.471 204.915 216.416 204.915 217.699V225H203.239V217.699C203.239 216.894 203.018 216.319 202.578 215.973C202.138 215.627 201.619 215.455 201.023 215.455C200.256 215.455 199.661 215.687 199.24 216.151C198.819 216.61 198.608 217.192 198.608 217.898V225H196.903V217.528C196.903 216.908 196.702 216.409 196.3 216.03C195.897 215.646 195.379 215.455 194.744 215.455C194.309 215.455 193.901 215.571 193.523 215.803C193.149 216.035 192.846 216.357 192.614 216.768C192.386 217.176 192.273 217.647 192.273 218.182V225H190.596ZM214.854 220.54V214.091H216.53V225H214.854V223.153H214.741C214.485 223.707 214.087 224.179 213.547 224.567C213.008 224.95 212.326 225.142 211.502 225.142C210.82 225.142 210.214 224.993 209.684 224.695C209.154 224.392 208.737 223.937 208.434 223.331C208.131 222.72 207.979 221.951 207.979 221.023V214.091H209.655V220.909C209.655 221.705 209.878 222.339 210.323 222.812C210.773 223.286 211.346 223.523 212.042 223.523C212.458 223.523 212.882 223.416 213.313 223.203C213.749 222.99 214.113 222.663 214.407 222.223C214.705 221.783 214.854 221.222 214.854 220.54ZM223.72 225.227C222.811 225.227 222.008 224.998 221.312 224.538C220.616 224.074 220.071 223.421 219.679 222.578C219.286 221.731 219.089 220.729 219.089 219.574C219.089 218.428 219.286 217.434 219.679 216.591C220.071 215.748 220.618 215.097 221.319 214.638C222.02 214.179 222.83 213.949 223.748 213.949C224.458 213.949 225.019 214.067 225.431 214.304C225.848 214.536 226.165 214.801 226.383 215.099C226.606 215.393 226.778 215.634 226.902 215.824H227.044V210.455H228.72V225H227.1V223.324H226.902C226.778 223.523 226.603 223.774 226.376 224.077C226.149 224.375 225.824 224.643 225.403 224.879C224.982 225.111 224.42 225.227 223.72 225.227ZM223.947 223.722C224.619 223.722 225.187 223.546 225.652 223.196C226.116 222.841 226.468 222.351 226.71 221.726C226.951 221.096 227.072 220.369 227.072 219.545C227.072 218.731 226.954 218.018 226.717 217.408C226.48 216.792 226.13 216.314 225.666 215.973C225.202 215.627 224.629 215.455 223.947 215.455C223.237 215.455 222.645 215.637 222.171 216.001C221.703 216.361 221.35 216.851 221.113 217.472C220.881 218.087 220.765 218.778 220.765 219.545C220.765 220.322 220.884 221.027 221.12 221.662C221.362 222.292 221.717 222.794 222.186 223.168C222.659 223.537 223.246 223.722 223.947 223.722ZM235.232 225.256C234.541 225.256 233.914 225.125 233.35 224.865C232.787 224.6 232.339 224.219 232.008 223.722C231.677 223.22 231.511 222.614 231.511 221.903C231.511 221.278 231.634 220.772 231.88 220.384C232.126 219.991 232.455 219.683 232.867 219.46C233.279 219.238 233.734 219.072 234.231 218.963C234.733 218.849 235.237 218.759 235.744 218.693C236.407 218.608 236.944 218.544 237.356 218.501C237.773 218.454 238.076 218.376 238.265 218.267C238.459 218.158 238.556 217.969 238.556 217.699V217.642C238.556 216.941 238.365 216.397 237.981 216.009C237.602 215.62 237.027 215.426 236.255 215.426C235.455 215.426 234.828 215.601 234.373 215.952C233.919 216.302 233.599 216.676 233.414 217.074L231.823 216.506C232.107 215.843 232.486 215.327 232.96 214.957C233.438 214.583 233.959 214.323 234.522 214.176C235.09 214.025 235.649 213.949 236.198 213.949C236.549 213.949 236.951 213.991 237.406 214.077C237.865 214.157 238.308 214.325 238.734 214.581C239.165 214.837 239.522 215.223 239.806 215.739C240.09 216.255 240.232 216.946 240.232 217.812V225H238.556V223.523H238.471C238.357 223.759 238.168 224.013 237.903 224.283C237.638 224.553 237.285 224.782 236.845 224.972C236.404 225.161 235.867 225.256 235.232 225.256ZM235.488 223.75C236.151 223.75 236.71 223.62 237.164 223.359C237.624 223.099 237.969 222.763 238.201 222.351C238.438 221.939 238.556 221.506 238.556 221.051V219.517C238.485 219.602 238.329 219.68 238.088 219.751C237.851 219.818 237.576 219.877 237.264 219.929C236.956 219.976 236.655 220.019 236.362 220.057C236.073 220.09 235.839 220.118 235.659 220.142C235.223 220.199 234.816 220.291 234.437 220.419C234.063 220.542 233.76 220.729 233.528 220.98C233.301 221.226 233.187 221.562 233.187 221.989C233.187 222.571 233.402 223.011 233.833 223.31C234.269 223.603 234.821 223.75 235.488 223.75ZM244.968 218.438V225H243.292V214.091H244.911V215.795H245.053C245.309 215.241 245.697 214.796 246.218 214.46C246.739 214.119 247.411 213.949 248.235 213.949C248.974 213.949 249.62 214.1 250.174 214.403C250.728 214.702 251.159 215.156 251.466 215.767C251.774 216.373 251.928 217.14 251.928 218.068V225H250.252V218.182C250.252 217.325 250.029 216.657 249.584 216.179C249.139 215.696 248.529 215.455 247.752 215.455C247.217 215.455 246.739 215.571 246.317 215.803C245.901 216.035 245.572 216.373 245.33 216.818C245.089 217.263 244.968 217.803 244.968 218.438ZM259.423 225.227C258.4 225.227 257.519 224.986 256.781 224.503C256.042 224.02 255.474 223.355 255.076 222.507C254.679 221.66 254.48 220.691 254.48 219.602C254.48 218.494 254.683 217.517 255.09 216.669C255.502 215.817 256.075 215.152 256.809 214.673C257.548 214.19 258.41 213.949 259.394 213.949C260.161 213.949 260.853 214.091 261.468 214.375C262.084 214.659 262.588 215.057 262.981 215.568C263.374 216.08 263.618 216.676 263.713 217.358H262.036C261.909 216.861 261.625 216.42 261.184 216.037C260.749 215.649 260.161 215.455 259.423 215.455C258.769 215.455 258.196 215.625 257.704 215.966C257.216 216.302 256.835 216.778 256.561 217.393C256.291 218.004 256.156 218.722 256.156 219.545C256.156 220.388 256.288 221.122 256.554 221.747C256.823 222.372 257.202 222.857 257.69 223.203C258.182 223.549 258.76 223.722 259.423 223.722C259.858 223.722 260.254 223.646 260.609 223.494C260.964 223.343 261.265 223.125 261.511 222.841C261.757 222.557 261.932 222.216 262.036 221.818H263.713C263.618 222.462 263.384 223.042 263.009 223.558C262.64 224.07 262.15 224.477 261.539 224.78C260.933 225.078 260.228 225.227 259.423 225.227ZM258.627 224.943H260.019L259.906 225.511C260.275 225.568 260.614 225.722 260.921 225.973C261.229 226.229 261.383 226.634 261.383 227.188C261.383 227.798 261.13 228.295 260.623 228.679C260.121 229.067 259.38 229.261 258.4 229.261L258.343 228.153C258.784 228.153 259.148 228.082 259.437 227.94C259.731 227.803 259.877 227.571 259.877 227.244C259.877 226.918 259.757 226.695 259.515 226.577C259.274 226.458 258.883 226.378 258.343 226.335L258.627 224.943ZM269.373 225.256C268.682 225.256 268.054 225.125 267.491 224.865C266.928 224.6 266.48 224.219 266.149 223.722C265.817 223.22 265.652 222.614 265.652 221.903C265.652 221.278 265.775 220.772 266.021 220.384C266.267 219.991 266.596 219.683 267.008 219.46C267.42 219.238 267.875 219.072 268.372 218.963C268.874 218.849 269.378 218.759 269.884 218.693C270.547 218.608 271.085 218.544 271.497 218.501C271.913 218.454 272.216 218.376 272.406 218.267C272.6 218.158 272.697 217.969 272.697 217.699V217.642C272.697 216.941 272.505 216.397 272.122 216.009C271.743 215.62 271.168 215.426 270.396 215.426C269.596 215.426 268.968 215.601 268.514 215.952C268.059 216.302 267.74 216.676 267.555 217.074L265.964 216.506C266.248 215.843 266.627 215.327 267.1 214.957C267.579 214.583 268.099 214.323 268.663 214.176C269.231 214.025 269.79 213.949 270.339 213.949C270.689 213.949 271.092 213.991 271.546 214.077C272.006 214.157 272.448 214.325 272.875 214.581C273.305 214.837 273.663 215.223 273.947 215.739C274.231 216.255 274.373 216.946 274.373 217.812V225H272.697V223.523H272.612C272.498 223.759 272.309 224.013 272.044 224.283C271.778 224.553 271.426 224.782 270.985 224.972C270.545 225.161 270.008 225.256 269.373 225.256ZM269.629 223.75C270.292 223.75 270.85 223.62 271.305 223.359C271.764 223.099 272.11 222.763 272.342 222.351C272.579 221.939 272.697 221.506 272.697 221.051V219.517C272.626 219.602 272.47 219.68 272.228 219.751C271.991 219.818 271.717 219.877 271.404 219.929C271.097 219.976 270.796 220.019 270.502 220.057C270.214 220.09 269.979 220.118 269.799 220.142C269.364 220.199 268.956 220.291 268.578 220.419C268.204 220.542 267.901 220.729 267.669 220.98C267.441 221.226 267.328 221.562 267.328 221.989C267.328 222.571 267.543 223.011 267.974 223.31C268.41 223.603 268.961 223.75 269.629 223.75ZM132.22 240.534L130.715 240.96C130.62 240.709 130.48 240.465 130.296 240.229C130.116 239.987 129.869 239.788 129.557 239.632C129.244 239.476 128.844 239.398 128.357 239.398C127.689 239.398 127.133 239.552 126.688 239.859C126.247 240.162 126.027 240.548 126.027 241.017C126.027 241.434 126.179 241.763 126.482 242.004C126.785 242.246 127.258 242.447 127.902 242.608L129.521 243.006C130.497 243.242 131.224 243.605 131.702 244.092C132.18 244.575 132.419 245.198 132.419 245.96C132.419 246.585 132.239 247.144 131.879 247.636C131.524 248.129 131.027 248.517 130.388 248.801C129.749 249.085 129.005 249.227 128.158 249.227C127.045 249.227 126.124 248.986 125.395 248.503C124.666 248.02 124.204 247.314 124.01 246.386L125.601 245.989C125.752 246.576 126.039 247.016 126.46 247.31C126.886 247.603 127.443 247.75 128.129 247.75C128.911 247.75 129.531 247.584 129.99 247.253C130.454 246.917 130.686 246.514 130.686 246.045C130.686 245.667 130.554 245.349 130.288 245.094C130.023 244.833 129.616 244.639 129.067 244.511L127.249 244.085C126.25 243.848 125.516 243.482 125.047 242.984C124.583 242.482 124.351 241.855 124.351 241.102C124.351 240.487 124.524 239.942 124.869 239.469C125.22 238.995 125.696 238.624 126.297 238.354C126.903 238.084 127.59 237.949 128.357 237.949C129.436 237.949 130.284 238.186 130.899 238.659C131.519 239.133 131.96 239.758 132.22 240.534ZM139.374 249.227C138.389 249.227 137.525 248.993 136.782 248.524C136.043 248.055 135.465 247.4 135.049 246.557C134.637 245.714 134.431 244.729 134.431 243.602C134.431 242.466 134.637 241.474 135.049 240.626C135.465 239.779 136.043 239.121 136.782 238.652C137.525 238.183 138.389 237.949 139.374 237.949C140.359 237.949 141.221 238.183 141.959 238.652C142.703 239.121 143.28 239.779 143.692 240.626C144.109 241.474 144.317 242.466 144.317 243.602C144.317 244.729 144.109 245.714 143.692 246.557C143.28 247.4 142.703 248.055 141.959 248.524C141.221 248.993 140.359 249.227 139.374 249.227ZM139.374 247.722C140.122 247.722 140.738 247.53 141.221 247.146C141.704 246.763 142.061 246.259 142.293 245.634C142.525 245.009 142.641 244.331 142.641 243.602C142.641 242.873 142.525 242.194 142.293 241.564C142.061 240.934 141.704 240.425 141.221 240.037C140.738 239.649 140.122 239.455 139.374 239.455C138.626 239.455 138.01 239.649 137.527 240.037C137.044 240.425 136.687 240.934 136.455 241.564C136.223 242.194 136.107 242.873 136.107 243.602C136.107 244.331 136.223 245.009 136.455 245.634C136.687 246.259 137.044 246.763 137.527 247.146C138.01 247.53 138.626 247.722 139.374 247.722ZM151.308 249.227C150.285 249.227 149.404 248.986 148.666 248.503C147.927 248.02 147.359 247.355 146.961 246.507C146.563 245.66 146.364 244.691 146.364 243.602C146.364 242.494 146.568 241.517 146.975 240.669C147.387 239.817 147.96 239.152 148.694 238.673C149.433 238.19 150.294 237.949 151.279 237.949C152.046 237.949 152.738 238.091 153.353 238.375C153.969 238.659 154.473 239.057 154.866 239.568C155.259 240.08 155.503 240.676 155.597 241.358H153.921C153.793 240.861 153.509 240.42 153.069 240.037C152.633 239.649 152.046 239.455 151.308 239.455C150.654 239.455 150.081 239.625 149.589 239.966C149.101 240.302 148.72 240.778 148.445 241.393C148.175 242.004 148.041 242.722 148.041 243.545C148.041 244.388 148.173 245.122 148.438 245.747C148.708 246.372 149.087 246.857 149.575 247.203C150.067 247.549 150.645 247.722 151.308 247.722C151.743 247.722 152.139 247.646 152.494 247.494C152.849 247.343 153.149 247.125 153.396 246.841C153.642 246.557 153.817 246.216 153.921 245.818H155.597C155.503 246.462 155.268 247.042 154.894 247.558C154.525 248.07 154.035 248.477 153.424 248.78C152.818 249.078 152.113 249.227 151.308 249.227ZM158.048 249V238.091H159.724V249H158.048ZM158.9 236.273C158.573 236.273 158.291 236.161 158.055 235.939C157.823 235.716 157.707 235.449 157.707 235.136C157.707 234.824 157.823 234.556 158.055 234.334C158.291 234.111 158.573 234 158.9 234C159.227 234 159.506 234.111 159.738 234.334C159.975 234.556 160.093 234.824 160.093 235.136C160.093 235.449 159.975 235.716 159.738 235.939C159.506 236.161 159.227 236.273 158.9 236.273ZM166.004 249.256C165.313 249.256 164.685 249.125 164.122 248.865C163.558 248.6 163.111 248.219 162.78 247.722C162.448 247.22 162.282 246.614 162.282 245.903C162.282 245.278 162.405 244.772 162.652 244.384C162.898 243.991 163.227 243.683 163.639 243.46C164.051 243.238 164.505 243.072 165.003 242.963C165.504 242.849 166.009 242.759 166.515 242.693C167.178 242.608 167.716 242.544 168.128 242.501C168.544 242.454 168.847 242.376 169.037 242.267C169.231 242.158 169.328 241.969 169.328 241.699V241.642C169.328 240.941 169.136 240.397 168.753 240.009C168.374 239.62 167.798 239.426 167.027 239.426C166.226 239.426 165.599 239.601 165.145 239.952C164.69 240.302 164.37 240.676 164.186 241.074L162.595 240.506C162.879 239.843 163.258 239.327 163.731 238.957C164.209 238.583 164.73 238.323 165.294 238.176C165.862 238.025 166.421 237.949 166.97 237.949C167.32 237.949 167.723 237.991 168.177 238.077C168.637 238.157 169.079 238.325 169.505 238.581C169.936 238.837 170.294 239.223 170.578 239.739C170.862 240.255 171.004 240.946 171.004 241.812V249H169.328V247.523H169.243C169.129 247.759 168.94 248.013 168.674 248.283C168.409 248.553 168.057 248.782 167.616 248.972C167.176 249.161 166.638 249.256 166.004 249.256ZM166.26 247.75C166.923 247.75 167.481 247.62 167.936 247.359C168.395 247.099 168.741 246.763 168.973 246.351C169.209 245.939 169.328 245.506 169.328 245.051V243.517C169.257 243.602 169.101 243.68 168.859 243.751C168.622 243.818 168.348 243.877 168.035 243.929C167.727 243.976 167.427 244.019 167.133 244.057C166.844 244.09 166.61 244.118 166.43 244.142C165.994 244.199 165.587 244.291 165.209 244.419C164.834 244.542 164.531 244.729 164.299 244.98C164.072 245.226 163.959 245.562 163.959 245.989C163.959 246.571 164.174 247.011 164.605 247.31C165.04 247.603 165.592 247.75 166.26 247.75ZM175.739 234.455V249H174.063V234.455H175.739Z" fill="#3D3D3D"/>
</svg>