<svg width="298" height="314" viewBox="0 0 298 314" fill="none" xmlns="http://www.w3.org/2000/svg">
<path d="M1 14C1 6.8203 6.8203 1 14 1H283.872C291.052 1 296.872 6.8203 296.872 14V274C296.872 295.539 279.411 313 257.872 313H1V14Z" fill="#F5F5FF" fill-opacity="0.51" stroke="#333399" stroke-width="2"/>
<path fill-rule="evenodd" clip-rule="evenodd" d="M141.762 37.8571C136.483 37.8571 131.42 39.9542 127.687 43.6871C123.954 47.42 121.857 52.4828 121.857 57.7619C121.857 60.3758 122.372 62.9642 123.372 65.3791C124.373 67.7941 125.839 69.9884 127.687 71.8367C129.535 73.685 131.73 75.1512 134.145 76.1515C136.56 77.1518 139.148 77.6667 141.762 77.6667C144.376 77.6667 146.964 77.1518 149.379 76.1515C151.794 75.1512 153.988 73.685 155.837 71.8367C157.685 69.9884 159.151 67.7941 160.152 65.3791C161.152 62.9642 161.667 60.3758 161.667 57.7619C161.667 52.4828 159.57 47.42 155.837 43.6871C152.104 39.9542 147.041 37.8571 141.762 37.8571ZM120.01 36.01C125.779 30.241 133.603 27 141.762 27C149.92 27 157.745 30.241 163.514 36.01C169.283 41.7789 172.524 49.6033 172.524 57.7619C172.524 61.8016 171.728 65.8018 170.182 69.534C168.636 73.2662 166.37 76.6574 163.514 79.5139C160.657 82.3704 157.266 84.6363 153.534 86.1822C149.802 87.7281 145.802 88.5238 141.762 88.5238C137.722 88.5238 133.722 87.7281 129.99 86.1822C126.258 84.6363 122.866 82.3704 120.01 79.5139C117.153 76.6573 114.888 73.2662 113.342 69.534C111.796 65.8018 111 61.8016 111 57.7619C111 49.6033 114.241 41.7789 120.01 36.01ZM165.066 81.0662C167.186 78.9462 170.623 78.9462 172.743 81.0662L185.41 93.7328C187.53 95.8528 187.53 99.29 185.41 101.41C183.29 103.53 179.853 103.53 177.733 101.41L165.066 88.7433C162.946 86.6234 162.946 83.1862 165.066 81.0662Z" fill="#333399"/>
<path d="M97.4872 155V137.545H104.033C105.374 137.545 106.499 137.795 107.408 138.295C108.322 138.795 109.013 139.483 109.479 140.358C109.95 141.227 110.186 142.216 110.186 143.324C110.186 144.443 109.95 145.437 109.479 146.307C109.007 147.176 108.311 147.861 107.391 148.361C106.47 148.855 105.337 149.102 103.99 149.102H99.652V146.503H103.564C104.348 146.503 104.99 146.366 105.49 146.094C105.99 145.821 106.359 145.446 106.598 144.969C106.842 144.491 106.964 143.943 106.964 143.324C106.964 142.705 106.842 142.159 106.598 141.688C106.359 141.216 105.987 140.849 105.482 140.588C104.982 140.321 104.337 140.188 103.547 140.188H100.649V155H97.4872ZM118.404 155.256C117.092 155.256 115.958 154.983 115.004 154.438C114.055 153.886 113.325 153.108 112.813 152.102C112.302 151.091 112.046 149.901 112.046 148.531C112.046 147.185 112.302 146.003 112.813 144.986C113.33 143.963 114.052 143.168 114.978 142.599C115.904 142.026 116.992 141.739 118.242 141.739C119.049 141.739 119.81 141.869 120.526 142.131C121.248 142.386 121.884 142.784 122.435 143.324C122.992 143.864 123.43 144.551 123.748 145.386C124.066 146.216 124.225 147.205 124.225 148.352V149.298H113.495V147.219H121.268C121.262 146.628 121.134 146.102 120.884 145.642C120.634 145.176 120.285 144.81 119.836 144.543C119.393 144.276 118.876 144.142 118.285 144.142C117.654 144.142 117.1 144.295 116.623 144.602C116.146 144.903 115.773 145.301 115.506 145.795C115.245 146.284 115.112 146.821 115.106 147.406V149.222C115.106 149.983 115.245 150.636 115.523 151.182C115.802 151.722 116.191 152.136 116.691 152.426C117.191 152.71 117.776 152.852 118.447 152.852C118.896 152.852 119.302 152.79 119.665 152.665C120.029 152.534 120.344 152.344 120.612 152.094C120.879 151.844 121.08 151.534 121.217 151.165L124.097 151.489C123.915 152.25 123.569 152.915 123.058 153.483C122.552 154.045 121.904 154.483 121.114 154.795C120.325 155.102 119.421 155.256 118.404 155.256ZM137.182 145.369L134.369 145.676C134.29 145.392 134.151 145.125 133.952 144.875C133.759 144.625 133.497 144.423 133.168 144.27C132.838 144.116 132.435 144.04 131.957 144.04C131.315 144.04 130.776 144.179 130.338 144.457C129.906 144.736 129.693 145.097 129.699 145.54C129.693 145.92 129.832 146.23 130.116 146.469C130.406 146.707 130.884 146.903 131.548 147.057L133.781 147.534C135.02 147.801 135.94 148.224 136.543 148.804C137.151 149.384 137.457 150.142 137.463 151.08C137.457 151.903 137.216 152.631 136.739 153.261C136.267 153.886 135.611 154.375 134.77 154.727C133.929 155.08 132.963 155.256 131.872 155.256C130.27 155.256 128.98 154.92 128.003 154.25C127.026 153.574 126.443 152.634 126.256 151.429L129.264 151.139C129.401 151.73 129.69 152.176 130.134 152.477C130.577 152.778 131.153 152.929 131.864 152.929C132.597 152.929 133.185 152.778 133.628 152.477C134.077 152.176 134.301 151.804 134.301 151.361C134.301 150.986 134.156 150.676 133.866 150.432C133.582 150.187 133.139 150 132.537 149.869L130.304 149.401C129.048 149.139 128.119 148.699 127.517 148.08C126.915 147.455 126.616 146.665 126.622 145.71C126.616 144.903 126.835 144.205 127.278 143.614C127.727 143.017 128.349 142.557 129.145 142.233C129.946 141.903 130.869 141.739 131.915 141.739C133.449 141.739 134.656 142.065 135.537 142.719C136.423 143.372 136.972 144.256 137.182 145.369ZM148.743 159.909V152.938H148.615C148.456 153.256 148.226 153.594 147.925 153.952C147.624 154.304 147.226 154.605 146.732 154.855C146.237 155.105 145.615 155.23 144.865 155.23C143.837 155.23 142.916 154.966 142.104 154.438C141.291 153.909 140.649 153.142 140.178 152.136C139.706 151.131 139.47 149.909 139.47 148.472C139.47 147.017 139.709 145.79 140.186 144.79C140.669 143.784 141.32 143.026 142.138 142.514C142.956 141.997 143.868 141.739 144.874 141.739C145.641 141.739 146.271 141.869 146.766 142.131C147.26 142.386 147.652 142.696 147.942 143.06C148.232 143.418 148.456 143.756 148.615 144.074H148.803V141.909H151.837V159.909H148.743ZM145.726 152.699C146.379 152.699 146.936 152.523 147.396 152.17C147.857 151.812 148.206 151.315 148.445 150.679C148.683 150.043 148.803 149.301 148.803 148.455C148.803 147.608 148.683 146.872 148.445 146.247C148.212 145.622 147.865 145.136 147.405 144.79C146.95 144.443 146.391 144.27 145.726 144.27C145.038 144.27 144.464 144.449 144.004 144.807C143.544 145.165 143.197 145.659 142.964 146.29C142.732 146.92 142.615 147.642 142.615 148.455C142.615 149.273 142.732 150.003 142.964 150.645C143.203 151.281 143.553 151.784 144.013 152.153C144.479 152.517 145.05 152.699 145.726 152.699ZM163.351 149.494V141.909H166.436V155H163.445V152.673H163.308C163.013 153.406 162.527 154.006 161.851 154.472C161.18 154.937 160.354 155.17 159.371 155.17C158.513 155.17 157.754 154.98 157.095 154.599C156.442 154.213 155.93 153.653 155.561 152.92C155.192 152.182 155.007 151.29 155.007 150.244V141.909H158.092V149.767C158.092 150.597 158.32 151.256 158.774 151.744C159.229 152.233 159.825 152.477 160.564 152.477C161.018 152.477 161.459 152.366 161.885 152.145C162.311 151.923 162.661 151.594 162.933 151.156C163.212 150.713 163.351 150.159 163.351 149.494ZM169.609 155V141.909H172.694V155H169.609ZM171.16 140.051C170.671 140.051 170.251 139.889 169.898 139.565C169.546 139.236 169.37 138.841 169.37 138.381C169.37 137.915 169.546 137.52 169.898 137.196C170.251 136.866 170.671 136.702 171.16 136.702C171.654 136.702 172.075 136.866 172.421 137.196C172.773 137.52 172.95 137.915 172.95 138.381C172.95 138.841 172.773 139.236 172.421 139.565C172.075 139.889 171.654 140.051 171.16 140.051ZM186.213 145.369L183.401 145.676C183.321 145.392 183.182 145.125 182.983 144.875C182.79 144.625 182.528 144.423 182.199 144.27C181.869 144.116 181.466 144.04 180.989 144.04C180.347 144.04 179.807 144.179 179.369 144.457C178.938 144.736 178.724 145.097 178.73 145.54C178.724 145.92 178.864 146.23 179.148 146.469C179.438 146.707 179.915 146.903 180.58 147.057L182.812 147.534C184.051 147.801 184.972 148.224 185.574 148.804C186.182 149.384 186.489 150.142 186.494 151.08C186.489 151.903 186.247 152.631 185.77 153.261C185.298 153.886 184.642 154.375 183.801 154.727C182.96 155.08 181.994 155.256 180.903 155.256C179.301 155.256 178.011 154.92 177.034 154.25C176.057 153.574 175.474 152.634 175.287 151.429L178.295 151.139C178.432 151.73 178.722 152.176 179.165 152.477C179.608 152.778 180.185 152.929 180.895 152.929C181.628 152.929 182.216 152.778 182.659 152.477C183.108 152.176 183.332 151.804 183.332 151.361C183.332 150.986 183.188 150.676 182.898 150.432C182.614 150.187 182.17 150 181.568 149.869L179.335 149.401C178.08 149.139 177.151 148.699 176.548 148.08C175.946 147.455 175.648 146.665 175.653 145.71C175.648 144.903 175.866 144.205 176.31 143.614C176.759 143.017 177.381 142.557 178.176 142.233C178.977 141.903 179.901 141.739 180.946 141.739C182.48 141.739 183.688 142.065 184.568 142.719C185.455 143.372 186.003 144.256 186.213 145.369ZM192.805 155.264C191.976 155.264 191.229 155.116 190.564 154.821C189.905 154.52 189.382 154.077 188.996 153.491C188.615 152.906 188.425 152.185 188.425 151.327C188.425 150.588 188.561 149.977 188.834 149.494C189.107 149.011 189.479 148.625 189.95 148.335C190.422 148.045 190.953 147.827 191.544 147.679C192.141 147.526 192.757 147.415 193.393 147.347C194.161 147.267 194.783 147.196 195.26 147.134C195.737 147.065 196.084 146.963 196.3 146.827C196.521 146.685 196.632 146.466 196.632 146.17V146.119C196.632 145.477 196.442 144.98 196.061 144.628C195.68 144.276 195.132 144.099 194.416 144.099C193.661 144.099 193.061 144.264 192.618 144.594C192.18 144.923 191.885 145.312 191.732 145.761L188.851 145.352C189.078 144.557 189.453 143.892 189.976 143.358C190.499 142.818 191.138 142.415 191.893 142.148C192.649 141.875 193.484 141.739 194.399 141.739C195.03 141.739 195.658 141.812 196.283 141.96C196.908 142.108 197.479 142.352 197.996 142.693C198.513 143.028 198.928 143.486 199.24 144.065C199.558 144.645 199.717 145.369 199.717 146.239V155H196.751V153.202H196.649C196.462 153.565 196.197 153.906 195.857 154.224C195.521 154.537 195.098 154.79 194.587 154.983C194.081 155.17 193.487 155.264 192.805 155.264ZM193.607 152.997C194.226 152.997 194.763 152.875 195.217 152.631C195.672 152.381 196.021 152.051 196.266 151.642C196.516 151.233 196.641 150.787 196.641 150.304V148.761C196.544 148.841 196.379 148.915 196.146 148.983C195.919 149.051 195.663 149.111 195.379 149.162C195.095 149.213 194.814 149.259 194.536 149.298C194.257 149.338 194.016 149.372 193.811 149.401C193.351 149.463 192.939 149.565 192.575 149.707C192.212 149.849 191.925 150.048 191.714 150.304C191.504 150.554 191.399 150.878 191.399 151.276C191.399 151.844 191.607 152.273 192.021 152.562C192.436 152.852 192.964 152.997 193.607 152.997ZM75.831 166.545V184H73.0185L64.794 172.111H64.6491V184H61.4872V166.545H64.3168L72.5327 178.443H72.6861V166.545H75.831ZM84.9354 184.256C83.6229 184.256 82.4893 183.983 81.5348 183.438C80.5859 182.886 79.8558 182.108 79.3445 181.102C78.8331 180.091 78.5774 178.901 78.5774 177.531C78.5774 176.185 78.8331 175.003 79.3445 173.986C79.8615 172.963 80.5831 172.168 81.5092 171.599C82.4354 171.026 83.5234 170.739 84.7734 170.739C85.5803 170.739 86.3416 170.869 87.0575 171.131C87.7791 171.386 88.4155 171.784 88.9666 172.324C89.5234 172.864 89.9609 173.551 90.2791 174.386C90.5973 175.216 90.7564 176.205 90.7564 177.352V178.298H80.0263V176.219H87.799C87.7933 175.628 87.6655 175.102 87.4155 174.642C87.1655 174.176 86.8161 173.81 86.3672 173.543C85.924 173.276 85.407 173.142 84.8161 173.142C84.1854 173.142 83.6314 173.295 83.1541 173.602C82.6768 173.903 82.3047 174.301 82.0376 174.795C81.7763 175.284 81.6428 175.821 81.6371 176.406V178.222C81.6371 178.983 81.7763 179.636 82.0547 180.182C82.3331 180.722 82.7223 181.136 83.2223 181.426C83.7223 181.71 84.3075 181.852 84.978 181.852C85.4268 181.852 85.8331 181.79 86.1967 181.665C86.5604 181.534 86.8757 181.344 87.1428 181.094C87.4098 180.844 87.6115 180.534 87.7479 180.165L90.6286 180.489C90.4467 181.25 90.1001 181.915 89.5888 182.483C89.0831 183.045 88.4354 183.483 87.6456 183.795C86.8558 184.102 85.9524 184.256 84.9354 184.256ZM101.71 178.494V170.909H104.795V184H101.804V181.673H101.668C101.372 182.406 100.886 183.006 100.21 183.472C99.5398 183.937 98.7131 184.17 97.7301 184.17C96.8722 184.17 96.1136 183.98 95.4545 183.599C94.8011 183.213 94.2898 182.653 93.9205 181.92C93.5511 181.182 93.3665 180.29 93.3665 179.244V170.909H96.4517V178.767C96.4517 179.597 96.679 180.256 97.1335 180.744C97.5881 181.233 98.1847 181.477 98.9233 181.477C99.3778 181.477 99.8182 181.366 100.244 181.145C100.67 180.923 101.02 180.594 101.293 180.156C101.571 179.713 101.71 179.159 101.71 178.494ZM107.968 184V170.909H110.96V173.091H111.096C111.335 172.335 111.744 171.753 112.323 171.344C112.908 170.929 113.576 170.722 114.326 170.722C114.496 170.722 114.687 170.73 114.897 170.747C115.113 170.759 115.292 170.778 115.434 170.807V173.645C115.303 173.599 115.096 173.56 114.812 173.526C114.533 173.486 114.263 173.466 114.002 173.466C113.44 173.466 112.934 173.588 112.485 173.832C112.042 174.071 111.692 174.403 111.437 174.83C111.181 175.256 111.053 175.747 111.053 176.304V184H107.968ZM122.655 184.256C121.376 184.256 120.268 183.974 119.331 183.412C118.393 182.849 117.666 182.062 117.149 181.051C116.638 180.04 116.382 178.858 116.382 177.506C116.382 176.153 116.638 174.969 117.149 173.952C117.666 172.935 118.393 172.145 119.331 171.582C120.268 171.02 121.376 170.739 122.655 170.739C123.933 170.739 125.041 171.02 125.979 171.582C126.916 172.145 127.641 172.935 128.152 173.952C128.669 174.969 128.928 176.153 128.928 177.506C128.928 178.858 128.669 180.04 128.152 181.051C127.641 182.062 126.916 182.849 125.979 183.412C125.041 183.974 123.933 184.256 122.655 184.256ZM122.672 181.784C123.365 181.784 123.945 181.594 124.411 181.213C124.876 180.827 125.223 180.31 125.45 179.662C125.683 179.014 125.8 178.293 125.8 177.497C125.8 176.696 125.683 175.972 125.45 175.324C125.223 174.67 124.876 174.151 124.411 173.764C123.945 173.378 123.365 173.185 122.672 173.185C121.962 173.185 121.371 173.378 120.899 173.764C120.433 174.151 120.084 174.67 119.851 175.324C119.624 175.972 119.51 176.696 119.51 177.497C119.51 178.293 119.624 179.014 119.851 179.662C120.084 180.31 120.433 180.827 120.899 181.213C121.371 181.594 121.962 181.784 122.672 181.784ZM137.256 184.256C135.95 184.256 134.827 183.969 133.89 183.395C132.958 182.821 132.239 182.028 131.734 181.017C131.234 180 130.984 178.83 130.984 177.506C130.984 176.176 131.239 175.003 131.751 173.986C132.262 172.963 132.984 172.168 133.915 171.599C134.853 171.026 135.961 170.739 137.239 170.739C138.302 170.739 139.242 170.935 140.06 171.327C140.884 171.713 141.54 172.261 142.029 172.972C142.518 173.676 142.796 174.5 142.864 175.443H139.915C139.796 174.812 139.512 174.287 139.063 173.866C138.62 173.44 138.026 173.227 137.282 173.227C136.651 173.227 136.097 173.398 135.62 173.739C135.143 174.074 134.771 174.557 134.504 175.188C134.242 175.818 134.112 176.574 134.112 177.455C134.112 178.347 134.242 179.114 134.504 179.756C134.765 180.392 135.131 180.884 135.603 181.23C136.08 181.571 136.64 181.741 137.282 181.741C137.737 181.741 138.143 181.656 138.501 181.486C138.864 181.31 139.168 181.057 139.413 180.727C139.657 180.398 139.825 179.997 139.915 179.526H142.864C142.79 180.452 142.518 181.273 142.046 181.989C141.575 182.699 140.933 183.256 140.12 183.659C139.308 184.057 138.353 184.256 137.256 184.256ZM145.398 184V170.909H148.483V184H145.398ZM146.949 169.051C146.46 169.051 146.04 168.889 145.688 168.565C145.335 168.236 145.159 167.841 145.159 167.381C145.159 166.915 145.335 166.52 145.688 166.196C146.04 165.866 146.46 165.702 146.949 165.702C147.443 165.702 147.864 165.866 148.21 166.196C148.563 166.52 148.739 166.915 148.739 167.381C148.739 167.841 148.563 168.236 148.21 168.565C147.864 168.889 147.443 169.051 146.949 169.051ZM157.451 184.256C156.138 184.256 155.005 183.983 154.05 183.438C153.102 182.886 152.371 182.108 151.86 181.102C151.349 180.091 151.093 178.901 151.093 177.531C151.093 176.185 151.349 175.003 151.86 173.986C152.377 172.963 153.099 172.168 154.025 171.599C154.951 171.026 156.039 170.739 157.289 170.739C158.096 170.739 158.857 170.869 159.573 171.131C160.295 171.386 160.931 171.784 161.482 172.324C162.039 172.864 162.477 173.551 162.795 174.386C163.113 175.216 163.272 176.205 163.272 177.352V178.298H152.542V176.219H160.315C160.309 175.628 160.181 175.102 159.931 174.642C159.681 174.176 159.332 173.81 158.883 173.543C158.44 173.276 157.923 173.142 157.332 173.142C156.701 173.142 156.147 173.295 155.67 173.602C155.192 173.903 154.82 174.301 154.553 174.795C154.292 175.284 154.158 175.821 154.153 176.406V178.222C154.153 178.983 154.292 179.636 154.57 180.182C154.849 180.722 155.238 181.136 155.738 181.426C156.238 181.71 156.823 181.852 157.494 181.852C157.942 181.852 158.349 181.79 158.712 181.665C159.076 181.534 159.391 181.344 159.658 181.094C159.925 180.844 160.127 180.534 160.263 180.165L163.144 180.489C162.962 181.25 162.616 181.915 162.104 182.483C161.599 183.045 160.951 183.483 160.161 183.795C159.371 184.102 158.468 184.256 157.451 184.256ZM168.967 176.33V184H165.882V170.909H168.831V173.134H168.984C169.286 172.401 169.766 171.818 170.425 171.386C171.089 170.955 171.911 170.739 172.888 170.739C173.791 170.739 174.578 170.932 175.249 171.318C175.925 171.705 176.447 172.264 176.817 172.997C177.192 173.73 177.376 174.619 177.371 175.665V184H174.286V176.142C174.286 175.267 174.058 174.582 173.604 174.088C173.155 173.594 172.533 173.347 171.737 173.347C171.197 173.347 170.717 173.466 170.297 173.705C169.882 173.937 169.555 174.276 169.317 174.719C169.084 175.162 168.967 175.699 168.967 176.33ZM187.044 170.909V173.295H179.518V170.909H187.044ZM181.376 167.773H184.462V180.062C184.462 180.477 184.524 180.795 184.649 181.017C184.78 181.233 184.95 181.381 185.161 181.46C185.371 181.54 185.604 181.58 185.859 181.58C186.053 181.58 186.229 181.565 186.388 181.537C186.553 181.509 186.678 181.483 186.763 181.46L187.283 183.872C187.118 183.929 186.882 183.991 186.575 184.06C186.274 184.128 185.905 184.168 185.467 184.179C184.695 184.202 183.999 184.085 183.379 183.83C182.76 183.568 182.268 183.165 181.905 182.619C181.547 182.074 181.371 181.392 181.376 180.574V167.773ZM189.624 184V170.909H192.71V184H189.624ZM189.991 169.188L191.9 165.293H194.917L192.3 169.188H189.991ZM202.513 170.909V173.295H194.774V170.909H202.513ZM196.709 184V169.673C196.709 168.793 196.891 168.06 197.254 167.474C197.624 166.889 198.118 166.452 198.737 166.162C199.357 165.872 200.044 165.727 200.8 165.727C201.334 165.727 201.808 165.77 202.223 165.855C202.638 165.94 202.945 166.017 203.143 166.085L202.53 168.472C202.399 168.432 202.234 168.392 202.036 168.352C201.837 168.307 201.615 168.284 201.371 168.284C200.797 168.284 200.391 168.423 200.152 168.702C199.919 168.974 199.803 169.366 199.803 169.878V184H196.709ZM204.929 184V170.909H208.014V184H204.929ZM206.48 169.051C205.991 169.051 205.571 168.889 205.219 168.565C204.866 168.236 204.69 167.841 204.69 167.381C204.69 166.915 204.866 166.52 205.219 166.196C205.571 165.866 205.991 165.702 206.48 165.702C206.974 165.702 207.395 165.866 207.741 166.196C208.094 166.52 208.27 166.915 208.27 167.381C208.27 167.841 208.094 168.236 207.741 168.565C207.395 168.889 206.974 169.051 206.48 169.051ZM216.897 184.256C215.59 184.256 214.468 183.969 213.531 183.395C212.599 182.821 211.88 182.028 211.374 181.017C210.874 180 210.624 178.83 210.624 177.506C210.624 176.176 210.88 175.003 211.391 173.986C211.903 172.963 212.624 172.168 213.556 171.599C214.494 171.026 215.602 170.739 216.88 170.739C217.942 170.739 218.883 170.935 219.701 171.327C220.525 171.713 221.181 172.261 221.67 172.972C222.158 173.676 222.437 174.5 222.505 175.443H219.556C219.437 174.812 219.153 174.287 218.704 173.866C218.261 173.44 217.667 173.227 216.923 173.227C216.292 173.227 215.738 173.398 215.261 173.739C214.783 174.074 214.411 174.557 214.144 175.188C213.883 175.818 213.752 176.574 213.752 177.455C213.752 178.347 213.883 179.114 214.144 179.756C214.406 180.392 214.772 180.884 215.244 181.23C215.721 181.571 216.281 181.741 216.923 181.741C217.377 181.741 217.783 181.656 218.141 181.486C218.505 181.31 218.809 181.057 219.053 180.727C219.298 180.398 219.465 179.997 219.556 179.526H222.505C222.431 180.452 222.158 181.273 221.687 181.989C221.215 182.699 220.573 183.256 219.761 183.659C218.948 184.057 217.994 184.256 216.897 184.256ZM228.805 184.264C227.976 184.264 227.229 184.116 226.564 183.821C225.905 183.52 225.382 183.077 224.996 182.491C224.615 181.906 224.425 181.185 224.425 180.327C224.425 179.588 224.561 178.977 224.834 178.494C225.107 178.011 225.479 177.625 225.95 177.335C226.422 177.045 226.953 176.827 227.544 176.679C228.141 176.526 228.757 176.415 229.393 176.347C230.161 176.267 230.783 176.196 231.26 176.134C231.737 176.065 232.084 175.963 232.3 175.827C232.521 175.685 232.632 175.466 232.632 175.17V175.119C232.632 174.477 232.442 173.98 232.061 173.628C231.68 173.276 231.132 173.099 230.416 173.099C229.661 173.099 229.061 173.264 228.618 173.594C228.18 173.923 227.885 174.312 227.732 174.761L224.851 174.352C225.078 173.557 225.453 172.892 225.976 172.358C226.499 171.818 227.138 171.415 227.893 171.148C228.649 170.875 229.484 170.739 230.399 170.739C231.03 170.739 231.658 170.812 232.283 170.96C232.908 171.108 233.479 171.352 233.996 171.693C234.513 172.028 234.928 172.486 235.24 173.065C235.558 173.645 235.717 174.369 235.717 175.239V184H232.751V182.202H232.649C232.462 182.565 232.197 182.906 231.857 183.224C231.521 183.537 231.098 183.79 230.587 183.983C230.081 184.17 229.487 184.264 228.805 184.264ZM229.607 181.997C230.226 181.997 230.763 181.875 231.217 181.631C231.672 181.381 232.021 181.051 232.266 180.642C232.516 180.233 232.641 179.787 232.641 179.304V177.761C232.544 177.841 232.379 177.915 232.146 177.983C231.919 178.051 231.663 178.111 231.379 178.162C231.095 178.213 230.814 178.259 230.536 178.298C230.257 178.338 230.016 178.372 229.811 178.401C229.351 178.463 228.939 178.565 228.575 178.707C228.212 178.849 227.925 179.048 227.714 179.304C227.504 179.554 227.399 179.878 227.399 180.276C227.399 180.844 227.607 181.273 228.021 181.562C228.436 181.852 228.964 181.997 229.607 181.997Z" fill="#333399"/>
<path d="M93.2083 210.455V225H91.4469V210.455H93.2083ZM98.1887 218.438V225H96.5126V214.091H98.1319V215.795H98.274C98.5297 215.241 98.9179 214.796 99.4387 214.46C99.9596 214.119 100.632 213.949 101.456 213.949C102.194 213.949 102.841 214.1 103.395 214.403C103.949 214.702 104.38 215.156 104.687 215.767C104.995 216.373 105.149 217.14 105.149 218.068V225H103.473V218.182C103.473 217.325 103.25 216.657 102.805 216.179C102.36 215.696 101.749 215.455 100.973 215.455C100.438 215.455 99.9596 215.571 99.5382 215.803C99.1215 216.035 98.7924 216.373 98.551 216.818C98.3095 217.263 98.1887 217.803 98.1887 218.438ZM112.644 225.227C111.659 225.227 110.795 224.993 110.051 224.524C109.313 224.055 108.735 223.4 108.318 222.557C107.906 221.714 107.7 220.729 107.7 219.602C107.7 218.466 107.906 217.474 108.318 216.626C108.735 215.779 109.313 215.121 110.051 214.652C110.795 214.183 111.659 213.949 112.644 213.949C113.628 213.949 114.49 214.183 115.229 214.652C115.972 215.121 116.55 215.779 116.962 216.626C117.378 217.474 117.587 218.466 117.587 219.602C117.587 220.729 117.378 221.714 116.962 222.557C116.55 223.4 115.972 224.055 115.229 224.524C114.49 224.993 113.628 225.227 112.644 225.227ZM112.644 223.722C113.392 223.722 114.007 223.53 114.49 223.146C114.973 222.763 115.331 222.259 115.563 221.634C115.795 221.009 115.911 220.331 115.911 219.602C115.911 218.873 115.795 218.194 115.563 217.564C115.331 216.934 114.973 216.425 114.49 216.037C114.007 215.649 113.392 215.455 112.644 215.455C111.896 215.455 111.28 215.649 110.797 216.037C110.314 216.425 109.957 216.934 109.725 217.564C109.493 218.194 109.377 218.873 109.377 219.602C109.377 220.331 109.493 221.009 109.725 221.634C109.957 222.259 110.314 222.763 110.797 223.146C111.28 223.53 111.896 223.722 112.644 223.722ZM128.675 214.091L124.641 225H122.937L118.903 214.091H120.721L123.732 222.784H123.846L126.857 214.091H128.675ZM133.766 225.256C133.075 225.256 132.447 225.125 131.884 224.865C131.32 224.6 130.873 224.219 130.541 223.722C130.21 223.22 130.044 222.614 130.044 221.903C130.044 221.278 130.167 220.772 130.414 220.384C130.66 219.991 130.989 219.683 131.401 219.46C131.813 219.238 132.267 219.072 132.764 218.963C133.266 218.849 133.771 218.759 134.277 218.693C134.94 218.608 135.477 218.544 135.889 218.501C136.306 218.454 136.609 218.376 136.798 218.267C136.993 218.158 137.09 217.969 137.09 217.699V217.642C137.09 216.941 136.898 216.397 136.514 216.009C136.136 215.62 135.56 215.426 134.789 215.426C133.988 215.426 133.361 215.601 132.906 215.952C132.452 216.302 132.132 216.676 131.948 217.074L130.357 216.506C130.641 215.843 131.02 215.327 131.493 214.957C131.971 214.583 132.492 214.323 133.056 214.176C133.624 214.025 134.182 213.949 134.732 213.949C135.082 213.949 135.485 213.991 135.939 214.077C136.398 214.157 136.841 214.325 137.267 214.581C137.698 214.837 138.056 215.223 138.34 215.739C138.624 216.255 138.766 216.946 138.766 217.812V225H137.09V223.523H137.004C136.891 223.759 136.701 224.013 136.436 224.283C136.171 224.553 135.818 224.782 135.378 224.972C134.938 225.161 134.4 225.256 133.766 225.256ZM134.021 223.75C134.684 223.75 135.243 223.62 135.698 223.359C136.157 223.099 136.503 222.763 136.735 222.351C136.971 221.939 137.09 221.506 137.09 221.051V219.517C137.019 219.602 136.862 219.68 136.621 219.751C136.384 219.818 136.11 219.877 135.797 219.929C135.489 219.976 135.189 220.019 134.895 220.057C134.606 220.09 134.372 220.118 134.192 220.142C133.756 220.199 133.349 220.291 132.97 220.419C132.596 220.542 132.293 220.729 132.061 220.98C131.834 221.226 131.72 221.562 131.72 221.989C131.72 222.571 131.936 223.011 132.367 223.31C132.802 223.603 133.354 223.75 134.021 223.75ZM146.257 225.227C145.234 225.227 144.354 224.986 143.615 224.503C142.876 224.02 142.308 223.355 141.91 222.507C141.513 221.66 141.314 220.691 141.314 219.602C141.314 218.494 141.517 217.517 141.925 216.669C142.336 215.817 142.909 215.152 143.643 214.673C144.382 214.19 145.244 213.949 146.229 213.949C146.996 213.949 147.687 214.091 148.302 214.375C148.918 214.659 149.422 215.057 149.815 215.568C150.208 216.08 150.452 216.676 150.547 217.358H148.871C148.743 216.861 148.459 216.42 148.018 216.037C147.583 215.649 146.996 215.455 146.257 215.455C145.604 215.455 145.031 215.625 144.538 215.966C144.05 216.302 143.669 216.778 143.395 217.393C143.125 218.004 142.99 218.722 142.99 219.545C142.99 220.388 143.122 221.122 143.388 221.747C143.657 222.372 144.036 222.857 144.524 223.203C145.016 223.549 145.594 223.722 146.257 223.722C146.693 223.722 147.088 223.646 147.443 223.494C147.798 223.343 148.099 223.125 148.345 222.841C148.591 222.557 148.766 222.216 148.871 221.818H150.547C150.452 222.462 150.218 223.042 149.844 223.558C149.474 224.07 148.984 224.477 148.373 224.78C147.767 225.078 147.062 225.227 146.257 225.227ZM145.461 224.943H146.854L146.74 225.511C147.109 225.568 147.448 225.722 147.756 225.973C148.063 226.229 148.217 226.634 148.217 227.188C148.217 227.798 147.964 228.295 147.457 228.679C146.955 229.067 146.214 229.261 145.234 229.261L145.177 228.153C145.618 228.153 145.982 228.082 146.271 227.94C146.565 227.803 146.711 227.571 146.711 227.244C146.711 226.918 146.591 226.695 146.349 226.577C146.108 226.458 145.717 226.378 145.177 226.335L145.461 224.943ZM156.207 225.256C155.516 225.256 154.889 225.125 154.325 224.865C153.762 224.6 153.314 224.219 152.983 223.722C152.651 223.22 152.486 222.614 152.486 221.903C152.486 221.278 152.609 220.772 152.855 220.384C153.101 219.991 153.43 219.683 153.842 219.46C154.254 219.238 154.709 219.072 155.206 218.963C155.708 218.849 156.212 218.759 156.719 218.693C157.381 218.608 157.919 218.544 158.331 218.501C158.747 218.454 159.05 218.376 159.24 218.267C159.434 218.158 159.531 217.969 159.531 217.699V217.642C159.531 216.941 159.339 216.397 158.956 216.009C158.577 215.62 158.002 215.426 157.23 215.426C156.43 215.426 155.802 215.601 155.348 215.952C154.893 216.302 154.574 216.676 154.389 217.074L152.798 216.506C153.082 215.843 153.461 215.327 153.934 214.957C154.413 214.583 154.934 214.323 155.497 214.176C156.065 214.025 156.624 213.949 157.173 213.949C157.523 213.949 157.926 213.991 158.381 214.077C158.84 214.157 159.282 214.325 159.709 214.581C160.14 214.837 160.497 215.223 160.781 215.739C161.065 216.255 161.207 216.946 161.207 217.812V225H159.531V223.523H159.446C159.332 223.759 159.143 224.013 158.878 224.283C158.613 224.553 158.26 224.782 157.819 224.972C157.379 225.161 156.842 225.256 156.207 225.256ZM156.463 223.75C157.126 223.75 157.684 223.62 158.139 223.359C158.598 223.099 158.944 222.763 159.176 222.351C159.413 221.939 159.531 221.506 159.531 221.051V219.517C159.46 219.602 159.304 219.68 159.062 219.751C158.826 219.818 158.551 219.877 158.238 219.929C157.931 219.976 157.63 220.019 157.336 220.057C157.048 220.09 156.813 220.118 156.633 220.142C156.198 220.199 155.791 220.291 155.412 220.419C155.038 220.542 154.735 220.729 154.503 220.98C154.275 221.226 154.162 221.562 154.162 221.989C154.162 222.571 154.377 223.011 154.808 223.31C155.244 223.603 155.795 223.75 156.463 223.75ZM155.099 212.784L153.792 212.727C153.792 212.003 153.998 211.411 154.41 210.952C154.827 210.488 155.341 210.256 155.952 210.256C156.221 210.256 156.461 210.303 156.669 210.398C156.877 210.488 157.076 210.592 157.265 210.71C157.455 210.829 157.649 210.935 157.848 211.03C158.051 211.12 158.281 211.165 158.537 211.165C158.807 211.165 159.034 211.061 159.219 210.852C159.408 210.639 159.503 210.384 159.503 210.085L160.781 210.199C160.781 210.937 160.573 211.525 160.156 211.96C159.744 212.396 159.233 212.614 158.622 212.614C158.295 212.614 158.025 212.569 157.812 212.479C157.599 212.384 157.41 212.277 157.244 212.159C157.078 212.041 156.903 211.937 156.719 211.847C156.534 211.752 156.307 211.705 156.037 211.705C155.767 211.705 155.542 211.811 155.362 212.024C155.187 212.232 155.099 212.486 155.099 212.784ZM168.698 225.227C167.713 225.227 166.849 224.993 166.106 224.524C165.367 224.055 164.79 223.4 164.373 222.557C163.961 221.714 163.755 220.729 163.755 219.602C163.755 218.466 163.961 217.474 164.373 216.626C164.79 215.779 165.367 215.121 166.106 214.652C166.849 214.183 167.713 213.949 168.698 213.949C169.683 213.949 170.545 214.183 171.284 214.652C172.027 215.121 172.605 215.779 173.017 216.626C173.433 217.474 173.642 218.466 173.642 219.602C173.642 220.729 173.433 221.714 173.017 222.557C172.605 223.4 172.027 224.055 171.284 224.524C170.545 224.993 169.683 225.227 168.698 225.227ZM168.698 223.722C169.446 223.722 170.062 223.53 170.545 223.146C171.028 222.763 171.385 222.259 171.617 221.634C171.849 221.009 171.965 220.331 171.965 219.602C171.965 218.873 171.849 218.194 171.617 217.564C171.385 216.934 171.028 216.425 170.545 216.037C170.062 215.649 169.446 215.455 168.698 215.455C167.95 215.455 167.335 215.649 166.852 216.037C166.369 216.425 166.011 216.934 165.779 217.564C165.547 218.194 165.431 218.873 165.431 219.602C165.431 220.331 165.547 221.009 165.779 221.634C166.011 222.259 166.369 222.763 166.852 223.146C167.335 223.53 167.95 223.722 168.698 223.722ZM186.399 225.227C185.348 225.227 184.441 224.995 183.679 224.531C182.921 224.062 182.336 223.409 181.925 222.571C181.517 221.728 181.314 220.748 181.314 219.631C181.314 218.513 181.517 217.528 181.925 216.676C182.336 215.819 182.909 215.152 183.643 214.673C184.382 214.19 185.244 213.949 186.229 213.949C186.797 213.949 187.358 214.044 187.912 214.233C188.466 214.422 188.97 214.73 189.425 215.156C189.879 215.578 190.241 216.136 190.511 216.832C190.781 217.528 190.916 218.385 190.916 219.403V220.114H182.507V218.665H189.211C189.211 218.049 189.088 217.5 188.842 217.017C188.601 216.534 188.255 216.153 187.805 215.874C187.36 215.594 186.835 215.455 186.229 215.455C185.561 215.455 184.983 215.62 184.496 215.952C184.013 216.278 183.641 216.705 183.381 217.23C183.12 217.756 182.99 218.319 182.99 218.92V219.886C182.99 220.71 183.132 221.409 183.416 221.982C183.705 222.55 184.105 222.983 184.616 223.281C185.128 223.575 185.722 223.722 186.399 223.722C186.839 223.722 187.237 223.66 187.592 223.537C187.952 223.409 188.262 223.22 188.523 222.969C188.783 222.713 188.984 222.396 189.126 222.017L190.746 222.472C190.575 223.021 190.289 223.504 189.886 223.92C189.484 224.332 188.987 224.654 188.395 224.886C187.803 225.114 187.138 225.227 186.399 225.227ZM193.466 225V214.091H195.085V215.795H195.227C195.454 215.213 195.821 214.761 196.328 214.439C196.835 214.112 197.443 213.949 198.153 213.949C198.873 213.949 199.472 214.112 199.95 214.439C200.433 214.761 200.809 215.213 201.079 215.795H201.193C201.472 215.232 201.891 214.785 202.45 214.453C203.009 214.117 203.679 213.949 204.46 213.949C205.435 213.949 206.233 214.254 206.854 214.865C207.474 215.471 207.784 216.416 207.784 217.699V225H206.108V217.699C206.108 216.894 205.888 216.319 205.447 215.973C205.007 215.627 204.488 215.455 203.892 215.455C203.125 215.455 202.531 215.687 202.109 216.151C201.688 216.61 201.477 217.192 201.477 217.898V225H199.773V217.528C199.773 216.908 199.571 216.409 199.169 216.03C198.766 215.646 198.248 215.455 197.613 215.455C197.178 215.455 196.771 215.571 196.392 215.803C196.018 216.035 195.715 216.357 195.483 216.768C195.256 217.176 195.142 217.647 195.142 218.182V225H193.466ZM39.1138 234.455V249H37.4093L29.4831 237.58H29.3411V249H27.5797V234.455H29.2843L37.2388 245.903H37.3809V234.455H39.1138ZM46.9849 249.227C45.9338 249.227 45.027 248.995 44.2647 248.531C43.5072 248.062 42.9224 247.409 42.5105 246.571C42.1033 245.728 41.8997 244.748 41.8997 243.631C41.8997 242.513 42.1033 241.528 42.5105 240.676C42.9224 239.819 43.4953 239.152 44.2292 238.673C44.9679 238.19 45.8296 237.949 46.8145 237.949C47.3826 237.949 47.9437 238.044 48.4977 238.233C49.0517 238.422 49.5559 238.73 50.0105 239.156C50.465 239.578 50.8272 240.136 51.0971 240.832C51.367 241.528 51.502 242.385 51.502 243.403V244.114H43.0929V242.665H49.7974C49.7974 242.049 49.6743 241.5 49.4281 241.017C49.1866 240.534 48.841 240.153 48.3912 239.874C47.9461 239.594 47.4205 239.455 46.8145 239.455C46.1468 239.455 45.5692 239.62 45.0815 239.952C44.5985 240.278 44.2269 240.705 43.9664 241.23C43.706 241.756 43.5758 242.319 43.5758 242.92V243.886C43.5758 244.71 43.7179 245.409 44.002 245.982C44.2908 246.55 44.6909 246.983 45.2022 247.281C45.7136 247.575 46.3078 247.722 46.9849 247.722C47.4252 247.722 47.823 247.66 48.1781 247.537C48.5379 247.409 48.8481 247.22 49.1085 246.969C49.3689 246.713 49.5701 246.396 49.7122 246.017L51.3315 246.472C51.161 247.021 50.8746 247.504 50.4721 247.92C50.0697 248.332 49.5725 248.654 48.9806 248.886C48.3888 249.114 47.7235 249.227 46.9849 249.227ZM60.9267 244.54V238.091H62.6028V249H60.9267V247.153H60.813C60.5574 247.707 60.1596 248.179 59.6199 248.567C59.0801 248.95 58.3983 249.142 57.5744 249.142C56.8926 249.142 56.2865 248.993 55.7562 248.695C55.2259 248.392 54.8092 247.937 54.5062 247.331C54.2032 246.72 54.0517 245.951 54.0517 245.023V238.091H55.7278V244.909C55.7278 245.705 55.9503 246.339 56.3954 246.812C56.8452 247.286 57.4181 247.523 58.1142 247.523C58.5308 247.523 58.9546 247.416 59.3855 247.203C59.8211 246.99 60.1857 246.663 60.4792 246.223C60.7775 245.783 60.9267 245.222 60.9267 244.54ZM65.6728 249V238.091H67.2921V239.739H67.4057C67.6046 239.199 67.9644 238.761 68.4853 238.425C69.0061 238.089 69.5932 237.92 70.2466 237.92C70.3697 237.92 70.5236 237.923 70.7083 237.928C70.8929 237.932 71.0326 237.939 71.1273 237.949V239.653C71.0705 239.639 70.9403 239.618 70.7367 239.589C70.5378 239.556 70.3271 239.54 70.1046 239.54C69.5743 239.54 69.1008 239.651 68.6841 239.874C68.2722 240.091 67.9455 240.394 67.704 240.783C67.4673 241.166 67.3489 241.604 67.3489 242.097V249H65.6728ZM77.214 249.227C76.2291 249.227 75.365 248.993 74.6216 248.524C73.883 248.055 73.3053 247.4 72.8887 246.557C72.4767 245.714 72.2708 244.729 72.2708 243.602C72.2708 242.466 72.4767 241.474 72.8887 240.626C73.3053 239.779 73.883 239.121 74.6216 238.652C75.365 238.183 76.2291 237.949 77.214 237.949C78.1988 237.949 79.0605 238.183 79.7992 238.652C80.5426 239.121 81.1202 239.779 81.5321 240.626C81.9488 241.474 82.1571 242.466 82.1571 243.602C82.1571 244.729 81.9488 245.714 81.5321 246.557C81.1202 247.4 80.5426 248.055 79.7992 248.524C79.0605 248.993 78.1988 249.227 77.214 249.227ZM77.214 247.722C77.9621 247.722 78.5776 247.53 79.0605 247.146C79.5435 246.763 79.901 246.259 80.133 245.634C80.365 245.009 80.481 244.331 80.481 243.602C80.481 242.873 80.365 242.194 80.133 241.564C79.901 240.934 79.5435 240.425 79.0605 240.037C78.5776 239.649 77.9621 239.455 77.214 239.455C76.4658 239.455 75.8503 239.649 75.3674 240.037C74.8844 240.425 74.5269 240.934 74.2949 241.564C74.0629 242.194 73.9469 242.873 73.9469 243.602C73.9469 244.331 74.0629 245.009 74.2949 245.634C74.5269 246.259 74.8844 246.763 75.3674 247.146C75.8503 247.53 76.4658 247.722 77.214 247.722ZM84.7157 253.091V238.091H86.335V239.824H86.5339C86.657 239.634 86.8275 239.393 87.0453 239.099C87.2678 238.801 87.585 238.536 87.997 238.304C88.4136 238.067 88.9771 237.949 89.6873 237.949C90.6059 237.949 91.4155 238.179 92.1163 238.638C92.8171 239.097 93.3639 239.748 93.7569 240.591C94.1499 241.434 94.3464 242.428 94.3464 243.574C94.3464 244.729 94.1499 245.731 93.7569 246.578C93.3639 247.421 92.8194 248.074 92.1234 248.538C91.4274 248.998 90.6248 249.227 89.7157 249.227C89.015 249.227 88.4539 249.111 88.0325 248.879C87.6111 248.643 87.2868 248.375 87.0595 248.077C86.8322 247.774 86.657 247.523 86.5339 247.324H86.3919V253.091H84.7157ZM86.3635 243.545C86.3635 244.369 86.4842 245.096 86.7257 245.726C86.9672 246.351 87.3199 246.841 87.7839 247.196C88.2479 247.546 88.8161 247.722 89.4885 247.722C90.1892 247.722 90.774 247.537 91.2427 247.168C91.7162 246.794 92.0713 246.292 92.3081 245.662C92.5495 245.027 92.6703 244.322 92.6703 243.545C92.6703 242.778 92.5519 242.087 92.3152 241.472C92.0832 240.851 91.7304 240.361 91.2569 240.001C90.7882 239.637 90.1987 239.455 89.4885 239.455C88.8066 239.455 88.2337 239.627 87.7697 239.973C87.3057 240.314 86.9553 240.792 86.7186 241.408C86.4818 242.018 86.3635 242.731 86.3635 243.545ZM104.631 240.534L103.125 240.96C103.03 240.709 102.89 240.465 102.706 240.229C102.526 239.987 102.28 239.788 101.967 239.632C101.655 239.476 101.255 239.398 100.767 239.398C100.099 239.398 99.5429 239.552 99.0978 239.859C98.6575 240.162 98.4373 240.548 98.4373 241.017C98.4373 241.434 98.5888 241.763 98.8919 242.004C99.1949 242.246 99.6684 242.447 100.312 242.608L101.932 243.006C102.907 243.242 103.634 243.605 104.112 244.092C104.59 244.575 104.829 245.198 104.829 245.96C104.829 246.585 104.649 247.144 104.29 247.636C103.934 248.129 103.437 248.517 102.798 248.801C102.159 249.085 101.416 249.227 100.568 249.227C99.4553 249.227 98.5344 248.986 97.8052 248.503C97.0761 248.02 96.6144 247.314 96.4203 246.386L98.0112 245.989C98.1627 246.576 98.4492 247.016 98.8706 247.31C99.2967 247.603 99.853 247.75 100.54 247.75C101.321 247.75 101.941 247.584 102.4 247.253C102.864 246.917 103.096 246.514 103.096 246.045C103.096 245.667 102.964 245.349 102.699 245.094C102.434 244.833 102.026 244.639 101.477 244.511L99.6589 244.085C98.6599 243.848 97.926 243.482 97.4572 242.984C96.9932 242.482 96.7612 241.855 96.7612 241.102C96.7612 240.487 96.934 239.942 97.2797 239.469C97.63 238.995 98.1059 238.624 98.7072 238.354C99.3133 238.084 99.9998 237.949 100.767 237.949C101.846 237.949 102.694 238.186 103.309 238.659C103.93 239.133 104.37 239.758 104.631 240.534ZM107.352 249V238.091H109.029V249H107.352ZM108.205 236.273C107.878 236.273 107.596 236.161 107.36 235.939C107.128 235.716 107.012 235.449 107.012 235.136C107.012 234.824 107.128 234.556 107.36 234.334C107.596 234.111 107.878 234 108.205 234C108.531 234 108.811 234.111 109.043 234.334C109.28 234.556 109.398 234.824 109.398 235.136C109.398 235.449 109.28 235.716 109.043 235.939C108.811 236.161 108.531 236.273 108.205 236.273ZM116.53 249.227C115.508 249.227 114.627 248.986 113.888 248.503C113.15 248.02 112.581 247.355 112.184 246.507C111.786 245.66 111.587 244.691 111.587 243.602C111.587 242.494 111.791 241.517 112.198 240.669C112.61 239.817 113.183 239.152 113.917 238.673C114.655 238.19 115.517 237.949 116.502 237.949C117.269 237.949 117.96 238.091 118.576 238.375C119.191 238.659 119.696 239.057 120.089 239.568C120.482 240.08 120.725 240.676 120.82 241.358H119.144C119.016 240.861 118.732 240.42 118.292 240.037C117.856 239.649 117.269 239.455 116.53 239.455C115.877 239.455 115.304 239.625 114.812 239.966C114.324 240.302 113.943 240.778 113.668 241.393C113.398 242.004 113.263 242.722 113.263 243.545C113.263 244.388 113.396 245.122 113.661 245.747C113.931 246.372 114.31 246.857 114.797 247.203C115.29 247.549 115.867 247.722 116.53 247.722C116.966 247.722 117.361 247.646 117.716 247.494C118.072 247.343 118.372 247.125 118.618 246.841C118.865 246.557 119.04 246.216 119.144 245.818H120.82C120.725 246.462 120.491 247.042 120.117 247.558C119.748 248.07 119.258 248.477 118.647 248.78C118.041 249.078 117.335 249.227 116.53 249.227ZM127.702 249.227C126.717 249.227 125.853 248.993 125.11 248.524C124.371 248.055 123.794 247.4 123.377 246.557C122.965 245.714 122.759 244.729 122.759 243.602C122.759 242.466 122.965 241.474 123.377 240.626C123.794 239.779 124.371 239.121 125.11 238.652C125.853 238.183 126.717 237.949 127.702 237.949C128.687 237.949 129.549 238.183 130.287 238.652C131.031 239.121 131.608 239.779 132.02 240.626C132.437 241.474 132.645 242.466 132.645 243.602C132.645 244.729 132.437 245.714 132.02 246.557C131.608 247.4 131.031 248.055 130.287 248.524C129.549 248.993 128.687 249.227 127.702 249.227ZM127.702 247.722C128.45 247.722 129.066 247.53 129.549 247.146C130.032 246.763 130.389 246.259 130.621 245.634C130.853 245.009 130.969 244.331 130.969 243.602C130.969 242.873 130.853 242.194 130.621 241.564C130.389 240.934 130.032 240.425 129.549 240.037C129.066 239.649 128.45 239.455 127.702 239.455C126.954 239.455 126.339 239.649 125.856 240.037C125.373 240.425 125.015 240.934 124.783 241.564C124.551 242.194 124.435 242.873 124.435 243.602C124.435 244.331 124.551 245.009 124.783 245.634C125.015 246.259 125.373 246.763 125.856 247.146C126.339 247.53 126.954 247.722 127.702 247.722ZM140.062 238.091V239.511H134.181V238.091H140.062ZM135.943 249V236.585C135.943 235.96 136.089 235.439 136.383 235.023C136.677 234.606 137.058 234.294 137.526 234.085C137.995 233.877 138.49 233.773 139.011 233.773C139.423 233.773 139.759 233.806 140.019 233.872C140.28 233.938 140.474 234 140.602 234.057L140.119 235.506C140.034 235.477 139.915 235.442 139.764 235.399C139.617 235.357 139.423 235.335 139.181 235.335C138.627 235.335 138.227 235.475 137.981 235.754C137.74 236.034 137.619 236.443 137.619 236.983V249H135.943ZM145.309 249.256C144.617 249.256 143.99 249.125 143.427 248.865C142.863 248.6 142.416 248.219 142.084 247.722C141.753 247.22 141.587 246.614 141.587 245.903C141.587 245.278 141.71 244.772 141.956 244.384C142.203 243.991 142.532 243.683 142.944 243.46C143.356 243.238 143.81 243.072 144.307 242.963C144.809 242.849 145.314 242.759 145.82 242.693C146.483 242.608 147.02 242.544 147.432 242.501C147.849 242.454 148.152 242.376 148.341 242.267C148.536 242.158 148.633 241.969 148.633 241.699V241.642C148.633 240.941 148.441 240.397 148.057 240.009C147.679 239.62 147.103 239.426 146.331 239.426C145.531 239.426 144.904 239.601 144.449 239.952C143.995 240.302 143.675 240.676 143.491 241.074L141.9 240.506C142.184 239.843 142.563 239.327 143.036 238.957C143.514 238.583 144.035 238.323 144.599 238.176C145.167 238.025 145.725 237.949 146.275 237.949C146.625 237.949 147.028 237.991 147.482 238.077C147.941 238.157 148.384 238.325 148.81 238.581C149.241 238.837 149.599 239.223 149.883 239.739C150.167 240.255 150.309 240.946 150.309 241.812V249H148.633V247.523H148.547C148.434 247.759 148.244 248.013 147.979 248.283C147.714 248.553 147.361 248.782 146.921 248.972C146.481 249.161 145.943 249.256 145.309 249.256ZM145.564 247.75C146.227 247.75 146.786 247.62 147.241 247.359C147.7 247.099 148.046 246.763 148.278 246.351C148.514 245.939 148.633 245.506 148.633 245.051V243.517C148.562 243.602 148.405 243.68 148.164 243.751C147.927 243.818 147.653 243.877 147.34 243.929C147.032 243.976 146.732 244.019 146.438 244.057C146.149 244.09 145.915 244.118 145.735 244.142C145.299 244.199 144.892 244.291 144.513 244.419C144.139 244.542 143.836 244.729 143.604 244.98C143.377 245.226 143.263 245.562 143.263 245.989C143.263 246.571 143.479 247.011 143.91 247.31C144.345 247.603 144.897 247.75 145.564 247.75ZM153.368 249V238.091H154.987V239.739H155.101C155.3 239.199 155.66 238.761 156.181 238.425C156.701 238.089 157.289 237.92 157.942 237.92C158.065 237.92 158.219 237.923 158.404 237.928C158.588 237.932 158.728 237.939 158.823 237.949V239.653C158.766 239.639 158.636 239.618 158.432 239.589C158.233 239.556 158.022 239.54 157.8 239.54C157.27 239.54 156.796 239.651 156.379 239.874C155.968 240.091 155.641 240.394 155.399 240.783C155.163 241.166 155.044 241.604 155.044 242.097V249H153.368ZM160.809 249V238.091H162.429V239.795H162.571C162.798 239.213 163.165 238.761 163.672 238.439C164.178 238.112 164.787 237.949 165.497 237.949C166.217 237.949 166.816 238.112 167.294 238.439C167.777 238.761 168.153 239.213 168.423 239.795H168.537C168.816 239.232 169.235 238.785 169.794 238.453C170.353 238.117 171.023 237.949 171.804 237.949C172.779 237.949 173.577 238.254 174.197 238.865C174.818 239.471 175.128 240.416 175.128 241.699V249H173.452V241.699C173.452 240.894 173.231 240.319 172.791 239.973C172.351 239.627 171.832 239.455 171.236 239.455C170.469 239.455 169.874 239.687 169.453 240.151C169.032 240.61 168.821 241.192 168.821 241.898V249H167.116V241.528C167.116 240.908 166.915 240.409 166.513 240.03C166.11 239.646 165.592 239.455 164.957 239.455C164.522 239.455 164.114 239.571 163.736 239.803C163.362 240.035 163.059 240.357 162.827 240.768C162.599 241.176 162.486 241.647 162.486 242.182V249H160.809ZM181.403 249.256C180.711 249.256 180.084 249.125 179.52 248.865C178.957 248.6 178.51 248.219 178.178 247.722C177.847 247.22 177.681 246.614 177.681 245.903C177.681 245.278 177.804 244.772 178.05 244.384C178.296 243.991 178.626 243.683 179.037 243.46C179.449 243.238 179.904 243.072 180.401 242.963C180.903 242.849 181.407 242.759 181.914 242.693C182.577 242.608 183.114 242.544 183.526 242.501C183.943 242.454 184.246 242.376 184.435 242.267C184.629 242.158 184.726 241.969 184.726 241.699V241.642C184.726 240.941 184.535 240.397 184.151 240.009C183.772 239.62 183.197 239.426 182.425 239.426C181.625 239.426 180.998 239.601 180.543 239.952C180.089 240.302 179.769 240.676 179.584 241.074L177.993 240.506C178.278 239.843 178.656 239.327 179.13 238.957C179.608 238.583 180.129 238.323 180.692 238.176C181.26 238.025 181.819 237.949 182.368 237.949C182.719 237.949 183.121 237.991 183.576 238.077C184.035 238.157 184.478 238.325 184.904 238.581C185.335 238.837 185.692 239.223 185.976 239.739C186.26 240.255 186.403 240.946 186.403 241.812V249H184.726V247.523H184.641C184.528 247.759 184.338 248.013 184.073 248.283C183.808 248.553 183.455 248.782 183.015 248.972C182.574 249.161 182.037 249.256 181.403 249.256ZM181.658 247.75C182.321 247.75 182.88 247.62 183.334 247.359C183.794 247.099 184.139 246.763 184.371 246.351C184.608 245.939 184.726 245.506 184.726 245.051V243.517C184.655 243.602 184.499 243.68 184.258 243.751C184.021 243.818 183.746 243.877 183.434 243.929C183.126 243.976 182.825 244.019 182.532 244.057C182.243 244.09 182.009 244.118 181.829 244.142C181.393 244.199 180.986 244.291 180.607 244.419C180.233 244.542 179.93 244.729 179.698 244.98C179.471 245.226 179.357 245.562 179.357 245.989C179.357 246.571 179.573 247.011 180.003 247.31C180.439 247.603 180.991 247.75 181.658 247.75ZM193.894 249.227C192.871 249.227 191.99 248.986 191.252 248.503C190.513 248.02 189.945 247.355 189.547 246.507C189.149 245.66 188.95 244.691 188.95 243.602C188.95 242.494 189.154 241.517 189.561 240.669C189.973 239.817 190.546 239.152 191.28 238.673C192.019 238.19 192.88 237.949 193.865 237.949C194.632 237.949 195.324 238.091 195.939 238.375C196.555 238.659 197.059 239.057 197.452 239.568C197.845 240.08 198.089 240.676 198.183 241.358H196.507C196.379 240.861 196.095 240.42 195.655 240.037C195.219 239.649 194.632 239.455 193.894 239.455C193.24 239.455 192.667 239.625 192.175 239.966C191.687 240.302 191.306 240.778 191.031 241.393C190.762 242.004 190.627 242.722 190.627 243.545C190.627 244.388 190.759 245.122 191.024 245.747C191.294 246.372 191.673 246.857 192.161 247.203C192.653 247.549 193.231 247.722 193.894 247.722C194.329 247.722 194.725 247.646 195.08 247.494C195.435 247.343 195.735 247.125 195.982 246.841C196.228 246.557 196.403 246.216 196.507 245.818H198.183C198.089 246.462 197.854 247.042 197.48 247.558C197.111 248.07 196.621 248.477 196.01 248.78C195.404 249.078 194.699 249.227 193.894 249.227ZM205.066 249.227C204.081 249.227 203.217 248.993 202.473 248.524C201.735 248.055 201.157 247.4 200.74 246.557C200.328 245.714 200.122 244.729 200.122 243.602C200.122 242.466 200.328 241.474 200.74 240.626C201.157 239.779 201.735 239.121 202.473 238.652C203.217 238.183 204.081 237.949 205.066 237.949C206.05 237.949 206.912 238.183 207.651 238.652C208.394 239.121 208.972 239.779 209.384 240.626C209.8 241.474 210.009 242.466 210.009 243.602C210.009 244.729 209.8 245.714 209.384 246.557C208.972 247.4 208.394 248.055 207.651 248.524C206.912 248.993 206.05 249.227 205.066 249.227ZM205.066 247.722C205.814 247.722 206.429 247.53 206.912 247.146C207.395 246.763 207.753 246.259 207.985 245.634C208.217 245.009 208.333 244.331 208.333 243.602C208.333 242.873 208.217 242.194 207.985 241.564C207.753 240.934 207.395 240.425 206.912 240.037C206.429 239.649 205.814 239.455 205.066 239.455C204.317 239.455 203.702 239.649 203.219 240.037C202.736 240.425 202.378 240.934 202.146 241.564C201.914 242.194 201.798 242.873 201.798 243.602C201.798 244.331 201.914 245.009 202.146 245.634C202.378 246.259 202.736 246.763 203.219 247.146C203.702 247.53 204.317 247.722 205.066 247.722ZM214.243 234.455V249H212.567V234.455H214.243ZM221.745 249.227C220.76 249.227 219.896 248.993 219.153 248.524C218.414 248.055 217.837 247.4 217.42 246.557C217.008 245.714 216.802 244.729 216.802 243.602C216.802 242.466 217.008 241.474 217.42 240.626C217.837 239.779 218.414 239.121 219.153 238.652C219.896 238.183 220.76 237.949 221.745 237.949C222.73 237.949 223.592 238.183 224.33 238.652C225.074 239.121 225.651 239.779 226.063 240.626C226.48 241.474 226.688 242.466 226.688 243.602C226.688 244.729 226.48 245.714 226.063 246.557C225.651 247.4 225.074 248.055 224.33 248.524C223.592 248.993 222.73 249.227 221.745 249.227ZM221.745 247.722C222.493 247.722 223.109 247.53 223.592 247.146C224.075 246.763 224.432 246.259 224.664 245.634C224.896 245.009 225.012 244.331 225.012 243.602C225.012 242.873 224.896 242.194 224.664 241.564C224.432 240.934 224.075 240.425 223.592 240.037C223.109 239.649 222.493 239.455 221.745 239.455C220.997 239.455 220.382 239.649 219.899 240.037C219.416 240.425 219.058 240.934 218.826 241.564C218.594 242.194 218.478 242.873 218.478 243.602C218.478 244.331 218.594 245.009 218.826 245.634C219.058 246.259 219.416 246.763 219.899 247.146C220.382 247.53 220.997 247.722 221.745 247.722ZM233.65 253.318C232.841 253.318 232.145 253.214 231.562 253.006C230.98 252.802 230.495 252.532 230.106 252.196C229.723 251.865 229.417 251.509 229.19 251.131L230.525 250.193C230.677 250.392 230.869 250.619 231.101 250.875C231.333 251.135 231.65 251.36 232.052 251.55C232.46 251.744 232.992 251.841 233.65 251.841C234.531 251.841 235.258 251.628 235.831 251.202C236.404 250.776 236.69 250.108 236.69 249.199V246.983H236.548C236.425 247.182 236.25 247.428 236.023 247.722C235.8 248.01 235.478 248.268 235.057 248.496C234.64 248.718 234.077 248.83 233.366 248.83C232.486 248.83 231.695 248.621 230.994 248.205C230.298 247.788 229.747 247.182 229.339 246.386C228.937 245.591 228.736 244.625 228.736 243.489C228.736 242.371 228.932 241.398 229.325 240.57C229.718 239.736 230.265 239.092 230.966 238.638C231.666 238.179 232.476 237.949 233.395 237.949C234.105 237.949 234.668 238.067 235.085 238.304C235.506 238.536 235.828 238.801 236.051 239.099C236.278 239.393 236.453 239.634 236.577 239.824H236.747V238.091H238.366V249.312C238.366 250.25 238.153 251.012 237.727 251.599C237.306 252.191 236.738 252.625 236.023 252.899C235.312 253.179 234.522 253.318 233.65 253.318ZM233.594 247.324C234.266 247.324 234.834 247.17 235.298 246.862C235.762 246.554 236.115 246.112 236.356 245.534C236.598 244.956 236.719 244.265 236.719 243.46C236.719 242.674 236.6 241.981 236.363 241.379C236.127 240.778 235.776 240.307 235.312 239.966C234.848 239.625 234.275 239.455 233.594 239.455C232.883 239.455 232.291 239.634 231.818 239.994C231.349 240.354 230.997 240.837 230.76 241.443C230.528 242.049 230.412 242.722 230.412 243.46C230.412 244.218 230.53 244.888 230.767 245.47C231.008 246.048 231.363 246.502 231.832 246.834C232.306 247.161 232.893 247.324 233.594 247.324ZM241.434 249V238.091H243.111V249H241.434ZM242.287 236.273C241.96 236.273 241.678 236.161 241.442 235.939C241.21 235.716 241.094 235.449 241.094 235.136C241.094 234.824 241.21 234.556 241.442 234.334C241.678 234.111 241.96 234 242.287 234C242.613 234 242.893 234.111 243.125 234.334C243.362 234.556 243.48 234.824 243.48 235.136C243.48 235.449 243.362 235.716 243.125 235.939C242.893 236.161 242.613 236.273 242.287 236.273ZM249.391 249.256C248.7 249.256 248.072 249.125 247.509 248.865C246.945 248.6 246.498 248.219 246.166 247.722C245.835 247.22 245.669 246.614 245.669 245.903C245.669 245.278 245.792 244.772 246.039 244.384C246.285 243.991 246.614 243.683 247.026 243.46C247.438 243.238 247.892 243.072 248.389 242.963C248.891 242.849 249.396 242.759 249.902 242.693C250.565 242.608 251.102 242.544 251.514 242.501C251.931 242.454 252.234 242.376 252.423 242.267C252.618 242.158 252.715 241.969 252.715 241.699V241.642C252.715 240.941 252.523 240.397 252.139 240.009C251.761 239.62 251.185 239.426 250.414 239.426C249.613 239.426 248.986 239.601 248.531 239.952C248.077 240.302 247.757 240.676 247.573 241.074L245.982 240.506C246.266 239.843 246.645 239.327 247.118 238.957C247.596 238.583 248.117 238.323 248.681 238.176C249.249 238.025 249.807 237.949 250.357 237.949C250.707 237.949 251.11 237.991 251.564 238.077C252.023 238.157 252.466 238.325 252.892 238.581C253.323 238.837 253.681 239.223 253.965 239.739C254.249 240.255 254.391 240.946 254.391 241.812V249H252.715V247.523H252.629C252.516 247.759 252.326 248.013 252.061 248.283C251.796 248.553 251.443 248.782 251.003 248.972C250.563 249.161 250.025 249.256 249.391 249.256ZM249.646 247.75C250.309 247.75 250.868 247.62 251.323 247.359C251.782 247.099 252.128 246.763 252.36 246.351C252.596 245.939 252.715 245.506 252.715 245.051V243.517C252.644 243.602 252.487 243.68 252.246 243.751C252.009 243.818 251.735 243.877 251.422 243.929C251.114 243.976 250.814 244.019 250.52 244.057C250.231 244.09 249.997 244.118 249.817 244.142C249.381 244.199 248.974 244.291 248.595 244.419C248.221 244.542 247.918 244.729 247.686 244.98C247.459 245.226 247.345 245.562 247.345 245.989C247.345 246.571 247.561 247.011 247.992 247.31C248.427 247.603 248.979 247.75 249.646 247.75ZM267.649 249.227C266.598 249.227 265.691 248.995 264.929 248.531C264.171 248.062 263.586 247.409 263.175 246.571C262.767 245.728 262.564 244.748 262.564 243.631C262.564 242.513 262.767 241.528 263.175 240.676C263.586 239.819 264.159 239.152 264.893 238.673C265.632 238.19 266.494 237.949 267.479 237.949C268.047 237.949 268.608 238.044 269.162 238.233C269.716 238.422 270.22 238.73 270.675 239.156C271.129 239.578 271.491 240.136 271.761 240.832C272.031 241.528 272.166 242.385 272.166 243.403V244.114H263.757V242.665H270.461C270.461 242.049 270.338 241.5 270.092 241.017C269.851 240.534 269.505 240.153 269.055 239.874C268.61 239.594 268.085 239.455 267.479 239.455C266.811 239.455 266.233 239.62 265.746 239.952C265.263 240.278 264.891 240.705 264.631 241.23C264.37 241.756 264.24 242.319 264.24 242.92V243.886C264.24 244.71 264.382 245.409 264.666 245.982C264.955 246.55 265.355 246.983 265.866 247.281C266.378 247.575 266.972 247.722 267.649 247.722C268.089 247.722 268.487 247.66 268.842 247.537C269.202 247.409 269.512 247.22 269.773 246.969C270.033 246.713 270.234 246.396 270.376 246.017L271.996 246.472C271.825 247.021 271.539 247.504 271.136 247.92C270.734 248.332 270.237 248.654 269.645 248.886C269.053 249.114 268.388 249.227 267.649 249.227ZM66.9263 258.455V273H65.2218L57.2956 261.58H57.1536V273H55.3922V258.455H57.0968L65.0513 269.903H65.1934V258.455H66.9263ZM74.7974 273.227C73.7463 273.227 72.8395 272.995 72.0772 272.531C71.3197 272.062 70.7349 271.409 70.323 270.571C69.9158 269.728 69.7122 268.748 69.7122 267.631C69.7122 266.513 69.9158 265.528 70.323 264.676C70.7349 263.819 71.3078 263.152 72.0417 262.673C72.7804 262.19 73.6421 261.949 74.627 261.949C75.1951 261.949 75.7562 262.044 76.3102 262.233C76.8642 262.422 77.3684 262.73 77.823 263.156C78.2775 263.578 78.6397 264.136 78.9096 264.832C79.1795 265.528 79.3145 266.385 79.3145 267.403V268.114H70.9054V266.665H77.6099C77.6099 266.049 77.4868 265.5 77.2406 265.017C76.9991 264.534 76.6535 264.153 76.2037 263.874C75.7586 263.594 75.233 263.455 74.627 263.455C73.9593 263.455 73.3817 263.62 72.894 263.952C72.411 264.278 72.0394 264.705 71.7789 265.23C71.5185 265.756 71.3883 266.319 71.3883 266.92V267.886C71.3883 268.71 71.5304 269.409 71.8145 269.982C72.1033 270.55 72.5034 270.983 73.0147 271.281C73.5261 271.575 74.1203 271.722 74.7974 271.722C75.2377 271.722 75.6355 271.66 75.9906 271.537C76.3504 271.409 76.6606 271.22 76.921 270.969C77.1814 270.713 77.3826 270.396 77.5247 270.017L79.144 270.472C78.9735 271.021 78.6871 271.504 78.2846 271.92C77.8822 272.332 77.385 272.654 76.7931 272.886C76.2013 273.114 75.536 273.227 74.7974 273.227ZM88.7392 268.54V262.091H90.4153V273H88.7392V271.153H88.6255C88.3699 271.707 87.9721 272.179 87.4324 272.567C86.8926 272.95 86.2108 273.142 85.3869 273.142C84.7051 273.142 84.099 272.993 83.5687 272.695C83.0384 272.392 82.6217 271.937 82.3187 271.331C82.0157 270.72 81.8642 269.951 81.8642 269.023V262.091H83.5403V268.909C83.5403 269.705 83.7628 270.339 84.2079 270.812C84.6577 271.286 85.2306 271.523 85.9267 271.523C86.3433 271.523 86.7671 271.416 87.198 271.203C87.6336 270.99 87.9982 270.663 88.2917 270.223C88.59 269.783 88.7392 269.222 88.7392 268.54ZM93.4853 273V262.091H95.1046V263.739H95.2182C95.4171 263.199 95.7769 262.761 96.2978 262.425C96.8186 262.089 97.4057 261.92 98.0591 261.92C98.1822 261.92 98.3361 261.923 98.5208 261.928C98.7054 261.932 98.8451 261.939 98.9398 261.949V263.653C98.883 263.639 98.7528 263.618 98.5492 263.589C98.3503 263.556 98.1396 263.54 97.9171 263.54C97.3868 263.54 96.9133 263.651 96.4966 263.874C96.0847 264.091 95.758 264.394 95.5165 264.783C95.2798 265.166 95.1614 265.604 95.1614 266.097V273H93.4853ZM105.026 273.227C104.042 273.227 103.177 272.993 102.434 272.524C101.695 272.055 101.118 271.4 100.701 270.557C100.289 269.714 100.083 268.729 100.083 267.602C100.083 266.466 100.289 265.474 100.701 264.626C101.118 263.779 101.695 263.121 102.434 262.652C103.177 262.183 104.042 261.949 105.026 261.949C106.011 261.949 106.873 262.183 107.612 262.652C108.355 263.121 108.933 263.779 109.345 264.626C109.761 265.474 109.97 266.466 109.97 267.602C109.97 268.729 109.761 269.714 109.345 270.557C108.933 271.4 108.355 272.055 107.612 272.524C106.873 272.993 106.011 273.227 105.026 273.227ZM105.026 271.722C105.775 271.722 106.39 271.53 106.873 271.146C107.356 270.763 107.713 270.259 107.945 269.634C108.177 269.009 108.294 268.331 108.294 267.602C108.294 266.873 108.177 266.194 107.945 265.564C107.713 264.934 107.356 264.425 106.873 264.037C106.39 263.649 105.775 263.455 105.026 263.455C104.278 263.455 103.663 263.649 103.18 264.037C102.697 264.425 102.339 264.934 102.107 265.564C101.875 266.194 101.759 266.873 101.759 267.602C101.759 268.331 101.875 269.009 102.107 269.634C102.339 270.259 102.697 270.763 103.18 271.146C103.663 271.53 104.278 271.722 105.026 271.722ZM115.738 273.256C115.047 273.256 114.42 273.125 113.856 272.865C113.293 272.6 112.845 272.219 112.514 271.722C112.183 271.22 112.017 270.614 112.017 269.903C112.017 269.278 112.14 268.772 112.386 268.384C112.632 267.991 112.961 267.683 113.373 267.46C113.785 267.238 114.24 267.072 114.737 266.963C115.239 266.849 115.743 266.759 116.25 266.693C116.913 266.608 117.45 266.544 117.862 266.501C118.279 266.454 118.582 266.376 118.771 266.267C118.965 266.158 119.062 265.969 119.062 265.699V265.642C119.062 264.941 118.871 264.397 118.487 264.009C118.108 263.62 117.533 263.426 116.761 263.426C115.961 263.426 115.334 263.601 114.879 263.952C114.425 264.302 114.105 264.676 113.92 265.074L112.329 264.506C112.613 263.843 112.992 263.327 113.466 262.957C113.944 262.583 114.465 262.323 115.028 262.176C115.596 262.025 116.155 261.949 116.704 261.949C117.055 261.949 117.457 261.991 117.912 262.077C118.371 262.157 118.814 262.325 119.24 262.581C119.671 262.837 120.028 263.223 120.312 263.739C120.596 264.255 120.738 264.946 120.738 265.812V273H119.062V271.523H118.977C118.863 271.759 118.674 272.013 118.409 272.283C118.144 272.553 117.791 272.782 117.351 272.972C116.91 273.161 116.373 273.256 115.738 273.256ZM115.994 271.75C116.657 271.75 117.216 271.62 117.67 271.359C118.13 271.099 118.475 270.763 118.707 270.351C118.944 269.939 119.062 269.506 119.062 269.051V267.517C118.991 267.602 118.835 267.68 118.594 267.751C118.357 267.818 118.082 267.877 117.77 267.929C117.462 267.976 117.161 268.019 116.868 268.057C116.579 268.09 116.345 268.118 116.165 268.142C115.729 268.199 115.322 268.291 114.943 268.419C114.569 268.542 114.266 268.729 114.034 268.98C113.807 269.226 113.693 269.562 113.693 269.989C113.693 270.571 113.908 271.011 114.339 271.31C114.775 271.603 115.327 271.75 115.994 271.75ZM123.798 277.091V262.091H125.417V263.824H125.616C125.739 263.634 125.91 263.393 126.127 263.099C126.35 262.801 126.667 262.536 127.079 262.304C127.496 262.067 128.059 261.949 128.769 261.949C129.688 261.949 130.498 262.179 131.198 262.638C131.899 263.097 132.446 263.748 132.839 264.591C133.232 265.434 133.428 266.428 133.428 267.574C133.428 268.729 133.232 269.731 132.839 270.578C132.446 271.421 131.901 272.074 131.205 272.538C130.509 272.998 129.707 273.227 128.798 273.227C128.097 273.227 127.536 273.111 127.115 272.879C126.693 272.643 126.369 272.375 126.142 272.077C125.914 271.774 125.739 271.523 125.616 271.324H125.474V277.091H123.798ZM125.445 267.545C125.445 268.369 125.566 269.096 125.808 269.726C126.049 270.351 126.402 270.841 126.866 271.196C127.33 271.546 127.898 271.722 128.57 271.722C129.271 271.722 129.856 271.537 130.325 271.168C130.798 270.794 131.153 270.292 131.39 269.662C131.632 269.027 131.752 268.322 131.752 267.545C131.752 266.778 131.634 266.087 131.397 265.472C131.165 264.851 130.812 264.361 130.339 264.001C129.87 263.637 129.281 263.455 128.57 263.455C127.889 263.455 127.316 263.627 126.852 263.973C126.388 264.314 126.037 264.792 125.801 265.408C125.564 266.018 125.445 266.731 125.445 267.545ZM135.985 273V262.091H137.605V263.739H137.718C137.917 263.199 138.277 262.761 138.798 262.425C139.319 262.089 139.906 261.92 140.559 261.92C140.682 261.92 140.836 261.923 141.021 261.928C141.205 261.932 141.345 261.939 141.44 261.949V263.653C141.383 263.639 141.253 263.618 141.049 263.589C140.85 263.556 140.64 263.54 140.417 263.54C139.887 263.54 139.413 263.651 138.997 263.874C138.585 264.091 138.258 264.394 138.017 264.783C137.78 265.166 137.661 265.604 137.661 266.097V273H135.985ZM147.669 273.227C146.617 273.227 145.711 272.995 144.948 272.531C144.191 272.062 143.606 271.409 143.194 270.571C142.787 269.728 142.583 268.748 142.583 267.631C142.583 266.513 142.787 265.528 143.194 264.676C143.606 263.819 144.179 263.152 144.913 262.673C145.651 262.19 146.513 261.949 147.498 261.949C148.066 261.949 148.627 262.044 149.181 262.233C149.735 262.422 150.24 262.73 150.694 263.156C151.149 263.578 151.511 264.136 151.781 264.832C152.051 265.528 152.186 266.385 152.186 267.403V268.114H143.776V266.665H150.481C150.481 266.049 150.358 265.5 150.112 265.017C149.87 264.534 149.525 264.153 149.075 263.874C148.63 263.594 148.104 263.455 147.498 263.455C146.83 263.455 146.253 263.62 145.765 263.952C145.282 264.278 144.91 264.705 144.65 265.23C144.39 265.756 144.259 266.319 144.259 266.92V267.886C144.259 268.71 144.401 269.409 144.686 269.982C144.974 270.55 145.374 270.983 145.886 271.281C146.397 271.575 146.991 271.722 147.669 271.722C148.109 271.722 148.507 271.66 148.862 271.537C149.222 271.409 149.532 271.22 149.792 270.969C150.052 270.713 150.254 270.396 150.396 270.017L152.015 270.472C151.845 271.021 151.558 271.504 151.156 271.92C150.753 272.332 150.256 272.654 149.664 272.886C149.072 273.114 148.407 273.227 147.669 273.227ZM156.411 266.438V273H154.735V262.091H156.355V263.795H156.497C156.752 263.241 157.141 262.796 157.661 262.46C158.182 262.119 158.855 261.949 159.678 261.949C160.417 261.949 161.063 262.1 161.617 262.403C162.171 262.702 162.602 263.156 162.91 263.767C163.218 264.373 163.372 265.14 163.372 266.068V273H161.695V266.182C161.695 265.325 161.473 264.657 161.028 264.179C160.583 263.696 159.972 263.455 159.195 263.455C158.66 263.455 158.182 263.571 157.761 263.803C157.344 264.035 157.015 264.373 156.774 264.818C156.532 265.263 156.411 265.803 156.411 266.438ZM170.554 273.227C169.645 273.227 168.842 272.998 168.146 272.538C167.45 272.074 166.906 271.421 166.513 270.578C166.12 269.731 165.923 268.729 165.923 267.574C165.923 266.428 166.12 265.434 166.513 264.591C166.906 263.748 167.452 263.097 168.153 262.638C168.854 262.179 169.664 261.949 170.582 261.949C171.292 261.949 171.854 262.067 172.265 262.304C172.682 262.536 172.999 262.801 173.217 263.099C173.44 263.393 173.613 263.634 173.736 263.824H173.878V258.455H175.554V273H173.934V271.324H173.736C173.613 271.523 173.437 271.774 173.21 272.077C172.983 272.375 172.658 272.643 172.237 272.879C171.816 273.111 171.255 273.227 170.554 273.227ZM170.781 271.722C171.453 271.722 172.022 271.546 172.486 271.196C172.95 270.841 173.302 270.351 173.544 269.726C173.785 269.096 173.906 268.369 173.906 267.545C173.906 266.731 173.788 266.018 173.551 265.408C173.314 264.792 172.964 264.314 172.5 263.973C172.036 263.627 171.463 263.455 170.781 263.455C170.071 263.455 169.479 263.637 169.006 264.001C168.537 264.361 168.184 264.851 167.947 265.472C167.715 266.087 167.599 266.778 167.599 267.545C167.599 268.322 167.718 269.027 167.954 269.662C168.196 270.292 168.551 270.794 169.02 271.168C169.493 271.537 170.08 271.722 170.781 271.722ZM178.856 273V262.091H180.532V273H178.856ZM179.709 260.273C179.382 260.273 179.1 260.161 178.863 259.939C178.631 259.716 178.515 259.449 178.515 259.136C178.515 258.824 178.631 258.556 178.863 258.334C179.1 258.111 179.382 258 179.709 258C180.035 258 180.315 258.111 180.547 258.334C180.783 258.556 180.902 258.824 180.902 259.136C180.902 259.449 180.783 259.716 180.547 259.939C180.315 260.161 180.035 260.273 179.709 260.273ZM183.29 273V271.722L189.483 263.767V263.653H183.489V262.091H191.642V263.426L185.619 271.324V271.438H191.841V273H183.29ZM197.633 273.256C196.942 273.256 196.314 273.125 195.751 272.865C195.187 272.6 194.74 272.219 194.409 271.722C194.077 271.22 193.911 270.614 193.911 269.903C193.911 269.278 194.035 268.772 194.281 268.384C194.527 267.991 194.856 267.683 195.268 267.46C195.68 267.238 196.134 267.072 196.632 266.963C197.133 266.849 197.638 266.759 198.144 266.693C198.807 266.608 199.345 266.544 199.757 266.501C200.173 266.454 200.476 266.376 200.666 266.267C200.86 266.158 200.957 265.969 200.957 265.699V265.642C200.957 264.941 200.765 264.397 200.382 264.009C200.003 263.62 199.427 263.426 198.656 263.426C197.856 263.426 197.228 263.601 196.774 263.952C196.319 264.302 195.999 264.676 195.815 265.074L194.224 264.506C194.508 263.843 194.887 263.327 195.36 262.957C195.838 262.583 196.359 262.323 196.923 262.176C197.491 262.025 198.05 261.949 198.599 261.949C198.949 261.949 199.352 261.991 199.806 262.077C200.266 262.157 200.708 262.325 201.134 262.581C201.565 262.837 201.923 263.223 202.207 263.739C202.491 264.255 202.633 264.946 202.633 265.812V273H200.957V271.523H200.872C200.758 271.759 200.569 272.013 200.303 272.283C200.038 272.553 199.686 272.782 199.245 272.972C198.805 273.161 198.267 273.256 197.633 273.256ZM197.889 271.75C198.552 271.75 199.11 271.62 199.565 271.359C200.024 271.099 200.37 270.763 200.602 270.351C200.838 269.939 200.957 269.506 200.957 269.051V267.517C200.886 267.602 200.73 267.68 200.488 267.751C200.251 267.818 199.977 267.877 199.664 267.929C199.356 267.976 199.056 268.019 198.762 268.057C198.473 268.09 198.239 268.118 198.059 268.142C197.624 268.199 197.216 268.291 196.838 268.419C196.463 268.542 196.16 268.729 195.928 268.98C195.701 269.226 195.588 269.562 195.588 269.989C195.588 270.571 195.803 271.011 196.234 271.31C196.669 271.603 197.221 271.75 197.889 271.75ZM210.096 277.318C209.286 277.318 208.59 277.214 208.008 277.006C207.425 276.802 206.94 276.532 206.552 276.196C206.168 275.865 205.863 275.509 205.635 275.131L206.971 274.193C207.122 274.392 207.314 274.619 207.546 274.875C207.778 275.135 208.095 275.36 208.498 275.55C208.905 275.744 209.438 275.841 210.096 275.841C210.976 275.841 211.703 275.628 212.276 275.202C212.849 274.776 213.135 274.108 213.135 273.199V270.983H212.993C212.87 271.182 212.695 271.428 212.468 271.722C212.245 272.01 211.923 272.268 211.502 272.496C211.085 272.718 210.522 272.83 209.812 272.83C208.931 272.83 208.14 272.621 207.439 272.205C206.743 271.788 206.192 271.182 205.785 270.386C205.382 269.591 205.181 268.625 205.181 267.489C205.181 266.371 205.377 265.398 205.77 264.57C206.163 263.736 206.71 263.092 207.411 262.638C208.112 262.179 208.921 261.949 209.84 261.949C210.55 261.949 211.114 262.067 211.53 262.304C211.952 262.536 212.274 262.801 212.496 263.099C212.724 263.393 212.899 263.634 213.022 263.824H213.192V262.091H214.812V273.312C214.812 274.25 214.599 275.012 214.172 275.599C213.751 276.191 213.183 276.625 212.468 276.899C211.758 277.179 210.967 277.318 210.096 277.318ZM210.039 271.324C210.711 271.324 211.279 271.17 211.743 270.862C212.207 270.554 212.56 270.112 212.802 269.534C213.043 268.956 213.164 268.265 213.164 267.46C213.164 266.674 213.046 265.981 212.809 265.379C212.572 264.778 212.222 264.307 211.758 263.966C211.294 263.625 210.721 263.455 210.039 263.455C209.329 263.455 208.737 263.634 208.263 263.994C207.795 264.354 207.442 264.837 207.205 265.443C206.973 266.049 206.857 266.722 206.857 267.46C206.857 268.218 206.975 268.888 207.212 269.47C207.454 270.048 207.809 270.502 208.278 270.834C208.751 271.161 209.338 271.324 210.039 271.324ZM222.454 273.227C221.403 273.227 220.496 272.995 219.733 272.531C218.976 272.062 218.391 271.409 217.979 270.571C217.572 269.728 217.368 268.748 217.368 267.631C217.368 266.513 217.572 265.528 217.979 264.676C218.391 263.819 218.964 263.152 219.698 262.673C220.437 262.19 221.298 261.949 222.283 261.949C222.851 261.949 223.412 262.044 223.966 262.233C224.52 262.422 225.025 262.73 225.479 263.156C225.934 263.578 226.296 264.136 226.566 264.832C226.836 265.528 226.971 266.385 226.971 267.403V268.114H218.562V266.665H225.266C225.266 266.049 225.143 265.5 224.897 265.017C224.655 264.534 224.31 264.153 223.86 263.874C223.415 263.594 222.889 263.455 222.283 263.455C221.616 263.455 221.038 263.62 220.55 263.952C220.067 264.278 219.696 264.705 219.435 265.23C219.175 265.756 219.045 266.319 219.045 266.92V267.886C219.045 268.71 219.187 269.409 219.471 269.982C219.76 270.55 220.16 270.983 220.671 271.281C221.182 271.575 221.777 271.722 222.454 271.722C222.894 271.722 223.292 271.66 223.647 271.537C224.007 271.409 224.317 271.22 224.577 270.969C224.838 270.713 225.039 270.396 225.181 270.017L226.8 270.472C226.63 271.021 226.343 271.504 225.941 271.92C225.538 272.332 225.041 272.654 224.449 272.886C223.858 273.114 223.192 273.227 222.454 273.227ZM229.52 273V262.091H231.14V263.795H231.282C231.509 263.213 231.876 262.761 232.383 262.439C232.889 262.112 233.498 261.949 234.208 261.949C234.928 261.949 235.527 262.112 236.005 262.439C236.488 262.761 236.864 263.213 237.134 263.795H237.248C237.527 263.232 237.946 262.785 238.505 262.453C239.064 262.117 239.733 261.949 240.515 261.949C241.49 261.949 242.288 262.254 242.908 262.865C243.528 263.471 243.839 264.416 243.839 265.699V273H242.162V265.699C242.162 264.894 241.942 264.319 241.502 263.973C241.062 263.627 240.543 263.455 239.947 263.455C239.18 263.455 238.585 263.687 238.164 264.151C237.742 264.61 237.532 265.192 237.532 265.898V273H235.827V265.528C235.827 264.908 235.626 264.409 235.224 264.03C234.821 263.646 234.303 263.455 233.668 263.455C233.233 263.455 232.825 263.571 232.447 263.803C232.073 264.035 231.769 264.357 231.537 264.768C231.31 265.176 231.197 265.647 231.197 266.182V273H229.52Z" fill="#3D3D3D"/>
</svg>