<svg width="299" height="314" viewBox="0 0 299 314" fill="none" xmlns="http://www.w3.org/2000/svg">
<path d="M1.87234 14C1.87234 6.8203 7.69264 1 14.8723 1H284.745C291.924 1 297.745 6.8203 297.745 14V274C297.745 295.539 280.284 313 258.745 313H1.87234V14Z" fill="#F5F5FF" fill-opacity="0.51" stroke="#333399" stroke-width="2"/>
<path fill-rule="evenodd" clip-rule="evenodd" d="M145.2 30.3671C134.16 27.481 125.04 27 111.6 27C109.054 27 106.612 28.0136 104.812 29.8177C103.011 31.6219 102 34.0688 102 36.6203V89.5316C102 94.8228 106.8 99.1519 111.6 99.1519C125.04 99.1519 133.2 100.114 145.2 103V30.8481V30.3671ZM154.8 103C166.8 100.114 174.96 99.1519 188.4 99.1519C190.946 99.1519 193.388 98.1383 195.188 96.3342C196.989 94.53 198 92.0831 198 89.5316V36.6203C198 31.8101 193.68 27 188.4 27C174.96 27 165.84 27.481 154.8 30.3671V103Z" fill="#333399"/>
<path d="M93.0808 155V137.545H104.842V140.588H96.7711V144.747H104.237V147.79H96.7711V151.957H104.876V155H93.0808ZM112.532 155.213C111.537 155.213 110.637 154.957 109.83 154.446C109.029 153.929 108.393 153.17 107.921 152.17C107.455 151.165 107.222 149.932 107.222 148.472C107.222 146.972 107.464 145.724 107.947 144.73C108.43 143.73 109.072 142.983 109.873 142.489C110.68 141.989 111.563 141.739 112.523 141.739C113.256 141.739 113.867 141.864 114.356 142.114C114.85 142.358 115.248 142.665 115.549 143.034C115.856 143.398 116.089 143.756 116.248 144.108H116.358V137.545H119.981V155H116.401V152.903H116.248C116.077 153.267 115.836 153.628 115.523 153.986C115.216 154.338 114.816 154.631 114.322 154.864C113.833 155.097 113.236 155.213 112.532 155.213ZM113.682 152.324C114.268 152.324 114.762 152.165 115.165 151.847C115.574 151.523 115.887 151.071 116.103 150.491C116.324 149.912 116.435 149.233 116.435 148.455C116.435 147.676 116.327 147 116.111 146.426C115.895 145.852 115.583 145.409 115.174 145.097C114.765 144.784 114.268 144.628 113.682 144.628C113.086 144.628 112.583 144.79 112.174 145.114C111.765 145.437 111.455 145.886 111.245 146.46C111.035 147.034 110.93 147.699 110.93 148.455C110.93 149.216 111.035 149.889 111.245 150.474C111.461 151.054 111.77 151.509 112.174 151.838C112.583 152.162 113.086 152.324 113.682 152.324ZM131.361 149.426V141.909H134.991V155H131.506V152.622H131.369C131.074 153.389 130.582 154.006 129.895 154.472C129.213 154.937 128.381 155.17 127.398 155.17C126.523 155.17 125.753 154.972 125.088 154.574C124.423 154.176 123.903 153.611 123.528 152.878C123.159 152.145 122.971 151.267 122.966 150.244V141.909H126.596V149.597C126.602 150.369 126.809 150.98 127.219 151.429C127.628 151.878 128.176 152.102 128.863 152.102C129.301 152.102 129.71 152.003 130.091 151.804C130.471 151.599 130.778 151.298 131.011 150.901C131.25 150.503 131.366 150.011 131.361 149.426ZM143.81 155.256C142.469 155.256 141.316 154.972 140.35 154.403C139.39 153.83 138.651 153.034 138.134 152.017C137.623 151 137.367 149.83 137.367 148.506C137.367 147.165 137.626 145.989 138.143 144.977C138.665 143.96 139.407 143.168 140.367 142.599C141.327 142.026 142.469 141.739 143.793 141.739C144.935 141.739 145.935 141.946 146.793 142.361C147.651 142.776 148.33 143.358 148.83 144.108C149.33 144.858 149.606 145.739 149.657 146.75H146.231C146.134 146.097 145.878 145.571 145.464 145.173C145.055 144.77 144.518 144.568 143.853 144.568C143.29 144.568 142.799 144.722 142.378 145.028C141.964 145.33 141.64 145.77 141.407 146.349C141.174 146.929 141.057 147.631 141.057 148.455C141.057 149.29 141.171 150 141.398 150.585C141.631 151.17 141.958 151.616 142.378 151.923C142.799 152.23 143.29 152.384 143.853 152.384C144.268 152.384 144.64 152.298 144.969 152.128C145.305 151.957 145.58 151.71 145.796 151.386C146.018 151.057 146.162 150.662 146.231 150.202H149.657C149.6 151.202 149.327 152.082 148.839 152.844C148.356 153.599 147.688 154.19 146.836 154.616C145.983 155.043 144.975 155.256 143.81 155.256ZM155.714 155.247C154.879 155.247 154.135 155.102 153.481 154.812C152.828 154.517 152.311 154.082 151.93 153.509C151.555 152.929 151.368 152.207 151.368 151.344C151.368 150.616 151.501 150.006 151.768 149.511C152.035 149.017 152.399 148.619 152.859 148.318C153.319 148.017 153.842 147.79 154.427 147.636C155.018 147.483 155.638 147.375 156.285 147.312C157.047 147.233 157.66 147.159 158.126 147.091C158.592 147.017 158.93 146.909 159.14 146.767C159.351 146.625 159.456 146.415 159.456 146.136V146.085C159.456 145.545 159.285 145.128 158.944 144.832C158.609 144.537 158.132 144.389 157.513 144.389C156.859 144.389 156.339 144.534 155.953 144.824C155.567 145.108 155.311 145.466 155.186 145.898L151.828 145.625C151.998 144.83 152.334 144.142 152.834 143.562C153.334 142.977 153.979 142.528 154.768 142.216C155.564 141.898 156.484 141.739 157.53 141.739C158.257 141.739 158.953 141.824 159.618 141.994C160.288 142.165 160.882 142.429 161.399 142.787C161.922 143.145 162.334 143.605 162.635 144.168C162.936 144.724 163.086 145.392 163.086 146.17V155H159.643V153.185H159.541C159.331 153.594 159.05 153.955 158.697 154.267C158.345 154.574 157.922 154.815 157.427 154.991C156.933 155.162 156.362 155.247 155.714 155.247ZM156.754 152.741C157.288 152.741 157.76 152.636 158.169 152.426C158.578 152.21 158.899 151.92 159.132 151.557C159.365 151.193 159.481 150.781 159.481 150.321V148.932C159.368 149.006 159.211 149.074 159.013 149.136C158.819 149.193 158.601 149.247 158.356 149.298C158.112 149.344 157.868 149.386 157.623 149.426C157.379 149.46 157.158 149.491 156.959 149.52C156.533 149.582 156.16 149.682 155.842 149.818C155.524 149.955 155.277 150.139 155.101 150.372C154.925 150.599 154.836 150.884 154.836 151.224C154.836 151.719 155.015 152.097 155.373 152.358C155.737 152.614 156.197 152.741 156.754 152.741ZM171.818 155.256C170.477 155.256 169.324 154.972 168.358 154.403C167.398 153.83 166.659 153.034 166.142 152.017C165.631 151 165.375 149.83 165.375 148.506C165.375 147.165 165.633 145.989 166.15 144.977C166.673 143.96 167.415 143.168 168.375 142.599C169.335 142.026 170.477 141.739 171.801 141.739C172.943 141.739 173.943 141.946 174.801 142.361C175.659 142.776 176.338 143.358 176.838 144.108C177.338 144.858 177.613 145.739 177.665 146.75H174.238C174.142 146.097 173.886 145.571 173.471 145.173C173.062 144.77 172.525 144.568 171.861 144.568C171.298 144.568 170.807 144.722 170.386 145.028C169.971 145.33 169.648 145.77 169.415 146.349C169.182 146.929 169.065 147.631 169.065 148.455C169.065 149.29 169.179 150 169.406 150.585C169.639 151.17 169.966 151.616 170.386 151.923C170.807 152.23 171.298 152.384 171.861 152.384C172.275 152.384 172.648 152.298 172.977 152.128C173.312 151.957 173.588 151.71 173.804 151.386C174.025 151.057 174.17 150.662 174.238 150.202H177.665C177.608 151.202 177.335 152.082 176.846 152.844C176.363 153.599 175.696 154.19 174.844 154.616C173.991 155.043 172.983 155.256 171.818 155.256ZM170.966 154.932H172.636L172.5 155.673C173.085 155.764 173.562 155.983 173.932 156.33C174.307 156.676 174.497 157.148 174.503 157.744C174.508 158.591 174.116 159.264 173.327 159.764C172.537 160.27 171.429 160.523 170.003 160.523L169.969 158.903C170.684 158.903 171.244 158.815 171.648 158.639C172.057 158.469 172.27 158.202 172.287 157.838C172.298 157.491 172.165 157.227 171.886 157.045C171.608 156.864 171.173 156.736 170.582 156.662L170.966 154.932ZM183.722 155.247C182.887 155.247 182.143 155.102 181.489 154.812C180.836 154.517 180.319 154.082 179.938 153.509C179.563 152.929 179.376 152.207 179.376 151.344C179.376 150.616 179.509 150.006 179.776 149.511C180.043 149.017 180.407 148.619 180.867 148.318C181.327 148.017 181.85 147.79 182.435 147.636C183.026 147.483 183.645 147.375 184.293 147.312C185.055 147.233 185.668 147.159 186.134 147.091C186.6 147.017 186.938 146.909 187.148 146.767C187.358 146.625 187.464 146.415 187.464 146.136V146.085C187.464 145.545 187.293 145.128 186.952 144.832C186.617 144.537 186.14 144.389 185.52 144.389C184.867 144.389 184.347 144.534 183.961 144.824C183.574 145.108 183.319 145.466 183.194 145.898L179.836 145.625C180.006 144.83 180.341 144.142 180.841 143.562C181.341 142.977 181.986 142.528 182.776 142.216C183.572 141.898 184.492 141.739 185.537 141.739C186.265 141.739 186.961 141.824 187.626 141.994C188.296 142.165 188.89 142.429 189.407 142.787C189.93 143.145 190.341 143.605 190.643 144.168C190.944 144.724 191.094 145.392 191.094 146.17V155H187.651V153.185H187.549C187.339 153.594 187.057 153.955 186.705 154.267C186.353 154.574 185.93 154.815 185.435 154.991C184.941 155.162 184.37 155.247 183.722 155.247ZM184.762 152.741C185.296 152.741 185.768 152.636 186.177 152.426C186.586 152.21 186.907 151.92 187.14 151.557C187.373 151.193 187.489 150.781 187.489 150.321V148.932C187.376 149.006 187.219 149.074 187.02 149.136C186.827 149.193 186.608 149.247 186.364 149.298C186.12 149.344 185.876 149.386 185.631 149.426C185.387 149.46 185.165 149.491 184.966 149.52C184.54 149.582 184.168 149.682 183.85 149.818C183.532 149.955 183.285 150.139 183.108 150.372C182.932 150.599 182.844 150.884 182.844 151.224C182.844 151.719 183.023 152.097 183.381 152.358C183.745 152.614 184.205 152.741 184.762 152.741ZM183.236 140.298L181.216 140.273C181.216 139.188 181.483 138.355 182.018 137.776C182.557 137.196 183.214 136.903 183.986 136.898C184.384 136.898 184.725 136.963 185.009 137.094C185.299 137.219 185.557 137.366 185.785 137.537C186.018 137.707 186.239 137.858 186.449 137.989C186.66 138.114 186.887 138.176 187.131 138.176C187.461 138.17 187.711 138.048 187.881 137.81C188.057 137.565 188.145 137.247 188.145 136.855L190.131 136.915C190.12 137.989 189.847 138.818 189.313 139.403C188.779 139.983 188.128 140.276 187.361 140.281C186.935 140.281 186.577 140.219 186.287 140.094C186.003 139.963 185.753 139.815 185.537 139.651C185.322 139.48 185.111 139.33 184.907 139.199C184.702 139.068 184.472 139.003 184.216 139.003C183.921 139.003 183.682 139.119 183.501 139.352C183.324 139.585 183.236 139.901 183.236 140.298ZM199.826 155.256C198.502 155.256 197.357 154.974 196.391 154.412C195.431 153.844 194.689 153.054 194.167 152.043C193.644 151.026 193.383 149.847 193.383 148.506C193.383 147.153 193.644 145.972 194.167 144.96C194.689 143.943 195.431 143.153 196.391 142.591C197.357 142.023 198.502 141.739 199.826 141.739C201.15 141.739 202.292 142.023 203.252 142.591C204.218 143.153 204.962 143.943 205.485 144.96C206.008 145.972 206.269 147.153 206.269 148.506C206.269 149.847 206.008 151.026 205.485 152.043C204.962 153.054 204.218 153.844 203.252 154.412C202.292 154.974 201.15 155.256 199.826 155.256ZM199.843 152.443C200.445 152.443 200.948 152.273 201.351 151.932C201.755 151.585 202.059 151.114 202.263 150.517C202.474 149.92 202.579 149.241 202.579 148.48C202.579 147.719 202.474 147.04 202.263 146.443C202.059 145.847 201.755 145.375 201.351 145.028C200.948 144.682 200.445 144.509 199.843 144.509C199.235 144.509 198.724 144.682 198.309 145.028C197.9 145.375 197.59 145.847 197.38 146.443C197.175 147.04 197.073 147.719 197.073 148.48C197.073 149.241 197.175 149.92 197.38 150.517C197.59 151.114 197.9 151.585 198.309 151.932C198.724 152.273 199.235 152.443 199.843 152.443ZM98.1188 166.545V184H94.4285V166.545H98.1188ZM104.718 176.432V184H101.087V170.909H104.547V173.219H104.7C104.99 172.457 105.476 171.855 106.158 171.412C106.84 170.963 107.666 170.739 108.638 170.739C109.547 170.739 110.34 170.938 111.016 171.335C111.692 171.733 112.218 172.301 112.593 173.04C112.968 173.773 113.155 174.648 113.155 175.665V184H109.524V176.312C109.53 175.511 109.325 174.886 108.911 174.438C108.496 173.983 107.925 173.756 107.198 173.756C106.709 173.756 106.277 173.861 105.902 174.071C105.533 174.281 105.243 174.588 105.033 174.991C104.828 175.389 104.723 175.869 104.718 176.432ZM122.98 170.909V173.636H115.096V170.909H122.98ZM116.886 167.773H120.517V179.977C120.517 180.312 120.568 180.574 120.67 180.761C120.772 180.943 120.914 181.071 121.096 181.145C121.284 181.219 121.499 181.256 121.744 181.256C121.914 181.256 122.085 181.241 122.255 181.213C122.426 181.179 122.556 181.153 122.647 181.136L123.218 183.838C123.036 183.895 122.781 183.96 122.451 184.034C122.122 184.114 121.721 184.162 121.249 184.179C120.374 184.213 119.607 184.097 118.948 183.83C118.295 183.562 117.786 183.148 117.423 182.585C117.059 182.023 116.88 181.312 116.886 180.455V167.773ZM131.17 184.256C129.823 184.256 128.664 183.983 127.693 183.438C126.727 182.886 125.982 182.108 125.46 181.102C124.937 180.091 124.676 178.895 124.676 177.514C124.676 176.168 124.937 174.986 125.46 173.969C125.982 172.952 126.718 172.159 127.667 171.591C128.622 171.023 129.741 170.739 131.025 170.739C131.889 170.739 132.693 170.878 133.437 171.156C134.187 171.429 134.84 171.841 135.397 172.392C135.96 172.943 136.397 173.636 136.71 174.472C137.022 175.301 137.178 176.273 137.178 177.386V178.384H126.124V176.134H133.761C133.761 175.611 133.647 175.148 133.42 174.744C133.193 174.341 132.877 174.026 132.474 173.798C132.076 173.565 131.613 173.449 131.085 173.449C130.534 173.449 130.045 173.577 129.619 173.832C129.198 174.082 128.869 174.42 128.63 174.847C128.392 175.267 128.269 175.736 128.264 176.253V178.392C128.264 179.04 128.383 179.599 128.622 180.071C128.866 180.543 129.21 180.906 129.653 181.162C130.096 181.418 130.622 181.545 131.23 181.545C131.633 181.545 132.002 181.489 132.338 181.375C132.673 181.261 132.96 181.091 133.198 180.864C133.437 180.636 133.619 180.358 133.744 180.028L137.102 180.25C136.931 181.057 136.582 181.761 136.053 182.364C135.531 182.96 134.855 183.426 134.025 183.761C133.201 184.091 132.249 184.256 131.17 184.256ZM145.445 189.182C144.269 189.182 143.261 189.02 142.42 188.696C141.585 188.378 140.92 187.943 140.426 187.392C139.931 186.841 139.61 186.222 139.463 185.534L142.82 185.082C142.923 185.344 143.085 185.588 143.306 185.815C143.528 186.043 143.82 186.224 144.184 186.361C144.553 186.503 145.002 186.574 145.531 186.574C146.32 186.574 146.971 186.381 147.482 185.994C147.999 185.614 148.258 184.974 148.258 184.077V181.682H148.105C147.945 182.045 147.707 182.389 147.389 182.713C147.07 183.037 146.661 183.301 146.161 183.506C145.661 183.71 145.065 183.812 144.372 183.812C143.389 183.812 142.494 183.585 141.687 183.131C140.886 182.67 140.247 181.969 139.769 181.026C139.298 180.077 139.062 178.878 139.062 177.429C139.062 175.946 139.303 174.707 139.786 173.713C140.269 172.719 140.911 171.974 141.713 171.48C142.519 170.986 143.403 170.739 144.363 170.739C145.096 170.739 145.71 170.864 146.204 171.114C146.698 171.358 147.096 171.665 147.397 172.034C147.704 172.398 147.94 172.756 148.105 173.108H148.241V170.909H151.846V184.128C151.846 185.241 151.573 186.173 151.028 186.923C150.482 187.673 149.727 188.236 148.761 188.611C147.801 188.991 146.695 189.182 145.445 189.182ZM145.522 181.085C146.107 181.085 146.602 180.94 147.005 180.651C147.414 180.355 147.727 179.935 147.943 179.389C148.164 178.838 148.275 178.179 148.275 177.412C148.275 176.645 148.167 175.98 147.951 175.418C147.735 174.849 147.423 174.409 147.014 174.097C146.605 173.784 146.107 173.628 145.522 173.628C144.926 173.628 144.423 173.79 144.014 174.114C143.605 174.432 143.295 174.875 143.085 175.443C142.874 176.011 142.769 176.668 142.769 177.412C142.769 178.168 142.874 178.821 143.085 179.372C143.301 179.918 143.61 180.341 144.014 180.642C144.423 180.937 144.926 181.085 145.522 181.085ZM154.735 184V170.909H158.255V173.193H158.392C158.63 172.381 159.031 171.767 159.593 171.352C160.156 170.932 160.803 170.722 161.536 170.722C161.718 170.722 161.914 170.733 162.124 170.756C162.335 170.778 162.519 170.81 162.678 170.849V174.071C162.508 174.02 162.272 173.974 161.971 173.935C161.67 173.895 161.394 173.875 161.144 173.875C160.61 173.875 160.133 173.991 159.713 174.224C159.298 174.452 158.968 174.77 158.724 175.179C158.485 175.588 158.366 176.06 158.366 176.594V184H154.735ZM167.914 184.247C167.078 184.247 166.334 184.102 165.681 183.812C165.027 183.517 164.51 183.082 164.129 182.509C163.754 181.929 163.567 181.207 163.567 180.344C163.567 179.616 163.7 179.006 163.968 178.511C164.235 178.017 164.598 177.619 165.058 177.318C165.519 177.017 166.041 176.79 166.627 176.636C167.218 176.483 167.837 176.375 168.485 176.312C169.246 176.233 169.86 176.159 170.325 176.091C170.791 176.017 171.129 175.909 171.34 175.767C171.55 175.625 171.655 175.415 171.655 175.136V175.085C171.655 174.545 171.485 174.128 171.144 173.832C170.808 173.537 170.331 173.389 169.712 173.389C169.058 173.389 168.539 173.534 168.152 173.824C167.766 174.108 167.51 174.466 167.385 174.898L164.027 174.625C164.198 173.83 164.533 173.142 165.033 172.562C165.533 171.977 166.178 171.528 166.968 171.216C167.763 170.898 168.683 170.739 169.729 170.739C170.456 170.739 171.152 170.824 171.817 170.994C172.487 171.165 173.081 171.429 173.598 171.787C174.121 172.145 174.533 172.605 174.834 173.168C175.135 173.724 175.286 174.392 175.286 175.17V184H171.843V182.185H171.74C171.53 182.594 171.249 182.955 170.896 183.267C170.544 183.574 170.121 183.815 169.627 183.991C169.132 184.162 168.561 184.247 167.914 184.247ZM168.953 181.741C169.487 181.741 169.959 181.636 170.368 181.426C170.777 181.21 171.098 180.92 171.331 180.557C171.564 180.193 171.681 179.781 171.681 179.321V177.932C171.567 178.006 171.411 178.074 171.212 178.136C171.019 178.193 170.8 178.247 170.556 178.298C170.311 178.344 170.067 178.386 169.823 178.426C169.578 178.46 169.357 178.491 169.158 178.52C168.732 178.582 168.36 178.682 168.041 178.818C167.723 178.955 167.476 179.139 167.3 179.372C167.124 179.599 167.036 179.884 167.036 180.224C167.036 180.719 167.215 181.097 167.573 181.358C167.936 181.614 168.396 181.741 168.953 181.741ZM182.926 184.213C181.932 184.213 181.031 183.957 180.225 183.446C179.423 182.929 178.787 182.17 178.316 181.17C177.85 180.165 177.617 178.932 177.617 177.472C177.617 175.972 177.858 174.724 178.341 173.73C178.824 172.73 179.466 171.983 180.267 171.489C181.074 170.989 181.958 170.739 182.918 170.739C183.651 170.739 184.262 170.864 184.75 171.114C185.245 171.358 185.642 171.665 185.943 172.034C186.25 172.398 186.483 172.756 186.642 173.108H186.753V166.545H190.375V184H186.796V181.903H186.642C186.472 182.267 186.23 182.628 185.918 182.986C185.611 183.338 185.21 183.631 184.716 183.864C184.227 184.097 183.631 184.213 182.926 184.213ZM184.077 181.324C184.662 181.324 185.156 181.165 185.56 180.847C185.969 180.523 186.281 180.071 186.497 179.491C186.719 178.912 186.83 178.233 186.83 177.455C186.83 176.676 186.722 176 186.506 175.426C186.29 174.852 185.977 174.409 185.568 174.097C185.159 173.784 184.662 173.628 184.077 173.628C183.48 173.628 182.977 173.79 182.568 174.114C182.159 174.437 181.85 174.886 181.639 175.46C181.429 176.034 181.324 176.699 181.324 177.455C181.324 178.216 181.429 178.889 181.639 179.474C181.855 180.054 182.165 180.509 182.568 180.838C182.977 181.162 183.48 181.324 184.077 181.324ZM197.093 184.247C196.258 184.247 195.514 184.102 194.86 183.812C194.207 183.517 193.69 183.082 193.309 182.509C192.934 181.929 192.747 181.207 192.747 180.344C192.747 179.616 192.88 179.006 193.147 178.511C193.414 178.017 193.778 177.619 194.238 177.318C194.698 177.017 195.221 176.79 195.806 176.636C196.397 176.483 197.017 176.375 197.664 176.312C198.426 176.233 199.039 176.159 199.505 176.091C199.971 176.017 200.309 175.909 200.519 175.767C200.73 175.625 200.835 175.415 200.835 175.136V175.085C200.835 174.545 200.664 174.128 200.323 173.832C199.988 173.537 199.511 173.389 198.892 173.389C198.238 173.389 197.718 173.534 197.332 173.824C196.945 174.108 196.69 174.466 196.565 174.898L193.207 174.625C193.377 173.83 193.713 173.142 194.213 172.562C194.713 171.977 195.357 171.528 196.147 171.216C196.943 170.898 197.863 170.739 198.909 170.739C199.636 170.739 200.332 170.824 200.997 170.994C201.667 171.165 202.261 171.429 202.778 171.787C203.301 172.145 203.713 172.605 204.014 173.168C204.315 173.724 204.465 174.392 204.465 175.17V184H201.022V182.185H200.92C200.71 182.594 200.428 182.955 200.076 183.267C199.724 183.574 199.301 183.815 198.806 183.991C198.312 184.162 197.741 184.247 197.093 184.247ZM198.133 181.741C198.667 181.741 199.139 181.636 199.548 181.426C199.957 181.21 200.278 180.92 200.511 180.557C200.744 180.193 200.86 179.781 200.86 179.321V177.932C200.747 178.006 200.59 178.074 200.392 178.136C200.198 178.193 199.98 178.247 199.735 178.298C199.491 178.344 199.247 178.386 199.002 178.426C198.758 178.46 198.536 178.491 198.338 178.52C197.911 178.582 197.539 178.682 197.221 178.818C196.903 178.955 196.656 179.139 196.48 179.372C196.303 179.599 196.215 179.884 196.215 180.224C196.215 180.719 196.394 181.097 196.752 181.358C197.116 181.614 197.576 181.741 198.133 181.741Z" fill="#333399"/>
<path d="M33.3402 215H31.5788C31.4747 214.493 31.2924 214.048 31.032 213.665C30.7763 213.281 30.4638 212.959 30.0945 212.699C29.7299 212.434 29.3251 212.235 28.88 212.102C28.4349 211.97 27.9709 211.903 27.4879 211.903C26.6073 211.903 25.8094 212.126 25.0945 212.571C24.3842 213.016 23.8184 213.672 23.397 214.538C22.9804 215.405 22.772 216.468 22.772 217.727C22.772 218.987 22.9804 220.05 23.397 220.916C23.8184 221.783 24.3842 222.438 25.0945 222.884C25.8094 223.329 26.6073 223.551 27.4879 223.551C27.9709 223.551 28.4349 223.485 28.88 223.352C29.3251 223.22 29.7299 223.023 30.0945 222.763C30.4638 222.498 30.7763 222.173 31.032 221.79C31.2924 221.402 31.4747 220.956 31.5788 220.455H33.3402C33.2076 221.198 32.9662 221.863 32.6158 222.45C32.2654 223.037 31.8298 223.537 31.309 223.949C30.7881 224.356 30.2034 224.666 29.5547 224.879C28.9108 225.092 28.2218 225.199 27.4879 225.199C26.2474 225.199 25.1442 224.896 24.1783 224.29C23.2124 223.684 22.4524 222.822 21.8984 221.705C21.3445 220.587 21.0675 219.261 21.0675 217.727C21.0675 216.193 21.3445 214.867 21.8984 213.75C22.4524 212.633 23.2124 211.771 24.1783 211.165C25.1442 210.559 26.2474 210.256 27.4879 210.256C28.2218 210.256 28.9108 210.362 29.5547 210.575C30.2034 210.788 30.7881 211.101 31.309 211.513C31.8298 211.92 32.2654 212.417 32.6158 213.004C32.9662 213.587 33.2076 214.252 33.3402 215ZM42.8342 220.54V214.091H44.5103V225H42.8342V223.153H42.7205C42.4649 223.707 42.0671 224.179 41.5274 224.567C40.9876 224.95 40.3058 225.142 39.4819 225.142C38.8001 225.142 38.194 224.993 37.6637 224.695C37.1334 224.392 36.7167 223.937 36.4137 223.331C36.1107 222.72 35.9592 221.951 35.9592 221.023V214.091H37.6353V220.909C37.6353 221.705 37.8578 222.339 38.3029 222.812C38.7527 223.286 39.3256 223.523 40.0217 223.523C40.4383 223.523 40.8621 223.416 41.293 223.203C41.7286 222.99 42.0932 222.663 42.3867 222.223C42.685 221.783 42.8342 221.222 42.8342 220.54ZM47.5803 225V214.091H49.1996V215.739H49.3132C49.5121 215.199 49.8719 214.761 50.3928 214.425C50.9136 214.089 51.5007 213.92 52.1541 213.92C52.2772 213.92 52.4311 213.923 52.6158 213.928C52.8004 213.932 52.9401 213.939 53.0348 213.949V215.653C52.978 215.639 52.8478 215.618 52.6442 215.589C52.4453 215.556 52.2346 215.54 52.0121 215.54C51.4818 215.54 51.0083 215.651 50.5916 215.874C50.1797 216.091 49.853 216.394 49.6115 216.783C49.3748 217.166 49.2564 217.604 49.2564 218.097V225H47.5803ZM62.7489 216.534L61.2433 216.96C61.1486 216.709 61.0089 216.465 60.8242 216.229C60.6443 215.987 60.3981 215.788 60.0856 215.632C59.7731 215.476 59.373 215.398 58.8853 215.398C58.2177 215.398 57.6613 215.552 57.2163 215.859C56.7759 216.162 56.5558 216.548 56.5558 217.017C56.5558 217.434 56.7073 217.763 57.0103 218.004C57.3133 218.246 57.7868 218.447 58.4308 218.608L60.0501 219.006C61.0255 219.242 61.7523 219.605 62.2305 220.092C62.7087 220.575 62.9478 221.198 62.9478 221.96C62.9478 222.585 62.7679 223.144 62.408 223.636C62.0529 224.129 61.5558 224.517 60.9166 224.801C60.2774 225.085 59.534 225.227 58.6864 225.227C57.5738 225.227 56.6528 224.986 55.9237 224.503C55.1945 224.02 54.7328 223.314 54.5387 222.386L56.1296 221.989C56.2811 222.576 56.5676 223.016 56.989 223.31C57.4151 223.603 57.9715 223.75 58.658 223.75C59.4393 223.75 60.0595 223.584 60.5188 223.253C60.9828 222.917 61.2149 222.514 61.2149 222.045C61.2149 221.667 61.0823 221.349 60.8171 221.094C60.552 220.833 60.1448 220.639 59.5955 220.511L57.7774 220.085C56.7783 219.848 56.0444 219.482 55.5756 218.984C55.1116 218.482 54.8796 217.855 54.8796 217.102C54.8796 216.487 55.0524 215.942 55.3981 215.469C55.7485 214.995 56.2243 214.624 56.8256 214.354C57.4317 214.084 58.1183 213.949 58.8853 213.949C59.9649 213.949 60.8124 214.186 61.4279 214.659C62.0482 215.133 62.4885 215.758 62.7489 216.534ZM69.9027 225.227C68.9179 225.227 68.0537 224.993 67.3104 224.524C66.5717 224.055 65.9941 223.4 65.5774 222.557C65.1655 221.714 64.9595 220.729 64.9595 219.602C64.9595 218.466 65.1655 217.474 65.5774 216.626C65.9941 215.779 66.5717 215.121 67.3104 214.652C68.0537 214.183 68.9179 213.949 69.9027 213.949C70.8876 213.949 71.7493 214.183 72.4879 214.652C73.2313 215.121 73.809 215.779 74.2209 216.626C74.6376 217.474 74.8459 218.466 74.8459 219.602C74.8459 220.729 74.6376 221.714 74.2209 222.557C73.809 223.4 73.2313 224.055 72.4879 224.524C71.7493 224.993 70.8876 225.227 69.9027 225.227ZM69.9027 223.722C70.6508 223.722 71.2663 223.53 71.7493 223.146C72.2323 222.763 72.5897 222.259 72.8217 221.634C73.0537 221.009 73.1698 220.331 73.1698 219.602C73.1698 218.873 73.0537 218.194 72.8217 217.564C72.5897 216.934 72.2323 216.425 71.7493 216.037C71.2663 215.649 70.6508 215.455 69.9027 215.455C69.1546 215.455 68.5391 215.649 68.0561 216.037C67.5732 216.425 67.2157 216.934 66.9837 217.564C66.7517 218.194 66.6357 218.873 66.6357 219.602C66.6357 220.331 66.7517 221.009 66.9837 221.634C67.2157 222.259 67.5732 222.763 68.0561 223.146C68.5391 223.53 69.1546 223.722 69.9027 223.722ZM85.1318 216.534L83.6261 216.96C83.5314 216.709 83.3917 216.465 83.207 216.229C83.0271 215.987 82.7809 215.788 82.4684 215.632C82.1559 215.476 81.7558 215.398 81.2681 215.398C80.6005 215.398 80.0442 215.552 79.5991 215.859C79.1587 216.162 78.9386 216.548 78.9386 217.017C78.9386 217.434 79.0901 217.763 79.3931 218.004C79.6961 218.246 80.1696 218.447 80.8136 218.608L82.4329 219.006C83.4083 219.242 84.1351 219.605 84.6133 220.092C85.0915 220.575 85.3306 221.198 85.3306 221.96C85.3306 222.585 85.1507 223.144 84.7908 223.636C84.4357 224.129 83.9386 224.517 83.2994 224.801C82.6602 225.085 81.9168 225.227 81.0693 225.227C79.9566 225.227 79.0356 224.986 78.3065 224.503C77.5773 224.02 77.1157 223.314 76.9215 222.386L78.5124 221.989C78.664 222.576 78.9504 223.016 79.3718 223.31C79.7979 223.603 80.3543 223.75 81.0408 223.75C81.8221 223.75 82.4424 223.584 82.9016 223.253C83.3657 222.917 83.5977 222.514 83.5977 222.045C83.5977 221.667 83.4651 221.349 83.1999 221.094C82.9348 220.833 82.5276 220.639 81.9783 220.511L80.1602 220.085C79.1611 219.848 78.4272 219.482 77.9585 218.984C77.4944 218.482 77.2624 217.855 77.2624 217.102C77.2624 216.487 77.4353 215.942 77.7809 215.469C78.1313 214.995 78.6071 214.624 79.2085 214.354C79.8145 214.084 80.5011 213.949 81.2681 213.949C82.3477 213.949 83.1952 214.186 83.8107 214.659C84.431 215.133 84.8713 215.758 85.1318 216.534ZM98.0526 225.227C97.0014 225.227 96.0947 224.995 95.3324 224.531C94.5748 224.062 93.9901 223.409 93.5781 222.571C93.1709 221.728 92.9673 220.748 92.9673 219.631C92.9673 218.513 93.1709 217.528 93.5781 216.676C93.9901 215.819 94.563 215.152 95.2969 214.673C96.0355 214.19 96.8973 213.949 97.8821 213.949C98.4503 213.949 99.0114 214.044 99.5653 214.233C100.119 214.422 100.624 214.73 101.078 215.156C101.533 215.578 101.895 216.136 102.165 216.832C102.435 217.528 102.57 218.385 102.57 219.403V220.114H94.1605V218.665H100.865C100.865 218.049 100.742 217.5 100.496 217.017C100.254 216.534 99.9086 216.153 99.4588 215.874C99.0137 215.594 98.4882 215.455 97.8821 215.455C97.2145 215.455 96.6368 215.62 96.1492 215.952C95.6662 216.278 95.2945 216.705 95.0341 217.23C94.7737 217.756 94.6435 218.319 94.6435 218.92V219.886C94.6435 220.71 94.7855 221.409 95.0696 221.982C95.3584 222.55 95.7585 222.983 96.2699 223.281C96.7813 223.575 97.3755 223.722 98.0526 223.722C98.4929 223.722 98.8906 223.66 99.2457 223.537C99.6056 223.409 99.9157 223.22 100.176 222.969C100.437 222.713 100.638 222.396 100.78 222.017L102.399 222.472C102.229 223.021 101.942 223.504 101.54 223.92C101.137 224.332 100.64 224.654 100.048 224.886C99.4564 225.114 98.7912 225.227 98.0526 225.227ZM115.176 225.227C114.153 225.227 113.273 224.986 112.534 224.503C111.795 224.02 111.227 223.355 110.83 222.507C110.432 221.66 110.233 220.691 110.233 219.602C110.233 218.494 110.437 217.517 110.844 216.669C111.256 215.817 111.829 215.152 112.563 214.673C113.301 214.19 114.163 213.949 115.148 213.949C115.915 213.949 116.606 214.091 117.222 214.375C117.837 214.659 118.341 215.057 118.734 215.568C119.127 216.08 119.371 216.676 119.466 217.358H117.79C117.662 216.861 117.378 216.42 116.938 216.037C116.502 215.649 115.915 215.455 115.176 215.455C114.523 215.455 113.95 215.625 113.457 215.966C112.97 216.302 112.589 216.778 112.314 217.393C112.044 218.004 111.909 218.722 111.909 219.545C111.909 220.388 112.042 221.122 112.307 221.747C112.577 222.372 112.956 222.857 113.443 223.203C113.936 223.549 114.513 223.722 115.176 223.722C115.612 223.722 116.007 223.646 116.362 223.494C116.717 223.343 117.018 223.125 117.264 222.841C117.51 222.557 117.686 222.216 117.79 221.818H119.466C119.371 222.462 119.137 223.042 118.763 223.558C118.393 224.07 117.903 224.477 117.293 224.78C116.687 225.078 115.981 225.227 115.176 225.227ZM125.126 225.256C124.435 225.256 123.808 225.125 123.244 224.865C122.681 224.6 122.233 224.219 121.902 223.722C121.571 223.22 121.405 222.614 121.405 221.903C121.405 221.278 121.528 220.772 121.774 220.384C122.02 219.991 122.349 219.683 122.761 219.46C123.173 219.238 123.628 219.072 124.125 218.963C124.627 218.849 125.131 218.759 125.638 218.693C126.301 218.608 126.838 218.544 127.25 218.501C127.667 218.454 127.97 218.376 128.159 218.267C128.353 218.158 128.45 217.969 128.45 217.699V217.642C128.45 216.941 128.259 216.397 127.875 216.009C127.496 215.62 126.921 215.426 126.149 215.426C125.349 215.426 124.722 215.601 124.267 215.952C123.813 216.302 123.493 216.676 123.308 217.074L121.717 216.506C122.001 215.843 122.38 215.327 122.854 214.957C123.332 214.583 123.853 214.323 124.416 214.176C124.984 214.025 125.543 213.949 126.092 213.949C126.443 213.949 126.845 213.991 127.3 214.077C127.759 214.157 128.202 214.325 128.628 214.581C129.059 214.837 129.416 215.223 129.7 215.739C129.984 216.255 130.126 216.946 130.126 217.812V225H128.45V223.523H128.365C128.251 223.759 128.062 224.013 127.797 224.283C127.532 224.553 127.179 224.782 126.739 224.972C126.298 225.161 125.761 225.256 125.126 225.256ZM125.382 223.75C126.045 223.75 126.604 223.62 127.058 223.359C127.518 223.099 127.863 222.763 128.095 222.351C128.332 221.939 128.45 221.506 128.45 221.051V219.517C128.379 219.602 128.223 219.68 127.982 219.751C127.745 219.818 127.47 219.877 127.158 219.929C126.85 219.976 126.549 220.019 126.256 220.057C125.967 220.09 125.732 220.118 125.553 220.142C125.117 220.199 124.71 220.291 124.331 220.419C123.957 220.542 123.654 220.729 123.422 220.98C123.195 221.226 123.081 221.562 123.081 221.989C123.081 222.571 123.296 223.011 123.727 223.31C124.163 223.603 124.714 223.75 125.382 223.75ZM133.186 229.091V214.091H134.805V215.824H135.004C135.127 215.634 135.297 215.393 135.515 215.099C135.738 214.801 136.055 214.536 136.467 214.304C136.884 214.067 137.447 213.949 138.157 213.949C139.076 213.949 139.886 214.179 140.586 214.638C141.287 215.097 141.834 215.748 142.227 216.591C142.62 217.434 142.816 218.428 142.816 219.574C142.816 220.729 142.62 221.731 142.227 222.578C141.834 223.421 141.289 224.074 140.593 224.538C139.897 224.998 139.095 225.227 138.186 225.227C137.485 225.227 136.924 225.111 136.502 224.879C136.081 224.643 135.757 224.375 135.529 224.077C135.302 223.774 135.127 223.523 135.004 223.324H134.862V229.091H133.186ZM134.833 219.545C134.833 220.369 134.954 221.096 135.196 221.726C135.437 222.351 135.79 222.841 136.254 223.196C136.718 223.546 137.286 223.722 137.958 223.722C138.659 223.722 139.244 223.537 139.713 223.168C140.186 222.794 140.541 222.292 140.778 221.662C141.02 221.027 141.14 220.322 141.14 219.545C141.14 218.778 141.022 218.087 140.785 217.472C140.553 216.851 140.2 216.361 139.727 216.001C139.258 215.637 138.669 215.455 137.958 215.455C137.277 215.455 136.704 215.627 136.24 215.973C135.776 216.314 135.425 216.792 135.189 217.408C134.952 218.018 134.833 218.731 134.833 219.545ZM148.583 225.256C147.892 225.256 147.265 225.125 146.701 224.865C146.138 224.6 145.69 224.219 145.359 223.722C145.028 223.22 144.862 222.614 144.862 221.903C144.862 221.278 144.985 220.772 145.231 220.384C145.477 219.991 145.806 219.683 146.218 219.46C146.63 219.238 147.085 219.072 147.582 218.963C148.084 218.849 148.588 218.759 149.095 218.693C149.758 218.608 150.295 218.544 150.707 218.501C151.124 218.454 151.427 218.376 151.616 218.267C151.81 218.158 151.907 217.969 151.907 217.699V217.642C151.907 216.941 151.716 216.397 151.332 216.009C150.953 215.62 150.378 215.426 149.606 215.426C148.806 215.426 148.179 215.601 147.724 215.952C147.27 216.302 146.95 216.676 146.765 217.074L145.174 216.506C145.458 215.843 145.837 215.327 146.311 214.957C146.789 214.583 147.31 214.323 147.873 214.176C148.441 214.025 149 213.949 149.549 213.949C149.9 213.949 150.302 213.991 150.757 214.077C151.216 214.157 151.659 214.325 152.085 214.581C152.516 214.837 152.873 215.223 153.157 215.739C153.441 216.255 153.583 216.946 153.583 217.812V225H151.907V223.523H151.822C151.708 223.759 151.519 224.013 151.254 224.283C150.989 224.553 150.636 224.782 150.196 224.972C149.755 225.161 149.218 225.256 148.583 225.256ZM148.839 223.75C149.502 223.75 150.061 223.62 150.515 223.359C150.975 223.099 151.32 222.763 151.552 222.351C151.789 221.939 151.907 221.506 151.907 221.051V219.517C151.836 219.602 151.68 219.68 151.439 219.751C151.202 219.818 150.927 219.877 150.615 219.929C150.307 219.976 150.006 220.019 149.713 220.057C149.424 220.09 149.19 220.118 149.01 220.142C148.574 220.199 148.167 220.291 147.788 220.419C147.414 220.542 147.111 220.729 146.879 220.98C146.652 221.226 146.538 221.562 146.538 221.989C146.538 222.571 146.753 223.011 147.184 223.31C147.62 223.603 148.172 223.75 148.839 223.75ZM161.075 225.227C160.052 225.227 159.171 224.986 158.433 224.503C157.694 224.02 157.126 223.355 156.728 222.507C156.33 221.66 156.131 220.691 156.131 219.602C156.131 218.494 156.335 217.517 156.742 216.669C157.154 215.817 157.727 215.152 158.461 214.673C159.2 214.19 160.061 213.949 161.046 213.949C161.813 213.949 162.505 214.091 163.12 214.375C163.736 214.659 164.24 215.057 164.633 215.568C165.026 216.08 165.27 216.676 165.364 217.358H163.688C163.56 216.861 163.276 216.42 162.836 216.037C162.4 215.649 161.813 215.455 161.075 215.455C160.421 215.455 159.848 215.625 159.356 215.966C158.868 216.302 158.487 216.778 158.212 217.393C157.942 218.004 157.808 218.722 157.808 219.545C157.808 220.388 157.94 221.122 158.205 221.747C158.475 222.372 158.854 222.857 159.342 223.203C159.834 223.549 160.412 223.722 161.075 223.722C161.51 223.722 161.906 223.646 162.261 223.494C162.616 223.343 162.916 223.125 163.163 222.841C163.409 222.557 163.584 222.216 163.688 221.818H165.364C165.27 222.462 165.035 223.042 164.661 223.558C164.292 224.07 163.802 224.477 163.191 224.78C162.585 225.078 161.88 225.227 161.075 225.227ZM167.815 225V214.091H169.491V225H167.815ZM168.667 212.273C168.34 212.273 168.058 212.161 167.822 211.939C167.59 211.716 167.474 211.449 167.474 211.136C167.474 210.824 167.59 210.556 167.822 210.334C168.058 210.111 168.34 210 168.667 210C168.994 210 169.273 210.111 169.505 210.334C169.742 210.556 169.86 210.824 169.86 211.136C169.86 211.449 169.742 211.716 169.505 211.939C169.273 212.161 168.994 212.273 168.667 212.273ZM177.305 214.091V215.511H171.652V214.091H177.305ZM173.299 211.477H174.976V221.875C174.976 222.348 175.044 222.704 175.181 222.94C175.324 223.172 175.503 223.329 175.721 223.409C175.944 223.485 176.178 223.523 176.424 223.523C176.609 223.523 176.761 223.513 176.879 223.494C176.997 223.471 177.092 223.452 177.163 223.438L177.504 224.943C177.39 224.986 177.232 225.028 177.028 225.071C176.824 225.118 176.566 225.142 176.254 225.142C175.78 225.142 175.316 225.04 174.862 224.837C174.412 224.633 174.038 224.323 173.74 223.906C173.446 223.49 173.299 222.964 173.299 222.33V211.477ZM183.037 225.256C182.345 225.256 181.718 225.125 181.154 224.865C180.591 224.6 180.144 224.219 179.812 223.722C179.481 223.22 179.315 222.614 179.315 221.903C179.315 221.278 179.438 220.772 179.684 220.384C179.931 219.991 180.26 219.683 180.672 219.46C181.083 219.238 181.538 219.072 182.035 218.963C182.537 218.849 183.041 218.759 183.548 218.693C184.211 218.608 184.748 218.544 185.16 218.501C185.577 218.454 185.88 218.376 186.069 218.267C186.263 218.158 186.36 217.969 186.36 217.699V217.642C186.36 216.941 186.169 216.397 185.785 216.009C185.406 215.62 184.831 215.426 184.059 215.426C183.259 215.426 182.632 215.601 182.177 215.952C181.723 216.302 181.403 216.676 181.218 217.074L179.627 216.506C179.912 215.843 180.29 215.327 180.764 214.957C181.242 214.583 181.763 214.323 182.326 214.176C182.895 214.025 183.453 213.949 184.002 213.949C184.353 213.949 184.755 213.991 185.21 214.077C185.669 214.157 186.112 214.325 186.538 214.581C186.969 214.837 187.326 215.223 187.61 215.739C187.895 216.255 188.037 216.946 188.037 217.812V225H186.36V223.523H186.275C186.162 223.759 185.972 224.013 185.707 224.283C185.442 224.553 185.089 224.782 184.649 224.972C184.208 225.161 183.671 225.256 183.037 225.256ZM183.292 223.75C183.955 223.75 184.514 223.62 184.968 223.359C185.428 223.099 185.773 222.763 186.005 222.351C186.242 221.939 186.36 221.506 186.36 221.051V219.517C186.289 219.602 186.133 219.68 185.892 219.751C185.655 219.818 185.38 219.877 185.068 219.929C184.76 219.976 184.459 220.019 184.166 220.057C183.877 220.09 183.643 220.118 183.463 220.142C183.027 220.199 182.62 220.291 182.241 220.419C181.867 220.542 181.564 220.729 181.332 220.98C181.105 221.226 180.991 221.562 180.991 221.989C180.991 222.571 181.207 223.011 181.637 223.31C182.073 223.603 182.625 223.75 183.292 223.75ZM195.528 225.227C194.505 225.227 193.624 224.986 192.886 224.503C192.147 224.02 191.579 223.355 191.181 222.507C190.783 221.66 190.585 220.691 190.585 219.602C190.585 218.494 190.788 217.517 191.195 216.669C191.607 215.817 192.18 215.152 192.914 214.673C193.653 214.19 194.514 213.949 195.499 213.949C196.266 213.949 196.958 214.091 197.573 214.375C198.189 214.659 198.693 215.057 199.086 215.568C199.479 216.08 199.723 216.676 199.817 217.358H198.141C198.014 216.861 197.729 216.42 197.289 216.037C196.853 215.649 196.266 215.455 195.528 215.455C194.874 215.455 194.301 215.625 193.809 215.966C193.321 216.302 192.94 216.778 192.665 217.393C192.396 218.004 192.261 218.722 192.261 219.545C192.261 220.388 192.393 221.122 192.658 221.747C192.928 222.372 193.307 222.857 193.795 223.203C194.287 223.549 194.865 223.722 195.528 223.722C195.963 223.722 196.359 223.646 196.714 223.494C197.069 223.343 197.37 223.125 197.616 222.841C197.862 222.557 198.037 222.216 198.141 221.818H199.817C199.723 222.462 199.488 223.042 199.114 223.558C198.745 224.07 198.255 224.477 197.644 224.78C197.038 225.078 196.333 225.227 195.528 225.227ZM194.732 224.943H196.124L196.011 225.511C196.38 225.568 196.719 225.722 197.026 225.973C197.334 226.229 197.488 226.634 197.488 227.188C197.488 227.798 197.235 228.295 196.728 228.679C196.226 229.067 195.485 229.261 194.505 229.261L194.448 228.153C194.889 228.153 195.253 228.082 195.542 227.94C195.835 227.803 195.982 227.571 195.982 227.244C195.982 226.918 195.862 226.695 195.62 226.577C195.379 226.458 194.988 226.378 194.448 226.335L194.732 224.943ZM206.7 225.227C205.715 225.227 204.851 224.993 204.107 224.524C203.369 224.055 202.791 223.4 202.374 222.557C201.962 221.714 201.756 220.729 201.756 219.602C201.756 218.466 201.962 217.474 202.374 216.626C202.791 215.779 203.369 215.121 204.107 214.652C204.851 214.183 205.715 213.949 206.7 213.949C207.684 213.949 208.546 214.183 209.285 214.652C210.028 215.121 210.606 215.779 211.018 216.626C211.434 217.474 211.643 218.466 211.643 219.602C211.643 220.729 211.434 221.714 211.018 222.557C210.606 223.4 210.028 224.055 209.285 224.524C208.546 224.993 207.684 225.227 206.7 225.227ZM206.7 223.722C207.448 223.722 208.063 223.53 208.546 223.146C209.029 222.763 209.387 222.259 209.619 221.634C209.851 221.009 209.967 220.331 209.967 219.602C209.967 218.873 209.851 218.194 209.619 217.564C209.387 216.934 209.029 216.425 208.546 216.037C208.063 215.649 207.448 215.455 206.7 215.455C205.951 215.455 205.336 215.649 204.853 216.037C204.37 216.425 204.013 216.934 203.781 217.564C203.549 218.194 203.433 218.873 203.433 219.602C203.433 220.331 203.549 221.009 203.781 221.634C204.013 222.259 204.37 222.763 204.853 223.146C205.336 223.53 205.951 223.722 206.7 223.722ZM204.512 212.784L203.205 212.727C203.205 212.003 203.411 211.411 203.823 210.952C204.24 210.488 204.754 210.256 205.364 210.256C205.634 210.256 205.873 210.303 206.082 210.398C206.29 210.488 206.489 210.592 206.678 210.71C206.868 210.829 207.062 210.935 207.261 211.03C207.464 211.12 207.694 211.165 207.95 211.165C208.219 211.165 208.447 211.061 208.631 210.852C208.821 210.639 208.915 210.384 208.915 210.085L210.194 210.199C210.194 210.937 209.986 211.525 209.569 211.96C209.157 212.396 208.646 212.614 208.035 212.614C207.708 212.614 207.438 212.569 207.225 212.479C207.012 212.384 206.823 212.277 206.657 212.159C206.491 212.041 206.316 211.937 206.131 211.847C205.947 211.752 205.719 211.705 205.45 211.705C205.18 211.705 204.955 211.811 204.775 212.024C204.6 212.232 204.512 212.486 204.512 212.784ZM218.775 225.227C217.724 225.227 216.817 224.995 216.055 224.531C215.297 224.062 214.713 223.409 214.301 222.571C213.894 221.728 213.69 220.748 213.69 219.631C213.69 218.513 213.894 217.528 214.301 216.676C214.713 215.819 215.286 215.152 216.02 214.673C216.758 214.19 217.62 213.949 218.605 213.949C219.173 213.949 219.734 214.044 220.288 214.233C220.842 214.422 221.346 214.73 221.801 215.156C222.255 215.578 222.618 216.136 222.887 216.832C223.157 217.528 223.292 218.385 223.292 219.403V220.114H214.883V218.665H221.588C221.588 218.049 221.465 217.5 221.218 217.017C220.977 216.534 220.631 216.153 220.181 215.874C219.736 215.594 219.211 215.455 218.605 215.455C217.937 215.455 217.36 215.62 216.872 215.952C216.389 216.278 216.017 216.705 215.757 217.23C215.496 217.756 215.366 218.319 215.366 218.92V219.886C215.366 220.71 215.508 221.409 215.792 221.982C216.081 222.55 216.481 222.983 216.993 223.281C217.504 223.575 218.098 223.722 218.775 223.722C219.216 223.722 219.613 223.66 219.968 223.537C220.328 223.409 220.638 223.22 220.899 222.969C221.159 222.713 221.36 222.396 221.502 222.017L223.122 222.472C222.951 223.021 222.665 223.504 222.262 223.92C221.86 224.332 221.363 224.654 220.771 224.886C220.179 225.114 219.514 225.227 218.775 225.227ZM233.569 216.534L232.064 216.96C231.969 216.709 231.829 216.465 231.645 216.229C231.465 215.987 231.218 215.788 230.906 215.632C230.593 215.476 230.193 215.398 229.706 215.398C229.038 215.398 228.482 215.552 228.037 215.859C227.596 216.162 227.376 216.548 227.376 217.017C227.376 217.434 227.528 217.763 227.831 218.004C228.134 218.246 228.607 218.447 229.251 218.608L230.87 219.006C231.846 219.242 232.573 219.605 233.051 220.092C233.529 220.575 233.768 221.198 233.768 221.96C233.768 222.585 233.588 223.144 233.228 223.636C232.873 224.129 232.376 224.517 231.737 224.801C231.098 225.085 230.354 225.227 229.507 225.227C228.394 225.227 227.473 224.986 226.744 224.503C226.015 224.02 225.553 223.314 225.359 222.386L226.95 221.989C227.101 222.576 227.388 223.016 227.809 223.31C228.235 223.603 228.792 223.75 229.478 223.75C230.26 223.75 230.88 223.584 231.339 223.253C231.803 222.917 232.035 222.514 232.035 222.045C232.035 221.667 231.903 221.349 231.637 221.094C231.372 220.833 230.965 220.639 230.416 220.511L228.598 220.085C227.599 219.848 226.865 219.482 226.396 218.984C225.932 218.482 225.7 217.855 225.7 217.102C225.7 216.487 225.873 215.942 226.218 215.469C226.569 214.995 227.045 214.624 227.646 214.354C228.252 214.084 228.939 213.949 229.706 213.949C230.785 213.949 231.633 214.186 232.248 214.659C232.868 215.133 233.309 215.758 233.569 216.534ZM246.348 225.227C245.325 225.227 244.445 224.986 243.706 224.503C242.967 224.02 242.399 223.355 242.001 222.507C241.604 221.66 241.405 220.691 241.405 219.602C241.405 218.494 241.608 217.517 242.016 216.669C242.428 215.817 243 215.152 243.734 214.673C244.473 214.19 245.335 213.949 246.32 213.949C247.087 213.949 247.778 214.091 248.393 214.375C249.009 214.659 249.513 215.057 249.906 215.568C250.299 216.08 250.543 216.676 250.638 217.358H248.962C248.834 216.861 248.55 216.42 248.109 216.037C247.674 215.649 247.087 215.455 246.348 215.455C245.695 215.455 245.122 215.625 244.629 215.966C244.142 216.302 243.76 216.778 243.486 217.393C243.216 218.004 243.081 218.722 243.081 219.545C243.081 220.388 243.214 221.122 243.479 221.747C243.749 222.372 244.127 222.857 244.615 223.203C245.107 223.549 245.685 223.722 246.348 223.722C246.784 223.722 247.179 223.646 247.534 223.494C247.889 223.343 248.19 223.125 248.436 222.841C248.682 222.557 248.857 222.216 248.962 221.818H250.638C250.543 222.462 250.309 223.042 249.935 223.558C249.565 224.07 249.075 224.477 248.464 224.78C247.858 225.078 247.153 225.227 246.348 225.227ZM257.52 225.227C256.535 225.227 255.671 224.993 254.928 224.524C254.189 224.055 253.611 223.4 253.195 222.557C252.783 221.714 252.577 220.729 252.577 219.602C252.577 218.466 252.783 217.474 253.195 216.626C253.611 215.779 254.189 215.121 254.928 214.652C255.671 214.183 256.535 213.949 257.52 213.949C258.505 213.949 259.366 214.183 260.105 214.652C260.848 215.121 261.426 215.779 261.838 216.626C262.255 217.474 262.463 218.466 262.463 219.602C262.463 220.729 262.255 221.714 261.838 222.557C261.426 223.4 260.848 224.055 260.105 224.524C259.366 224.993 258.505 225.227 257.52 225.227ZM257.52 223.722C258.268 223.722 258.884 223.53 259.366 223.146C259.849 222.763 260.207 222.259 260.439 221.634C260.671 221.009 260.787 220.331 260.787 219.602C260.787 218.873 260.671 218.194 260.439 217.564C260.207 216.934 259.849 216.425 259.366 216.037C258.884 215.649 258.268 215.455 257.52 215.455C256.772 215.455 256.156 215.649 255.673 216.037C255.19 216.425 254.833 216.934 254.601 217.564C254.369 218.194 254.253 218.873 254.253 219.602C254.253 220.331 254.369 221.009 254.601 221.634C254.833 222.259 255.19 222.763 255.673 223.146C256.156 223.53 256.772 223.722 257.52 223.722ZM265.022 225V214.091H266.641V215.795H266.783C267.01 215.213 267.377 214.761 267.884 214.439C268.391 214.112 268.999 213.949 269.709 213.949C270.429 213.949 271.028 214.112 271.506 214.439C271.989 214.761 272.365 215.213 272.635 215.795H272.749C273.028 215.232 273.447 214.785 274.006 214.453C274.565 214.117 275.235 213.949 276.016 213.949C276.991 213.949 277.789 214.254 278.409 214.865C279.03 215.471 279.34 216.416 279.34 217.699V225H277.664V217.699C277.664 216.894 277.444 216.319 277.003 215.973C276.563 215.627 276.044 215.455 275.448 215.455C274.681 215.455 274.087 215.687 273.665 216.151C273.244 216.61 273.033 217.192 273.033 217.898V225H271.328V217.528C271.328 216.908 271.127 216.409 270.725 216.03C270.322 215.646 269.804 215.455 269.169 215.455C268.734 215.455 268.327 215.571 267.948 215.803C267.574 216.035 267.271 216.357 267.039 216.768C266.811 217.176 266.698 217.647 266.698 218.182V225H265.022ZM31.7857 234.455V249H30.0243V234.455H31.7857ZM35.9139 249H34.0673L39.4082 234.455H41.2264L46.5673 249H44.7207L40.3741 236.756H40.2605L35.9139 249ZM36.5957 243.318H44.0389V244.881H36.5957V243.318ZM51.1057 247.011L50.992 247.778C50.9115 248.318 50.7884 248.896 50.6227 249.511C50.4617 250.127 50.2936 250.707 50.1184 251.251C49.9432 251.796 49.7988 252.229 49.6852 252.551H48.4068C48.4683 252.248 48.5488 251.848 48.6483 251.351C48.7477 250.854 48.8471 250.297 48.9466 249.682C49.0507 249.071 49.136 248.446 49.2022 247.807L49.2875 247.011H51.1057ZM66.7111 244.54V238.091H68.3873V249H66.7111V247.153H66.5975C66.3418 247.707 65.9441 248.179 65.4043 248.567C64.8645 248.95 64.1827 249.142 63.3589 249.142C62.677 249.142 62.071 248.993 61.5407 248.695C61.0104 248.392 60.5937 247.937 60.2907 247.331C59.9876 246.72 59.8361 245.951 59.8361 245.023V238.091H61.5123V244.909C61.5123 245.705 61.7348 246.339 62.1799 246.812C62.6297 247.286 63.2026 247.523 63.8986 247.523C64.3153 247.523 64.7391 247.416 65.1699 247.203C65.6055 246.99 65.9701 246.663 66.2637 246.223C66.562 245.783 66.7111 245.222 66.7111 244.54ZM73.1334 242.438V249H71.4572V238.091H73.0765V239.795H73.2186C73.4743 239.241 73.8625 238.796 74.3834 238.46C74.9042 238.119 75.5765 237.949 76.4004 237.949C77.139 237.949 77.7853 238.1 78.3393 238.403C78.8933 238.702 79.3242 239.156 79.6319 239.767C79.9397 240.373 80.0936 241.14 80.0936 242.068V249H78.4174V242.182C78.4174 241.325 78.1949 240.657 77.7498 240.179C77.3048 239.696 76.694 239.455 75.9174 239.455C75.3824 239.455 74.9042 239.571 74.4828 239.803C74.0661 240.035 73.737 240.373 73.4956 240.818C73.2541 241.263 73.1334 241.803 73.1334 242.438ZM83.1564 249V238.091H84.8326V249H83.1564ZM84.0087 236.273C83.682 236.273 83.4003 236.161 83.1635 235.939C82.9315 235.716 82.8155 235.449 82.8155 235.136C82.8155 234.824 82.9315 234.556 83.1635 234.334C83.4003 234.111 83.682 234 84.0087 234C84.3354 234 84.6148 234.111 84.8468 234.334C85.0835 234.556 85.2019 234.824 85.2019 235.136C85.2019 235.449 85.0835 235.716 84.8468 235.939C84.6148 236.161 84.3354 236.273 84.0087 236.273ZM89.5787 242.438V249H87.9025V238.091H89.5218V239.795H89.6639C89.9196 239.241 90.3078 238.796 90.8287 238.46C91.3495 238.119 92.0218 237.949 92.8457 237.949C93.5843 237.949 94.2307 238.1 94.7846 238.403C95.3386 238.702 95.7695 239.156 96.0772 239.767C96.385 240.373 96.5389 241.14 96.5389 242.068V249H94.8628V242.182C94.8628 241.325 94.6402 240.657 94.1951 240.179C93.7501 239.696 93.1393 239.455 92.3628 239.455C91.8277 239.455 91.3495 239.571 90.9281 239.803C90.5114 240.035 90.1824 240.373 89.9409 240.818C89.6994 241.263 89.5787 241.803 89.5787 242.438ZM103.721 249.227C102.812 249.227 102.009 248.998 101.313 248.538C100.617 248.074 100.073 247.421 99.6799 246.578C99.2869 245.731 99.0904 244.729 99.0904 243.574C99.0904 242.428 99.2869 241.434 99.6799 240.591C100.073 239.748 100.62 239.097 101.32 238.638C102.021 238.179 102.831 237.949 103.749 237.949C104.46 237.949 105.021 238.067 105.433 238.304C105.849 238.536 106.167 238.801 106.384 239.099C106.607 239.393 106.78 239.634 106.903 239.824H107.045V234.455H108.721V249H107.102V247.324H106.903C106.78 247.523 106.605 247.774 106.377 248.077C106.15 248.375 105.826 248.643 105.404 248.879C104.983 249.111 104.422 249.227 103.721 249.227ZM103.948 247.722C104.621 247.722 105.189 247.546 105.653 247.196C106.117 246.841 106.47 246.351 106.711 245.726C106.953 245.096 107.073 244.369 107.073 243.545C107.073 242.731 106.955 242.018 106.718 241.408C106.481 240.792 106.131 240.314 105.667 239.973C105.203 239.627 104.63 239.455 103.948 239.455C103.238 239.455 102.646 239.637 102.173 240.001C101.704 240.361 101.351 240.851 101.115 241.472C100.883 242.087 100.767 242.778 100.767 243.545C100.767 244.322 100.885 245.027 101.122 245.662C101.363 246.292 101.718 246.794 102.187 247.168C102.66 247.537 103.248 247.722 103.948 247.722ZM116.455 249.227C115.471 249.227 114.606 248.993 113.863 248.524C113.124 248.055 112.547 247.4 112.13 246.557C111.718 245.714 111.512 244.729 111.512 243.602C111.512 242.466 111.718 241.474 112.13 240.626C112.547 239.779 113.124 239.121 113.863 238.652C114.606 238.183 115.471 237.949 116.455 237.949C117.44 237.949 118.302 238.183 119.041 238.652C119.784 239.121 120.362 239.779 120.774 240.626C121.19 241.474 121.399 242.466 121.399 243.602C121.399 244.729 121.19 245.714 120.774 246.557C120.362 247.4 119.784 248.055 119.041 248.524C118.302 248.993 117.44 249.227 116.455 249.227ZM116.455 247.722C117.204 247.722 117.819 247.53 118.302 247.146C118.785 246.763 119.142 246.259 119.374 245.634C119.606 245.009 119.722 244.331 119.722 243.602C119.722 242.873 119.606 242.194 119.374 241.564C119.142 240.934 118.785 240.425 118.302 240.037C117.819 239.649 117.204 239.455 116.455 239.455C115.707 239.455 115.092 239.649 114.609 240.037C114.126 240.425 113.768 240.934 113.536 241.564C113.304 242.194 113.188 242.873 113.188 243.602C113.188 244.331 113.304 245.009 113.536 245.634C113.768 246.259 114.126 246.763 114.609 247.146C115.092 247.53 115.707 247.722 116.455 247.722ZM134.014 249.227C132.991 249.227 132.111 248.986 131.372 248.503C130.633 248.02 130.065 247.355 129.667 246.507C129.27 245.66 129.071 244.691 129.071 243.602C129.071 242.494 129.274 241.517 129.682 240.669C130.094 239.817 130.666 239.152 131.4 238.673C132.139 238.19 133.001 237.949 133.986 237.949C134.753 237.949 135.444 238.091 136.059 238.375C136.675 238.659 137.179 239.057 137.572 239.568C137.965 240.08 138.209 240.676 138.304 241.358H136.628C136.5 240.861 136.216 240.42 135.775 240.037C135.34 239.649 134.753 239.455 134.014 239.455C133.361 239.455 132.788 239.625 132.295 239.966C131.808 240.302 131.426 240.778 131.152 241.393C130.882 242.004 130.747 242.722 130.747 243.545C130.747 244.388 130.88 245.122 131.145 245.747C131.415 246.372 131.793 246.857 132.281 247.203C132.774 247.549 133.351 247.722 134.014 247.722C134.45 247.722 134.845 247.646 135.2 247.494C135.555 247.343 135.856 247.125 136.102 246.841C136.348 246.557 136.524 246.216 136.628 245.818H138.304C138.209 246.462 137.975 247.042 137.601 247.558C137.231 248.07 136.741 248.477 136.131 248.78C135.524 249.078 134.819 249.227 134.014 249.227ZM145.186 249.227C144.201 249.227 143.337 248.993 142.594 248.524C141.855 248.055 141.277 247.4 140.861 246.557C140.449 245.714 140.243 244.729 140.243 243.602C140.243 242.466 140.449 241.474 140.861 240.626C141.277 239.779 141.855 239.121 142.594 238.652C143.337 238.183 144.201 237.949 145.186 237.949C146.171 237.949 147.033 238.183 147.771 238.652C148.515 239.121 149.092 239.779 149.504 240.626C149.921 241.474 150.129 242.466 150.129 243.602C150.129 244.729 149.921 245.714 149.504 246.557C149.092 247.4 148.515 248.055 147.771 248.524C147.033 248.993 146.171 249.227 145.186 249.227ZM145.186 247.722C145.934 247.722 146.55 247.53 147.033 247.146C147.515 246.763 147.873 246.259 148.105 245.634C148.337 245.009 148.453 244.331 148.453 243.602C148.453 242.873 148.337 242.194 148.105 241.564C147.873 240.934 147.515 240.425 147.033 240.037C146.55 239.649 145.934 239.455 145.186 239.455C144.438 239.455 143.822 239.649 143.339 240.037C142.856 240.425 142.499 240.934 142.267 241.564C142.035 242.194 141.919 242.873 141.919 243.602C141.919 244.331 142.035 245.009 142.267 245.634C142.499 246.259 142.856 246.763 143.339 247.146C143.822 247.53 144.438 247.722 145.186 247.722ZM154.364 242.438V249H152.688V238.091H154.307V239.795H154.449C154.705 239.241 155.093 238.796 155.614 238.46C156.135 238.119 156.807 237.949 157.631 237.949C158.37 237.949 159.016 238.1 159.57 238.403C160.124 238.702 160.555 239.156 160.862 239.767C161.17 240.373 161.324 241.14 161.324 242.068V249H159.648V242.182C159.648 241.325 159.425 240.657 158.98 240.179C158.535 239.696 157.924 239.455 157.148 239.455C156.613 239.455 156.135 239.571 155.713 239.803C155.297 240.035 154.968 240.373 154.726 240.818C154.485 241.263 154.364 241.803 154.364 242.438ZM166.063 242.438V249H164.387V234.455H166.063V239.795H166.205C166.461 239.232 166.844 238.785 167.356 238.453C167.872 238.117 168.558 237.949 169.415 237.949C170.159 237.949 170.81 238.098 171.368 238.396C171.927 238.69 172.36 239.142 172.668 239.753C172.981 240.359 173.137 241.131 173.137 242.068V249H171.461V242.182C171.461 241.315 171.236 240.645 170.786 240.172C170.341 239.694 169.723 239.455 168.932 239.455C168.383 239.455 167.891 239.571 167.455 239.803C167.024 240.035 166.683 240.373 166.432 240.818C166.186 241.263 166.063 241.803 166.063 242.438ZM180.777 249.227C179.726 249.227 178.819 248.995 178.057 248.531C177.299 248.062 176.715 247.409 176.303 246.571C175.896 245.728 175.692 244.748 175.692 243.631C175.692 242.513 175.896 241.528 176.303 240.676C176.715 239.819 177.288 239.152 178.021 238.673C178.76 238.19 179.622 237.949 180.607 237.949C181.175 237.949 181.736 238.044 182.29 238.233C182.844 238.422 183.348 238.73 183.803 239.156C184.257 239.578 184.62 240.136 184.889 240.832C185.159 241.528 185.294 242.385 185.294 243.403V244.114H176.885V242.665H183.59C183.59 242.049 183.467 241.5 183.22 241.017C182.979 240.534 182.633 240.153 182.183 239.874C181.738 239.594 181.213 239.455 180.607 239.455C179.939 239.455 179.361 239.62 178.874 239.952C178.391 240.278 178.019 240.705 177.759 241.23C177.498 241.756 177.368 242.319 177.368 242.92V243.886C177.368 244.71 177.51 245.409 177.794 245.982C178.083 246.55 178.483 246.983 178.995 247.281C179.506 247.575 180.1 247.722 180.777 247.722C181.218 247.722 181.615 247.66 181.97 247.537C182.33 247.409 182.64 247.22 182.901 246.969C183.161 246.713 183.362 246.396 183.504 246.017L185.124 246.472C184.953 247.021 184.667 247.504 184.264 247.92C183.862 248.332 183.365 248.654 182.773 248.886C182.181 249.114 181.516 249.227 180.777 249.227ZM192.276 249.227C191.253 249.227 190.372 248.986 189.634 248.503C188.895 248.02 188.327 247.355 187.929 246.507C187.531 245.66 187.333 244.691 187.333 243.602C187.333 242.494 187.536 241.517 187.943 240.669C188.355 239.817 188.928 239.152 189.662 238.673C190.401 238.19 191.262 237.949 192.247 237.949C193.014 237.949 193.706 238.091 194.321 238.375C194.937 238.659 195.441 239.057 195.834 239.568C196.227 240.08 196.471 240.676 196.566 241.358H194.889C194.762 240.861 194.477 240.42 194.037 240.037C193.602 239.649 193.014 239.455 192.276 239.455C191.622 239.455 191.049 239.625 190.557 239.966C190.069 240.302 189.688 240.778 189.414 241.393C189.144 242.004 189.009 242.722 189.009 243.545C189.009 244.388 189.141 245.122 189.406 245.747C189.676 246.372 190.055 246.857 190.543 247.203C191.035 247.549 191.613 247.722 192.276 247.722C192.711 247.722 193.107 247.646 193.462 247.494C193.817 247.343 194.118 247.125 194.364 246.841C194.61 246.557 194.785 246.216 194.889 245.818H196.566C196.471 246.462 196.236 247.042 195.862 247.558C195.493 248.07 195.003 248.477 194.392 248.78C193.786 249.078 193.081 249.227 192.276 249.227ZM199.016 249V238.091H200.692V249H199.016ZM199.868 236.273C199.541 236.273 199.26 236.161 199.023 235.939C198.791 235.716 198.675 235.449 198.675 235.136C198.675 234.824 198.791 234.556 199.023 234.334C199.26 234.111 199.541 234 199.868 234C200.195 234 200.474 234.111 200.706 234.334C200.943 234.556 201.061 234.824 201.061 235.136C201.061 235.449 200.943 235.716 200.706 235.939C200.474 236.161 200.195 236.273 199.868 236.273ZM203.762 249V238.091H205.381V239.795H205.523C205.751 239.213 206.117 238.761 206.624 238.439C207.131 238.112 207.739 237.949 208.449 237.949C209.169 237.949 209.768 238.112 210.246 238.439C210.729 238.761 211.106 239.213 211.376 239.795H211.489C211.769 239.232 212.188 238.785 212.746 238.453C213.305 238.117 213.975 237.949 214.756 237.949C215.732 237.949 216.529 238.254 217.15 238.865C217.77 239.471 218.08 240.416 218.08 241.699V249H216.404V241.699C216.404 240.894 216.184 240.319 215.743 239.973C215.303 239.627 214.785 239.455 214.188 239.455C213.421 239.455 212.827 239.687 212.405 240.151C211.984 240.61 211.773 241.192 211.773 241.898V249H210.069V241.528C210.069 240.908 209.867 240.409 209.465 240.03C209.063 239.646 208.544 239.455 207.91 239.455C207.474 239.455 207.067 239.571 206.688 239.803C206.314 240.035 206.011 240.357 205.779 240.768C205.552 241.176 205.438 241.647 205.438 242.182V249H203.762ZM225.719 249.227C224.667 249.227 223.761 248.995 222.998 248.531C222.241 248.062 221.656 247.409 221.244 246.571C220.837 245.728 220.633 244.748 220.633 243.631C220.633 242.513 220.837 241.528 221.244 240.676C221.656 239.819 222.229 239.152 222.963 238.673C223.702 238.19 224.563 237.949 225.548 237.949C226.116 237.949 226.677 238.044 227.231 238.233C227.785 238.422 228.29 238.73 228.744 239.156C229.199 239.578 229.561 240.136 229.831 240.832C230.101 241.528 230.236 242.385 230.236 243.403V244.114H221.827V242.665H228.531C228.531 242.049 228.408 241.5 228.162 241.017C227.92 240.534 227.575 240.153 227.125 239.874C226.68 239.594 226.154 239.455 225.548 239.455C224.881 239.455 224.303 239.62 223.815 239.952C223.332 240.278 222.961 240.705 222.7 241.23C222.44 241.756 222.309 242.319 222.309 242.92V243.886C222.309 244.71 222.452 245.409 222.736 245.982C223.024 246.55 223.425 246.983 223.936 247.281C224.447 247.575 225.041 247.722 225.719 247.722C226.159 247.722 226.557 247.66 226.912 247.537C227.272 247.409 227.582 247.22 227.842 246.969C228.103 246.713 228.304 246.396 228.446 246.017L230.065 246.472C229.895 247.021 229.608 247.504 229.206 247.92C228.803 248.332 228.306 248.654 227.714 248.886C227.122 249.114 226.457 249.227 225.719 249.227ZM234.461 242.438V249H232.785V238.091H234.405V239.795H234.547C234.802 239.241 235.191 238.796 235.711 238.46C236.232 238.119 236.905 237.949 237.729 237.949C238.467 237.949 239.113 238.1 239.667 238.403C240.221 238.702 240.652 239.156 240.96 239.767C241.268 240.373 241.422 241.14 241.422 242.068V249H239.746V242.182C239.746 241.325 239.523 240.657 239.078 240.179C238.633 239.696 238.022 239.455 237.246 239.455C236.711 239.455 236.232 239.571 235.811 239.803C235.394 240.035 235.065 240.373 234.824 240.818C234.582 241.263 234.461 241.803 234.461 242.438ZM249.229 238.091V239.511H243.575V238.091H249.229ZM245.223 235.477H246.899V245.875C246.899 246.348 246.968 246.704 247.105 246.94C247.247 247.172 247.427 247.329 247.645 247.409C247.868 247.485 248.102 247.523 248.348 247.523C248.533 247.523 248.684 247.513 248.803 247.494C248.921 247.471 249.016 247.452 249.087 247.438L249.428 248.943C249.314 248.986 249.155 249.028 248.952 249.071C248.748 249.118 248.49 249.142 248.178 249.142C247.704 249.142 247.24 249.04 246.786 248.837C246.336 248.633 245.962 248.323 245.664 247.906C245.37 247.49 245.223 246.964 245.223 246.33V235.477ZM256.065 249.227C255.08 249.227 254.216 248.993 253.472 248.524C252.734 248.055 252.156 247.4 251.74 246.557C251.328 245.714 251.122 244.729 251.122 243.602C251.122 242.466 251.328 241.474 251.74 240.626C252.156 239.779 252.734 239.121 253.472 238.652C254.216 238.183 255.08 237.949 256.065 237.949C257.05 237.949 257.911 238.183 258.65 238.652C259.393 239.121 259.971 239.779 260.383 240.626C260.8 241.474 261.008 242.466 261.008 243.602C261.008 244.729 260.8 245.714 260.383 246.557C259.971 247.4 259.393 248.055 258.65 248.524C257.911 248.993 257.05 249.227 256.065 249.227ZM256.065 247.722C256.813 247.722 257.428 247.53 257.911 247.146C258.394 246.763 258.752 246.259 258.984 245.634C259.216 245.009 259.332 244.331 259.332 243.602C259.332 242.873 259.216 242.194 258.984 241.564C258.752 240.934 258.394 240.425 257.911 240.037C257.428 239.649 256.813 239.455 256.065 239.455C255.317 239.455 254.701 239.649 254.218 240.037C253.735 240.425 253.378 240.934 253.146 241.564C252.914 242.194 252.798 242.873 252.798 243.602C252.798 244.331 252.914 245.009 253.146 245.634C253.378 246.259 253.735 246.763 254.218 247.146C254.701 247.53 255.317 247.722 256.065 247.722ZM271.294 240.534L269.788 240.96C269.693 240.709 269.554 240.465 269.369 240.229C269.189 239.987 268.943 239.788 268.631 239.632C268.318 239.476 267.918 239.398 267.43 239.398C266.763 239.398 266.206 239.552 265.761 239.859C265.321 240.162 265.101 240.548 265.101 241.017C265.101 241.434 265.252 241.763 265.555 242.004C265.858 242.246 266.332 242.447 266.976 242.608L268.595 243.006C269.57 243.242 270.297 243.605 270.775 244.092C271.254 244.575 271.493 245.198 271.493 245.96C271.493 246.585 271.313 247.144 270.953 247.636C270.598 248.129 270.101 248.517 269.461 248.801C268.822 249.085 268.079 249.227 267.231 249.227C266.119 249.227 265.198 248.986 264.469 248.503C263.739 248.02 263.278 247.314 263.084 246.386L264.675 245.989C264.826 246.576 265.113 247.016 265.534 247.31C265.96 247.603 266.516 247.75 267.203 247.75C267.984 247.75 268.604 247.584 269.064 247.253C269.528 246.917 269.76 246.514 269.76 246.045C269.76 245.667 269.627 245.349 269.362 245.094C269.097 244.833 268.69 244.639 268.14 244.511L266.322 244.085C265.323 243.848 264.589 243.482 264.121 242.984C263.657 242.482 263.425 241.855 263.425 241.102C263.425 240.487 263.597 239.942 263.943 239.469C264.293 238.995 264.769 238.624 265.371 238.354C265.977 238.084 266.663 237.949 267.43 237.949C268.51 237.949 269.357 238.186 269.973 238.659C270.593 239.133 271.033 239.758 271.294 240.534ZM34.7456 273.256C34.0543 273.256 33.4269 273.125 32.8635 272.865C32.3 272.6 31.8526 272.219 31.5211 271.722C31.1897 271.22 31.024 270.614 31.024 269.903C31.024 269.278 31.1471 268.772 31.3933 268.384C31.6395 267.991 31.9686 267.683 32.3805 267.46C32.7924 267.238 33.247 267.072 33.7441 266.963C34.246 266.849 34.7503 266.759 35.2569 266.693C35.9198 266.608 36.4572 266.544 36.8691 266.501C37.2858 266.454 37.5888 266.376 37.7782 266.267C37.9724 266.158 38.0694 265.969 38.0694 265.699V265.642C38.0694 264.941 37.8777 264.397 37.4941 264.009C37.1154 263.62 36.5401 263.426 35.7683 263.426C34.9681 263.426 34.3407 263.601 33.8862 263.952C33.4316 264.302 33.112 264.676 32.9274 265.074L31.3365 264.506C31.6206 263.843 31.9994 263.327 32.4728 262.957C32.9511 262.583 33.4719 262.323 34.0353 262.176C34.6035 262.025 35.1622 261.949 35.7115 261.949C36.0619 261.949 36.4643 261.991 36.9189 262.077C37.3781 262.157 37.8209 262.325 38.247 262.581C38.6779 262.837 39.0353 263.223 39.3194 263.739C39.6035 264.255 39.7456 264.946 39.7456 265.812V273H38.0694V271.523H37.9842C37.8706 271.759 37.6812 272.013 37.416 272.283C37.1509 272.553 36.7981 272.782 36.3578 272.972C35.9174 273.161 35.38 273.256 34.7456 273.256ZM35.0013 271.75C35.6641 271.75 36.2228 271.62 36.6774 271.359C37.1367 271.099 37.4823 270.763 37.7143 270.351C37.9511 269.939 38.0694 269.506 38.0694 269.051V267.517C37.9984 267.602 37.8422 267.68 37.6007 267.751C37.3639 267.818 37.0893 267.877 36.7768 267.929C36.4691 267.976 36.1684 268.019 35.8748 268.057C35.586 268.09 35.3516 268.118 35.1717 268.142C34.7361 268.199 34.3289 268.291 33.9501 268.419C33.5761 268.542 33.273 268.729 33.041 268.98C32.8138 269.226 32.7001 269.562 32.7001 269.989C32.7001 270.571 32.9156 271.011 33.3464 271.31C33.782 271.603 34.3336 271.75 35.0013 271.75ZM44.481 266.438V273H42.8049V262.091H44.4242V263.795H44.5662C44.8219 263.241 45.2102 262.796 45.731 262.46C46.2518 262.119 46.9242 261.949 47.7481 261.949C48.4867 261.949 49.133 262.1 49.687 262.403C50.241 262.702 50.6718 263.156 50.9796 263.767C51.2874 264.373 51.4412 265.14 51.4412 266.068V273H49.7651V266.182C49.7651 265.325 49.5426 264.657 49.0975 264.179C48.6524 263.696 48.0416 263.455 47.2651 263.455C46.7301 263.455 46.2518 263.571 45.8304 263.803C45.4138 264.035 45.0847 264.373 44.8432 264.818C44.6017 265.263 44.481 265.803 44.481 266.438ZM58.9359 273.227C57.9132 273.227 57.0325 272.986 56.2939 272.503C55.5552 272.02 54.987 271.355 54.5893 270.507C54.1916 269.66 53.9927 268.691 53.9927 267.602C53.9927 266.494 54.1963 265.517 54.6035 264.669C55.0155 263.817 55.5884 263.152 56.3223 262.673C57.0609 262.19 57.9227 261.949 58.9075 261.949C59.6745 261.949 60.3658 262.091 60.9814 262.375C61.5969 262.659 62.1012 263.057 62.4941 263.568C62.8871 264.08 63.131 264.676 63.2257 265.358H61.5495C61.4217 264.861 61.1376 264.42 60.6973 264.037C60.2617 263.649 59.6745 263.455 58.9359 263.455C58.2825 263.455 57.7096 263.625 57.2172 263.966C56.7295 264.302 56.3483 264.778 56.0737 265.393C55.8038 266.004 55.6689 266.722 55.6689 267.545C55.6689 268.388 55.8014 269.122 56.0666 269.747C56.3365 270.372 56.7153 270.857 57.203 271.203C57.6954 271.549 58.273 271.722 58.9359 271.722C59.3715 271.722 59.7669 271.646 60.122 271.494C60.4771 271.343 60.7778 271.125 61.024 270.841C61.2702 270.557 61.4454 270.216 61.5495 269.818H63.2257C63.131 270.462 62.8966 271.042 62.5226 271.558C62.1532 272.07 61.6632 272.477 61.0524 272.78C60.4463 273.078 59.7408 273.227 58.9359 273.227ZM70.2498 273.227C69.1987 273.227 68.292 272.995 67.5297 272.531C66.7721 272.062 66.1873 271.409 65.7754 270.571C65.3682 269.728 65.1646 268.748 65.1646 267.631C65.1646 266.513 65.3682 265.528 65.7754 264.676C66.1873 263.819 66.7602 263.152 67.4941 262.673C68.2328 262.19 69.0945 261.949 70.0794 261.949C70.6476 261.949 71.2086 262.044 71.7626 262.233C72.3166 262.422 72.8209 262.73 73.2754 263.156C73.7299 263.578 74.0922 264.136 74.362 264.832C74.6319 265.528 74.7669 266.385 74.7669 267.403V268.114H66.3578V266.665H73.0623C73.0623 266.049 72.9392 265.5 72.693 265.017C72.4515 264.534 72.1059 264.153 71.6561 263.874C71.211 263.594 70.6854 263.455 70.0794 263.455C69.4118 263.455 68.8341 263.62 68.3464 263.952C67.8635 264.278 67.4918 264.705 67.2314 265.23C66.9709 265.756 66.8407 266.319 66.8407 266.92V267.886C66.8407 268.71 66.9828 269.409 67.2669 269.982C67.5557 270.55 67.9558 270.983 68.4672 271.281C68.9785 271.575 69.5727 271.722 70.2498 271.722C70.6902 271.722 71.0879 271.66 71.443 271.537C71.8029 271.409 72.113 271.22 72.3734 270.969C72.6338 270.713 72.8351 270.396 72.9771 270.017L74.5964 270.472C74.426 271.021 74.1395 271.504 73.737 271.92C73.3346 272.332 72.8374 272.654 72.2456 272.886C71.6537 273.114 70.9885 273.227 70.2498 273.227ZM85.0439 264.534L83.5382 264.96C83.4435 264.709 83.3038 264.465 83.1191 264.229C82.9392 263.987 82.693 263.788 82.3805 263.632C82.068 263.476 81.6679 263.398 81.1802 263.398C80.5126 263.398 79.9563 263.552 79.5112 263.859C79.0709 264.162 78.8507 264.548 78.8507 265.017C78.8507 265.434 79.0022 265.763 79.3052 266.004C79.6083 266.246 80.0817 266.447 80.7257 266.608L82.345 267.006C83.3204 267.242 84.0472 267.605 84.5254 268.092C85.0036 268.575 85.2427 269.198 85.2427 269.96C85.2427 270.585 85.0628 271.144 84.703 271.636C84.3478 272.129 83.8507 272.517 83.2115 272.801C82.5723 273.085 81.8289 273.227 80.9814 273.227C79.8687 273.227 78.9477 272.986 78.2186 272.503C77.4894 272.02 77.0278 271.314 76.8336 270.386L78.4245 269.989C78.5761 270.576 78.8625 271.016 79.2839 271.31C79.7101 271.603 80.2664 271.75 80.953 271.75C81.7342 271.75 82.3545 271.584 82.8138 271.253C83.2778 270.917 83.5098 270.514 83.5098 270.045C83.5098 269.667 83.3772 269.349 83.112 269.094C82.8469 268.833 82.4397 268.639 81.8905 268.511L80.0723 268.085C79.0732 267.848 78.3393 267.482 77.8706 266.984C77.4066 266.482 77.1745 265.855 77.1745 265.102C77.1745 264.487 77.3474 263.942 77.693 263.469C78.0434 262.995 78.5192 262.624 79.1206 262.354C79.7266 262.084 80.4132 261.949 81.1802 261.949C82.2598 261.949 83.1073 262.186 83.7228 262.659C84.3431 263.133 84.7834 263.758 85.0439 264.534ZM92.5101 262.091V263.511H86.8567V262.091H92.5101ZM88.5044 259.477H90.1806V269.875C90.1806 270.348 90.2492 270.704 90.3865 270.94C90.5286 271.172 90.7085 271.329 90.9263 271.409C91.1489 271.485 91.3832 271.523 91.6294 271.523C91.8141 271.523 91.9656 271.513 92.084 271.494C92.2024 271.471 92.2971 271.452 92.3681 271.438L92.709 272.943C92.5954 272.986 92.4367 273.028 92.2331 273.071C92.0295 273.118 91.7715 273.142 91.459 273.142C90.9855 273.142 90.5215 273.04 90.0669 272.837C89.6171 272.633 89.2431 272.323 88.9448 271.906C88.6512 271.49 88.5044 270.964 88.5044 270.33V259.477ZM95.0314 273V262.091H96.6508V263.739H96.7644C96.9633 263.199 97.3231 262.761 97.8439 262.425C98.3648 262.089 98.9519 261.92 99.6053 261.92C99.7284 261.92 99.8823 261.923 100.067 261.928C100.252 261.932 100.391 261.939 100.486 261.949V263.653C100.429 263.639 100.299 263.618 100.095 263.589C99.8965 263.556 99.6858 263.54 99.4633 263.54C98.933 263.54 98.4595 263.651 98.0428 263.874C97.6309 264.091 97.3042 264.394 97.0627 264.783C96.8259 265.166 96.7076 265.604 96.7076 266.097V273H95.0314ZM105.683 273.256C104.992 273.256 104.364 273.125 103.801 272.865C103.238 272.6 102.79 272.219 102.459 271.722C102.127 271.22 101.961 270.614 101.961 269.903C101.961 269.278 102.085 268.772 102.331 268.384C102.577 267.991 102.906 267.683 103.318 267.46C103.73 267.238 104.184 267.072 104.682 266.963C105.184 266.849 105.688 266.759 106.194 266.693C106.857 266.608 107.395 266.544 107.807 266.501C108.223 266.454 108.526 266.376 108.716 266.267C108.91 266.158 109.007 265.969 109.007 265.699V265.642C109.007 264.941 108.815 264.397 108.432 264.009C108.053 263.62 107.478 263.426 106.706 263.426C105.906 263.426 105.278 263.601 104.824 263.952C104.369 264.302 104.05 264.676 103.865 265.074L102.274 264.506C102.558 263.843 102.937 263.327 103.41 262.957C103.889 262.583 104.409 262.323 104.973 262.176C105.541 262.025 106.1 261.949 106.649 261.949C106.999 261.949 107.402 261.991 107.856 262.077C108.316 262.157 108.758 262.325 109.184 262.581C109.615 262.837 109.973 263.223 110.257 263.739C110.541 264.255 110.683 264.946 110.683 265.812V273H109.007V271.523H108.922C108.808 271.759 108.619 272.013 108.354 272.283C108.088 272.553 107.736 272.782 107.295 272.972C106.855 273.161 106.318 273.256 105.683 273.256ZM105.939 271.75C106.602 271.75 107.16 271.62 107.615 271.359C108.074 271.099 108.42 270.763 108.652 270.351C108.889 269.939 109.007 269.506 109.007 269.051V267.517C108.936 267.602 108.78 267.68 108.538 267.751C108.301 267.818 108.027 267.877 107.714 267.929C107.407 267.976 107.106 268.019 106.812 268.057C106.524 268.09 106.289 268.118 106.109 268.142C105.674 268.199 105.266 268.291 104.888 268.419C104.514 268.542 104.211 268.729 103.979 268.98C103.751 269.226 103.638 269.562 103.638 269.989C103.638 270.571 103.853 271.011 104.284 271.31C104.72 271.603 105.271 271.75 105.939 271.75ZM113.742 273V262.091H115.419V273H113.742ZM114.595 260.273C114.268 260.273 113.986 260.161 113.749 259.939C113.517 259.716 113.401 259.449 113.401 259.136C113.401 258.824 113.517 258.556 113.749 258.334C113.986 258.111 114.268 258 114.595 258C114.921 258 115.201 258.111 115.433 258.334C115.669 258.556 115.788 258.824 115.788 259.136C115.788 259.449 115.669 259.716 115.433 259.939C115.201 260.161 114.921 260.273 114.595 260.273ZM126.216 264.534L124.71 264.96C124.615 264.709 124.476 264.465 124.291 264.229C124.111 263.987 123.865 263.788 123.552 263.632C123.24 263.476 122.84 263.398 122.352 263.398C121.684 263.398 121.128 263.552 120.683 263.859C120.243 264.162 120.023 264.548 120.023 265.017C120.023 265.434 120.174 265.763 120.477 266.004C120.78 266.246 121.254 266.447 121.898 266.608L123.517 267.006C124.492 267.242 125.219 267.605 125.697 268.092C126.175 268.575 126.415 269.198 126.415 269.96C126.415 270.585 126.235 271.144 125.875 271.636C125.52 272.129 125.023 272.517 124.383 272.801C123.744 273.085 123.001 273.227 122.153 273.227C121.041 273.227 120.12 272.986 119.39 272.503C118.661 272.02 118.2 271.314 118.006 270.386L119.596 269.989C119.748 270.576 120.034 271.016 120.456 271.31C120.882 271.603 121.438 271.75 122.125 271.75C122.906 271.75 123.526 271.584 123.986 271.253C124.45 270.917 124.682 270.514 124.682 270.045C124.682 269.667 124.549 269.349 124.284 269.094C124.019 268.833 123.612 268.639 123.062 268.511L121.244 268.085C120.245 267.848 119.511 267.482 119.042 266.984C118.578 266.482 118.346 265.855 118.346 265.102C118.346 264.487 118.519 263.942 118.865 263.469C119.215 262.995 119.691 262.624 120.292 262.354C120.899 262.084 121.585 261.949 122.352 261.949C123.432 261.949 124.279 262.186 124.895 262.659C125.515 263.133 125.955 263.758 126.216 264.534ZM139.137 273.227C138.085 273.227 137.179 272.995 136.416 272.531C135.659 272.062 135.074 271.409 134.662 270.571C134.255 269.728 134.051 268.748 134.051 267.631C134.051 266.513 134.255 265.528 134.662 264.676C135.074 263.819 135.647 263.152 136.381 262.673C137.12 262.19 137.981 261.949 138.966 261.949C139.534 261.949 140.095 262.044 140.649 262.233C141.203 262.422 141.708 262.73 142.162 263.156C142.617 263.578 142.979 264.136 143.249 264.832C143.519 265.528 143.654 266.385 143.654 267.403V268.114H135.245V266.665H141.949C141.949 266.049 141.826 265.5 141.58 265.017C141.338 264.534 140.993 264.153 140.543 263.874C140.098 263.594 139.572 263.455 138.966 263.455C138.298 263.455 137.721 263.62 137.233 263.952C136.75 264.278 136.379 264.705 136.118 265.23C135.858 265.756 135.727 266.319 135.727 266.92V267.886C135.727 268.71 135.87 269.409 136.154 269.982C136.442 270.55 136.843 270.983 137.354 271.281C137.865 271.575 138.459 271.722 139.137 271.722C139.577 271.722 139.975 271.66 140.33 271.537C140.69 271.409 141 271.22 141.26 270.969C141.521 270.713 141.722 270.396 141.864 270.017L143.483 270.472C143.313 271.021 143.026 271.504 142.624 271.92C142.221 272.332 141.724 272.654 141.132 272.886C140.54 273.114 139.875 273.227 139.137 273.227ZM153.504 266.438V273H151.828V262.091H153.448V263.795H153.59C153.845 263.241 154.234 262.796 154.754 262.46C155.275 262.119 155.948 261.949 156.771 261.949C157.51 261.949 158.156 262.1 158.71 262.403C159.264 262.702 159.695 263.156 160.003 263.767C160.311 264.373 160.465 265.14 160.465 266.068V273H158.789V266.182C158.789 265.325 158.566 264.657 158.121 264.179C157.676 263.696 157.065 263.455 156.289 263.455C155.754 263.455 155.275 263.571 154.854 263.803C154.437 264.035 154.108 264.373 153.867 264.818C153.625 265.263 153.504 265.803 153.504 266.438ZM168.101 273.227C167.05 273.227 166.144 272.995 165.381 272.531C164.624 272.062 164.039 271.409 163.627 270.571C163.22 269.728 163.016 268.748 163.016 267.631C163.016 266.513 163.22 265.528 163.627 264.676C164.039 263.819 164.612 263.152 165.346 262.673C166.084 262.19 166.946 261.949 167.931 261.949C168.499 261.949 169.06 262.044 169.614 262.233C170.168 262.422 170.672 262.73 171.127 263.156C171.582 263.578 171.944 264.136 172.214 264.832C172.483 265.528 172.618 266.385 172.618 267.403V268.114H164.209V266.665H170.914C170.914 266.049 170.791 265.5 170.545 265.017C170.303 264.534 169.957 264.153 169.508 263.874C169.063 263.594 168.537 263.455 167.931 263.455C167.263 263.455 166.686 263.62 166.198 263.952C165.715 264.278 165.343 264.705 165.083 265.23C164.823 265.756 164.692 266.319 164.692 266.92V267.886C164.692 268.71 164.834 269.409 165.118 269.982C165.407 270.55 165.807 270.983 166.319 271.281C166.83 271.575 167.424 271.722 168.101 271.722C168.542 271.722 168.939 271.66 169.295 271.537C169.654 271.409 169.965 271.22 170.225 270.969C170.485 270.713 170.687 270.396 170.829 270.017L172.448 270.472C172.278 271.021 171.991 271.504 171.589 271.92C171.186 272.332 170.689 272.654 170.097 272.886C169.505 273.114 168.84 273.227 168.101 273.227ZM182.043 268.54V262.091H183.719V273H182.043V271.153H181.93C181.674 271.707 181.276 272.179 180.736 272.567C180.197 272.95 179.515 273.142 178.691 273.142C178.009 273.142 177.403 272.993 176.873 272.695C176.342 272.392 175.926 271.937 175.623 271.331C175.32 270.72 175.168 269.951 175.168 269.023V262.091H176.844V268.909C176.844 269.705 177.067 270.339 177.512 270.812C177.962 271.286 178.535 271.523 179.231 271.523C179.647 271.523 180.071 271.416 180.502 271.203C180.938 270.99 181.302 270.663 181.596 270.223C181.894 269.783 182.043 269.222 182.043 268.54ZM186.789 273V262.091H188.409V263.739H188.522C188.721 263.199 189.081 262.761 189.602 262.425C190.123 262.089 190.71 261.92 191.363 261.92C191.486 261.92 191.64 261.923 191.825 261.928C192.009 261.932 192.149 261.939 192.244 261.949V263.653C192.187 263.639 192.057 263.618 191.853 263.589C191.654 263.556 191.444 263.54 191.221 263.54C190.691 263.54 190.217 263.651 189.801 263.874C189.389 264.091 189.062 264.394 188.82 264.783C188.584 265.166 188.465 265.604 188.465 266.097V273H186.789ZM198.33 273.227C197.346 273.227 196.481 272.993 195.738 272.524C194.999 272.055 194.422 271.4 194.005 270.557C193.593 269.714 193.387 268.729 193.387 267.602C193.387 266.466 193.593 265.474 194.005 264.626C194.422 263.779 194.999 263.121 195.738 262.652C196.481 262.183 197.346 261.949 198.33 261.949C199.315 261.949 200.177 262.183 200.916 262.652C201.659 263.121 202.237 263.779 202.649 264.626C203.065 265.474 203.274 266.466 203.274 267.602C203.274 268.729 203.065 269.714 202.649 270.557C202.237 271.4 201.659 272.055 200.916 272.524C200.177 272.993 199.315 273.227 198.33 273.227ZM198.33 271.722C199.079 271.722 199.694 271.53 200.177 271.146C200.66 270.763 201.017 270.259 201.249 269.634C201.481 269.009 201.597 268.331 201.597 267.602C201.597 266.873 201.481 266.194 201.249 265.564C201.017 264.934 200.66 264.425 200.177 264.037C199.694 263.649 199.079 263.455 198.33 263.455C197.582 263.455 196.967 263.649 196.484 264.037C196.001 264.425 195.643 264.934 195.411 265.564C195.179 266.194 195.063 266.873 195.063 267.602C195.063 268.331 195.179 269.009 195.411 269.634C195.643 270.259 196.001 270.763 196.484 271.146C196.967 271.53 197.582 271.722 198.33 271.722ZM210.264 273.227C209.241 273.227 208.361 272.986 207.622 272.503C206.883 272.02 206.315 271.355 205.917 270.507C205.52 269.66 205.321 268.691 205.321 267.602C205.321 266.494 205.524 265.517 205.932 264.669C206.344 263.817 206.916 263.152 207.65 262.673C208.389 262.19 209.251 261.949 210.236 261.949C211.003 261.949 211.694 262.091 212.309 262.375C212.925 262.659 213.429 263.057 213.822 263.568C214.215 264.08 214.459 264.676 214.554 265.358H212.878C212.75 264.861 212.466 264.42 212.025 264.037C211.59 263.649 211.003 263.455 210.264 263.455C209.611 263.455 209.038 263.625 208.545 263.966C208.058 264.302 207.676 264.778 207.402 265.393C207.132 266.004 206.997 266.722 206.997 267.545C206.997 268.388 207.13 269.122 207.395 269.747C207.665 270.372 208.043 270.857 208.531 271.203C209.024 271.549 209.601 271.722 210.264 271.722C210.7 271.722 211.095 271.646 211.45 271.494C211.805 271.343 212.106 271.125 212.352 270.841C212.598 270.557 212.774 270.216 212.878 269.818H214.554C214.459 270.462 214.225 271.042 213.851 271.558C213.481 272.07 212.991 272.477 212.381 272.78C211.774 273.078 211.069 273.227 210.264 273.227ZM217.004 273V262.091H218.68V273H217.004ZM217.856 260.273C217.53 260.273 217.248 260.161 217.011 259.939C216.779 259.716 216.663 259.449 216.663 259.136C216.663 258.824 216.779 258.556 217.011 258.334C217.248 258.111 217.53 258 217.856 258C218.183 258 218.462 258.111 218.694 258.334C218.931 258.556 219.05 258.824 219.05 259.136C219.05 259.449 218.931 259.716 218.694 259.939C218.462 260.161 218.183 260.273 217.856 260.273ZM226.324 273.227C225.273 273.227 224.366 272.995 223.604 272.531C222.846 272.062 222.262 271.409 221.85 270.571C221.442 269.728 221.239 268.748 221.239 267.631C221.239 266.513 221.442 265.528 221.85 264.676C222.262 263.819 222.834 263.152 223.568 262.673C224.307 262.19 225.169 261.949 226.154 261.949C226.722 261.949 227.283 262.044 227.837 262.233C228.391 262.422 228.895 262.73 229.35 263.156C229.804 263.578 230.166 264.136 230.436 264.832C230.706 265.528 230.841 266.385 230.841 267.403V268.114H222.432V266.665H229.137C229.137 266.049 229.013 265.5 228.767 265.017C228.526 264.534 228.18 264.153 227.73 263.874C227.285 263.594 226.76 263.455 226.154 263.455C225.486 263.455 224.908 263.62 224.421 263.952C223.938 264.278 223.566 264.705 223.306 265.23C223.045 265.756 222.915 266.319 222.915 266.92V267.886C222.915 268.71 223.057 269.409 223.341 269.982C223.63 270.55 224.03 270.983 224.541 271.281C225.053 271.575 225.647 271.722 226.324 271.722C226.764 271.722 227.162 271.66 227.517 271.537C227.877 271.409 228.187 271.22 228.448 270.969C228.708 270.713 228.909 270.396 229.051 270.017L230.671 270.472C230.5 271.021 230.214 271.504 229.811 271.92C229.409 272.332 228.912 272.654 228.32 272.886C227.728 273.114 227.063 273.227 226.324 273.227ZM227.546 260.784L226.068 258.795L224.591 260.784H223V260.67L225.301 257.716H226.835L229.137 260.67V260.784H227.546ZM235.067 266.438V273H233.391V262.091H235.01V263.795H235.152C235.408 263.241 235.796 262.796 236.317 262.46C236.838 262.119 237.51 261.949 238.334 261.949C239.073 261.949 239.719 262.1 240.273 262.403C240.827 262.702 241.258 263.156 241.566 263.767C241.873 264.373 242.027 265.14 242.027 266.068V273H240.351V266.182C240.351 265.325 240.129 264.657 239.683 264.179C239.238 263.696 238.628 263.455 237.851 263.455C237.316 263.455 236.838 263.571 236.416 263.803C236 264.035 235.671 264.373 235.429 264.818C235.188 265.263 235.067 265.803 235.067 266.438ZM249.522 273.227C248.499 273.227 247.618 272.986 246.88 272.503C246.141 272.02 245.573 271.355 245.175 270.507C244.778 269.66 244.579 268.691 244.579 267.602C244.579 266.494 244.782 265.517 245.189 264.669C245.601 263.817 246.174 263.152 246.908 262.673C247.647 262.19 248.509 261.949 249.493 261.949C250.26 261.949 250.952 262.091 251.567 262.375C252.183 262.659 252.687 263.057 253.08 263.568C253.473 264.08 253.717 264.676 253.812 265.358H252.135C252.008 264.861 251.724 264.42 251.283 264.037C250.848 263.649 250.26 263.455 249.522 263.455C248.868 263.455 248.296 263.625 247.803 263.966C247.315 264.302 246.934 264.778 246.66 265.393C246.39 266.004 246.255 266.722 246.255 267.545C246.255 268.388 246.387 269.122 246.653 269.747C246.922 270.372 247.301 270.857 247.789 271.203C248.281 271.549 248.859 271.722 249.522 271.722C249.957 271.722 250.353 271.646 250.708 271.494C251.063 271.343 251.364 271.125 251.61 270.841C251.856 270.557 252.031 270.216 252.135 269.818H253.812C253.717 270.462 253.483 271.042 253.108 271.558C252.739 272.07 252.249 272.477 251.638 272.78C251.032 273.078 250.327 273.227 249.522 273.227ZM256.262 273V262.091H257.938V273H256.262ZM257.114 260.273C256.787 260.273 256.506 260.161 256.269 259.939C256.037 259.716 255.921 259.449 255.921 259.136C255.921 258.824 256.037 258.556 256.269 258.334C256.506 258.111 256.787 258 257.114 258C257.441 258 257.72 258.111 257.952 258.334C258.189 258.556 258.307 258.824 258.307 259.136C258.307 259.449 258.189 259.716 257.952 259.939C257.72 260.161 257.441 260.273 257.114 260.273ZM264.218 273.256C263.527 273.256 262.9 273.125 262.336 272.865C261.773 272.6 261.325 272.219 260.994 271.722C260.662 271.22 260.497 270.614 260.497 269.903C260.497 269.278 260.62 268.772 260.866 268.384C261.112 267.991 261.441 267.683 261.853 267.46C262.265 267.238 262.72 267.072 263.217 266.963C263.719 266.849 264.223 266.759 264.73 266.693C265.392 266.608 265.93 266.544 266.342 266.501C266.758 266.454 267.062 266.376 267.251 266.267C267.445 266.158 267.542 265.969 267.542 265.699V265.642C267.542 264.941 267.35 264.397 266.967 264.009C266.588 263.62 266.013 263.426 265.241 263.426C264.441 263.426 263.813 263.601 263.359 263.952C262.904 264.302 262.585 264.676 262.4 265.074L260.809 264.506C261.093 263.843 261.472 263.327 261.945 262.957C262.424 262.583 262.945 262.323 263.508 262.176C264.076 262.025 264.635 261.949 265.184 261.949C265.535 261.949 265.937 261.991 266.392 262.077C266.851 262.157 267.294 262.325 267.72 262.581C268.151 262.837 268.508 263.223 268.792 263.739C269.076 264.255 269.218 264.946 269.218 265.812V273H267.542V271.523H267.457C267.343 271.759 267.154 272.013 266.889 272.283C266.624 272.553 266.271 272.782 265.83 272.972C265.39 273.161 264.853 273.256 264.218 273.256ZM264.474 271.75C265.137 271.75 265.695 271.62 266.15 271.359C266.609 271.099 266.955 270.763 267.187 270.351C267.424 269.939 267.542 269.506 267.542 269.051V267.517C267.471 267.602 267.315 267.68 267.073 267.751C266.837 267.818 266.562 267.877 266.249 267.929C265.942 267.976 265.641 268.019 265.347 268.057C265.059 268.09 264.824 268.118 264.644 268.142C264.209 268.199 263.802 268.291 263.423 268.419C263.049 268.542 262.746 268.729 262.514 268.98C262.286 269.226 262.173 269.562 262.173 269.989C262.173 270.571 262.388 271.011 262.819 271.31C263.255 271.603 263.806 271.75 264.474 271.75Z" fill="#3D3D3D"/>
</svg>