<svg width="299" height="314" viewBox="0 0 299 314" fill="none" xmlns="http://www.w3.org/2000/svg">
<path d="M1.74469 14C1.74469 6.8203 7.56499 1 14.7447 1H284.617C291.797 1 297.617 6.8203 297.617 14V274C297.617 295.539 280.156 313 258.617 313H1.74469V14Z" fill="#F5F5FF" fill-opacity="0.51" stroke="#333399" stroke-width="2"/>
<path d="M143.2 99.1741V28.4682C141.564 27.6515 139.778 27.1808 137.953 27.0855C136.127 26.9903 134.302 27.2725 132.59 27.9146C130.878 28.5567 129.317 29.5449 128.005 30.8174C126.692 32.0899 125.655 33.6195 124.96 35.3107C122.128 36.4029 119.755 38.4311 118.234 41.0588C116.713 43.6864 116.137 46.7553 116.6 49.756L113.94 53.9375L113.56 55.4581L113.18 56.5985C112.768 58.4769 112.768 60.4222 113.18 62.3006C110.513 65.0526 109.015 68.7312 109 72.5644V75.9856L109.76 78.2665C110.603 80.3077 111.903 82.1284 113.56 83.5884C114.256 84.2949 115.02 84.9315 115.84 85.4891V85.8693C115.828 89.209 117.071 92.4311 119.324 94.8959C121.577 97.3607 124.674 98.8879 128 99.1741C130.055 101.248 132.751 102.564 135.649 102.909C138.547 103.254 141.476 102.608 143.96 101.075C143.538 100.523 143.275 99.8653 143.2 99.1741ZM185 69.9034V69.5233C184.482 66.6791 183.163 64.0418 181.2 61.9205C181.502 59.7368 181.24 57.5121 180.44 55.4581V53.5574C179.3 52.0368 178.54 50.5163 177.4 49.756C177.706 48.0399 177.662 46.2796 177.27 44.5811C176.878 42.8826 176.147 41.2809 175.12 39.8724C173.56 37.722 171.463 36.0181 169.04 34.9306C168.308 33.2724 167.245 31.7813 165.917 30.5488C164.588 29.3164 163.021 28.3685 161.313 27.7633C159.605 27.1582 157.792 26.9086 155.984 27.0298C154.176 27.151 152.412 27.6405 150.8 28.4682V99.1741C150.8 99.9344 150.8 100.695 150.04 101.075C152.524 102.608 155.453 103.254 158.351 102.909C161.249 102.564 163.945 101.248 166 99.1741C169.189 98.7139 172.102 97.1114 174.199 94.6643C176.296 92.2173 177.433 89.092 177.4 85.8693C178.336 85.3075 179.225 84.6719 180.06 83.9686C181.098 82.9544 181.993 81.8034 182.72 80.5473L183.86 78.6466L184.62 75.9856V75.2253C184.933 73.4652 184.933 71.6636 184.62 69.9034H185Z" fill="#333399"/>
<path d="M123.141 142.565C123.072 141.878 122.78 141.344 122.263 140.963C121.746 140.582 121.044 140.392 120.158 140.392C119.555 140.392 119.047 140.477 118.632 140.648C118.217 140.812 117.899 141.043 117.678 141.338C117.462 141.634 117.354 141.969 117.354 142.344C117.342 142.656 117.408 142.929 117.55 143.162C117.697 143.395 117.899 143.597 118.155 143.767C118.411 143.932 118.706 144.077 119.041 144.202C119.376 144.321 119.734 144.423 120.115 144.509L121.683 144.884C122.445 145.054 123.143 145.281 123.78 145.565C124.416 145.849 124.967 146.199 125.433 146.614C125.899 147.028 126.26 147.517 126.516 148.08C126.777 148.642 126.911 149.287 126.916 150.014C126.911 151.082 126.638 152.009 126.098 152.793C125.564 153.571 124.791 154.176 123.78 154.608C122.774 155.034 121.561 155.247 120.141 155.247C118.732 155.247 117.504 155.031 116.459 154.599C115.419 154.168 114.607 153.528 114.021 152.682C113.442 151.83 113.138 150.776 113.109 149.52H116.68C116.72 150.105 116.888 150.594 117.183 150.986C117.484 151.372 117.885 151.665 118.385 151.864C118.891 152.057 119.462 152.153 120.098 152.153C120.723 152.153 121.266 152.062 121.726 151.881C122.192 151.699 122.553 151.446 122.808 151.122C123.064 150.798 123.192 150.426 123.192 150.006C123.192 149.614 123.075 149.284 122.842 149.017C122.615 148.75 122.28 148.523 121.837 148.335C121.399 148.148 120.862 147.977 120.226 147.824L118.325 147.347C116.854 146.989 115.692 146.429 114.84 145.668C113.987 144.906 113.564 143.881 113.57 142.591C113.564 141.534 113.845 140.611 114.413 139.821C114.987 139.031 115.774 138.415 116.774 137.972C117.774 137.528 118.911 137.307 120.183 137.307C121.479 137.307 122.609 137.528 123.575 137.972C124.547 138.415 125.303 139.031 125.842 139.821C126.382 140.611 126.661 141.526 126.678 142.565H123.141ZM133.063 155.247C132.228 155.247 131.484 155.102 130.83 154.812C130.177 154.517 129.66 154.082 129.279 153.509C128.904 152.929 128.717 152.207 128.717 151.344C128.717 150.616 128.85 150.006 129.117 149.511C129.384 149.017 129.748 148.619 130.208 148.318C130.668 148.017 131.191 147.79 131.776 147.636C132.367 147.483 132.987 147.375 133.634 147.312C134.396 147.233 135.009 147.159 135.475 147.091C135.941 147.017 136.279 146.909 136.489 146.767C136.7 146.625 136.805 146.415 136.805 146.136V146.085C136.805 145.545 136.634 145.128 136.293 144.832C135.958 144.537 135.481 144.389 134.862 144.389C134.208 144.389 133.688 144.534 133.302 144.824C132.915 145.108 132.66 145.466 132.535 145.898L129.177 145.625C129.347 144.83 129.683 144.142 130.183 143.562C130.683 142.977 131.327 142.528 132.117 142.216C132.913 141.898 133.833 141.739 134.879 141.739C135.606 141.739 136.302 141.824 136.967 141.994C137.637 142.165 138.231 142.429 138.748 142.787C139.271 143.145 139.683 143.605 139.984 144.168C140.285 144.724 140.435 145.392 140.435 146.17V155H136.992V153.185H136.89C136.68 153.594 136.398 153.955 136.046 154.267C135.694 154.574 135.271 154.815 134.776 154.991C134.282 155.162 133.711 155.247 133.063 155.247ZM134.103 152.741C134.637 152.741 135.109 152.636 135.518 152.426C135.927 152.21 136.248 151.92 136.481 151.557C136.714 151.193 136.83 150.781 136.83 150.321V148.932C136.717 149.006 136.56 149.074 136.362 149.136C136.168 149.193 135.95 149.247 135.705 149.298C135.461 149.344 135.217 149.386 134.972 149.426C134.728 149.46 134.506 149.491 134.308 149.52C133.881 149.582 133.509 149.682 133.191 149.818C132.873 149.955 132.626 150.139 132.45 150.372C132.273 150.599 132.185 150.884 132.185 151.224C132.185 151.719 132.364 152.097 132.722 152.358C133.086 152.614 133.546 152.741 134.103 152.741ZM151.647 149.426V141.909H155.278V155H151.792V152.622H151.656C151.36 153.389 150.869 154.006 150.181 154.472C149.499 154.937 148.667 155.17 147.684 155.17C146.809 155.17 146.039 154.972 145.374 154.574C144.71 154.176 144.19 153.611 143.815 152.878C143.445 152.145 143.258 151.267 143.252 150.244V141.909H146.883V149.597C146.889 150.369 147.096 150.98 147.505 151.429C147.914 151.878 148.462 152.102 149.15 152.102C149.587 152.102 149.996 152.003 150.377 151.804C150.758 151.599 151.065 151.298 151.298 150.901C151.536 150.503 151.653 150.011 151.647 149.426ZM147.974 140.222L149.781 136.344H153.139L150.539 140.222H147.974ZM163.006 155.213C162.011 155.213 161.111 154.957 160.304 154.446C159.503 153.929 158.866 153.17 158.395 152.17C157.929 151.165 157.696 149.932 157.696 148.472C157.696 146.972 157.938 145.724 158.42 144.73C158.903 143.73 159.545 142.983 160.347 142.489C161.153 141.989 162.037 141.739 162.997 141.739C163.73 141.739 164.341 141.864 164.83 142.114C165.324 142.358 165.722 142.665 166.023 143.034C166.33 143.398 166.563 143.756 166.722 144.108H166.832V137.545H170.455V155H166.875V152.903H166.722C166.551 153.267 166.31 153.628 165.997 153.986C165.69 154.338 165.29 154.631 164.795 154.864C164.307 155.097 163.71 155.213 163.006 155.213ZM164.156 152.324C164.741 152.324 165.236 152.165 165.639 151.847C166.048 151.523 166.361 151.071 166.577 150.491C166.798 149.912 166.909 149.233 166.909 148.455C166.909 147.676 166.801 147 166.585 146.426C166.369 145.852 166.057 145.409 165.648 145.097C165.239 144.784 164.741 144.628 164.156 144.628C163.56 144.628 163.057 144.79 162.648 145.114C162.239 145.437 161.929 145.886 161.719 146.46C161.509 147.034 161.403 147.699 161.403 148.455C161.403 149.216 161.509 149.889 161.719 150.474C161.935 151.054 162.244 151.509 162.648 151.838C163.057 152.162 163.56 152.324 164.156 152.324ZM179.406 155.256C178.059 155.256 176.9 154.983 175.928 154.438C174.962 153.886 174.218 153.108 173.695 152.102C173.173 151.091 172.911 149.895 172.911 148.514C172.911 147.168 173.173 145.986 173.695 144.969C174.218 143.952 174.954 143.159 175.903 142.591C176.857 142.023 177.977 141.739 179.261 141.739C180.124 141.739 180.928 141.878 181.673 142.156C182.423 142.429 183.076 142.841 183.633 143.392C184.195 143.943 184.633 144.636 184.945 145.472C185.258 146.301 185.414 147.273 185.414 148.386V149.384H174.36V147.134H181.996C181.996 146.611 181.883 146.148 181.656 145.744C181.428 145.341 181.113 145.026 180.71 144.798C180.312 144.565 179.849 144.449 179.32 144.449C178.769 144.449 178.281 144.577 177.854 144.832C177.434 145.082 177.104 145.42 176.866 145.847C176.627 146.267 176.505 146.736 176.499 147.253V149.392C176.499 150.04 176.619 150.599 176.857 151.071C177.102 151.543 177.445 151.906 177.889 152.162C178.332 152.418 178.857 152.545 179.465 152.545C179.869 152.545 180.238 152.489 180.573 152.375C180.908 152.261 181.195 152.091 181.434 151.864C181.673 151.636 181.854 151.358 181.979 151.028L185.337 151.25C185.167 152.057 184.817 152.761 184.289 153.364C183.766 153.96 183.09 154.426 182.261 154.761C181.437 155.091 180.485 155.256 179.406 155.256ZM95.9872 166.545V184H92.2969V166.545H95.9872ZM102.586 176.432V184H98.9553V170.909H102.415V173.219H102.569C102.859 172.457 103.344 171.855 104.026 171.412C104.708 170.963 105.535 170.739 106.506 170.739C107.415 170.739 108.208 170.938 108.884 171.335C109.56 171.733 110.086 172.301 110.461 173.04C110.836 173.773 111.023 174.648 111.023 175.665V184H107.393V176.312C107.398 175.511 107.194 174.886 106.779 174.438C106.364 173.983 105.793 173.756 105.066 173.756C104.577 173.756 104.146 173.861 103.771 174.071C103.401 174.281 103.112 174.588 102.901 174.991C102.697 175.389 102.592 175.869 102.586 176.432ZM119.8 184.256C118.476 184.256 117.331 183.974 116.365 183.412C115.405 182.844 114.663 182.054 114.141 181.043C113.618 180.026 113.357 178.847 113.357 177.506C113.357 176.153 113.618 174.972 114.141 173.96C114.663 172.943 115.405 172.153 116.365 171.591C117.331 171.023 118.476 170.739 119.8 170.739C121.124 170.739 122.266 171.023 123.226 171.591C124.192 172.153 124.936 172.943 125.459 173.96C125.982 174.972 126.243 176.153 126.243 177.506C126.243 178.847 125.982 180.026 125.459 181.043C124.936 182.054 124.192 182.844 123.226 183.412C122.266 183.974 121.124 184.256 119.8 184.256ZM119.817 181.443C120.419 181.443 120.922 181.273 121.325 180.932C121.729 180.585 122.033 180.114 122.237 179.517C122.447 178.92 122.553 178.241 122.553 177.48C122.553 176.719 122.447 176.04 122.237 175.443C122.033 174.847 121.729 174.375 121.325 174.028C120.922 173.682 120.419 173.509 119.817 173.509C119.209 173.509 118.697 173.682 118.283 174.028C117.874 174.375 117.564 174.847 117.354 175.443C117.149 176.04 117.047 176.719 117.047 177.48C117.047 178.241 117.149 178.92 117.354 179.517C117.564 180.114 117.874 180.585 118.283 180.932C118.697 181.273 119.209 181.443 119.817 181.443ZM140.386 170.909L135.81 184H131.719L127.142 170.909H130.977L133.696 180.276H133.832L136.543 170.909H140.386ZM145.626 184.247C144.79 184.247 144.046 184.102 143.393 183.812C142.739 183.517 142.222 183.082 141.842 182.509C141.467 181.929 141.279 181.207 141.279 180.344C141.279 179.616 141.413 179.006 141.68 178.511C141.947 178.017 142.31 177.619 142.771 177.318C143.231 177.017 143.754 176.79 144.339 176.636C144.93 176.483 145.549 176.375 146.197 176.312C146.958 176.233 147.572 176.159 148.038 176.091C148.504 176.017 148.842 175.909 149.052 175.767C149.262 175.625 149.367 175.415 149.367 175.136V175.085C149.367 174.545 149.197 174.128 148.856 173.832C148.521 173.537 148.043 173.389 147.424 173.389C146.771 173.389 146.251 173.534 145.864 173.824C145.478 174.108 145.222 174.466 145.097 174.898L141.739 174.625C141.91 173.83 142.245 173.142 142.745 172.562C143.245 171.977 143.89 171.528 144.68 171.216C145.475 170.898 146.396 170.739 147.441 170.739C148.168 170.739 148.864 170.824 149.529 170.994C150.2 171.165 150.793 171.429 151.31 171.787C151.833 172.145 152.245 172.605 152.546 173.168C152.847 173.724 152.998 174.392 152.998 175.17V184H149.555V182.185H149.452C149.242 182.594 148.961 182.955 148.609 183.267C148.256 183.574 147.833 183.815 147.339 183.991C146.844 184.162 146.273 184.247 145.626 184.247ZM146.665 181.741C147.2 181.741 147.671 181.636 148.08 181.426C148.489 181.21 148.81 180.92 149.043 180.557C149.276 180.193 149.393 179.781 149.393 179.321V177.932C149.279 178.006 149.123 178.074 148.924 178.136C148.731 178.193 148.512 178.247 148.268 178.298C148.023 178.344 147.779 178.386 147.535 178.426C147.29 178.46 147.069 178.491 146.87 178.52C146.444 178.582 146.072 178.682 145.754 178.818C145.435 178.955 145.188 179.139 145.012 179.372C144.836 179.599 144.748 179.884 144.748 180.224C144.748 180.719 144.927 181.097 145.285 181.358C145.648 181.614 146.109 181.741 146.665 181.741ZM160.639 184.213C159.644 184.213 158.744 183.957 157.937 183.446C157.136 182.929 156.499 182.17 156.028 181.17C155.562 180.165 155.329 178.932 155.329 177.472C155.329 175.972 155.57 174.724 156.053 173.73C156.536 172.73 157.178 171.983 157.979 171.489C158.786 170.989 159.67 170.739 160.63 170.739C161.363 170.739 161.974 170.864 162.462 171.114C162.957 171.358 163.354 171.665 163.656 172.034C163.962 172.398 164.195 172.756 164.354 173.108H164.465V166.545H168.087V184H164.508V181.903H164.354C164.184 182.267 163.942 182.628 163.63 182.986C163.323 183.338 162.923 183.631 162.428 183.864C161.94 184.097 161.343 184.213 160.639 184.213ZM161.789 181.324C162.374 181.324 162.869 181.165 163.272 180.847C163.681 180.523 163.994 180.071 164.21 179.491C164.431 178.912 164.542 178.233 164.542 177.455C164.542 176.676 164.434 176 164.218 175.426C164.002 174.852 163.69 174.409 163.281 174.097C162.871 173.784 162.374 173.628 161.789 173.628C161.192 173.628 160.69 173.79 160.281 174.114C159.871 174.437 159.562 174.886 159.352 175.46C159.141 176.034 159.036 176.699 159.036 177.455C159.036 178.216 159.141 178.889 159.352 179.474C159.567 180.054 159.877 180.509 160.281 180.838C160.69 181.162 161.192 181.324 161.789 181.324ZM176.987 184.256C175.663 184.256 174.518 183.974 173.553 183.412C172.592 182.844 171.851 182.054 171.328 181.043C170.805 180.026 170.544 178.847 170.544 177.506C170.544 176.153 170.805 174.972 171.328 173.96C171.851 172.943 172.592 172.153 173.553 171.591C174.518 171.023 175.663 170.739 176.987 170.739C178.311 170.739 179.453 171.023 180.413 171.591C181.379 172.153 182.124 172.943 182.646 173.96C183.169 174.972 183.43 176.153 183.43 177.506C183.43 178.847 183.169 180.026 182.646 181.043C182.124 182.054 181.379 182.844 180.413 183.412C179.453 183.974 178.311 184.256 176.987 184.256ZM177.004 181.443C177.607 181.443 178.109 181.273 178.513 180.932C178.916 180.585 179.22 180.114 179.425 179.517C179.635 178.92 179.74 178.241 179.74 177.48C179.74 176.719 179.635 176.04 179.425 175.443C179.22 174.847 178.916 174.375 178.513 174.028C178.109 173.682 177.607 173.509 177.004 173.509C176.396 173.509 175.885 173.682 175.47 174.028C175.061 174.375 174.751 174.847 174.541 175.443C174.337 176.04 174.234 176.719 174.234 177.48C174.234 178.241 174.337 178.92 174.541 179.517C174.751 180.114 175.061 180.585 175.47 180.932C175.885 181.273 176.396 181.443 177.004 181.443ZM185.791 184V170.909H189.311V173.193H189.447C189.686 172.381 190.087 171.767 190.649 171.352C191.212 170.932 191.859 170.722 192.592 170.722C192.774 170.722 192.97 170.733 193.18 170.756C193.391 170.778 193.575 170.81 193.734 170.849V174.071C193.564 174.02 193.328 173.974 193.027 173.935C192.726 173.895 192.45 173.875 192.2 173.875C191.666 173.875 191.189 173.991 190.768 174.224C190.354 174.452 190.024 174.77 189.78 175.179C189.541 175.588 189.422 176.06 189.422 176.594V184H185.791ZM198.969 184.247C198.134 184.247 197.39 184.102 196.737 183.812C196.083 183.517 195.566 183.082 195.185 182.509C194.81 181.929 194.623 181.207 194.623 180.344C194.623 179.616 194.756 179.006 195.023 178.511C195.29 178.017 195.654 177.619 196.114 177.318C196.575 177.017 197.097 176.79 197.683 176.636C198.273 176.483 198.893 176.375 199.54 176.312C200.302 176.233 200.915 176.159 201.381 176.091C201.847 176.017 202.185 175.909 202.396 175.767C202.606 175.625 202.711 175.415 202.711 175.136V175.085C202.711 174.545 202.54 174.128 202.2 173.832C201.864 173.537 201.387 173.389 200.768 173.389C200.114 173.389 199.594 173.534 199.208 173.824C198.822 174.108 198.566 174.466 198.441 174.898L195.083 174.625C195.254 173.83 195.589 173.142 196.089 172.562C196.589 171.977 197.234 171.528 198.023 171.216C198.819 170.898 199.739 170.739 200.785 170.739C201.512 170.739 202.208 170.824 202.873 170.994C203.543 171.165 204.137 171.429 204.654 171.787C205.177 172.145 205.589 172.605 205.89 173.168C206.191 173.724 206.342 174.392 206.342 175.17V184H202.898V182.185H202.796C202.586 182.594 202.305 182.955 201.952 183.267C201.6 183.574 201.177 183.815 200.683 183.991C200.188 184.162 199.617 184.247 198.969 184.247ZM200.009 181.741C200.543 181.741 201.015 181.636 201.424 181.426C201.833 181.21 202.154 180.92 202.387 180.557C202.62 180.193 202.737 179.781 202.737 179.321V177.932C202.623 178.006 202.467 178.074 202.268 178.136C202.075 178.193 201.856 178.247 201.612 178.298C201.367 178.344 201.123 178.386 200.879 178.426C200.634 178.46 200.413 178.491 200.214 178.52C199.788 178.582 199.415 178.682 199.097 178.818C198.779 178.955 198.532 179.139 198.356 179.372C198.18 179.599 198.092 179.884 198.092 180.224C198.092 180.719 198.271 181.097 198.629 181.358C198.992 181.614 199.452 181.741 200.009 181.741Z" fill="#333399"/>
<path d="M58.7443 225V210.455H60.5057V216.932H68.2614V210.455H70.0227V225H68.2614V218.494H60.5057V225H58.7443ZM77.7536 225.227C76.7687 225.227 75.9046 224.993 75.1612 224.524C74.4226 224.055 73.845 223.4 73.4283 222.557C73.0164 221.714 72.8104 220.729 72.8104 219.602C72.8104 218.466 73.0164 217.474 73.4283 216.626C73.845 215.779 74.4226 215.121 75.1612 214.652C75.9046 214.183 76.7687 213.949 77.7536 213.949C78.7384 213.949 79.6002 214.183 80.3388 214.652C81.0822 215.121 81.6598 215.779 82.0717 216.626C82.4884 217.474 82.6967 218.466 82.6967 219.602C82.6967 220.729 82.4884 221.714 82.0717 222.557C81.6598 223.4 81.0822 224.055 80.3388 224.524C79.6002 224.993 78.7384 225.227 77.7536 225.227ZM77.7536 223.722C78.5017 223.722 79.1172 223.53 79.6002 223.146C80.0831 222.763 80.4406 222.259 80.6726 221.634C80.9046 221.009 81.0206 220.331 81.0206 219.602C81.0206 218.873 80.9046 218.194 80.6726 217.564C80.4406 216.934 80.0831 216.425 79.6002 216.037C79.1172 215.649 78.5017 215.455 77.7536 215.455C77.0055 215.455 76.3899 215.649 75.907 216.037C75.424 216.425 75.0665 216.934 74.8345 217.564C74.6025 218.194 74.4865 218.873 74.4865 219.602C74.4865 220.331 74.6025 221.009 74.8345 221.634C75.0665 222.259 75.424 222.763 75.907 223.146C76.3899 223.53 77.0055 223.722 77.7536 223.722ZM92.9826 216.534L91.4769 216.96C91.3822 216.709 91.2426 216.465 91.0579 216.229C90.878 215.987 90.6318 215.788 90.3193 215.632C90.0068 215.476 89.6067 215.398 89.119 215.398C88.4514 215.398 87.895 215.552 87.4499 215.859C87.0096 216.162 86.7894 216.548 86.7894 217.017C86.7894 217.434 86.9409 217.763 87.244 218.004C87.547 218.246 88.0205 218.447 88.6644 218.608L90.2838 219.006C91.2591 219.242 91.9859 219.605 92.4642 220.092C92.9424 220.575 93.1815 221.198 93.1815 221.96C93.1815 222.585 93.0016 223.144 92.6417 223.636C92.2866 224.129 91.7894 224.517 91.1502 224.801C90.511 225.085 89.7677 225.227 88.9201 225.227C87.8074 225.227 86.8865 224.986 86.1573 224.503C85.4282 224.02 84.9665 223.314 84.7724 222.386L86.3633 221.989C86.5148 222.576 86.8013 223.016 87.2227 223.31C87.6488 223.603 88.2052 223.75 88.8917 223.75C89.673 223.75 90.2932 223.584 90.7525 223.253C91.2165 222.917 91.4485 222.514 91.4485 222.045C91.4485 221.667 91.3159 221.349 91.0508 221.094C90.7856 220.833 90.3784 220.639 89.8292 220.511L88.011 220.085C87.012 219.848 86.2781 219.482 85.8093 218.984C85.3453 218.482 85.1133 217.855 85.1133 217.102C85.1133 216.487 85.2861 215.942 85.6318 215.469C85.9821 214.995 86.458 214.624 87.0593 214.354C87.6654 214.084 88.3519 213.949 89.119 213.949C90.1985 213.949 91.0461 214.186 91.6616 214.659C92.2819 215.133 92.7222 215.758 92.9826 216.534ZM95.7046 229.091V214.091H97.3239V215.824H97.5227C97.6459 215.634 97.8163 215.393 98.0341 215.099C98.2566 214.801 98.5739 214.536 98.9858 214.304C99.4025 214.067 99.9659 213.949 100.676 213.949C101.595 213.949 102.404 214.179 103.105 214.638C103.806 215.097 104.353 215.748 104.746 216.591C105.139 217.434 105.335 218.428 105.335 219.574C105.335 220.729 105.139 221.731 104.746 222.578C104.353 223.421 103.808 224.074 103.112 224.538C102.416 224.998 101.614 225.227 100.705 225.227C100.004 225.227 99.4427 225.111 99.0213 224.879C98.5999 224.643 98.2756 224.375 98.0483 224.077C97.821 223.774 97.6459 223.523 97.5227 223.324H97.3807V229.091H95.7046ZM97.3523 219.545C97.3523 220.369 97.473 221.096 97.7145 221.726C97.956 222.351 98.3087 222.841 98.7727 223.196C99.2368 223.546 99.8049 223.722 100.477 223.722C101.178 223.722 101.763 223.537 102.232 223.168C102.705 222.794 103.06 222.292 103.297 221.662C103.538 221.027 103.659 220.322 103.659 219.545C103.659 218.778 103.541 218.087 103.304 217.472C103.072 216.851 102.719 216.361 102.246 216.001C101.777 215.637 101.188 215.455 100.477 215.455C99.7955 215.455 99.2226 215.627 98.7585 215.973C98.2945 216.314 97.9441 216.792 97.7074 217.408C97.4707 218.018 97.3523 218.731 97.3523 219.545ZM107.892 225V214.091H109.568V225H107.892ZM108.744 212.273C108.418 212.273 108.136 212.161 107.899 211.939C107.667 211.716 107.551 211.449 107.551 211.136C107.551 210.824 107.667 210.556 107.899 210.334C108.136 210.111 108.418 210 108.744 210C109.071 210 109.35 210.111 109.582 210.334C109.819 210.556 109.938 210.824 109.938 211.136C109.938 211.449 109.819 211.716 109.582 211.939C109.35 212.161 109.071 212.273 108.744 212.273ZM117.382 214.091V215.511H111.729V214.091H117.382ZM113.377 211.477H115.053V221.875C115.053 222.348 115.122 222.704 115.259 222.94C115.401 223.172 115.581 223.329 115.799 223.409C116.021 223.485 116.256 223.523 116.502 223.523C116.686 223.523 116.838 223.513 116.956 223.494C117.075 223.471 117.169 223.452 117.24 223.438L117.581 224.943C117.468 224.986 117.309 225.028 117.105 225.071C116.902 225.118 116.644 225.142 116.331 225.142C115.858 225.142 115.394 225.04 114.939 224.837C114.489 224.633 114.115 224.323 113.817 223.906C113.524 223.49 113.377 222.964 113.377 222.33V211.477ZM123.114 225.256C122.423 225.256 121.795 225.125 121.232 224.865C120.668 224.6 120.221 224.219 119.89 223.722C119.558 223.22 119.392 222.614 119.392 221.903C119.392 221.278 119.516 220.772 119.762 220.384C120.008 219.991 120.337 219.683 120.749 219.46C121.161 219.238 121.615 219.072 122.113 218.963C122.614 218.849 123.119 218.759 123.625 218.693C124.288 218.608 124.826 218.544 125.238 218.501C125.654 218.454 125.957 218.376 126.147 218.267C126.341 218.158 126.438 217.969 126.438 217.699V217.642C126.438 216.941 126.246 216.397 125.863 216.009C125.484 215.62 124.909 215.426 124.137 215.426C123.337 215.426 122.709 215.601 122.255 215.952C121.8 216.302 121.48 216.676 121.296 217.074L119.705 216.506C119.989 215.843 120.368 215.327 120.841 214.957C121.32 214.583 121.84 214.323 122.404 214.176C122.972 214.025 123.531 213.949 124.08 213.949C124.43 213.949 124.833 213.991 125.287 214.077C125.747 214.157 126.189 214.325 126.615 214.581C127.046 214.837 127.404 215.223 127.688 215.739C127.972 216.255 128.114 216.946 128.114 217.812V225H126.438V223.523H126.353C126.239 223.759 126.05 224.013 125.784 224.283C125.519 224.553 125.167 224.782 124.726 224.972C124.286 225.161 123.748 225.256 123.114 225.256ZM123.37 223.75C124.033 223.75 124.591 223.62 125.046 223.359C125.505 223.099 125.851 222.763 126.083 222.351C126.32 221.939 126.438 221.506 126.438 221.051V219.517C126.367 219.602 126.211 219.68 125.969 219.751C125.732 219.818 125.458 219.877 125.145 219.929C124.837 219.976 124.537 220.019 124.243 220.057C123.954 220.09 123.72 220.118 123.54 220.142C123.105 220.199 122.697 220.291 122.319 220.419C121.945 220.542 121.641 220.729 121.409 220.98C121.182 221.226 121.069 221.562 121.069 221.989C121.069 222.571 121.284 223.011 121.715 223.31C122.15 223.603 122.702 223.75 123.37 223.75ZM132.849 210.455V225H131.173V210.455H132.849ZM145.664 225.227C144.755 225.227 143.952 224.998 143.256 224.538C142.56 224.074 142.016 223.421 141.623 222.578C141.23 221.731 141.033 220.729 141.033 219.574C141.033 218.428 141.23 217.434 141.623 216.591C142.016 215.748 142.562 215.097 143.263 214.638C143.964 214.179 144.774 213.949 145.692 213.949C146.402 213.949 146.963 214.067 147.375 214.304C147.792 214.536 148.109 214.801 148.327 215.099C148.55 215.393 148.722 215.634 148.846 215.824H148.988V210.455H150.664V225H149.044V223.324H148.846C148.722 223.523 148.547 223.774 148.32 224.077C148.093 224.375 147.768 224.643 147.347 224.879C146.926 225.111 146.364 225.227 145.664 225.227ZM145.891 223.722C146.563 223.722 147.132 223.546 147.596 223.196C148.06 222.841 148.412 222.351 148.654 221.726C148.895 221.096 149.016 220.369 149.016 219.545C149.016 218.731 148.898 218.018 148.661 217.408C148.424 216.792 148.074 216.314 147.61 215.973C147.146 215.627 146.573 215.455 145.891 215.455C145.181 215.455 144.589 215.637 144.115 216.001C143.647 216.361 143.294 216.851 143.057 217.472C142.825 218.087 142.709 218.778 142.709 219.545C142.709 220.322 142.828 221.027 143.064 221.662C143.306 222.292 143.661 222.794 144.13 223.168C144.603 223.537 145.19 223.722 145.891 223.722ZM153.966 225V214.091H155.642V225H153.966ZM154.819 212.273C154.492 212.273 154.21 212.161 153.973 211.939C153.741 211.716 153.625 211.449 153.625 211.136C153.625 210.824 153.741 210.556 153.973 210.334C154.21 210.111 154.492 210 154.819 210C155.145 210 155.425 210.111 155.657 210.334C155.893 210.556 156.012 210.824 156.012 211.136C156.012 211.449 155.893 211.716 155.657 211.939C155.425 212.161 155.145 212.273 154.819 212.273ZM163.116 229.318C162.306 229.318 161.61 229.214 161.028 229.006C160.445 228.802 159.96 228.532 159.572 228.196C159.188 227.865 158.883 227.509 158.656 227.131L159.991 226.193C160.142 226.392 160.334 226.619 160.566 226.875C160.798 227.135 161.115 227.36 161.518 227.55C161.925 227.744 162.458 227.841 163.116 227.841C163.996 227.841 164.723 227.628 165.296 227.202C165.869 226.776 166.156 226.108 166.156 225.199V222.983H166.014C165.89 223.182 165.715 223.428 165.488 223.722C165.265 224.01 164.943 224.268 164.522 224.496C164.105 224.718 163.542 224.83 162.832 224.83C161.951 224.83 161.16 224.621 160.46 224.205C159.764 223.788 159.212 223.182 158.805 222.386C158.402 221.591 158.201 220.625 158.201 219.489C158.201 218.371 158.398 217.398 158.79 216.57C159.183 215.736 159.73 215.092 160.431 214.638C161.132 214.179 161.942 213.949 162.86 213.949C163.57 213.949 164.134 214.067 164.55 214.304C164.972 214.536 165.294 214.801 165.516 215.099C165.744 215.393 165.919 215.634 166.042 215.824H166.212V214.091H167.832V225.312C167.832 226.25 167.619 227.012 167.192 227.599C166.771 228.191 166.203 228.625 165.488 228.899C164.778 229.179 163.987 229.318 163.116 229.318ZM163.059 223.324C163.731 223.324 164.299 223.17 164.764 222.862C165.228 222.554 165.58 222.112 165.822 221.534C166.063 220.956 166.184 220.265 166.184 219.46C166.184 218.674 166.066 217.981 165.829 217.379C165.592 216.778 165.242 216.307 164.778 215.966C164.314 215.625 163.741 215.455 163.059 215.455C162.349 215.455 161.757 215.634 161.283 215.994C160.815 216.354 160.462 216.837 160.225 217.443C159.993 218.049 159.877 218.722 159.877 219.46C159.877 220.218 159.996 220.888 160.232 221.47C160.474 222.048 160.829 222.502 161.298 222.834C161.771 223.161 162.358 223.324 163.059 223.324ZM170.9 225V214.091H172.576V225H170.9ZM171.752 212.273C171.425 212.273 171.144 212.161 170.907 211.939C170.675 211.716 170.559 211.449 170.559 211.136C170.559 210.824 170.675 210.556 170.907 210.334C171.144 210.111 171.425 210 171.752 210C172.079 210 172.358 210.111 172.59 210.334C172.827 210.556 172.945 210.824 172.945 211.136C172.945 211.449 172.827 211.716 172.59 211.939C172.358 212.161 172.079 212.273 171.752 212.273ZM180.39 214.091V215.511H174.737V214.091H180.39ZM176.385 211.477H178.061V221.875C178.061 222.348 178.129 222.704 178.267 222.94C178.409 223.172 178.589 223.329 178.806 223.409C179.029 223.485 179.263 223.523 179.51 223.523C179.694 223.523 179.846 223.513 179.964 223.494C180.083 223.471 180.177 223.452 180.248 223.438L180.589 224.943C180.476 224.986 180.317 225.028 180.113 225.071C179.91 225.118 179.652 225.142 179.339 225.142C178.866 225.142 178.402 225.04 177.947 224.837C177.497 224.633 177.123 224.323 176.825 223.906C176.531 223.49 176.385 222.964 176.385 222.33V211.477ZM186.122 225.256C185.431 225.256 184.803 225.125 184.24 224.865C183.676 224.6 183.229 224.219 182.897 223.722C182.566 223.22 182.4 222.614 182.4 221.903C182.4 221.278 182.523 220.772 182.77 220.384C183.016 219.991 183.345 219.683 183.757 219.46C184.169 219.238 184.623 219.072 185.12 218.963C185.622 218.849 186.127 218.759 186.633 218.693C187.296 218.608 187.833 218.544 188.245 218.501C188.662 218.454 188.965 218.376 189.154 218.267C189.349 218.158 189.446 217.969 189.446 217.699V217.642C189.446 216.941 189.254 216.397 188.87 216.009C188.492 215.62 187.916 215.426 187.145 215.426C186.344 215.426 185.717 215.601 185.262 215.952C184.808 216.302 184.488 216.676 184.304 217.074L182.713 216.506C182.997 215.843 183.376 215.327 183.849 214.957C184.327 214.583 184.848 214.323 185.412 214.176C185.98 214.025 186.538 213.949 187.088 213.949C187.438 213.949 187.841 213.991 188.295 214.077C188.754 214.157 189.197 214.325 189.623 214.581C190.054 214.837 190.412 215.223 190.696 215.739C190.98 216.255 191.122 216.946 191.122 217.812V225H189.446V223.523H189.36C189.247 223.759 189.057 224.013 188.792 224.283C188.527 224.553 188.174 224.782 187.734 224.972C187.294 225.161 186.756 225.256 186.122 225.256ZM186.378 223.75C187.04 223.75 187.599 223.62 188.054 223.359C188.513 223.099 188.859 222.763 189.091 222.351C189.327 221.939 189.446 221.506 189.446 221.051V219.517C189.375 219.602 189.218 219.68 188.977 219.751C188.74 219.818 188.466 219.877 188.153 219.929C187.845 219.976 187.545 220.019 187.251 220.057C186.962 220.09 186.728 220.118 186.548 220.142C186.112 220.199 185.705 220.291 185.326 220.419C184.952 220.542 184.649 220.729 184.417 220.98C184.19 221.226 184.076 221.562 184.076 221.989C184.076 222.571 184.292 223.011 184.723 223.31C185.158 223.603 185.71 223.75 186.378 223.75ZM195.857 210.455V225H194.181V210.455H195.857ZM208.984 225.227C207.961 225.227 207.081 224.986 206.342 224.503C205.603 224.02 205.035 223.355 204.637 222.507C204.24 221.66 204.041 220.691 204.041 219.602C204.041 218.494 204.244 217.517 204.652 216.669C205.064 215.817 205.636 215.152 206.37 214.673C207.109 214.19 207.971 213.949 208.956 213.949C209.723 213.949 210.414 214.091 211.029 214.375C211.645 214.659 212.149 215.057 212.542 215.568C212.935 216.08 213.179 216.676 213.274 217.358H211.598C211.47 216.861 211.186 216.42 210.745 216.037C210.31 215.649 209.723 215.455 208.984 215.455C208.331 215.455 207.758 215.625 207.265 215.966C206.778 216.302 206.396 216.778 206.122 217.393C205.852 218.004 205.717 218.722 205.717 219.545C205.717 220.388 205.85 221.122 206.115 221.747C206.385 222.372 206.763 222.857 207.251 223.203C207.744 223.549 208.321 223.722 208.984 223.722C209.42 223.722 209.815 223.646 210.17 223.494C210.525 223.343 210.826 223.125 211.072 222.841C211.318 222.557 211.494 222.216 211.598 221.818H213.274C213.179 222.462 212.945 223.042 212.571 223.558C212.201 224.07 211.711 224.477 211.101 224.78C210.494 225.078 209.789 225.227 208.984 225.227ZM220.156 225.227C219.171 225.227 218.307 224.993 217.564 224.524C216.825 224.055 216.247 223.4 215.831 222.557C215.419 221.714 215.213 220.729 215.213 219.602C215.213 218.466 215.419 217.474 215.831 216.626C216.247 215.779 216.825 215.121 217.564 214.652C218.307 214.183 219.171 213.949 220.156 213.949C221.141 213.949 222.003 214.183 222.741 214.652C223.485 215.121 224.062 215.779 224.474 216.626C224.891 217.474 225.099 218.466 225.099 219.602C225.099 220.729 224.891 221.714 224.474 222.557C224.062 223.4 223.485 224.055 222.741 224.524C222.003 224.993 221.141 225.227 220.156 225.227ZM220.156 223.722C220.904 223.722 221.52 223.53 222.003 223.146C222.485 222.763 222.843 222.259 223.075 221.634C223.307 221.009 223.423 220.331 223.423 219.602C223.423 218.873 223.307 218.194 223.075 217.564C222.843 216.934 222.485 216.425 222.003 216.037C221.52 215.649 220.904 215.455 220.156 215.455C219.408 215.455 218.792 215.649 218.309 216.037C217.826 216.425 217.469 216.934 217.237 217.564C217.005 218.194 216.889 218.873 216.889 219.602C216.889 220.331 217.005 221.009 217.237 221.634C217.469 222.259 217.826 222.763 218.309 223.146C218.792 223.53 219.408 223.722 220.156 223.722ZM227.658 225V214.091H229.277V215.795H229.419C229.646 215.213 230.013 214.761 230.52 214.439C231.027 214.112 231.635 213.949 232.345 213.949C233.065 213.949 233.664 214.112 234.142 214.439C234.625 214.761 235.001 215.213 235.271 215.795H235.385C235.664 215.232 236.083 214.785 236.642 214.453C237.201 214.117 237.871 213.949 238.652 213.949C239.627 213.949 240.425 214.254 241.045 214.865C241.666 215.471 241.976 216.416 241.976 217.699V225H240.3V217.699C240.3 216.894 240.08 216.319 239.639 215.973C239.199 215.627 238.68 215.455 238.084 215.455C237.317 215.455 236.723 215.687 236.301 216.151C235.88 216.61 235.669 217.192 235.669 217.898V225H233.965V217.528C233.965 216.908 233.763 216.409 233.361 216.03C232.958 215.646 232.44 215.455 231.805 215.455C231.37 215.455 230.963 215.571 230.584 215.803C230.21 216.035 229.907 216.357 229.675 216.768C229.447 217.176 229.334 217.647 229.334 218.182V225H227.658ZM37.734 238.091V239.511H32.0806V238.091H37.734ZM33.7284 235.477H35.4045V245.875C35.4045 246.348 35.4731 246.704 35.6105 246.94C35.7525 247.172 35.9324 247.329 36.1502 247.409C36.3728 247.485 36.6071 247.523 36.8534 247.523C37.038 247.523 37.1895 247.513 37.3079 247.494C37.4263 247.471 37.521 247.452 37.592 247.438L37.9329 248.943C37.8193 248.986 37.6606 249.028 37.457 249.071C37.2534 249.118 36.9954 249.142 36.6829 249.142C36.2094 249.142 35.7454 249.04 35.2909 248.837C34.841 248.633 34.467 248.323 34.1687 247.906C33.8751 247.49 33.7284 246.964 33.7284 246.33V235.477ZM44.712 249.227C43.6609 249.227 42.7542 248.995 41.9918 248.531C41.2343 248.062 40.6495 247.409 40.2376 246.571C39.8304 245.728 39.6268 244.748 39.6268 243.631C39.6268 242.513 39.8304 241.528 40.2376 240.676C40.6495 239.819 41.2224 239.152 41.9563 238.673C42.695 238.19 43.5567 237.949 44.5416 237.949C45.1097 237.949 45.6708 238.044 46.2248 238.233C46.7788 238.422 47.283 238.73 47.7376 239.156C48.1921 239.578 48.5543 240.136 48.8242 240.832C49.0941 241.528 49.2291 242.385 49.2291 243.403V244.114H40.82V242.665H47.5245C47.5245 242.049 47.4014 241.5 47.1552 241.017C46.9137 240.534 46.5681 240.153 46.1183 239.874C45.6732 239.594 45.1476 239.455 44.5416 239.455C43.874 239.455 43.2963 239.62 42.8086 239.952C42.3257 240.278 41.954 240.705 41.6936 241.23C41.4331 241.756 41.3029 242.319 41.3029 242.92V243.886C41.3029 244.71 41.445 245.409 41.7291 245.982C42.0179 246.55 42.418 246.983 42.9293 247.281C43.4407 247.575 44.0349 247.722 44.712 247.722C45.1524 247.722 45.5501 247.66 45.9052 247.537C46.2651 247.409 46.5752 247.22 46.8356 246.969C47.096 246.713 47.2972 246.396 47.4393 246.017L49.0586 246.472C48.8882 247.021 48.6017 247.504 48.1992 247.92C47.7968 248.332 47.2996 248.654 46.7078 248.886C46.1159 249.114 45.4507 249.227 44.712 249.227ZM53.4549 234.455V249H51.7788V234.455H53.4549ZM61.0987 249.227C60.0476 249.227 59.1409 248.995 58.3786 248.531C57.621 248.062 57.0362 247.409 56.6243 246.571C56.2171 245.728 56.0135 244.748 56.0135 243.631C56.0135 242.513 56.2171 241.528 56.6243 240.676C57.0362 239.819 57.6092 239.152 58.3431 238.673C59.0817 238.19 59.9434 237.949 60.9283 237.949C61.4965 237.949 62.0575 238.044 62.6115 238.233C63.1655 238.422 63.6698 238.73 64.1243 239.156C64.5789 239.578 64.9411 240.136 65.211 240.832C65.4808 241.528 65.6158 242.385 65.6158 243.403V244.114H57.2067V242.665H63.9112C63.9112 242.049 63.7881 241.5 63.5419 241.017C63.3004 240.534 62.9548 240.153 62.505 239.874C62.0599 239.594 61.5343 239.455 60.9283 239.455C60.2607 239.455 59.683 239.62 59.1953 239.952C58.7124 240.278 58.3407 240.705 58.0803 241.23C57.8199 241.756 57.6896 242.319 57.6896 242.92V243.886C57.6896 244.71 57.8317 245.409 58.1158 245.982C58.4046 246.55 58.8047 246.983 59.3161 247.281C59.8274 247.575 60.4217 247.722 61.0987 247.722C61.5391 247.722 61.9368 247.66 62.2919 247.537C62.6518 247.409 62.9619 247.22 63.2223 246.969C63.4827 246.713 63.684 246.396 63.826 246.017L65.4453 246.472C65.2749 247.021 64.9884 247.504 64.586 247.92C64.1835 248.332 63.6863 248.654 63.0945 248.886C62.5026 249.114 61.8374 249.227 61.0987 249.227ZM68.1655 249V238.091H69.7848V239.795H69.9269C70.1541 239.213 70.5211 238.761 71.0277 238.439C71.5343 238.112 72.1428 237.949 72.853 237.949C73.5727 237.949 74.1717 238.112 74.6499 238.439C75.1328 238.761 75.5092 239.213 75.7791 239.795H75.8928C76.1721 239.232 76.5912 238.785 77.1499 238.453C77.7086 238.117 78.3786 237.949 79.1598 237.949C80.1352 237.949 80.933 238.254 81.5533 238.865C82.1735 239.471 82.4837 240.416 82.4837 241.699V249H80.8075V241.699C80.8075 240.894 80.5874 240.319 80.147 239.973C79.7067 239.627 79.1882 239.455 78.5916 239.455C77.8246 239.455 77.2304 239.687 76.809 240.151C76.3876 240.61 76.1769 241.192 76.1769 241.898V249H74.4723V241.528C74.4723 240.908 74.2711 240.409 73.8686 240.03C73.4662 239.646 72.9477 239.455 72.3132 239.455C71.8776 239.455 71.4704 239.571 71.0916 239.803C70.7176 240.035 70.4146 240.357 70.1825 240.768C69.9553 241.176 69.8416 241.647 69.8416 242.182V249H68.1655ZM90.1222 249.227C89.071 249.227 88.1643 248.995 87.402 248.531C86.6444 248.062 86.0597 247.409 85.6477 246.571C85.2405 245.728 85.0369 244.748 85.0369 243.631C85.0369 242.513 85.2405 241.528 85.6477 240.676C86.0597 239.819 86.6326 239.152 87.3665 238.673C88.1051 238.19 88.9669 237.949 89.9517 237.949C90.5199 237.949 91.081 238.044 91.635 238.233C92.1889 238.422 92.6932 238.73 93.1477 239.156C93.6023 239.578 93.9645 240.136 94.2344 240.832C94.5043 241.528 94.6392 242.385 94.6392 243.403V244.114H86.2301V242.665H92.9347C92.9347 242.049 92.8116 241.5 92.5654 241.017C92.3239 240.534 91.9782 240.153 91.5284 239.874C91.0834 239.594 90.5578 239.455 89.9517 239.455C89.2841 239.455 88.7065 239.62 88.2188 239.952C87.7358 240.278 87.3641 240.705 87.1037 241.23C86.8433 241.756 86.7131 242.319 86.7131 242.92V243.886C86.7131 244.71 86.8551 245.409 87.1392 245.982C87.428 246.55 87.8281 246.983 88.3395 247.281C88.8509 247.575 89.4451 247.722 90.1222 247.722C90.5625 247.722 90.9602 247.66 91.3154 247.537C91.6752 247.409 91.9853 247.22 92.2458 246.969C92.5062 246.713 92.7074 246.396 92.8494 246.017L94.4688 246.472C94.2983 247.021 94.0119 247.504 93.6094 247.92C93.2069 248.332 92.7098 248.654 92.1179 248.886C91.5261 249.114 90.8608 249.227 90.1222 249.227ZM101.308 249.227C100.399 249.227 99.5966 248.998 98.9006 248.538C98.2046 248.074 97.6601 247.421 97.2671 246.578C96.8741 245.731 96.6776 244.729 96.6776 243.574C96.6776 242.428 96.8741 241.434 97.2671 240.591C97.6601 239.748 98.2069 239.097 98.9077 238.638C99.6084 238.179 100.418 237.949 101.337 237.949C102.047 237.949 102.608 238.067 103.02 238.304C103.437 238.536 103.754 238.801 103.972 239.099C104.194 239.393 104.367 239.634 104.49 239.824H104.632V234.455H106.308V249H104.689V247.324H104.49C104.367 247.523 104.192 247.774 103.965 248.077C103.737 248.375 103.413 248.643 102.991 248.879C102.57 249.111 102.009 249.227 101.308 249.227ZM101.536 247.722C102.208 247.722 102.776 247.546 103.24 247.196C103.704 246.841 104.057 246.351 104.298 245.726C104.54 245.096 104.661 244.369 104.661 243.545C104.661 242.731 104.542 242.018 104.305 241.408C104.069 240.792 103.718 240.314 103.254 239.973C102.79 239.627 102.217 239.455 101.536 239.455C100.825 239.455 100.233 239.637 99.76 240.001C99.2912 240.361 98.9385 240.851 98.7017 241.472C98.4697 242.087 98.3537 242.778 98.3537 243.545C98.3537 244.322 98.4721 245.027 98.7088 245.662C98.9503 246.292 99.3054 246.794 99.7742 247.168C100.248 247.537 100.835 247.722 101.536 247.722ZM109.611 249V238.091H111.287V249H109.611ZM110.463 236.273C110.136 236.273 109.855 236.161 109.618 235.939C109.386 235.716 109.27 235.449 109.27 235.136C109.27 234.824 109.386 234.556 109.618 234.334C109.855 234.111 110.136 234 110.463 234C110.79 234 111.069 234.111 111.301 234.334C111.538 234.556 111.656 234.824 111.656 235.136C111.656 235.449 111.538 235.716 111.301 235.939C111.069 236.161 110.79 236.273 110.463 236.273ZM118.789 249.227C117.766 249.227 116.885 248.986 116.147 248.503C115.408 248.02 114.84 247.355 114.442 246.507C114.044 245.66 113.846 244.691 113.846 243.602C113.846 242.494 114.049 241.517 114.456 240.669C114.868 239.817 115.441 239.152 116.175 238.673C116.914 238.19 117.775 237.949 118.76 237.949C119.527 237.949 120.219 238.091 120.834 238.375C121.45 238.659 121.954 239.057 122.347 239.568C122.74 240.08 122.984 240.676 123.078 241.358H121.402C121.275 240.861 120.99 240.42 120.55 240.037C120.114 239.649 119.527 239.455 118.789 239.455C118.135 239.455 117.562 239.625 117.07 239.966C116.582 240.302 116.201 240.778 115.927 241.393C115.657 242.004 115.522 242.722 115.522 243.545C115.522 244.388 115.654 245.122 115.919 245.747C116.189 246.372 116.568 246.857 117.056 247.203C117.548 247.549 118.126 247.722 118.789 247.722C119.224 247.722 119.62 247.646 119.975 247.494C120.33 247.343 120.631 247.125 120.877 246.841C121.123 246.557 121.298 246.216 121.402 245.818H123.078C122.984 246.462 122.749 247.042 122.375 247.558C122.006 248.07 121.516 248.477 120.905 248.78C120.299 249.078 119.594 249.227 118.789 249.227ZM125.529 249V238.091H127.205V249H125.529ZM126.381 236.273C126.054 236.273 125.773 236.161 125.536 235.939C125.304 235.716 125.188 235.449 125.188 235.136C125.188 234.824 125.304 234.556 125.536 234.334C125.773 234.111 126.054 234 126.381 234C126.708 234 126.987 234.111 127.219 234.334C127.456 234.556 127.574 234.824 127.574 235.136C127.574 235.449 127.456 235.716 127.219 235.939C126.987 236.161 126.708 236.273 126.381 236.273ZM131.951 242.438V249H130.275V238.091H131.894V239.795H132.036C132.292 239.241 132.68 238.796 133.201 238.46C133.722 238.119 134.394 237.949 135.218 237.949C135.957 237.949 136.603 238.1 137.157 238.403C137.711 238.702 138.142 239.156 138.45 239.767C138.757 240.373 138.911 241.14 138.911 242.068V249H137.235V242.182C137.235 241.325 137.013 240.657 136.567 240.179C136.122 239.696 135.512 239.455 134.735 239.455C134.2 239.455 133.722 239.571 133.3 239.803C132.884 240.035 132.555 240.373 132.313 240.818C132.072 241.263 131.951 241.803 131.951 242.438ZM145.184 249.256C144.493 249.256 143.866 249.125 143.302 248.865C142.739 248.6 142.291 248.219 141.96 247.722C141.628 247.22 141.463 246.614 141.463 245.903C141.463 245.278 141.586 244.772 141.832 244.384C142.078 243.991 142.407 243.683 142.819 243.46C143.231 243.238 143.686 243.072 144.183 242.963C144.685 242.849 145.189 242.759 145.696 242.693C146.359 242.608 146.896 242.544 147.308 242.501C147.725 242.454 148.028 242.376 148.217 242.267C148.411 242.158 148.508 241.969 148.508 241.699V241.642C148.508 240.941 148.316 240.397 147.933 240.009C147.554 239.62 146.979 239.426 146.207 239.426C145.407 239.426 144.779 239.601 144.325 239.952C143.87 240.302 143.551 240.676 143.366 241.074L141.775 240.506C142.059 239.843 142.438 239.327 142.912 238.957C143.39 238.583 143.911 238.323 144.474 238.176C145.042 238.025 145.601 237.949 146.15 237.949C146.501 237.949 146.903 237.991 147.358 238.077C147.817 238.157 148.26 238.325 148.686 238.581C149.117 238.837 149.474 239.223 149.758 239.739C150.042 240.255 150.184 240.946 150.184 241.812V249H148.508V247.523H148.423C148.309 247.759 148.12 248.013 147.855 248.283C147.59 248.553 147.237 248.782 146.797 248.972C146.356 249.161 145.819 249.256 145.184 249.256ZM145.44 247.75C146.103 247.75 146.662 247.62 147.116 247.359C147.575 247.099 147.921 246.763 148.153 246.351C148.39 245.939 148.508 245.506 148.508 245.051V243.517C148.437 243.602 148.281 243.68 148.039 243.751C147.803 243.818 147.528 243.877 147.216 243.929C146.908 243.976 146.607 244.019 146.314 244.057C146.025 244.09 145.79 244.118 145.61 244.142C145.175 244.199 144.768 244.291 144.389 244.419C144.015 244.542 143.712 244.729 143.48 244.98C143.253 245.226 143.139 245.562 143.139 245.989C143.139 246.571 143.354 247.011 143.785 247.31C144.221 247.603 144.772 247.75 145.44 247.75ZM163.442 249.227C162.391 249.227 161.485 248.995 160.722 248.531C159.965 248.062 159.38 247.409 158.968 246.571C158.561 245.728 158.357 244.748 158.357 243.631C158.357 242.513 158.561 241.528 158.968 240.676C159.38 239.819 159.953 239.152 160.687 238.673C161.425 238.19 162.287 237.949 163.272 237.949C163.84 237.949 164.401 238.044 164.955 238.233C165.509 238.422 166.014 238.73 166.468 239.156C166.923 239.578 167.285 240.136 167.555 240.832C167.825 241.528 167.96 242.385 167.96 243.403V244.114H159.55V242.665H166.255C166.255 242.049 166.132 241.5 165.886 241.017C165.644 240.534 165.299 240.153 164.849 239.874C164.404 239.594 163.878 239.455 163.272 239.455C162.604 239.455 162.027 239.62 161.539 239.952C161.056 240.278 160.684 240.705 160.424 241.23C160.164 241.756 160.033 242.319 160.033 242.92V243.886C160.033 244.71 160.175 245.409 160.46 245.982C160.748 246.55 161.148 246.983 161.66 247.281C162.171 247.575 162.765 247.722 163.442 247.722C163.883 247.722 164.281 247.66 164.636 247.537C164.996 247.409 165.306 247.22 165.566 246.969C165.826 246.713 166.028 246.396 166.17 246.017L167.789 246.472C167.619 247.021 167.332 247.504 166.93 247.92C166.527 248.332 166.03 248.654 165.438 248.886C164.846 249.114 164.181 249.227 163.442 249.227ZM180.538 253.318C179.728 253.318 179.032 253.214 178.45 253.006C177.867 252.802 177.382 252.532 176.994 252.196C176.61 251.865 176.305 251.509 176.077 251.131L177.413 250.193C177.564 250.392 177.756 250.619 177.988 250.875C178.22 251.135 178.537 251.36 178.94 251.55C179.347 251.744 179.88 251.841 180.538 251.841C181.418 251.841 182.145 251.628 182.718 251.202C183.291 250.776 183.577 250.108 183.577 249.199V246.983H183.435C183.312 247.182 183.137 247.428 182.91 247.722C182.687 248.01 182.365 248.268 181.944 248.496C181.527 248.718 180.964 248.83 180.254 248.83C179.373 248.83 178.582 248.621 177.881 248.205C177.185 247.788 176.634 247.182 176.227 246.386C175.824 245.591 175.623 244.625 175.623 243.489C175.623 242.371 175.819 241.398 176.212 240.57C176.605 239.736 177.152 239.092 177.853 238.638C178.554 238.179 179.363 237.949 180.282 237.949C180.992 237.949 181.556 238.067 181.972 238.304C182.394 238.536 182.716 238.801 182.938 239.099C183.165 239.393 183.341 239.634 183.464 239.824H183.634V238.091H185.254V249.312C185.254 250.25 185.041 251.012 184.614 251.599C184.193 252.191 183.625 252.625 182.91 252.899C182.2 253.179 181.409 253.318 180.538 253.318ZM180.481 247.324C181.153 247.324 181.721 247.17 182.185 246.862C182.649 246.554 183.002 246.112 183.244 245.534C183.485 244.956 183.606 244.265 183.606 243.46C183.606 242.674 183.487 241.981 183.251 241.379C183.014 240.778 182.664 240.307 182.2 239.966C181.736 239.625 181.163 239.455 180.481 239.455C179.771 239.455 179.179 239.634 178.705 239.994C178.237 240.354 177.884 240.837 177.647 241.443C177.415 242.049 177.299 242.722 177.299 243.46C177.299 244.218 177.417 244.888 177.654 245.47C177.896 246.048 178.251 246.502 178.719 246.834C179.193 247.161 179.78 247.324 180.481 247.324ZM192.896 249.227C191.844 249.227 190.938 248.995 190.175 248.531C189.418 248.062 188.833 247.409 188.421 246.571C188.014 245.728 187.81 244.748 187.81 243.631C187.81 242.513 188.014 241.528 188.421 240.676C188.833 239.819 189.406 239.152 190.14 238.673C190.879 238.19 191.74 237.949 192.725 237.949C193.293 237.949 193.854 238.044 194.408 238.233C194.962 238.422 195.467 238.73 195.921 239.156C196.376 239.578 196.738 240.136 197.008 240.832C197.278 241.528 197.413 242.385 197.413 243.403V244.114H189.004V242.665H195.708C195.708 242.049 195.585 241.5 195.339 241.017C195.097 240.534 194.752 240.153 194.302 239.874C193.857 239.594 193.331 239.455 192.725 239.455C192.058 239.455 191.48 239.62 190.992 239.952C190.509 240.278 190.138 240.705 189.877 241.23C189.617 241.756 189.487 242.319 189.487 242.92V243.886C189.487 244.71 189.629 245.409 189.913 245.982C190.201 246.55 190.602 246.983 191.113 247.281C191.624 247.575 192.219 247.722 192.896 247.722C193.336 247.722 193.734 247.66 194.089 247.537C194.449 247.409 194.759 247.22 195.019 246.969C195.28 246.713 195.481 246.396 195.623 246.017L197.242 246.472C197.072 247.021 196.785 247.504 196.383 247.92C195.98 248.332 195.483 248.654 194.891 248.886C194.299 249.114 193.634 249.227 192.896 249.227ZM207.69 240.534L206.184 240.96C206.089 240.709 205.95 240.465 205.765 240.229C205.585 239.987 205.339 239.788 205.026 239.632C204.714 239.476 204.314 239.398 203.826 239.398C203.158 239.398 202.602 239.552 202.157 239.859C201.717 240.162 201.496 240.548 201.496 241.017C201.496 241.434 201.648 241.763 201.951 242.004C202.254 242.246 202.728 242.447 203.371 242.608L204.991 243.006C205.966 243.242 206.693 243.605 207.171 244.092C207.649 244.575 207.889 245.198 207.889 245.96C207.889 246.585 207.709 247.144 207.349 247.636C206.994 248.129 206.496 248.517 205.857 248.801C205.218 249.085 204.475 249.227 203.627 249.227C202.514 249.227 201.594 248.986 200.864 248.503C200.135 248.02 199.674 247.314 199.479 246.386L201.07 245.989C201.222 246.576 201.508 247.016 201.93 247.31C202.356 247.603 202.912 247.75 203.599 247.75C204.38 247.75 205 247.584 205.46 247.253C205.924 246.917 206.156 246.514 206.156 246.045C206.156 245.667 206.023 245.349 205.758 245.094C205.493 244.833 205.085 244.639 204.536 244.511L202.718 244.085C201.719 243.848 200.985 243.482 200.516 242.984C200.052 242.482 199.82 241.855 199.82 241.102C199.82 240.487 199.993 239.942 200.339 239.469C200.689 238.995 201.165 238.624 201.766 238.354C202.372 238.084 203.059 237.949 203.826 237.949C204.906 237.949 205.753 238.186 206.369 238.659C206.989 239.133 207.429 239.758 207.69 240.534ZM215.156 238.091V239.511H209.503V238.091H215.156ZM211.15 235.477H212.826V245.875C212.826 246.348 212.895 246.704 213.032 246.94C213.174 247.172 213.354 247.329 213.572 247.409C213.795 247.485 214.029 247.523 214.275 247.523C214.46 247.523 214.611 247.513 214.73 247.494C214.848 247.471 214.943 247.452 215.014 247.438L215.355 248.943C215.241 248.986 215.083 249.028 214.879 249.071C214.675 249.118 214.417 249.142 214.105 249.142C213.631 249.142 213.167 249.04 212.713 248.837C212.263 248.633 211.889 248.323 211.591 247.906C211.297 247.49 211.15 246.964 211.15 246.33V235.477ZM220.887 249.256C220.196 249.256 219.569 249.125 219.005 248.865C218.442 248.6 217.994 248.219 217.663 247.722C217.332 247.22 217.166 246.614 217.166 245.903C217.166 245.278 217.289 244.772 217.535 244.384C217.781 243.991 218.11 243.683 218.522 243.46C218.934 243.238 219.389 243.072 219.886 242.963C220.388 242.849 220.892 242.759 221.399 242.693C222.062 242.608 222.599 242.544 223.011 242.501C223.428 242.454 223.731 242.376 223.92 242.267C224.114 242.158 224.211 241.969 224.211 241.699V241.642C224.211 240.941 224.02 240.397 223.636 240.009C223.257 239.62 222.682 239.426 221.91 239.426C221.11 239.426 220.483 239.601 220.028 239.952C219.574 240.302 219.254 240.676 219.069 241.074L217.478 240.506C217.762 239.843 218.141 239.327 218.615 238.957C219.093 238.583 219.614 238.323 220.177 238.176C220.745 238.025 221.304 237.949 221.853 237.949C222.204 237.949 222.606 237.991 223.061 238.077C223.52 238.157 223.963 238.325 224.389 238.581C224.82 238.837 225.177 239.223 225.461 239.739C225.745 240.255 225.887 240.946 225.887 241.812V249H224.211V247.523H224.126C224.012 247.759 223.823 248.013 223.558 248.283C223.293 248.553 222.94 248.782 222.5 248.972C222.059 249.161 221.522 249.256 220.887 249.256ZM221.143 247.75C221.806 247.75 222.365 247.62 222.819 247.359C223.279 247.099 223.624 246.763 223.856 246.351C224.093 245.939 224.211 245.506 224.211 245.051V243.517C224.14 243.602 223.984 243.68 223.743 243.751C223.506 243.818 223.231 243.877 222.919 243.929C222.611 243.976 222.31 244.019 222.017 244.057C221.728 244.09 221.494 244.118 221.314 244.142C220.878 244.199 220.471 244.291 220.092 244.419C219.718 244.542 219.415 244.729 219.183 244.98C218.956 245.226 218.842 245.562 218.842 245.989C218.842 246.571 219.057 247.011 219.488 247.31C219.924 247.603 220.476 247.75 221.143 247.75ZM219.779 236.784L218.473 236.727C218.473 236.003 218.679 235.411 219.091 234.952C219.507 234.488 220.021 234.256 220.632 234.256C220.902 234.256 221.141 234.303 221.349 234.398C221.557 234.488 221.756 234.592 221.946 234.71C222.135 234.829 222.329 234.935 222.528 235.03C222.732 235.12 222.961 235.165 223.217 235.165C223.487 235.165 223.714 235.061 223.899 234.852C224.088 234.639 224.183 234.384 224.183 234.085L225.461 234.199C225.461 234.937 225.253 235.525 224.836 235.96C224.424 236.396 223.913 236.614 223.302 236.614C222.976 236.614 222.706 236.569 222.493 236.479C222.279 236.384 222.09 236.277 221.924 236.159C221.759 236.041 221.583 235.937 221.399 235.847C221.214 235.752 220.987 235.705 220.717 235.705C220.447 235.705 220.222 235.811 220.042 236.024C219.867 236.232 219.779 236.486 219.779 236.784ZM233.379 249.227C232.394 249.227 231.53 248.993 230.786 248.524C230.048 248.055 229.47 247.4 229.053 246.557C228.641 245.714 228.435 244.729 228.435 243.602C228.435 242.466 228.641 241.474 229.053 240.626C229.47 239.779 230.048 239.121 230.786 238.652C231.53 238.183 232.394 237.949 233.379 237.949C234.363 237.949 235.225 238.183 235.964 238.652C236.707 239.121 237.285 239.779 237.697 240.626C238.113 241.474 238.322 242.466 238.322 243.602C238.322 244.729 238.113 245.714 237.697 246.557C237.285 247.4 236.707 248.055 235.964 248.524C235.225 248.993 234.363 249.227 233.379 249.227ZM233.379 247.722C234.127 247.722 234.742 247.53 235.225 247.146C235.708 246.763 236.066 246.259 236.298 245.634C236.53 245.009 236.646 244.331 236.646 243.602C236.646 242.873 236.53 242.194 236.298 241.564C236.066 240.934 235.708 240.425 235.225 240.037C234.742 239.649 234.127 239.455 233.379 239.455C232.63 239.455 232.015 239.649 231.532 240.037C231.049 240.425 230.692 240.934 230.46 241.564C230.228 242.194 230.112 242.873 230.112 243.602C230.112 244.331 230.228 245.009 230.46 245.634C230.692 246.259 231.049 246.763 231.532 247.146C232.015 247.53 232.63 247.722 233.379 247.722ZM250.625 249.227C249.716 249.227 248.913 248.998 248.217 248.538C247.521 248.074 246.976 247.421 246.583 246.578C246.19 245.731 245.994 244.729 245.994 243.574C245.994 242.428 246.19 241.434 246.583 240.591C246.976 239.748 247.523 239.097 248.224 238.638C248.925 238.179 249.735 237.949 250.653 237.949C251.363 237.949 251.924 238.067 252.336 238.304C252.753 238.536 253.07 238.801 253.288 239.099C253.511 239.393 253.683 239.634 253.806 239.824H253.949V234.455H255.625V249H254.005V247.324H253.806C253.683 247.523 253.508 247.774 253.281 248.077C253.054 248.375 252.729 248.643 252.308 248.879C251.886 249.111 251.325 249.227 250.625 249.227ZM250.852 247.722C251.524 247.722 252.092 247.546 252.556 247.196C253.02 246.841 253.373 246.351 253.615 245.726C253.856 245.096 253.977 244.369 253.977 243.545C253.977 242.731 253.859 242.018 253.622 241.408C253.385 240.792 253.035 240.314 252.571 239.973C252.107 239.627 251.534 239.455 250.852 239.455C250.142 239.455 249.55 239.637 249.076 240.001C248.608 240.361 248.255 240.851 248.018 241.472C247.786 242.087 247.67 242.778 247.67 243.545C247.67 244.322 247.788 245.027 248.025 245.662C248.267 246.292 248.622 246.794 249.091 247.168C249.564 247.537 250.151 247.722 250.852 247.722ZM263.501 249.227C262.45 249.227 261.543 248.995 260.781 248.531C260.023 248.062 259.439 247.409 259.027 246.571C258.619 245.728 258.416 244.748 258.416 243.631C258.416 242.513 258.619 241.528 259.027 240.676C259.439 239.819 260.011 239.152 260.745 238.673C261.484 238.19 262.346 237.949 263.331 237.949C263.899 237.949 264.46 238.044 265.014 238.233C265.568 238.422 266.072 238.73 266.527 239.156C266.981 239.578 267.343 240.136 267.613 240.832C267.883 241.528 268.018 242.385 268.018 243.403V244.114H259.609V242.665H266.314C266.314 242.049 266.19 241.5 265.944 241.017C265.703 240.534 265.357 240.153 264.907 239.874C264.462 239.594 263.937 239.455 263.331 239.455C262.663 239.455 262.085 239.62 261.598 239.952C261.115 240.278 260.743 240.705 260.483 241.23C260.222 241.756 260.092 242.319 260.092 242.92V243.886C260.092 244.71 260.234 245.409 260.518 245.982C260.807 246.55 261.207 246.983 261.718 247.281C262.23 247.575 262.824 247.722 263.501 247.722C263.941 247.722 264.339 247.66 264.694 247.537C265.054 247.409 265.364 247.22 265.625 246.969C265.885 246.713 266.086 246.396 266.228 246.017L267.848 246.472C267.677 247.021 267.391 247.504 266.988 247.92C266.586 248.332 266.089 248.654 265.497 248.886C264.905 249.114 264.24 249.227 263.501 249.227ZM130.805 264.534L129.299 264.96C129.205 264.709 129.065 264.465 128.88 264.229C128.7 263.987 128.454 263.788 128.142 263.632C127.829 263.476 127.429 263.398 126.941 263.398C126.274 263.398 125.717 263.552 125.272 263.859C124.832 264.162 124.612 264.548 124.612 265.017C124.612 265.434 124.763 265.763 125.066 266.004C125.369 266.246 125.843 266.447 126.487 266.608L128.106 267.006C129.081 267.242 129.808 267.605 130.286 268.092C130.765 268.575 131.004 269.198 131.004 269.96C131.004 270.585 130.824 271.144 130.464 271.636C130.109 272.129 129.612 272.517 128.972 272.801C128.333 273.085 127.59 273.227 126.742 273.227C125.63 273.227 124.709 272.986 123.98 272.503C123.25 272.02 122.789 271.314 122.595 270.386L124.186 269.989C124.337 270.576 124.624 271.016 125.045 271.31C125.471 271.603 126.027 271.75 126.714 271.75C127.495 271.75 128.115 271.584 128.575 271.253C129.039 270.917 129.271 270.514 129.271 270.045C129.271 269.667 129.138 269.349 128.873 269.094C128.608 268.833 128.201 268.639 127.651 268.511L125.833 268.085C124.834 267.848 124.1 267.482 123.632 266.984C123.168 266.482 122.936 265.855 122.936 265.102C122.936 264.487 123.108 263.942 123.454 263.469C123.804 262.995 124.28 262.624 124.882 262.354C125.488 262.084 126.174 261.949 126.941 261.949C128.021 261.949 128.868 262.186 129.484 262.659C130.104 263.133 130.544 263.758 130.805 264.534ZM136.737 273.256C136.046 273.256 135.418 273.125 134.855 272.865C134.292 272.6 133.844 272.219 133.513 271.722C133.181 271.22 133.015 270.614 133.015 269.903C133.015 269.278 133.139 268.772 133.385 268.384C133.631 267.991 133.96 267.683 134.372 267.46C134.784 267.238 135.238 267.072 135.736 266.963C136.238 266.849 136.742 266.759 137.248 266.693C137.911 266.608 138.449 266.544 138.861 266.501C139.277 266.454 139.58 266.376 139.77 266.267C139.964 266.158 140.061 265.969 140.061 265.699V265.642C140.061 264.941 139.869 264.397 139.486 264.009C139.107 263.62 138.532 263.426 137.76 263.426C136.96 263.426 136.332 263.601 135.878 263.952C135.423 264.302 135.104 264.676 134.919 265.074L133.328 264.506C133.612 263.843 133.991 263.327 134.464 262.957C134.943 262.583 135.463 262.323 136.027 262.176C136.595 262.025 137.154 261.949 137.703 261.949C138.053 261.949 138.456 261.991 138.91 262.077C139.37 262.157 139.812 262.325 140.238 262.581C140.669 262.837 141.027 263.223 141.311 263.739C141.595 264.255 141.737 264.946 141.737 265.812V273H140.061V271.523H139.976C139.862 271.759 139.673 272.013 139.408 272.283C139.142 272.553 138.79 272.782 138.349 272.972C137.909 273.161 137.372 273.256 136.737 273.256ZM136.993 271.75C137.656 271.75 138.214 271.62 138.669 271.359C139.128 271.099 139.474 270.763 139.706 270.351C139.943 269.939 140.061 269.506 140.061 269.051V267.517C139.99 267.602 139.834 267.68 139.592 267.751C139.355 267.818 139.081 267.877 138.768 267.929C138.461 267.976 138.16 268.019 137.866 268.057C137.577 268.09 137.343 268.118 137.163 268.142C136.728 268.199 136.32 268.291 135.942 268.419C135.568 268.542 135.265 268.729 135.033 268.98C134.805 269.226 134.692 269.562 134.692 269.989C134.692 270.571 134.907 271.011 135.338 271.31C135.774 271.603 136.325 271.75 136.993 271.75ZM151.671 268.54V262.091H153.347V273H151.671V271.153H151.558C151.302 271.707 150.904 272.179 150.365 272.567C149.825 272.95 149.143 273.142 148.319 273.142C147.637 273.142 147.031 272.993 146.501 272.695C145.971 272.392 145.554 271.937 145.251 271.331C144.948 270.72 144.796 269.951 144.796 269.023V262.091H146.472V268.909C146.472 269.705 146.695 270.339 147.14 270.812C147.59 271.286 148.163 271.523 148.859 271.523C149.276 271.523 149.699 271.416 150.13 271.203C150.566 270.99 150.93 270.663 151.224 270.223C151.522 269.783 151.671 269.222 151.671 268.54ZM148.319 260.614L150.052 257.318H152.012L149.796 260.614H148.319ZM160.537 273.227C159.628 273.227 158.825 272.998 158.129 272.538C157.433 272.074 156.889 271.421 156.496 270.578C156.103 269.731 155.906 268.729 155.906 267.574C155.906 266.428 156.103 265.434 156.496 264.591C156.889 263.748 157.435 263.097 158.136 262.638C158.837 262.179 159.647 261.949 160.565 261.949C161.275 261.949 161.836 262.067 162.248 262.304C162.665 262.536 162.982 262.801 163.2 263.099C163.423 263.393 163.595 263.634 163.719 263.824H163.861V258.455H165.537V273H163.917V271.324H163.719C163.595 271.523 163.42 271.774 163.193 272.077C162.966 272.375 162.641 272.643 162.22 272.879C161.799 273.111 161.238 273.227 160.537 273.227ZM160.764 271.722C161.436 271.722 162.005 271.546 162.469 271.196C162.933 270.841 163.285 270.351 163.527 269.726C163.768 269.096 163.889 268.369 163.889 267.545C163.889 266.731 163.771 266.018 163.534 265.408C163.297 264.792 162.947 264.314 162.483 263.973C162.019 263.627 161.446 263.455 160.764 263.455C160.054 263.455 159.462 263.637 158.988 264.001C158.52 264.361 158.167 264.851 157.93 265.472C157.698 266.087 157.582 266.778 157.582 267.545C157.582 268.322 157.701 269.027 157.937 269.662C158.179 270.292 158.534 270.794 159.003 271.168C159.476 271.537 160.063 271.722 160.764 271.722ZM173.413 273.227C172.362 273.227 171.455 272.995 170.693 272.531C169.935 272.062 169.351 271.409 168.939 270.571C168.532 269.728 168.328 268.748 168.328 267.631C168.328 266.513 168.532 265.528 168.939 264.676C169.351 263.819 169.924 263.152 170.658 262.673C171.396 262.19 172.258 261.949 173.243 261.949C173.811 261.949 174.372 262.044 174.926 262.233C175.48 262.422 175.984 262.73 176.439 263.156C176.893 263.578 177.256 264.136 177.525 264.832C177.795 265.528 177.93 266.385 177.93 267.403V268.114H169.521V266.665H176.226C176.226 266.049 176.103 265.5 175.856 265.017C175.615 264.534 175.269 264.153 174.819 263.874C174.374 263.594 173.849 263.455 173.243 263.455C172.575 263.455 171.997 263.62 171.51 263.952C171.027 264.278 170.655 264.705 170.395 265.23C170.134 265.756 170.004 266.319 170.004 266.92V267.886C170.004 268.71 170.146 269.409 170.43 269.982C170.719 270.55 171.119 270.983 171.631 271.281C172.142 271.575 172.736 271.722 173.413 271.722C173.854 271.722 174.251 271.66 174.606 271.537C174.966 271.409 175.276 271.22 175.537 270.969C175.797 270.713 175.998 270.396 176.14 270.017L177.76 270.472C177.589 271.021 177.303 271.504 176.9 271.92C176.498 272.332 176.001 272.654 175.409 272.886C174.817 273.114 174.152 273.227 173.413 273.227Z" fill="#3D3D3D"/>
</svg>